<?xml version="1.0" encoding="UTF-8" standalone="no"?><svg xmlns="http://www.w3.org/2000/svg" xmlns:xlink="http://www.w3.org/1999/xlink" clip-rule="evenodd" stroke-miterlimit="4.00" viewBox="0 0 1024 768"><desc>SVG generated by Keynote</desc><defs></defs><g transform="matrix(1.00, 0.00, -0.00, -1.00, 0.0, 768.0)"><path d="M 0.0 768.0 L 1024.0 768.0 L 1024.0 0.0 L 0.0 0.0 Z M 0.0 768.0 " fill="#FEFFFE"></path><text xml:space="preserve" font-family="HelveticaNeue-Light" font-size="36.0" fill="#000000" transform="matrix(1.00, 0.00, -0.00, -1.00, 881.0, 392.0)">d</text><text xml:space="preserve" font-family="HelveticaNeue-Light" font-size="36.0" fill="#000000" transform="matrix(1.00, 0.00, -0.00, -1.00, 901.7, 392.0)">e</text><text xml:space="preserve" font-family="HelveticaNeue-Light" font-size="36.0" fill="#000000" transform="matrix(1.00, 0.00, -0.00, -1.00, 920.3, 392.0)">s</text><text xml:space="preserve" font-family="HelveticaNeue-Light" font-size="36.0" fill="#000000" transform="matrix(1.00, 0.00, -0.00, -1.00, 937.7, 392.0)">i</text><text xml:space="preserve" font-family="HelveticaNeue-Light" font-size="36.0" fill="#000000" transform="matrix(1.00, 0.00, -0.00, -1.00, 944.3, 392.0)">g</text><text xml:space="preserve" font-family="HelveticaNeue-Light" font-size="36.0" fill="#000000" transform="matrix(1.00, 0.00, -0.00, -1.00, 964.3, 392.0)">n</text><text xml:space="preserve" font-family="HelveticaNeue-Light" font-size="36.0" fill="#000000" transform="matrix(1.00, 0.00, -0.00, -1.00, 983.7, 392.0)"> </text><text xml:space="preserve" font-family="HelveticaNeue-Light" font-size="36.0" fill="#000000" transform="matrix(1.00, 0.00, -0.00, -1.00, 877.0, 348.0)">s</text><text xml:space="preserve" font-family="HelveticaNeue-Light" font-size="36.0" fill="#000000" transform="matrix(1.00, 0.00, -0.00, -1.00, 894.3, 348.0)">t</text><text xml:space="preserve" font-family="HelveticaNeue-Light" font-size="36.0" fill="#000000" transform="matrix(1.00, 0.00, -0.00, -1.00, 905.0, 348.0)">u</text><text xml:space="preserve" font-family="HelveticaNeue-Light" font-size="36.0" fill="#000000" transform="matrix(1.00, 0.00, -0.00, -1.00, 924.3, 348.0)">d</text><text xml:space="preserve" font-family="HelveticaNeue-Light" font-size="36.0" fill="#000000" transform="matrix(1.00, 0.00, -0.00, -1.00, 945.0, 348.0)">i</text><text xml:space="preserve" font-family="HelveticaNeue-Light" font-size="36.0" fill="#000000" transform="matrix(1.00, 0.00, -0.00, -1.00, 951.6, 348.0)">e</text><text xml:space="preserve" font-family="HelveticaNeue-Light" font-size="36.0" fill="#000000" transform="matrix(1.00, 0.00, -0.00, -1.00, 970.3, 348.0)">s</text><g><clipPath id="clip-314"><path d="M 713.0 241.0 L 872.0 241.0 L 872.0 527.0 L 713.0 527.0 Z M 713.0 241.0 "></path></clipPath><g clip-path="url(#clip-314)"><path d="M 682.0 322.3 C 678.8 322.7 668.4 324.0 664.1 320.6 C 655.5 313.8 648.4 302.1 644.4 289.7 C 642.2 282.8 637.5 261.8 633.3 253.6 C 625.0 237.4 609.9 222.9 596.0 218.3 C 586.6 215.2 573.9 215.7 565.0 216.3 " fill="none" stroke="#000000" stroke-width="2.50" stroke-miterlimit="1.41" stroke-linejoin="round" transform="matrix(1.31, 0.00, 0.00, -1.31, -24.6, 807.0)"></path><path d="M 682.0 322.3 C 675.1 323.1 668.7 323.4 662.3 319.3 C 648.7 310.4 642.1 289.4 630.0 278.3 C 623.8 272.6 601.0 260.0 596.0 258.2 C 586.6 255.0 574.0 255.0 565.0 255.3 " fill="none" stroke="#000000" stroke-width="2.50" stroke-miterlimit="1.41" stroke-linejoin="round" transform="matrix(1.31, 0.00, 0.00, -1.31, -24.6, 807.0)"></path><path d="M 682.0 322.3 C 675.4 323.0 667.7 323.7 661.0 321.4 C 653.0 318.6 645.9 309.9 638.5 305.3 C 631.9 301.2 585.6 286.6 565.0 288.9 " fill="none" stroke="#000000" stroke-width="2.50" stroke-miterlimit="1.41" stroke-linejoin="round" transform="matrix(1.31, 0.00, 0.00, -1.31, -24.6, 807.0)"></path><path d="M 682.0 323.4 C 678.8 323.0 668.4 321.6 664.1 325.0 C 655.5 331.8 648.4 343.6 644.4 356.0 C 642.2 362.9 637.5 383.8 633.3 392.1 C 625.0 408.3 609.9 422.7 596.0 427.4 C 586.6 430.5 573.9 430.0 565.0 429.4 " fill="none" stroke="#000000" stroke-width="2.50" stroke-miterlimit="1.41" stroke-linejoin="round" transform="matrix(1.31, 0.00, 0.00, -1.31, -24.6, 807.0)"></path><path d="M 682.0 323.4 C 675.1 322.6 668.7 322.3 662.3 326.4 C 648.7 335.2 642.1 356.2 630.0 367.4 C 623.8 373.1 601.0 385.7 596.0 387.5 C 586.6 390.7 574.0 390.7 565.0 390.4 " fill="none" stroke="#000000" stroke-width="2.50" stroke-miterlimit="1.41" stroke-linejoin="round" transform="matrix(1.31, 0.00, 0.00, -1.31, -24.6, 807.0)"></path><path d="M 682.0 323.4 C 674.2 322.5 668.7 322.1 661.0 324.3 C 652.9 326.6 645.7 335.8 638.5 340.4 C 633.0 343.8 585.3 359.0 565.0 356.7 " fill="none" stroke="#000000" stroke-width="2.50" stroke-miterlimit="1.41" stroke-linejoin="round" transform="matrix(1.31, 0.00, 0.00, -1.31, -24.6, 807.0)"></path><path d="M 682.0 323.0 C 643.0 322.9 604.0 322.8 565.0 322.7 " fill="none" stroke="#000000" stroke-width="2.50" stroke-miterlimit="1.41" stroke-linejoin="round" transform="matrix(1.31, 0.00, 0.00, -1.31, -24.6, 807.0)"></path></g></g><g><clipPath id="clip-315"><path d="M 103.0 367.0 L 655.0 367.0 L 655.0 745.0 L 103.0 745.0 Z M 103.0 367.0 "></path></clipPath><g clip-path="url(#clip-315)"><g><g><clipPath id="clip-316"><path d="M 103.0 366.0 L 655.0 366.0 L 655.0 743.5 L 103.0 743.5 Z M 103.0 366.0 "></path></clipPath><g clip-path="url(#clip-316)"><g><g><clipPath id="clip-317"><path d="M 150.5 415.2 L 613.0 415.2 L 613.0 698.7 L 150.5 698.7 Z M 150.5 415.2 "></path></clipPath><g clip-path="url(#clip-317)"><image xlink:href="../../7E3ABE61-9D30-4028-A03E-A9A964B9E066/assets/0E5288A256660CBCE3E487027DC683D1.png" width="1608.00" height="984.00" transform="matrix(0.29, 0.00, -0.00, -0.29, 150.5, 698.7)"></image></g></g><g><clipPath id="clip-318"><path d="M 105.9 742.0 L 654.5 742.0 L 654.5 369.7 L 105.9 369.7 Z M 105.9 742.0 "></path></clipPath><g clip-path="url(#clip-318)"><g><clipPath id="clip-319"><path d="M 105.0 369.7 L 655.0 369.7 L 655.0 743.5 L 105.0 743.5 Z M 105.0 369.7 "></path></clipPath><g clip-path="url(#clip-319)"><g opacity="0.50"><g><clipPath id="clip-320"><path d="M 246.4 391.0 L 608.3 391.0 L 608.3 420.2 L 246.4 420.2 Z M 246.4 391.0 "></path></clipPath><g clip-path="url(#clip-320)"><g opacity="0.50"><g><clipPath id="clip-321"><path d="M 247.1 391.7 L 607.5 391.7 L 607.5 419.5 L 247.1 419.5 Z M 247.1 391.7 "></path></clipPath><g clip-path="url(#clip-321)"><path d="M 247.4 419.2 L 427.4 392.0 L 607.4 419.2 " fill="#21214A"></path></g></g></g><path d="M 0.0 0.0 L 192.7 -29.1 L 385.3 0.0 " fill="none" stroke="#1B1A18" stroke-width="1.00" transform="matrix(0.93, 0.00, 0.00, 0.94, 247.4, 419.2)"></path></g></g></g></g></g></g></g><g><clipPath id="clip-322"><path d="M 105.9 742.0 L 654.5 742.0 L 654.5 369.7 L 105.9 369.7 Z M 105.9 742.0 "></path></clipPath><g clip-path="url(#clip-322)"><g><clipPath id="clip-323"><path d="M 105.0 369.7 L 655.0 369.7 L 655.0 743.5 L 105.0 743.5 Z M 105.0 369.7 "></path></clipPath><g clip-path="url(#clip-323)"><g opacity="0.50"><g><clipPath id="clip-324"><path d="M 244.6 694.1 L 454.1 694.1 L 454.1 723.2 L 244.6 723.2 Z M 244.6 694.1 "></path></clipPath><g clip-path="url(#clip-324)"><g opacity="0.50"><g><clipPath id="clip-325"><path d="M 245.3 694.8 L 453.4 694.8 L 453.4 722.5 L 245.3 722.5 Z M 245.3 694.8 "></path></clipPath><g clip-path="url(#clip-325)"><path d="M 245.5 695.0 L 349.3 722.3 L 453.2 695.0 " fill="#21214A"></path></g></g></g><path d="M 0.0 0.0 L 111.2 29.1 L 222.3 0.0 " fill="none" stroke="#1B1A18" stroke-width="1.00" transform="matrix(0.93, 0.00, 0.00, 0.94, 245.5, 695.0)"></path></g></g></g></g></g></g></g><g><clipPath id="clip-326"><path d="M 105.9 742.0 L 654.5 742.0 L 654.5 369.7 L 105.9 369.7 Z M 105.9 742.0 "></path></clipPath><g clip-path="url(#clip-326)"><g><clipPath id="clip-327"><path d="M 105.0 369.7 L 655.0 369.7 L 655.0 743.5 L 105.0 743.5 Z M 105.0 369.7 "></path></clipPath><g clip-path="url(#clip-327)"><g opacity="0.50"><g><clipPath id="clip-328"><path d="M 125.1 419.6 L 154.2 419.6 L 154.2 695.9 L 125.1 695.9 Z M 125.1 419.6 "></path></clipPath><g clip-path="url(#clip-328)"><g opacity="0.50"><g><clipPath id="clip-329"><path d="M 125.8 420.3 L 153.5 420.3 L 153.5 695.2 L 125.8 695.2 Z M 125.8 420.3 "></path></clipPath><g clip-path="url(#clip-329)"><path d="M 153.3 420.5 L 126.1 557.8 L 153.3 695.0 " fill="#21214A"></path></g></g></g><path d="M 0.0 0.0 L -29.1 146.6 L 0.0 293.2 " fill="none" stroke="#1B1A18" stroke-width="1.00" transform="matrix(0.93, 0.00, 0.00, 0.94, 153.3, 420.5)"></path></g></g></g></g></g></g></g><g><clipPath id="clip-330"><path d="M 105.9 742.0 L 654.5 742.0 L 654.5 369.7 L 105.9 369.7 Z M 105.9 742.0 "></path></clipPath><g clip-path="url(#clip-330)"><g><clipPath id="clip-331"><path d="M 105.0 369.7 L 655.0 369.7 L 655.0 743.5 L 105.0 743.5 Z M 105.0 369.7 "></path></clipPath><g clip-path="url(#clip-331)"><g opacity="0.50"><g><clipPath id="clip-332"><path d="M 607.4 587.1 L 636.5 587.1 L 636.5 687.2 L 607.4 687.2 Z M 607.4 587.1 "></path></clipPath><g clip-path="url(#clip-332)"><g opacity="0.50"><g><clipPath id="clip-333"><path d="M 608.1 587.8 L 635.8 587.8 L 635.8 686.5 L 608.1 686.5 Z M 608.1 587.8 "></path></clipPath><g clip-path="url(#clip-333)"><path d="M 608.3 588.0 L 635.5 637.2 L 608.3 686.3 " fill="#21214A"></path></g></g></g><path d="M 0.0 0.0 L 29.1 52.5 L 0.0 105.0 " fill="none" stroke="#1B1A18" stroke-width="1.00" transform="matrix(0.93, 0.00, 0.00, 0.94, 608.3, 588.0)"></path></g></g></g></g></g></g></g><g><clipPath id="clip-334"><path d="M 105.9 742.0 L 654.5 742.0 L 654.5 369.7 L 105.9 369.7 Z M 105.9 742.0 "></path></clipPath><g clip-path="url(#clip-334)"><g><clipPath id="clip-335"><path d="M 105.0 369.7 L 655.0 369.7 L 655.0 743.5 L 105.0 743.5 Z M 105.0 369.7 "></path></clipPath><g clip-path="url(#clip-335)"><text xml:space="preserve" font-family="MyriadPro-Bold" font-weight="bold" font-size="18.0" fill="#0A0A08" transform="matrix(0.93, 0.00, -0.00, -0.94, 291.7, 727.9)">a</text><text xml:space="preserve" font-family="MyriadPro-Bold" font-weight="bold" font-size="18.0" fill="#0A0A08" transform="matrix(0.93, 0.00, -0.00, -0.94, 300.5, 727.9)">n</text><text xml:space="preserve" font-family="MyriadPro-Bold" font-weight="bold" font-size="18.0" fill="#0A0A08" transform="matrix(0.93, 0.00, -0.00, -0.94, 310.4, 727.9)">i</text><text xml:space="preserve" font-family="MyriadPro-Bold" font-weight="bold" font-size="18.0" fill="#0A0A08" transform="matrix(0.93, 0.00, -0.00, -0.94, 315.0, 727.9)">m</text><text xml:space="preserve" font-family="MyriadPro-Bold" font-weight="bold" font-size="18.0" fill="#0A0A08" transform="matrix(0.93, 0.00, -0.00, -0.94, 329.5, 727.9)">a</text><text xml:space="preserve" font-family="MyriadPro-Bold" font-weight="bold" font-size="18.0" fill="#0A0A08" transform="matrix(0.93, 0.00, -0.00, -0.94, 338.2, 727.9)">t</text><text xml:space="preserve" font-family="MyriadPro-Bold" font-weight="bold" font-size="18.0" fill="#0A0A08" transform="matrix(0.93, 0.00, -0.00, -0.94, 344.4, 727.9)">i</text><text xml:space="preserve" font-family="MyriadPro-Bold" font-weight="bold" font-size="18.0" fill="#0A0A08" transform="matrix(0.93, 0.00, -0.00, -0.94, 349.0, 727.9)">o</text><text xml:space="preserve" font-family="MyriadPro-Bold" font-weight="bold" font-size="18.0" fill="#0A0A08" transform="matrix(0.93, 0.00, -0.00, -0.94, 358.7, 727.9)">n</text><text xml:space="preserve" font-family="MyriadPro-Bold" font-weight="bold" font-size="18.0" fill="#0A0A08" transform="matrix(0.93, 0.00, -0.00, -0.94, 368.6, 727.9)"> </text><text xml:space="preserve" font-family="MyriadPro-Bold" font-weight="bold" font-size="18.0" fill="#0A0A08" transform="matrix(0.93, 0.00, -0.00, -0.94, 372.0, 727.9)">v</text><text xml:space="preserve" font-family="MyriadPro-Bold" font-weight="bold" font-size="18.0" fill="#0A0A08" transform="matrix(0.93, 0.00, -0.00, -0.94, 380.9, 727.9)">i</text><text xml:space="preserve" font-family="MyriadPro-Bold" font-weight="bold" font-size="18.0" fill="#0A0A08" transform="matrix(0.93, 0.00, -0.00, -0.94, 385.5, 727.9)">e</text><text xml:space="preserve" font-family="MyriadPro-Bold" font-weight="bold" font-size="18.0" fill="#0A0A08" transform="matrix(0.93, 0.00, -0.00, -0.94, 394.3, 727.9)">w</text><text xml:space="preserve" font-family="MyriadPro-Bold" font-weight="bold" font-size="18.0" fill="#0A0A08" transform="matrix(0.93, 0.00, -0.00, -0.94, 369.3, 373.9)">c</text><text xml:space="preserve" font-family="MyriadPro-Bold" font-weight="bold" font-size="18.0" fill="#0A0A08" transform="matrix(0.93, 0.00, -0.00, -0.94, 376.9, 373.9)">l</text><text xml:space="preserve" font-family="MyriadPro-Bold" font-weight="bold" font-size="18.0" fill="#0A0A08" transform="matrix(0.93, 0.00, -0.00, -0.94, 381.5, 373.9)">u</text><text xml:space="preserve" font-family="MyriadPro-Bold" font-weight="bold" font-size="18.0" fill="#0A0A08" transform="matrix(0.93, 0.00, -0.00, -0.94, 391.3, 373.9)">s</text><text xml:space="preserve" font-family="MyriadPro-Bold" font-weight="bold" font-size="18.0" fill="#0A0A08" transform="matrix(0.93, 0.00, -0.00, -0.94, 398.6, 373.9)">t</text><text xml:space="preserve" font-family="MyriadPro-Bold" font-weight="bold" font-size="18.0" fill="#0A0A08" transform="matrix(0.93, 0.00, -0.00, -0.94, 404.7, 373.9)">e</text><text xml:space="preserve" font-family="MyriadPro-Bold" font-weight="bold" font-size="18.0" fill="#0A0A08" transform="matrix(0.93, 0.00, -0.00, -0.94, 413.6, 373.9)">r</text><text xml:space="preserve" font-family="MyriadPro-Bold" font-weight="bold" font-size="18.0" fill="#0A0A08" transform="matrix(0.93, 0.00, -0.00, -0.94, 420.0, 373.9)"> </text><text xml:space="preserve" font-family="MyriadPro-Bold" font-weight="bold" font-size="18.0" fill="#0A0A08" transform="matrix(0.93, 0.00, -0.00, -0.94, 423.4, 373.9)">t</text><text xml:space="preserve" font-family="MyriadPro-Bold" font-weight="bold" font-size="18.0" fill="#0A0A08" transform="matrix(0.93, 0.00, -0.00, -0.94, 429.5, 373.9)">i</text><text xml:space="preserve" font-family="MyriadPro-Bold" font-weight="bold" font-size="18.0" fill="#0A0A08" transform="matrix(0.93, 0.00, -0.00, -0.94, 434.1, 373.9)">m</text><text xml:space="preserve" font-family="MyriadPro-Bold" font-weight="bold" font-size="18.0" fill="#0A0A08" transform="matrix(0.93, 0.00, -0.00, -0.94, 448.6, 373.9)">e</text><text xml:space="preserve" font-family="MyriadPro-Bold" font-weight="bold" font-size="18.0" fill="#0A0A08" transform="matrix(0.93, 0.00, -0.00, -0.94, 457.5, 373.9)">l</text><text xml:space="preserve" font-family="MyriadPro-Bold" font-weight="bold" font-size="18.0" fill="#0A0A08" transform="matrix(0.93, 0.00, -0.00, -0.94, 462.1, 373.9)">i</text><text xml:space="preserve" font-family="MyriadPro-Bold" font-weight="bold" font-size="18.0" fill="#0A0A08" transform="matrix(0.93, 0.00, -0.00, -0.94, 466.7, 373.9)">n</text><text xml:space="preserve" font-family="MyriadPro-Bold" font-weight="bold" font-size="18.0" fill="#0A0A08" transform="matrix(0.93, 0.00, -0.00, -0.94, 476.6, 373.9)">e</text><text xml:space="preserve" font-family="MyriadPro-Bold" font-weight="bold" font-size="18.0" fill="#0A0A08" transform="matrix(0.00, 0.94, 0.93, -0.00, 120.0, 499.1)">p</text><text xml:space="preserve" font-family="MyriadPro-Bold" font-weight="bold" font-size="18.0" fill="#0A0A08" transform="matrix(0.00, 0.94, 0.93, -0.00, 130.0, 499.1)">a</text><text xml:space="preserve" font-family="MyriadPro-Bold" font-weight="bold" font-size="18.0" fill="#0A0A08" transform="matrix(0.00, 0.94, 0.93, -0.00, 138.9, 499.1)">r</text><text xml:space="preserve" font-family="MyriadPro-Bold" font-weight="bold" font-size="18.0" fill="#0A0A08" transform="matrix(0.00, 0.94, 0.93, -0.00, 145.1, 499.1)">a</text><text xml:space="preserve" font-family="MyriadPro-Bold" font-weight="bold" font-size="18.0" fill="#0A0A08" transform="matrix(0.00, 0.94, 0.93, -0.00, 154.0, 499.1)">m</text><text xml:space="preserve" font-family="MyriadPro-Bold" font-weight="bold" font-size="18.0" fill="#0A0A08" transform="matrix(0.00, 0.94, 0.93, -0.00, 168.5, 499.1)">e</text><text xml:space="preserve" font-family="MyriadPro-Bold" font-weight="bold" font-size="18.0" fill="#0A0A08" transform="matrix(0.00, 0.94, 0.93, -0.00, 177.3, 499.1)">t</text><text xml:space="preserve" font-family="MyriadPro-Bold" font-weight="bold" font-size="18.0" fill="#0A0A08" transform="matrix(0.00, 0.94, 0.93, -0.00, 183.4, 499.1)">e</text><text xml:space="preserve" font-family="MyriadPro-Bold" font-weight="bold" font-size="18.0" fill="#0A0A08" transform="matrix(0.00, 0.94, 0.93, -0.00, 192.3, 499.1)">r</text><text xml:space="preserve" font-family="MyriadPro-Bold" font-weight="bold" font-size="18.0" fill="#0A0A08" transform="matrix(0.00, 0.94, 0.93, -0.00, 198.7, 499.1)"> </text><text xml:space="preserve" font-family="MyriadPro-Bold" font-weight="bold" font-size="18.0" fill="#0A0A08" transform="matrix(0.00, 0.94, 0.93, -0.00, 202.1, 499.1)">v</text><text xml:space="preserve" font-family="MyriadPro-Bold" font-weight="bold" font-size="18.0" fill="#0A0A08" transform="matrix(0.00, 0.94, 0.93, -0.00, 211.0, 499.1)">i</text><text xml:space="preserve" font-family="MyriadPro-Bold" font-weight="bold" font-size="18.0" fill="#0A0A08" transform="matrix(0.00, 0.94, 0.93, -0.00, 215.6, 499.1)">e</text><text xml:space="preserve" font-family="MyriadPro-Bold" font-weight="bold" font-size="18.0" fill="#0A0A08" transform="matrix(0.00, 0.94, 0.93, -0.00, 224.4, 499.1)">w</text><text xml:space="preserve" font-family="MyriadPro-Bold" font-weight="bold" font-size="18.0" fill="#0A0A08" transform="matrix(0.00, -0.94, -0.93, -0.00, 640.4, 692.0)">s</text><text xml:space="preserve" font-family="MyriadPro-Bold" font-weight="bold" font-size="18.0" fill="#0A0A08" transform="matrix(0.00, -0.94, -0.93, -0.00, 647.7, 692.0)">e</text><text xml:space="preserve" font-family="MyriadPro-Bold" font-weight="bold" font-size="18.0" fill="#0A0A08" transform="matrix(0.00, -0.94, -0.93, -0.00, 656.6, 692.0)">q</text><text xml:space="preserve" font-family="MyriadPro-Bold" font-weight="bold" font-size="18.0" fill="#0A0A08" transform="matrix(0.00, -0.94, -0.93, -0.00, 666.6, 692.0)">u</text><text xml:space="preserve" font-family="MyriadPro-Bold" font-weight="bold" font-size="18.0" fill="#0A0A08" transform="matrix(0.00, -0.94, -0.93, -0.00, 676.4, 692.0)">e</text><text xml:space="preserve" font-family="MyriadPro-Bold" font-weight="bold" font-size="18.0" fill="#0A0A08" transform="matrix(0.00, -0.94, -0.93, -0.00, 685.3, 692.0)">n</text><text xml:space="preserve" font-family="MyriadPro-Bold" font-weight="bold" font-size="18.0" fill="#0A0A08" transform="matrix(0.00, -0.94, -0.93, -0.00, 695.1, 692.0)">c</text><text xml:space="preserve" font-family="MyriadPro-Bold" font-weight="bold" font-size="18.0" fill="#0A0A08" transform="matrix(0.00, -0.94, -0.93, -0.00, 702.5, 692.0)">e</text><text xml:space="preserve" font-family="MyriadPro-Bold" font-weight="bold" font-size="18.0" fill="#0A0A08" transform="matrix(0.00, -0.94, -0.93, -0.00, 711.4, 692.0)"> </text><text xml:space="preserve" font-family="MyriadPro-Bold" font-weight="bold" font-size="18.0" fill="#0A0A08" transform="matrix(0.00, -0.94, -0.93, -0.00, 714.8, 692.0)">v</text><text xml:space="preserve" font-family="MyriadPro-Bold" font-weight="bold" font-size="18.0" fill="#0A0A08" transform="matrix(0.00, -0.94, -0.93, -0.00, 723.7, 692.0)">i</text><text xml:space="preserve" font-family="MyriadPro-Bold" font-weight="bold" font-size="18.0" fill="#0A0A08" transform="matrix(0.00, -0.94, -0.93, -0.00, 728.3, 692.0)">e</text><text xml:space="preserve" font-family="MyriadPro-Bold" font-weight="bold" font-size="18.0" fill="#0A0A08" transform="matrix(0.00, -0.94, -0.93, -0.00, 737.1, 692.0)">w</text></g></g></g></g></g></g></g></g></g></g><text xml:space="preserve" font-family="HelveticaNeue-Medium" font-size="26.0" fill="#000000" transform="matrix(1.00, 0.00, -0.00, -1.00, 13.0, 365.0)">B</text><text xml:space="preserve" font-family="HelveticaNeue-Medium" font-size="26.0" fill="#000000" transform="matrix(1.00, 0.00, -0.00, -1.00, 31.3, 365.0)">r</text><text xml:space="preserve" font-family="HelveticaNeue-Medium" font-size="26.0" fill="#000000" transform="matrix(1.00, 0.00, -0.00, -1.00, 40.5, 365.0)">u</text><text xml:space="preserve" font-family="HelveticaNeue-Medium" font-size="26.0" fill="#000000" transform="matrix(1.00, 0.00, -0.00, -1.00, 55.4, 365.0)">c</text><text xml:space="preserve" font-family="HelveticaNeue-Medium" font-size="26.0" fill="#000000" transform="matrix(1.00, 0.00, -0.00, -1.00, 69.8, 365.0)">k</text><text xml:space="preserve" font-family="HelveticaNeue-Medium" font-size="26.0" fill="#000000" transform="matrix(1.00, 0.00, -0.00, -1.00, 83.8, 365.0)">n</text><text xml:space="preserve" font-family="HelveticaNeue-Medium" font-size="26.0" fill="#000000" transform="matrix(1.00, 0.00, -0.00, -1.00, 98.7, 365.0)">e</text><text xml:space="preserve" font-family="HelveticaNeue-Medium" font-size="26.0" fill="#000000" transform="matrix(1.00, 0.00, -0.00, -1.00, 113.2, 365.0)">r</text><text xml:space="preserve" font-family="HelveticaNeue-Medium" font-size="26.0" fill="#000000" transform="matrix(1.00, 0.00, -0.00, -1.00, 122.3, 365.0)"> </text><text xml:space="preserve" font-family="HelveticaNeue-Medium" font-size="26.0" fill="#000000" transform="matrix(1.00, 0.00, -0.00, -1.00, 129.6, 365.0)">a</text><text xml:space="preserve" font-family="HelveticaNeue-Medium" font-size="26.0" fill="#000000" transform="matrix(1.00, 0.00, -0.00, -1.00, 144.0, 365.0)">n</text><text xml:space="preserve" font-family="HelveticaNeue-Medium" font-size="26.0" fill="#000000" transform="matrix(1.00, 0.00, -0.00, -1.00, 158.9, 365.0)">d</text><text xml:space="preserve" font-family="HelveticaNeue-Medium" font-size="26.0" fill="#000000" transform="matrix(1.00, 0.00, -0.00, -1.00, 174.8, 365.0)"> </text><text xml:space="preserve" font-family="HelveticaNeue-Medium" font-size="26.0" fill="#000000" transform="matrix(1.00, 0.00, -0.00, -1.00, 182.1, 365.0)">M</text><text xml:space="preserve" font-family="HelveticaNeue-Medium" font-size="26.0" fill="#000000" transform="matrix(1.00, 0.00, -0.00, -1.00, 205.2, 365.0)">ö</text><text xml:space="preserve" font-family="HelveticaNeue-Medium" font-size="26.0" fill="#000000" transform="matrix(1.00, 0.00, -0.00, -1.00, 220.6, 365.0)">l</text><text xml:space="preserve" font-family="HelveticaNeue-Medium" font-size="26.0" fill="#000000" transform="matrix(1.00, 0.00, -0.00, -1.00, 226.9, 365.0)">l</text><text xml:space="preserve" font-family="HelveticaNeue-Medium" font-size="26.0" fill="#000000" transform="matrix(1.00, 0.00, -0.00, -1.00, 233.1, 365.0)">e</text><text xml:space="preserve" font-family="HelveticaNeue-Medium" font-size="26.0" fill="#000000" transform="matrix(1.00, 0.00, -0.00, -1.00, 247.6, 365.0)">r</text><text xml:space="preserve" font-family="HelveticaNeue-Medium" font-size="26.0" fill="#000000" transform="matrix(1.00, 0.00, -0.00, -1.00, 256.7, 365.0)"> </text><text xml:space="preserve" font-family="HelveticaNeue-Medium" font-size="26.0" fill="#000000" transform="matrix(1.00, 0.00, -0.00, -1.00, 264.0, 365.0)">2</text><text xml:space="preserve" font-family="HelveticaNeue-Medium" font-size="26.0" fill="#000000" transform="matrix(1.00, 0.00, -0.00, -1.00, 278.4, 365.0)">0</text><text xml:space="preserve" font-family="HelveticaNeue-Medium" font-size="26.0" fill="#000000" transform="matrix(1.00, 0.00, -0.00, -1.00, 292.9, 365.0)">1</text><text xml:space="preserve" font-family="HelveticaNeue-Medium" font-size="26.0" fill="#000000" transform="matrix(1.00, 0.00, -0.00, -1.00, 307.3, 365.0)">0</text><text xml:space="preserve" font-family="HelveticaNeue" font-size="27.0" fill="#000000" transform="matrix(1.00, 0.00, -0.00, -1.00, 65.4, 301.6)">•</text><text xml:space="preserve" font-family="HelveticaNeue-Light" font-size="36.0" fill="#000000" transform="matrix(1.00, 0.00, -0.00, -1.00, 101.0, 298.0)">F</text><text xml:space="preserve" font-family="HelveticaNeue-Light" font-size="36.0" fill="#000000" transform="matrix(1.00, 0.00, -0.00, -1.00, 120.3, 298.0)">o</text><text xml:space="preserve" font-family="HelveticaNeue-Light" font-size="36.0" fill="#000000" transform="matrix(1.00, 0.00, -0.00, -1.00, 140.3, 298.0)">c</text><text xml:space="preserve" font-family="HelveticaNeue-Light" font-size="36.0" fill="#000000" transform="matrix(1.00, 0.00, -0.00, -1.00, 159.0, 298.0)">u</text><text xml:space="preserve" font-family="HelveticaNeue-Light" font-size="36.0" fill="#000000" transform="matrix(1.00, 0.00, -0.00, -1.00, 178.4, 298.0)">s</text><text xml:space="preserve" font-family="HelveticaNeue-Light" font-size="36.0" fill="#000000" transform="matrix(1.00, 0.00, -0.00, -1.00, 195.7, 298.0)">e</text><text xml:space="preserve" font-family="HelveticaNeue-Light" font-size="36.0" fill="#000000" transform="matrix(1.00, 0.00, -0.00, -1.00, 214.4, 298.0)">d</text><text xml:space="preserve" font-family="HelveticaNeue-Light" font-size="36.0" fill="#000000" transform="matrix(1.00, 0.00, -0.00, -1.00, 235.0, 298.0)"> </text><text xml:space="preserve" font-family="HelveticaNeue-Light" font-size="36.0" fill="#000000" transform="matrix(1.00, 0.00, -0.00, -1.00, 245.0, 298.0)">o</text><text xml:space="preserve" font-family="HelveticaNeue-Light" font-size="36.0" fill="#000000" transform="matrix(1.00, 0.00, -0.00, -1.00, 265.1, 298.0)">n</text><text xml:space="preserve" font-family="HelveticaNeue-Light" font-size="36.0" fill="#000000" transform="matrix(1.00, 0.00, -0.00, -1.00, 284.4, 298.0)"> </text><text xml:space="preserve" font-family="HelveticaNeue-Light" font-size="36.0" fill="#000000" transform="matrix(1.00, 0.00, -0.00, -1.00, 294.4, 298.0)">a</text><text xml:space="preserve" font-family="HelveticaNeue-Light" font-size="36.0" fill="#000000" transform="matrix(1.00, 0.00, -0.00, -1.00, 313.1, 298.0)"> </text><text xml:space="preserve" font-family="HelveticaNeue-Light" font-size="36.0" fill="#000000" transform="matrix(1.00, 0.00, -0.00, -1.00, 323.1, 298.0)">f</text><text xml:space="preserve" font-family="HelveticaNeue-Light" font-size="36.0" fill="#000000" transform="matrix(1.00, 0.00, -0.00, -1.00, 332.4, 298.0)">e</text><text xml:space="preserve" font-family="HelveticaNeue-Light" font-size="36.0" fill="#000000" transform="matrix(1.00, 0.00, -0.00, -1.00, 351.1, 298.0)">w</text><text xml:space="preserve" font-family="HelveticaNeue-Light" font-size="36.0" fill="#000000" transform="matrix(1.00, 0.00, -0.00, -1.00, 377.8, 298.0)"> </text><text xml:space="preserve" font-family="HelveticaNeue-Light" font-size="36.0" fill="#000000" transform="matrix(1.00, 0.00, -0.00, -1.00, 387.8, 298.0)">u</text><text xml:space="preserve" font-family="HelveticaNeue-Light" font-size="36.0" fill="#000000" transform="matrix(1.00, 0.00, -0.00, -1.00, 407.1, 298.0)">s</text><text xml:space="preserve" font-family="HelveticaNeue-Light" font-size="36.0" fill="#000000" transform="matrix(1.00, 0.00, -0.00, -1.00, 424.4, 298.0)">e</text><text xml:space="preserve" font-family="HelveticaNeue-Light" font-size="36.0" fill="#000000" transform="matrix(1.00, 0.00, -0.00, -1.00, 443.1, 298.0)">r</text><text xml:space="preserve" font-family="HelveticaNeue-Light" font-size="36.0" fill="#000000" transform="matrix(1.00, 0.00, -0.00, -1.00, 454.4, 298.0)">s</text><text xml:space="preserve" font-family="HelveticaNeue-Light" font-size="36.0" fill="#000000" transform="matrix(1.00, 0.00, -0.00, -1.00, 471.8, 298.0)"> </text><text xml:space="preserve" font-family="HelveticaNeue" font-size="27.0" fill="#000000" transform="matrix(1.00, 0.00, -0.00, -1.00, 65.4, 257.6)">•</text><text xml:space="preserve" font-family="HelveticaNeue-Light" font-size="36.0" fill="#000000" transform="matrix(1.00, 0.00, -0.00, -1.00, 101.0, 254.0)">T</text><text xml:space="preserve" font-family="HelveticaNeue-Light" font-size="36.0" fill="#000000" transform="matrix(1.00, 0.00, -0.00, -1.00, 117.0, 254.0)">a</text><text xml:space="preserve" font-family="HelveticaNeue-Light" font-size="36.0" fill="#000000" transform="matrix(1.00, 0.00, -0.00, -1.00, 135.7, 254.0)">s</text><text xml:space="preserve" font-family="HelveticaNeue-Light" font-size="36.0" fill="#000000" transform="matrix(1.00, 0.00, -0.00, -1.00, 153.0, 254.0)">k</text><text xml:space="preserve" font-family="HelveticaNeue-Light" font-size="36.0" fill="#000000" transform="matrix(1.00, 0.00, -0.00, -1.00, 171.0, 254.0)"> </text><text xml:space="preserve" font-family="HelveticaNeue-Light" font-size="36.0" fill="#000000" transform="matrix(1.00, 0.00, -0.00, -1.00, 181.0, 254.0)">a</text><text xml:space="preserve" font-family="HelveticaNeue-Light" font-size="36.0" fill="#000000" transform="matrix(1.00, 0.00, -0.00, -1.00, 199.7, 254.0)">n</text><text xml:space="preserve" font-family="HelveticaNeue-Light" font-size="36.0" fill="#000000" transform="matrix(1.00, 0.00, -0.00, -1.00, 219.0, 254.0)">a</text><text xml:space="preserve" font-family="HelveticaNeue-Light" font-size="36.0" fill="#000000" transform="matrix(1.00, 0.00, -0.00, -1.00, 237.7, 254.0)">l</text><text xml:space="preserve" font-family="HelveticaNeue-Light" font-size="36.0" fill="#000000" transform="matrix(1.00, 0.00, -0.00, -1.00, 244.4, 254.0)">y</text><text xml:space="preserve" font-family="HelveticaNeue-Light" font-size="36.0" fill="#000000" transform="matrix(1.00, 0.00, -0.00, -1.00, 261.1, 254.0)">s</text><text xml:space="preserve" font-family="HelveticaNeue-Light" font-size="36.0" fill="#000000" transform="matrix(1.00, 0.00, -0.00, -1.00, 278.4, 254.0)">i</text><text xml:space="preserve" font-family="HelveticaNeue-Light" font-size="36.0" fill="#000000" transform="matrix(1.00, 0.00, -0.00, -1.00, 285.0, 254.0)">s</text><text xml:space="preserve" font-family="HelveticaNeue-Light" font-size="36.0" fill="#000000" transform="matrix(1.00, 0.00, -0.00, -1.00, 302.3, 254.0)"> </text><text xml:space="preserve" font-family="HelveticaNeue" font-size="27.0" fill="#000000" transform="matrix(1.00, 0.00, -0.00, -1.00, 65.4, 213.6)">•</text><text xml:space="preserve" font-family="HelveticaNeue-Light" font-size="36.0" fill="#000000" transform="matrix(1.00, 0.00, -0.00, -1.00, 101.0, 210.0)">D</text><text xml:space="preserve" font-family="HelveticaNeue-Light" font-size="36.0" fill="#000000" transform="matrix(1.00, 0.00, -0.00, -1.00, 125.7, 210.0)">i</text><text xml:space="preserve" font-family="HelveticaNeue-Light" font-size="36.0" fill="#000000" transform="matrix(1.00, 0.00, -0.00, -1.00, 132.3, 210.0)">s</text><text xml:space="preserve" font-family="HelveticaNeue-Light" font-size="36.0" fill="#000000" transform="matrix(1.00, 0.00, -0.00, -1.00, 149.6, 210.0)">c</text><text xml:space="preserve" font-family="HelveticaNeue-Light" font-size="36.0" fill="#000000" transform="matrix(1.00, 0.00, -0.00, -1.00, 168.3, 210.0)">u</text><text xml:space="preserve" font-family="HelveticaNeue-Light" font-size="36.0" fill="#000000" transform="matrix(1.00, 0.00, -0.00, -1.00, 187.7, 210.0)">s</text><text xml:space="preserve" font-family="HelveticaNeue-Light" font-size="36.0" fill="#000000" transform="matrix(1.00, 0.00, -0.00, -1.00, 205.0, 210.0)">s</text><text xml:space="preserve" font-family="HelveticaNeue-Light" font-size="36.0" fill="#000000" transform="matrix(1.00, 0.00, -0.00, -1.00, 222.3, 210.0)">i</text><text xml:space="preserve" font-family="HelveticaNeue-Light" font-size="36.0" fill="#000000" transform="matrix(1.00, 0.00, -0.00, -1.00, 228.9, 210.0)">o</text><text xml:space="preserve" font-family="HelveticaNeue-Light" font-size="36.0" fill="#000000" transform="matrix(1.00, 0.00, -0.00, -1.00, 249.0, 210.0)">n</text><text xml:space="preserve" font-family="HelveticaNeue-Light" font-size="36.0" fill="#000000" transform="matrix(1.00, 0.00, -0.00, -1.00, 268.3, 210.0)"> </text><text xml:space="preserve" font-family="HelveticaNeue-Light" font-size="36.0" fill="#000000" transform="matrix(1.00, 0.00, -0.00, -1.00, 278.3, 210.0)">o</text><text xml:space="preserve" font-family="HelveticaNeue-Light" font-size="36.0" fill="#000000" transform="matrix(1.00, 0.00, -0.00, -1.00, 298.3, 210.0)">f</text><text xml:space="preserve" font-family="HelveticaNeue-Light" font-size="36.0" fill="#000000" transform="matrix(1.00, 0.00, -0.00, -1.00, 307.6, 210.0)"> </text><text xml:space="preserve" font-family="HelveticaNeue-Light" font-size="36.0" fill="#000000" transform="matrix(1.00, 0.00, -0.00, -1.00, 317.6, 210.0)">d</text><text xml:space="preserve" font-family="HelveticaNeue-Light" font-size="36.0" fill="#000000" transform="matrix(1.00, 0.00, -0.00, -1.00, 338.3, 210.0)">e</text><text xml:space="preserve" font-family="HelveticaNeue-Light" font-size="36.0" fill="#000000" transform="matrix(1.00, 0.00, -0.00, -1.00, 357.0, 210.0)">s</text><text xml:space="preserve" font-family="HelveticaNeue-Light" font-size="36.0" fill="#000000" transform="matrix(1.00, 0.00, -0.00, -1.00, 374.3, 210.0)">i</text><text xml:space="preserve" font-family="HelveticaNeue-Light" font-size="36.0" fill="#000000" transform="matrix(1.00, 0.00, -0.00, -1.00, 381.0, 210.0)">g</text><text xml:space="preserve" font-family="HelveticaNeue-Light" font-size="36.0" fill="#000000" transform="matrix(1.00, 0.00, -0.00, -1.00, 401.0, 210.0)">n</text><text xml:space="preserve" font-family="HelveticaNeue-Light" font-size="36.0" fill="#000000" transform="matrix(1.00, 0.00, -0.00, -1.00, 420.3, 210.0)"> </text><text xml:space="preserve" font-family="HelveticaNeue-Light" font-size="36.0" fill="#000000" transform="matrix(1.00, 0.00, -0.00, -1.00, 430.3, 210.0)">c</text><text xml:space="preserve" font-family="HelveticaNeue-Light" font-size="36.0" fill="#000000" transform="matrix(1.00, 0.00, -0.00, -1.00, 449.0, 210.0)">h</text><text xml:space="preserve" font-family="HelveticaNeue-Light" font-size="36.0" fill="#000000" transform="matrix(1.00, 0.00, -0.00, -1.00, 468.3, 210.0)">o</text><text xml:space="preserve" font-family="HelveticaNeue-Light" font-size="36.0" fill="#000000" transform="matrix(1.00, 0.00, -0.00, -1.00, 488.4, 210.0)">i</text><text xml:space="preserve" font-family="HelveticaNeue-Light" font-size="36.0" fill="#000000" transform="matrix(1.00, 0.00, -0.00, -1.00, 495.0, 210.0)">c</text><text xml:space="preserve" font-family="HelveticaNeue-Light" font-size="36.0" fill="#000000" transform="matrix(1.00, 0.00, -0.00, -1.00, 513.7, 210.0)">e</text><text xml:space="preserve" font-family="HelveticaNeue-Light" font-size="36.0" fill="#000000" transform="matrix(1.00, 0.00, -0.00, -1.00, 532.4, 210.0)">s</text><text xml:space="preserve" font-family="HelveticaNeue-Light" font-size="36.0" fill="#000000" transform="matrix(1.00, 0.00, -0.00, -1.00, 549.7, 210.0)"> </text><text xml:space="preserve" font-family="HelveticaNeue" font-size="27.0" fill="#000000" transform="matrix(1.00, 0.00, -0.00, -1.00, 65.4, 169.6)">•</text><text xml:space="preserve" font-family="HelveticaNeue-Light" font-size="36.0" fill="#000000" transform="matrix(1.00, 0.00, -0.00, -1.00, 101.0, 166.0)">T</text><text xml:space="preserve" font-family="HelveticaNeue-Light" font-size="36.0" fill="#000000" transform="matrix(1.00, 0.00, -0.00, -1.00, 117.7, 166.0)">r</text><text xml:space="preserve" font-family="HelveticaNeue-Light" font-size="36.0" fill="#000000" transform="matrix(1.00, 0.00, -0.00, -1.00, 129.0, 166.0)">a</text><text xml:space="preserve" font-family="HelveticaNeue-Light" font-size="36.0" fill="#000000" transform="matrix(1.00, 0.00, -0.00, -1.00, 147.7, 166.0)">n</text><text xml:space="preserve" font-family="HelveticaNeue-Light" font-size="36.0" fill="#000000" transform="matrix(1.00, 0.00, -0.00, -1.00, 167.1, 166.0)">s</text><text xml:space="preserve" font-family="HelveticaNeue-Light" font-size="36.0" fill="#000000" transform="matrix(1.00, 0.00, -0.00, -1.00, 184.4, 166.0)">f</text><text xml:space="preserve" font-family="HelveticaNeue-Light" font-size="36.0" fill="#000000" transform="matrix(1.00, 0.00, -0.00, -1.00, 193.7, 166.0)">e</text><text xml:space="preserve" font-family="HelveticaNeue-Light" font-size="36.0" fill="#000000" transform="matrix(1.00, 0.00, -0.00, -1.00, 212.4, 166.0)">r</text><text xml:space="preserve" font-family="HelveticaNeue-Light" font-size="36.0" fill="#000000" transform="matrix(1.00, 0.00, -0.00, -1.00, 223.7, 166.0)">a</text><text xml:space="preserve" font-family="HelveticaNeue-Light" font-size="36.0" fill="#000000" transform="matrix(1.00, 0.00, -0.00, -1.00, 242.4, 166.0)">b</text><text xml:space="preserve" font-family="HelveticaNeue-Light" font-size="36.0" fill="#000000" transform="matrix(1.00, 0.00, -0.00, -1.00, 263.1, 166.0)">i</text><text xml:space="preserve" font-family="HelveticaNeue-Light" font-size="36.0" fill="#000000" transform="matrix(1.00, 0.00, -0.00, -1.00, 269.7, 166.0)">l</text><text xml:space="preserve" font-family="HelveticaNeue-Light" font-size="36.0" fill="#000000" transform="matrix(1.00, 0.00, -0.00, -1.00, 276.4, 166.0)">i</text><text xml:space="preserve" font-family="HelveticaNeue-Light" font-size="36.0" fill="#000000" transform="matrix(1.00, 0.00, -0.00, -1.00, 283.1, 166.0)">t</text><text xml:space="preserve" font-family="HelveticaNeue-Light" font-size="36.0" fill="#000000" transform="matrix(1.00, 0.00, -0.00, -1.00, 293.7, 166.0)">y</text><text xml:space="preserve" font-family="HelveticaNeue-Light" font-size="36.0" fill="#000000" transform="matrix(1.00, 0.00, -0.00, -1.00, 310.4, 166.0)"> </text><text xml:space="preserve" font-family="HelveticaNeue-Light" font-size="36.0" fill="#000000" transform="matrix(1.00, 0.00, -0.00, -1.00, 320.4, 166.0)">o</text><text xml:space="preserve" font-family="HelveticaNeue-Light" font-size="36.0" fill="#000000" transform="matrix(1.00, 0.00, -0.00, -1.00, 340.4, 166.0)">f</text><text xml:space="preserve" font-family="HelveticaNeue-Light" font-size="36.0" fill="#000000" transform="matrix(1.00, 0.00, -0.00, -1.00, 349.7, 166.0)"> </text><text xml:space="preserve" font-family="HelveticaNeue-Light" font-size="36.0" fill="#000000" transform="matrix(1.00, 0.00, -0.00, -1.00, 359.7, 166.0)">t</text><text xml:space="preserve" font-family="HelveticaNeue-Light" font-size="36.0" fill="#000000" transform="matrix(1.00, 0.00, -0.00, -1.00, 370.4, 166.0)">e</text><text xml:space="preserve" font-family="HelveticaNeue-Light" font-size="36.0" fill="#000000" transform="matrix(1.00, 0.00, -0.00, -1.00, 389.1, 166.0)">c</text><text xml:space="preserve" font-family="HelveticaNeue-Light" font-size="36.0" fill="#000000" transform="matrix(1.00, 0.00, -0.00, -1.00, 407.8, 166.0)">h</text><text xml:space="preserve" font-family="HelveticaNeue-Light" font-size="36.0" fill="#000000" transform="matrix(1.00, 0.00, -0.00, -1.00, 427.1, 166.0)">n</text><text xml:space="preserve" font-family="HelveticaNeue-Light" font-size="36.0" fill="#000000" transform="matrix(1.00, 0.00, -0.00, -1.00, 446.4, 166.0)">i</text><text xml:space="preserve" font-family="HelveticaNeue-Light" font-size="36.0" fill="#000000" transform="matrix(1.00, 0.00, -0.00, -1.00, 453.1, 166.0)">q</text><text xml:space="preserve" font-family="HelveticaNeue-Light" font-size="36.0" fill="#000000" transform="matrix(1.00, 0.00, -0.00, -1.00, 473.7, 166.0)">u</text><text xml:space="preserve" font-family="HelveticaNeue-Light" font-size="36.0" fill="#000000" transform="matrix(1.00, 0.00, -0.00, -1.00, 493.1, 166.0)">e</text><text xml:space="preserve" font-family="HelveticaNeue-Light" font-size="36.0" fill="#000000" transform="matrix(1.00, 0.00, -0.00, -1.00, 511.8, 166.0)">s</text><text xml:space="preserve" font-family="HelveticaNeue-Light" font-size="36.0" fill="#000000" transform="matrix(1.00, 0.00, -0.00, -1.00, 529.1, 166.0)"> </text><text xml:space="preserve" font-family="HelveticaNeue-Light" font-size="36.0" fill="#000000" transform="matrix(1.00, 0.00, -0.00, -1.00, 539.1, 166.0)">i</text><text xml:space="preserve" font-family="HelveticaNeue-Light" font-size="36.0" fill="#000000" transform="matrix(1.00, 0.00, -0.00, -1.00, 545.7, 166.0)">s</text><text xml:space="preserve" font-family="HelveticaNeue-Light" font-size="36.0" fill="#000000" transform="matrix(1.00, 0.00, -0.00, -1.00, 563.1, 166.0)"> </text><text xml:space="preserve" font-family="HelveticaNeue-Light" font-size="36.0" fill="#000000" transform="matrix(1.00, 0.00, -0.00, -1.00, 573.1, 166.0)">t</text><text xml:space="preserve" font-family="HelveticaNeue-Light" font-size="36.0" fill="#000000" transform="matrix(1.00, 0.00, -0.00, -1.00, 583.7, 166.0)">h</text><text xml:space="preserve" font-family="HelveticaNeue-Light" font-size="36.0" fill="#000000" transform="matrix(1.00, 0.00, -0.00, -1.00, 603.1, 166.0)">e</text><text xml:space="preserve" font-family="HelveticaNeue-Light" font-size="36.0" fill="#000000" transform="matrix(1.00, 0.00, -0.00, -1.00, 621.7, 166.0)"> </text><text xml:space="preserve" font-family="HelveticaNeue-Light" font-size="36.0" fill="#000000" transform="matrix(1.00, 0.00, -0.00, -1.00, 631.7, 166.0)">k</text><text xml:space="preserve" font-family="HelveticaNeue-Light" font-size="36.0" fill="#000000" transform="matrix(1.00, 0.00, -0.00, -1.00, 649.7, 166.0)">e</text><text xml:space="preserve" font-family="HelveticaNeue-Light" font-size="36.0" fill="#000000" transform="matrix(1.00, 0.00, -0.00, -1.00, 668.4, 166.0)">y</text><text xml:space="preserve" font-family="HelveticaNeue" font-size="14.0" fill="#000000" transform="matrix(1.00, 0.00, -0.00, -1.00, 978.8, 27.4)">7</text></g></svg>