<?xml version="1.0" encoding="UTF-8" standalone="no"?><svg xmlns="http://www.w3.org/2000/svg" xmlns:xlink="http://www.w3.org/1999/xlink" clip-rule="evenodd" stroke-miterlimit="4.00" viewBox="0 0 1024 768"><desc>SVG generated by Keynote</desc><defs></defs><g transform="matrix(1.00, 0.00, -0.00, -1.00, 0.0, 768.0)"><path d="M 0.0 768.0 L 1024.0 768.0 L 1024.0 0.0 L 0.0 0.0 Z M 0.0 768.0 " fill="#FEFFFE"></path><path d="M 0.0 0.0 L 934.5 0.0 " fill="none" stroke="#9A9A9A" stroke-width="1.00" transform="matrix(1.00, 0.00, 0.00, -1.00, 45.0, 613.0)"></path><text xml:space="preserve" font-family="HelveticaNeue-Light" font-size="42.0" fill="#000000" transform="matrix(1.00, 0.00, -0.00, -1.00, 49.0, 645.0)">W</text><text xml:space="preserve" font-family="HelveticaNeue-Light" font-size="42.0" fill="#000000" transform="matrix(1.00, 0.00, -0.00, -1.00, 87.1, 645.0)">h</text><text xml:space="preserve" font-family="HelveticaNeue-Light" font-size="42.0" fill="#000000" transform="matrix(1.00, 0.00, -0.00, -1.00, 109.6, 645.0)">a</text><text xml:space="preserve" font-family="HelveticaNeue-Light" font-size="42.0" fill="#000000" transform="matrix(1.00, 0.00, -0.00, -1.00, 131.4, 645.0)">t</text><text xml:space="preserve" font-family="HelveticaNeue-Light" font-size="42.0" fill="#000000" transform="matrix(1.00, 0.00, -0.00, -1.00, 143.9, 645.0)"> </text><text xml:space="preserve" font-family="HelveticaNeue-Light" font-size="42.0" fill="#000000" transform="matrix(1.00, 0.00, -0.00, -1.00, 155.6, 645.0)">i</text><text xml:space="preserve" font-family="HelveticaNeue-Light" font-size="42.0" fill="#000000" transform="matrix(1.00, 0.00, -0.00, -1.00, 163.3, 645.0)">s</text><text xml:space="preserve" font-family="HelveticaNeue-Light" font-size="42.0" fill="#000000" transform="matrix(1.00, 0.00, -0.00, -1.00, 183.5, 645.0)"> </text><text xml:space="preserve" font-family="HelveticaNeue-Light" font-size="42.0" fill="#000000" transform="matrix(1.00, 0.00, -0.00, -1.00, 195.2, 645.0)">a</text><text xml:space="preserve" font-family="HelveticaNeue-Light" font-size="42.0" fill="#000000" transform="matrix(1.00, 0.00, -0.00, -1.00, 217.0, 645.0)"> </text><text xml:space="preserve" font-family="HelveticaNeue-Light" font-size="42.0" fill="#000000" transform="matrix(1.00, 0.00, -0.00, -1.00, 228.7, 645.0)">d</text><text xml:space="preserve" font-family="HelveticaNeue-Light" font-size="42.0" fill="#000000" transform="matrix(1.00, 0.00, -0.00, -1.00, 252.8, 645.0)">e</text><text xml:space="preserve" font-family="HelveticaNeue-Light" font-size="42.0" fill="#000000" transform="matrix(1.00, 0.00, -0.00, -1.00, 274.6, 645.0)">c</text><text xml:space="preserve" font-family="HelveticaNeue-Light" font-size="42.0" fill="#000000" transform="matrix(1.00, 0.00, -0.00, -1.00, 296.4, 645.0)">i</text><text xml:space="preserve" font-family="HelveticaNeue-Light" font-size="42.0" fill="#000000" transform="matrix(1.00, 0.00, -0.00, -1.00, 304.1, 645.0)">s</text><text xml:space="preserve" font-family="HelveticaNeue-Light" font-size="42.0" fill="#000000" transform="matrix(1.00, 0.00, -0.00, -1.00, 324.4, 645.0)">i</text><text xml:space="preserve" font-family="HelveticaNeue-Light" font-size="42.0" fill="#000000" transform="matrix(1.00, 0.00, -0.00, -1.00, 332.1, 645.0)">o</text><text xml:space="preserve" font-family="HelveticaNeue-Light" font-size="42.0" fill="#000000" transform="matrix(1.00, 0.00, -0.00, -1.00, 355.5, 645.0)">n</text><text xml:space="preserve" font-family="HelveticaNeue-Light" font-size="42.0" fill="#000000" transform="matrix(1.00, 0.00, -0.00, -1.00, 378.0, 645.0)">?</text><text xml:space="preserve" font-family="HelveticaNeue" font-size="14.0" fill="#000000" transform="matrix(1.00, 0.00, -0.00, -1.00, 971.0, 27.4)">1</text><text xml:space="preserve" font-family="HelveticaNeue" font-size="14.0" fill="#000000" transform="matrix(1.00, 0.00, -0.00, -1.00, 978.8, 27.4)">1</text><g><clipPath id="clip-346"><path d="M 44.5 593.5 L 978.5 593.5 L 978.5 68.5 L 44.5 68.5 Z M 44.5 593.5 "></path></clipPath><g clip-path="url(#clip-346)"><path d="M 45.0 593.0 L 278.2 593.0 L 278.2 505.7 L 45.0 505.7 Z M 45.0 593.0 " fill="#325D6A"></path><path d="M 278.2 593.0 L 511.5 593.0 L 511.5 505.7 L 278.2 505.7 Z M 278.2 593.0 " fill="#325D6A"></path><path d="M 511.5 593.0 L 744.8 593.0 L 744.8 505.7 L 511.5 505.7 Z M 511.5 593.0 " fill="#325D6A"></path><path d="M 744.8 593.0 L 978.0 593.0 L 978.0 505.7 L 744.8 505.7 Z M 744.8 593.0 " fill="#325D6A"></path><path d="M 45.0 505.7 L 278.2 505.7 L 278.2 418.3 L 45.0 418.3 Z M 45.0 505.7 " fill="#E8E8E8"></path><path d="M 45.0 418.3 L 278.2 418.3 L 278.2 331.0 L 45.0 331.0 Z M 45.0 418.3 " fill="#E8E8E8"></path><path d="M 45.0 331.0 L 278.2 331.0 L 278.2 243.7 L 45.0 243.7 Z M 45.0 331.0 " fill="#E8E8E8"></path><path d="M 45.0 243.7 L 278.2 243.7 L 278.2 156.3 L 45.0 156.3 Z M 45.0 243.7 " fill="#E8E8E8"></path><path d="M 45.0 156.3 L 278.2 156.3 L 278.2 69.0 L 45.0 69.0 Z M 45.0 156.3 " fill="#E8E8E8"></path></g></g><g><clipPath id="clip-347"><path d="M 44.5 593.5 L 978.5 593.5 L 978.5 68.5 L 44.5 68.5 Z M 44.5 593.5 "></path></clipPath><g clip-path="url(#clip-347)"><g><clipPath id="clip-348"><path d="M 278.2 505.7 L 511.5 505.7 L 511.5 592.5 L 278.2 592.5 Z M 278.2 505.7 "></path></clipPath><g clip-path="url(#clip-348)"><text xml:space="preserve" font-family="HelveticaNeue" font-size="28.0" fill="#FEFFFE" transform="matrix(1.00, 0.00, -0.00, -1.00, 363.0, 538.0)">P</text><text xml:space="preserve" font-family="HelveticaNeue" font-size="28.0" fill="#FEFFFE" transform="matrix(1.00, 0.00, -0.00, -1.00, 381.1, 538.0)">r</text><text xml:space="preserve" font-family="HelveticaNeue" font-size="28.0" fill="#FEFFFE" transform="matrix(1.00, 0.00, -0.00, -1.00, 390.5, 538.0)">i</text><text xml:space="preserve" font-family="HelveticaNeue" font-size="28.0" fill="#FEFFFE" transform="matrix(1.00, 0.00, -0.00, -1.00, 396.7, 538.0)">c</text><text xml:space="preserve" font-family="HelveticaNeue" font-size="28.0" fill="#FEFFFE" transform="matrix(1.00, 0.00, -0.00, -1.00, 411.7, 538.0)">e</text></g></g></g></g><g><clipPath id="clip-349"><path d="M 44.5 593.5 L 978.5 593.5 L 978.5 68.5 L 44.5 68.5 Z M 44.5 593.5 "></path></clipPath><g clip-path="url(#clip-349)"><g><clipPath id="clip-350"><path d="M 511.5 505.7 L 744.8 505.7 L 744.8 592.5 L 511.5 592.5 Z M 511.5 505.7 "></path></clipPath><g clip-path="url(#clip-350)"><text xml:space="preserve" font-family="HelveticaNeue" font-size="28.0" fill="#FEFFFE" transform="matrix(1.00, 0.00, -0.00, -1.00, 585.0, 538.0)">Q</text><text xml:space="preserve" font-family="HelveticaNeue" font-size="28.0" fill="#FEFFFE" transform="matrix(1.00, 0.00, -0.00, -1.00, 606.3, 538.0)">u</text><text xml:space="preserve" font-family="HelveticaNeue" font-size="28.0" fill="#FEFFFE" transform="matrix(1.00, 0.00, -0.00, -1.00, 621.8, 538.0)">a</text><text xml:space="preserve" font-family="HelveticaNeue" font-size="28.0" fill="#FEFFFE" transform="matrix(1.00, 0.00, -0.00, -1.00, 636.9, 538.0)">l</text><text xml:space="preserve" font-family="HelveticaNeue" font-size="28.0" fill="#FEFFFE" transform="matrix(1.00, 0.00, -0.00, -1.00, 643.1, 538.0)">i</text><text xml:space="preserve" font-family="HelveticaNeue" font-size="28.0" fill="#FEFFFE" transform="matrix(1.00, 0.00, -0.00, -1.00, 649.3, 538.0)">t</text><text xml:space="preserve" font-family="HelveticaNeue" font-size="28.0" fill="#FEFFFE" transform="matrix(1.00, 0.00, -0.00, -1.00, 658.1, 538.0)">y</text></g></g></g></g><g><clipPath id="clip-351"><path d="M 44.5 593.5 L 978.5 593.5 L 978.5 68.5 L 44.5 68.5 Z M 44.5 593.5 "></path></clipPath><g clip-path="url(#clip-351)"><g><clipPath id="clip-352"><path d="M 744.8 505.7 L 977.5 505.7 L 977.5 592.5 L 744.8 592.5 Z M 744.8 505.7 "></path></clipPath><g clip-path="url(#clip-352)"><text xml:space="preserve" font-family="HelveticaNeue" font-size="28.0" fill="#FEFFFE" transform="matrix(1.00, 0.00, -0.00, -1.00, 806.0, 538.0)">D</text><text xml:space="preserve" font-family="HelveticaNeue" font-size="28.0" fill="#FEFFFE" transform="matrix(1.00, 0.00, -0.00, -1.00, 825.7, 538.0)">i</text><text xml:space="preserve" font-family="HelveticaNeue" font-size="28.0" fill="#FEFFFE" transform="matrix(1.00, 0.00, -0.00, -1.00, 831.9, 538.0)">s</text><text xml:space="preserve" font-family="HelveticaNeue" font-size="28.0" fill="#FEFFFE" transform="matrix(1.00, 0.00, -0.00, -1.00, 845.9, 538.0)">t</text><text xml:space="preserve" font-family="HelveticaNeue" font-size="28.0" fill="#FEFFFE" transform="matrix(1.00, 0.00, -0.00, -1.00, 854.7, 538.0)">a</text><text xml:space="preserve" font-family="HelveticaNeue" font-size="28.0" fill="#FEFFFE" transform="matrix(1.00, 0.00, -0.00, -1.00, 869.8, 538.0)">n</text><text xml:space="preserve" font-family="HelveticaNeue" font-size="28.0" fill="#FEFFFE" transform="matrix(1.00, 0.00, -0.00, -1.00, 885.4, 538.0)">c</text><text xml:space="preserve" font-family="HelveticaNeue" font-size="28.0" fill="#FEFFFE" transform="matrix(1.00, 0.00, -0.00, -1.00, 900.4, 538.0)">e</text></g></g></g></g><g><clipPath id="clip-353"><path d="M 44.5 593.5 L 978.5 593.5 L 978.5 68.5 L 44.5 68.5 Z M 44.5 593.5 "></path></clipPath><g clip-path="url(#clip-353)"><g><clipPath id="clip-354"><path d="M 45.5 419.3 L 277.8 419.3 L 277.8 505.7 L 45.5 505.7 Z M 45.5 419.3 "></path></clipPath><g clip-path="url(#clip-354)"><text xml:space="preserve" font-family="HelveticaNeue" font-size="28.0" fill="#434343" transform="matrix(1.00, 0.00, -0.00, -1.00, 86.0, 452.0)">M</text><text xml:space="preserve" font-family="HelveticaNeue" font-size="28.0" fill="#434343" transform="matrix(1.00, 0.00, -0.00, -1.00, 110.4, 452.0)">c</text><text xml:space="preserve" font-family="HelveticaNeue" font-size="28.0" fill="#434343" transform="matrix(1.00, 0.00, -0.00, -1.00, 125.4, 452.0)">D</text><text xml:space="preserve" font-family="HelveticaNeue" font-size="28.0" fill="#434343" transform="matrix(1.00, 0.00, -0.00, -1.00, 145.1, 452.0)">o</text><text xml:space="preserve" font-family="HelveticaNeue" font-size="28.0" fill="#434343" transform="matrix(1.00, 0.00, -0.00, -1.00, 161.2, 452.0)">n</text><text xml:space="preserve" font-family="HelveticaNeue" font-size="28.0" fill="#434343" transform="matrix(1.00, 0.00, -0.00, -1.00, 176.8, 452.0)">a</text><text xml:space="preserve" font-family="HelveticaNeue" font-size="28.0" fill="#434343" transform="matrix(1.00, 0.00, -0.00, -1.00, 191.8, 452.0)">l</text><text xml:space="preserve" font-family="HelveticaNeue" font-size="28.0" fill="#434343" transform="matrix(1.00, 0.00, -0.00, -1.00, 198.0, 452.0)">d</text><text xml:space="preserve" font-family="HelveticaNeue" font-size="28.0" fill="#434343" transform="matrix(1.00, 0.00, -0.00, -1.00, 214.6, 452.0)">'</text><text xml:space="preserve" font-family="HelveticaNeue" font-size="28.0" fill="#434343" transform="matrix(1.00, 0.00, -0.00, -1.00, 222.4, 452.0)">s</text></g></g></g></g><g><clipPath id="clip-355"><path d="M 44.5 593.5 L 978.5 593.5 L 978.5 68.5 L 44.5 68.5 Z M 44.5 593.5 "></path></clipPath><g clip-path="url(#clip-355)"><g><clipPath id="clip-356"><path d="M 278.8 419.3 L 511.5 419.3 L 511.5 505.7 L 278.8 505.7 Z M 278.8 419.3 "></path></clipPath><g clip-path="url(#clip-356)"><text xml:space="preserve" font-family="HelveticaNeue" font-size="28.0" fill="#434343" transform="matrix(1.00, 0.00, -0.00, -1.00, 369.0, 452.0)">L</text><text xml:space="preserve" font-family="HelveticaNeue" font-size="28.0" fill="#434343" transform="matrix(1.00, 0.00, -0.00, -1.00, 384.6, 452.0)">o</text><text xml:space="preserve" font-family="HelveticaNeue" font-size="28.0" fill="#434343" transform="matrix(1.00, 0.00, -0.00, -1.00, 400.6, 452.0)">w</text></g></g></g></g><g><clipPath id="clip-357"><path d="M 44.5 593.5 L 978.5 593.5 L 978.5 68.5 L 44.5 68.5 Z M 44.5 593.5 "></path></clipPath><g clip-path="url(#clip-357)"><g><clipPath id="clip-358"><path d="M 511.5 419.3 L 744.8 419.3 L 744.8 505.7 L 511.5 505.7 Z M 511.5 419.3 "></path></clipPath><g clip-path="url(#clip-358)"><text xml:space="preserve" font-family="HelveticaNeue" font-size="28.0" fill="#434343" transform="matrix(1.00, 0.00, -0.00, -1.00, 602.0, 452.0)">L</text><text xml:space="preserve" font-family="HelveticaNeue" font-size="28.0" fill="#434343" transform="matrix(1.00, 0.00, -0.00, -1.00, 617.6, 452.0)">o</text><text xml:space="preserve" font-family="HelveticaNeue" font-size="28.0" fill="#434343" transform="matrix(1.00, 0.00, -0.00, -1.00, 633.6, 452.0)">w</text></g></g></g></g><g><clipPath id="clip-359"><path d="M 44.5 593.5 L 978.5 593.5 L 978.5 68.5 L 44.5 68.5 Z M 44.5 593.5 "></path></clipPath><g clip-path="url(#clip-359)"><g><clipPath id="clip-360"><path d="M 744.8 419.3 L 977.5 419.3 L 977.5 505.7 L 744.8 505.7 Z M 744.8 419.3 "></path></clipPath><g clip-path="url(#clip-360)"><text xml:space="preserve" font-family="HelveticaNeue" font-size="28.0" fill="#434343" transform="matrix(1.00, 0.00, -0.00, -1.00, 825.0, 452.0)">C</text><text xml:space="preserve" font-family="HelveticaNeue" font-size="28.0" fill="#434343" transform="matrix(1.00, 0.00, -0.00, -1.00, 845.2, 452.0)">l</text><text xml:space="preserve" font-family="HelveticaNeue" font-size="28.0" fill="#434343" transform="matrix(1.00, 0.00, -0.00, -1.00, 851.4, 452.0)">o</text><text xml:space="preserve" font-family="HelveticaNeue" font-size="28.0" fill="#434343" transform="matrix(1.00, 0.00, -0.00, -1.00, 867.5, 452.0)">s</text><text xml:space="preserve" font-family="HelveticaNeue" font-size="28.0" fill="#434343" transform="matrix(1.00, 0.00, -0.00, -1.00, 881.5, 452.0)">e</text></g></g></g></g><g><clipPath id="clip-361"><path d="M 44.5 593.5 L 978.5 593.5 L 978.5 68.5 L 44.5 68.5 Z M 44.5 593.5 "></path></clipPath><g clip-path="url(#clip-361)"><g><clipPath id="clip-362"><path d="M 45.5 332.0 L 277.8 332.0 L 277.8 417.3 L 45.5 417.3 Z M 45.5 332.0 "></path></clipPath><g clip-path="url(#clip-362)"><text xml:space="preserve" font-family="HelveticaNeue" font-size="28.0" fill="#434343" transform="matrix(1.00, 0.00, -0.00, -1.00, 115.0, 364.0)">K</text><text xml:space="preserve" font-family="HelveticaNeue" font-size="28.0" fill="#434343" transform="matrix(1.00, 0.00, -0.00, -1.00, 133.7, 364.0)">u</text><text xml:space="preserve" font-family="HelveticaNeue" font-size="28.0" fill="#434343" transform="matrix(1.00, 0.00, -0.00, -1.00, 149.2, 364.0)">m</text><text xml:space="preserve" font-family="HelveticaNeue" font-size="28.0" fill="#434343" transform="matrix(1.00, 0.00, -0.00, -1.00, 173.1, 364.0)">a</text><text xml:space="preserve" font-family="HelveticaNeue" font-size="28.0" fill="#434343" transform="matrix(1.00, 0.00, -0.00, -1.00, 188.2, 364.0)">’</text><text xml:space="preserve" font-family="HelveticaNeue" font-size="28.0" fill="#434343" transform="matrix(1.00, 0.00, -0.00, -1.00, 193.9, 364.0)">s</text></g></g></g></g><g><clipPath id="clip-363"><path d="M 44.5 593.5 L 978.5 593.5 L 978.5 68.5 L 44.5 68.5 Z M 44.5 593.5 "></path></clipPath><g clip-path="url(#clip-363)"><g><clipPath id="clip-364"><path d="M 278.8 332.0 L 511.5 332.0 L 511.5 417.3 L 278.8 417.3 Z M 278.8 332.0 "></path></clipPath><g clip-path="url(#clip-364)"><text xml:space="preserve" font-family="HelveticaNeue" font-size="28.0" fill="#434343" transform="matrix(1.00, 0.00, -0.00, -1.00, 367.0, 364.0)">M</text><text xml:space="preserve" font-family="HelveticaNeue" font-size="28.0" fill="#434343" transform="matrix(1.00, 0.00, -0.00, -1.00, 391.4, 364.0)">e</text><text xml:space="preserve" font-family="HelveticaNeue" font-size="28.0" fill="#434343" transform="matrix(1.00, 0.00, -0.00, -1.00, 406.4, 364.0)">d</text></g></g></g></g><g><clipPath id="clip-365"><path d="M 44.5 593.5 L 978.5 593.5 L 978.5 68.5 L 44.5 68.5 Z M 44.5 593.5 "></path></clipPath><g clip-path="url(#clip-365)"><g><clipPath id="clip-366"><path d="M 511.5 332.0 L 744.8 332.0 L 744.8 417.3 L 511.5 417.3 Z M 511.5 332.0 "></path></clipPath><g clip-path="url(#clip-366)"><text xml:space="preserve" font-family="HelveticaNeue" font-size="28.0" fill="#434343" transform="matrix(1.00, 0.00, -0.00, -1.00, 599.0, 364.0)">H</text><text xml:space="preserve" font-family="HelveticaNeue" font-size="28.0" fill="#434343" transform="matrix(1.00, 0.00, -0.00, -1.00, 619.2, 364.0)">i</text><text xml:space="preserve" font-family="HelveticaNeue" font-size="28.0" fill="#434343" transform="matrix(1.00, 0.00, -0.00, -1.00, 625.4, 364.0)">g</text><text xml:space="preserve" font-family="HelveticaNeue" font-size="28.0" fill="#434343" transform="matrix(1.00, 0.00, -0.00, -1.00, 641.5, 364.0)">h</text></g></g></g></g><g><clipPath id="clip-367"><path d="M 44.5 593.5 L 978.5 593.5 L 978.5 68.5 L 44.5 68.5 Z M 44.5 593.5 "></path></clipPath><g clip-path="url(#clip-367)"><g><clipPath id="clip-368"><path d="M 744.8 332.0 L 977.5 332.0 L 977.5 417.3 L 744.8 417.3 Z M 744.8 332.0 "></path></clipPath><g clip-path="url(#clip-368)"><text xml:space="preserve" font-family="HelveticaNeue" font-size="28.0" fill="#434343" transform="matrix(1.00, 0.00, -0.00, -1.00, 841.0, 364.0)">F</text><text xml:space="preserve" font-family="HelveticaNeue" font-size="28.0" fill="#434343" transform="matrix(1.00, 0.00, -0.00, -1.00, 857.1, 364.0)">a</text><text xml:space="preserve" font-family="HelveticaNeue" font-size="28.0" fill="#434343" transform="matrix(1.00, 0.00, -0.00, -1.00, 872.1, 364.0)">r</text></g></g></g></g><g><clipPath id="clip-369"><path d="M 44.5 593.5 L 978.5 593.5 L 978.5 68.5 L 44.5 68.5 Z M 44.5 593.5 "></path></clipPath><g clip-path="url(#clip-369)"><g><clipPath id="clip-370"><path d="M 45.5 244.7 L 277.8 244.7 L 277.8 330.0 L 45.5 330.0 Z M 45.5 244.7 "></path></clipPath><g clip-path="url(#clip-370)"><text xml:space="preserve" font-family="HelveticaNeue" font-size="28.0" fill="#434343" transform="matrix(1.00, 0.00, -0.00, -1.00, 92.0, 277.0)">2</text><text xml:space="preserve" font-family="HelveticaNeue" font-size="28.0" fill="#434343" transform="matrix(1.00, 0.00, -0.00, -1.00, 107.6, 277.0)">5</text><text xml:space="preserve" font-family="HelveticaNeue" font-size="28.0" fill="#434343" transform="matrix(1.00, 0.00, -0.00, -1.00, 123.1, 277.0)"> </text><text xml:space="preserve" font-family="HelveticaNeue" font-size="28.0" fill="#434343" transform="matrix(1.00, 0.00, -0.00, -1.00, 130.9, 277.0)">d</text><text xml:space="preserve" font-family="HelveticaNeue" font-size="28.0" fill="#434343" transform="matrix(1.00, 0.00, -0.00, -1.00, 147.5, 277.0)">e</text><text xml:space="preserve" font-family="HelveticaNeue" font-size="28.0" fill="#434343" transform="matrix(1.00, 0.00, -0.00, -1.00, 162.6, 277.0)">g</text><text xml:space="preserve" font-family="HelveticaNeue" font-size="28.0" fill="#434343" transform="matrix(1.00, 0.00, -0.00, -1.00, 178.6, 277.0)">r</text><text xml:space="preserve" font-family="HelveticaNeue" font-size="28.0" fill="#434343" transform="matrix(1.00, 0.00, -0.00, -1.00, 187.5, 277.0)">e</text><text xml:space="preserve" font-family="HelveticaNeue" font-size="28.0" fill="#434343" transform="matrix(1.00, 0.00, -0.00, -1.00, 202.5, 277.0)">e</text><text xml:space="preserve" font-family="HelveticaNeue" font-size="28.0" fill="#434343" transform="matrix(1.00, 0.00, -0.00, -1.00, 217.5, 277.0)">s</text></g></g></g></g><g><clipPath id="clip-371"><path d="M 44.5 593.5 L 978.5 593.5 L 978.5 68.5 L 44.5 68.5 Z M 44.5 593.5 "></path></clipPath><g clip-path="url(#clip-371)"><g><clipPath id="clip-372"><path d="M 278.8 244.7 L 511.5 244.7 L 511.5 330.0 L 278.8 330.0 Z M 278.8 244.7 "></path></clipPath><g clip-path="url(#clip-372)"><text xml:space="preserve" font-family="HelveticaNeue" font-size="28.0" fill="#434343" transform="matrix(1.00, 0.00, -0.00, -1.00, 367.0, 277.0)">M</text><text xml:space="preserve" font-family="HelveticaNeue" font-size="28.0" fill="#434343" transform="matrix(1.00, 0.00, -0.00, -1.00, 391.4, 277.0)">e</text><text xml:space="preserve" font-family="HelveticaNeue" font-size="28.0" fill="#434343" transform="matrix(1.00, 0.00, -0.00, -1.00, 406.4, 277.0)">d</text></g></g></g></g><g><clipPath id="clip-373"><path d="M 44.5 593.5 L 978.5 593.5 L 978.5 68.5 L 44.5 68.5 Z M 44.5 593.5 "></path></clipPath><g clip-path="url(#clip-373)"><g><clipPath id="clip-374"><path d="M 511.5 244.7 L 744.8 244.7 L 744.8 330.0 L 511.5 330.0 Z M 511.5 244.7 "></path></clipPath><g clip-path="url(#clip-374)"><text xml:space="preserve" font-family="HelveticaNeue" font-size="28.0" fill="#434343" transform="matrix(1.00, 0.00, -0.00, -1.00, 599.0, 277.0)">H</text><text xml:space="preserve" font-family="HelveticaNeue" font-size="28.0" fill="#434343" transform="matrix(1.00, 0.00, -0.00, -1.00, 619.2, 277.0)">i</text><text xml:space="preserve" font-family="HelveticaNeue" font-size="28.0" fill="#434343" transform="matrix(1.00, 0.00, -0.00, -1.00, 625.4, 277.0)">g</text><text xml:space="preserve" font-family="HelveticaNeue" font-size="28.0" fill="#434343" transform="matrix(1.00, 0.00, -0.00, -1.00, 641.5, 277.0)">h</text></g></g></g></g><g><clipPath id="clip-375"><path d="M 44.5 593.5 L 978.5 593.5 L 978.5 68.5 L 44.5 68.5 Z M 44.5 593.5 "></path></clipPath><g clip-path="url(#clip-375)"><g><clipPath id="clip-376"><path d="M 744.8 244.7 L 977.5 244.7 L 977.5 330.0 L 744.8 330.0 Z M 744.8 244.7 "></path></clipPath><g clip-path="url(#clip-376)"><text xml:space="preserve" font-family="HelveticaNeue" font-size="28.0" fill="#434343" transform="matrix(1.00, 0.00, -0.00, -1.00, 833.0, 277.0)">M</text><text xml:space="preserve" font-family="HelveticaNeue" font-size="28.0" fill="#434343" transform="matrix(1.00, 0.00, -0.00, -1.00, 857.4, 277.0)">e</text><text xml:space="preserve" font-family="HelveticaNeue" font-size="28.0" fill="#434343" transform="matrix(1.00, 0.00, -0.00, -1.00, 872.4, 277.0)">d</text></g></g></g></g><g><clipPath id="clip-377"><path d="M 44.5 593.5 L 978.5 593.5 L 978.5 68.5 L 44.5 68.5 Z M 44.5 593.5 "></path></clipPath><g clip-path="url(#clip-377)"><g><clipPath id="clip-378"><path d="M 45.5 157.3 L 277.8 157.3 L 277.8 242.7 L 45.5 242.7 Z M 45.5 157.3 "></path></clipPath><g clip-path="url(#clip-378)"><text xml:space="preserve" font-family="HelveticaNeue" font-size="28.0" fill="#434343" transform="matrix(1.00, 0.00, -0.00, -1.00, 61.0, 189.0)">D</text><text xml:space="preserve" font-family="HelveticaNeue" font-size="28.0" fill="#434343" transform="matrix(1.00, 0.00, -0.00, -1.00, 80.7, 189.0)">M</text><text xml:space="preserve" font-family="HelveticaNeue" font-size="28.0" fill="#434343" transform="matrix(1.00, 0.00, -0.00, -1.00, 105.1, 189.0)">K</text><text xml:space="preserve" font-family="HelveticaNeue" font-size="28.0" fill="#434343" transform="matrix(1.00, 0.00, -0.00, -1.00, 123.8, 189.0)"> </text><text xml:space="preserve" font-family="HelveticaNeue" font-size="28.0" fill="#434343" transform="matrix(1.00, 0.00, -0.00, -1.00, 131.6, 189.0)">b</text><text xml:space="preserve" font-family="HelveticaNeue" font-size="28.0" fill="#434343" transform="matrix(1.00, 0.00, -0.00, -1.00, 148.2, 189.0)">u</text><text xml:space="preserve" font-family="HelveticaNeue" font-size="28.0" fill="#434343" transform="matrix(1.00, 0.00, -0.00, -1.00, 163.7, 189.0)">r</text><text xml:space="preserve" font-family="HelveticaNeue" font-size="28.0" fill="#434343" transform="matrix(1.00, 0.00, -0.00, -1.00, 172.3, 189.0)">g</text><text xml:space="preserve" font-family="HelveticaNeue" font-size="28.0" fill="#434343" transform="matrix(1.00, 0.00, -0.00, -1.00, 188.3, 189.0)">e</text><text xml:space="preserve" font-family="HelveticaNeue" font-size="28.0" fill="#434343" transform="matrix(1.00, 0.00, -0.00, -1.00, 203.4, 189.0)">r</text><text xml:space="preserve" font-family="HelveticaNeue" font-size="28.0" fill="#434343" transform="matrix(1.00, 0.00, -0.00, -1.00, 212.7, 189.0)"> </text><text xml:space="preserve" font-family="HelveticaNeue" font-size="28.0" fill="#434343" transform="matrix(1.00, 0.00, -0.00, -1.00, 220.5, 189.0)">b</text><text xml:space="preserve" font-family="HelveticaNeue" font-size="28.0" fill="#434343" transform="matrix(1.00, 0.00, -0.00, -1.00, 237.1, 189.0)">a</text><text xml:space="preserve" font-family="HelveticaNeue" font-size="28.0" fill="#434343" transform="matrix(1.00, 0.00, -0.00, -1.00, 252.1, 189.0)">r</text></g></g></g></g><g><clipPath id="clip-379"><path d="M 44.5 593.5 L 978.5 593.5 L 978.5 68.5 L 44.5 68.5 Z M 44.5 593.5 "></path></clipPath><g clip-path="url(#clip-379)"><g><clipPath id="clip-380"><path d="M 278.8 157.3 L 511.5 157.3 L 511.5 242.7 L 278.8 242.7 Z M 278.8 157.3 "></path></clipPath><g clip-path="url(#clip-380)"><text xml:space="preserve" font-family="HelveticaNeue" font-size="28.0" fill="#434343" transform="matrix(1.00, 0.00, -0.00, -1.00, 367.0, 189.0)">M</text><text xml:space="preserve" font-family="HelveticaNeue" font-size="28.0" fill="#434343" transform="matrix(1.00, 0.00, -0.00, -1.00, 391.4, 189.0)">e</text><text xml:space="preserve" font-family="HelveticaNeue" font-size="28.0" fill="#434343" transform="matrix(1.00, 0.00, -0.00, -1.00, 406.4, 189.0)">d</text></g></g></g></g><g><clipPath id="clip-381"><path d="M 44.5 593.5 L 978.5 593.5 L 978.5 68.5 L 44.5 68.5 Z M 44.5 593.5 "></path></clipPath><g clip-path="url(#clip-381)"><g><clipPath id="clip-382"><path d="M 511.5 157.3 L 744.8 157.3 L 744.8 242.7 L 511.5 242.7 Z M 511.5 157.3 "></path></clipPath><g clip-path="url(#clip-382)"><text xml:space="preserve" font-family="HelveticaNeue" font-size="28.0" fill="#434343" transform="matrix(1.00, 0.00, -0.00, -1.00, 600.0, 189.0)">M</text><text xml:space="preserve" font-family="HelveticaNeue" font-size="28.0" fill="#434343" transform="matrix(1.00, 0.00, -0.00, -1.00, 624.4, 189.0)">e</text><text xml:space="preserve" font-family="HelveticaNeue" font-size="28.0" fill="#434343" transform="matrix(1.00, 0.00, -0.00, -1.00, 639.4, 189.0)">d</text></g></g></g></g><g><clipPath id="clip-383"><path d="M 44.5 593.5 L 978.5 593.5 L 978.5 68.5 L 44.5 68.5 Z M 44.5 593.5 "></path></clipPath><g clip-path="url(#clip-383)"><g><clipPath id="clip-384"><path d="M 744.8 157.3 L 977.5 157.3 L 977.5 242.7 L 744.8 242.7 Z M 744.8 157.3 "></path></clipPath><g clip-path="url(#clip-384)"><text xml:space="preserve" font-family="HelveticaNeue" font-size="28.0" fill="#434343" transform="matrix(1.00, 0.00, -0.00, -1.00, 825.0, 189.0)">C</text><text xml:space="preserve" font-family="HelveticaNeue" font-size="28.0" fill="#434343" transform="matrix(1.00, 0.00, -0.00, -1.00, 845.2, 189.0)">l</text><text xml:space="preserve" font-family="HelveticaNeue" font-size="28.0" fill="#434343" transform="matrix(1.00, 0.00, -0.00, -1.00, 851.4, 189.0)">o</text><text xml:space="preserve" font-family="HelveticaNeue" font-size="28.0" fill="#434343" transform="matrix(1.00, 0.00, -0.00, -1.00, 867.5, 189.0)">s</text><text xml:space="preserve" font-family="HelveticaNeue" font-size="28.0" fill="#434343" transform="matrix(1.00, 0.00, -0.00, -1.00, 881.5, 189.0)">e</text></g></g></g></g><g><clipPath id="clip-385"><path d="M 44.5 593.5 L 978.5 593.5 L 978.5 68.5 L 44.5 68.5 Z M 44.5 593.5 "></path></clipPath><g clip-path="url(#clip-385)"><g><clipPath id="clip-386"><path d="M 45.5 69.5 L 277.8 69.5 L 277.8 155.3 L 45.5 155.3 Z M 45.5 69.5 "></path></clipPath><g clip-path="url(#clip-386)"><text xml:space="preserve" font-family="HelveticaNeue" font-size="28.0" fill="#434343" transform="matrix(1.00, 0.00, -0.00, -1.00, 77.0, 102.0)">R</text><text xml:space="preserve" font-family="HelveticaNeue" font-size="28.0" fill="#434343" transform="matrix(1.00, 0.00, -0.00, -1.00, 96.2, 102.0)">L</text><text xml:space="preserve" font-family="HelveticaNeue" font-size="28.0" fill="#434343" transform="matrix(1.00, 0.00, -0.00, -1.00, 111.7, 102.0)"> </text><text xml:space="preserve" font-family="HelveticaNeue" font-size="28.0" fill="#434343" transform="matrix(1.00, 0.00, -0.00, -1.00, 119.5, 102.0)">r</text><text xml:space="preserve" font-family="HelveticaNeue" font-size="28.0" fill="#434343" transform="matrix(1.00, 0.00, -0.00, -1.00, 128.4, 102.0)">e</text><text xml:space="preserve" font-family="HelveticaNeue" font-size="28.0" fill="#434343" transform="matrix(1.00, 0.00, -0.00, -1.00, 143.4, 102.0)">s</text><text xml:space="preserve" font-family="HelveticaNeue" font-size="28.0" fill="#434343" transform="matrix(1.00, 0.00, -0.00, -1.00, 157.4, 102.0)">t</text><text xml:space="preserve" font-family="HelveticaNeue" font-size="28.0" fill="#434343" transform="matrix(1.00, 0.00, -0.00, -1.00, 166.2, 102.0)">a</text><text xml:space="preserve" font-family="HelveticaNeue" font-size="28.0" fill="#434343" transform="matrix(1.00, 0.00, -0.00, -1.00, 181.2, 102.0)">u</text><text xml:space="preserve" font-family="HelveticaNeue" font-size="28.0" fill="#434343" transform="matrix(1.00, 0.00, -0.00, -1.00, 196.8, 102.0)">r</text><text xml:space="preserve" font-family="HelveticaNeue" font-size="28.0" fill="#434343" transform="matrix(1.00, 0.00, -0.00, -1.00, 206.1, 102.0)">a</text><text xml:space="preserve" font-family="HelveticaNeue" font-size="28.0" fill="#434343" transform="matrix(1.00, 0.00, -0.00, -1.00, 221.2, 102.0)">n</text><text xml:space="preserve" font-family="HelveticaNeue" font-size="28.0" fill="#434343" transform="matrix(1.00, 0.00, -0.00, -1.00, 236.7, 102.0)">t</text></g></g></g></g><g><clipPath id="clip-387"><path d="M 44.5 593.5 L 978.5 593.5 L 978.5 68.5 L 44.5 68.5 Z M 44.5 593.5 "></path></clipPath><g clip-path="url(#clip-387)"><g><clipPath id="clip-388"><path d="M 278.8 69.5 L 511.5 69.5 L 511.5 155.3 L 278.8 155.3 Z M 278.8 69.5 "></path></clipPath><g clip-path="url(#clip-388)"><text xml:space="preserve" font-family="HelveticaNeue" font-size="28.0" fill="#434343" transform="matrix(1.00, 0.00, -0.00, -1.00, 366.0, 102.0)">H</text><text xml:space="preserve" font-family="HelveticaNeue" font-size="28.0" fill="#434343" transform="matrix(1.00, 0.00, -0.00, -1.00, 386.2, 102.0)">i</text><text xml:space="preserve" font-family="HelveticaNeue" font-size="28.0" fill="#434343" transform="matrix(1.00, 0.00, -0.00, -1.00, 392.4, 102.0)">g</text><text xml:space="preserve" font-family="HelveticaNeue" font-size="28.0" fill="#434343" transform="matrix(1.00, 0.00, -0.00, -1.00, 408.5, 102.0)">h</text></g></g></g></g><g><clipPath id="clip-389"><path d="M 44.5 593.5 L 978.5 593.5 L 978.5 68.5 L 44.5 68.5 Z M 44.5 593.5 "></path></clipPath><g clip-path="url(#clip-389)"><g><clipPath id="clip-390"><path d="M 511.5 69.5 L 744.8 69.5 L 744.8 155.3 L 511.5 155.3 Z M 511.5 69.5 "></path></clipPath><g clip-path="url(#clip-390)"><text xml:space="preserve" font-family="HelveticaNeue" font-size="28.0" fill="#434343" transform="matrix(1.00, 0.00, -0.00, -1.00, 599.0, 102.0)">H</text><text xml:space="preserve" font-family="HelveticaNeue" font-size="28.0" fill="#434343" transform="matrix(1.00, 0.00, -0.00, -1.00, 619.2, 102.0)">i</text><text xml:space="preserve" font-family="HelveticaNeue" font-size="28.0" fill="#434343" transform="matrix(1.00, 0.00, -0.00, -1.00, 625.4, 102.0)">g</text><text xml:space="preserve" font-family="HelveticaNeue" font-size="28.0" fill="#434343" transform="matrix(1.00, 0.00, -0.00, -1.00, 641.5, 102.0)">h</text></g></g></g></g><g><clipPath id="clip-391"><path d="M 44.5 593.5 L 978.5 593.5 L 978.5 68.5 L 44.5 68.5 Z M 44.5 593.5 "></path></clipPath><g clip-path="url(#clip-391)"><g><clipPath id="clip-392"><path d="M 744.8 69.5 L 977.5 69.5 L 977.5 155.3 L 744.8 155.3 Z M 744.8 69.5 "></path></clipPath><g clip-path="url(#clip-392)"><text xml:space="preserve" font-family="HelveticaNeue" font-size="28.0" fill="#434343" transform="matrix(1.00, 0.00, -0.00, -1.00, 833.0, 102.0)">M</text><text xml:space="preserve" font-family="HelveticaNeue" font-size="28.0" fill="#434343" transform="matrix(1.00, 0.00, -0.00, -1.00, 857.4, 102.0)">e</text><text xml:space="preserve" font-family="HelveticaNeue" font-size="28.0" fill="#434343" transform="matrix(1.00, 0.00, -0.00, -1.00, 872.4, 102.0)">d</text></g></g></g></g><g><clipPath id="clip-393"><path d="M 44.5 593.5 L 978.5 593.5 L 978.5 68.5 L 44.5 68.5 Z M 44.5 593.5 "></path></clipPath><g clip-path="url(#clip-393)"><path d="M 1.5 176.7 L 235.2 176.7 " fill="none" stroke="#C3C5C5" stroke-width="2.00" transform="matrix(1.00, 0.00, 0.00, -1.00, 43.0, 595.0)"></path><path d="M 235.2 176.7 L 935.5 176.7 " fill="none" stroke="#C3C5C5" stroke-width="2.00" transform="matrix(1.00, 0.00, 0.00, -1.00, 43.0, 595.0)"></path><path d="M 1.5 264.0 L 235.2 264.0 " fill="none" stroke="#C3C5C5" stroke-width="2.00" transform="matrix(1.00, 0.00, 0.00, -1.00, 43.0, 595.0)"></path><path d="M 235.2 264.0 L 935.5 264.0 " fill="none" stroke="#C3C5C5" stroke-width="2.00" transform="matrix(1.00, 0.00, 0.00, -1.00, 43.0, 595.0)"></path><path d="M 1.5 351.3 L 235.2 351.3 " fill="none" stroke="#C3C5C5" stroke-width="2.00" transform="matrix(1.00, 0.00, 0.00, -1.00, 43.0, 595.0)"></path><path d="M 235.2 351.3 L 935.5 351.3 " fill="none" stroke="#C3C5C5" stroke-width="2.00" transform="matrix(1.00, 0.00, 0.00, -1.00, 43.0, 595.0)"></path><path d="M 1.5 438.7 L 235.2 438.7 " fill="none" stroke="#C3C5C5" stroke-width="2.00" transform="matrix(1.00, 0.00, 0.00, -1.00, 43.0, 595.0)"></path><path d="M 235.2 438.7 L 935.5 438.7 " fill="none" stroke="#C3C5C5" stroke-width="2.00" transform="matrix(1.00, 0.00, 0.00, -1.00, 43.0, 595.0)"></path><path d="M 235.2 89.3 L 235.2 526.5 " fill="none" stroke="#C3C5C5" stroke-width="1.00" transform="matrix(1.00, 0.00, 0.00, -1.00, 43.0, 595.0)"></path><path d="M 2.0 1.5 L 2.0 89.3 " fill="none" stroke="#000000" stroke-width="1.00" transform="matrix(1.00, 0.00, 0.00, -1.00, 43.0, 595.0)"></path><path d="M 2.0 89.3 L 2.0 526.5 " fill="none" stroke="#000000" stroke-width="1.00" transform="matrix(1.00, 0.00, 0.00, -1.00, 43.0, 595.0)"></path><path d="M 935.0 1.5 L 935.0 89.3 " fill="none" stroke="#000000" stroke-width="1.00" transform="matrix(1.00, 0.00, 0.00, -1.00, 43.0, 595.0)"></path><path d="M 935.0 89.3 L 935.0 526.5 " fill="none" stroke="#000000" stroke-width="1.00" transform="matrix(1.00, 0.00, 0.00, -1.00, 43.0, 595.0)"></path><path d="M 1.5 2.0 L 935.5 2.0 " fill="none" stroke="#000000" stroke-width="1.00" transform="matrix(1.00, 0.00, 0.00, -1.00, 43.0, 595.0)"></path><path d="M 1.5 526.0 L 235.2 526.0 " fill="none" stroke="#000000" stroke-width="1.00" transform="matrix(1.00, 0.00, 0.00, -1.00, 43.0, 595.0)"></path><path d="M 235.2 526.0 L 935.5 526.0 " fill="none" stroke="#000000" stroke-width="1.00" transform="matrix(1.00, 0.00, 0.00, -1.00, 43.0, 595.0)"></path></g></g></g></svg>