<?xml version="1.0" encoding="UTF-8" standalone="no"?><svg xmlns="http://www.w3.org/2000/svg" xmlns:xlink="http://www.w3.org/1999/xlink" clip-rule="evenodd" stroke-miterlimit="4.00" viewBox="0 0 1024 768"><desc>SVG generated by Keynote</desc><defs></defs><g transform="matrix(1.00, 0.00, -0.00, -1.00, 0.0, 768.0)"><path d="M 0.0 768.0 L 1024.0 768.0 L 1024.0 0.0 L 0.0 0.0 Z M 0.0 768.0 " fill="#FEFFFE"></path><path d="M 0.0 0.0 L 934.5 0.0 " fill="none" stroke="#9A9A9A" stroke-width="1.00" transform="matrix(1.00, 0.00, 0.00, -1.00, 45.0, 613.0)"></path><text xml:space="preserve" font-family="HelveticaNeue-Light" font-size="42.0" fill="#000000" transform="matrix(1.00, 0.00, -0.00, -1.00, 49.0, 645.0)">T</text><text xml:space="preserve" font-family="HelveticaNeue-Light" font-size="42.0" fill="#000000" transform="matrix(1.00, 0.00, -0.00, -1.00, 68.5, 645.0)">u</text><text xml:space="preserve" font-family="HelveticaNeue-Light" font-size="42.0" fill="#000000" transform="matrix(1.00, 0.00, -0.00, -1.00, 91.0, 645.0)">n</text><text xml:space="preserve" font-family="HelveticaNeue-Light" font-size="42.0" fill="#000000" transform="matrix(1.00, 0.00, -0.00, -1.00, 113.6, 645.0)">e</text><text xml:space="preserve" font-family="HelveticaNeue-Light" font-size="42.0" fill="#000000" transform="matrix(1.00, 0.00, -0.00, -1.00, 135.4, 645.0)">r</text><text xml:space="preserve" font-family="HelveticaNeue-Light" font-size="42.0" fill="#000000" transform="matrix(1.00, 0.00, -0.00, -1.00, 148.6, 645.0)">:</text><text xml:space="preserve" font-family="HelveticaNeue-Light" font-size="42.0" fill="#000000" transform="matrix(1.00, 0.00, -0.00, -1.00, 160.3, 645.0)"> </text><text xml:space="preserve" font-family="HelveticaNeue-Light" font-size="42.0" fill="#000000" transform="matrix(1.00, 0.00, -0.00, -1.00, 172.0, 645.0)">w</text><text xml:space="preserve" font-family="HelveticaNeue-Light" font-size="42.0" fill="#000000" transform="matrix(1.00, 0.00, -0.00, -1.00, 203.1, 645.0)">e</text><text xml:space="preserve" font-family="HelveticaNeue-Light" font-size="42.0" fill="#000000" transform="matrix(1.00, 0.00, -0.00, -1.00, 224.9, 645.0)">i</text><text xml:space="preserve" font-family="HelveticaNeue-Light" font-size="42.0" fill="#000000" transform="matrix(1.00, 0.00, -0.00, -1.00, 232.7, 645.0)">g</text><text xml:space="preserve" font-family="HelveticaNeue-Light" font-size="42.0" fill="#000000" transform="matrix(1.00, 0.00, -0.00, -1.00, 256.0, 645.0)">h</text><text xml:space="preserve" font-family="HelveticaNeue-Light" font-size="42.0" fill="#000000" transform="matrix(1.00, 0.00, -0.00, -1.00, 278.6, 645.0)">t</text><text xml:space="preserve" font-family="HelveticaNeue-Light" font-size="42.0" fill="#000000" transform="matrix(1.00, 0.00, -0.00, -1.00, 291.0, 645.0)">e</text><text xml:space="preserve" font-family="HelveticaNeue-Light" font-size="42.0" fill="#000000" transform="matrix(1.00, 0.00, -0.00, -1.00, 312.8, 645.0)">d</text><text xml:space="preserve" font-family="HelveticaNeue-Light" font-size="42.0" fill="#000000" transform="matrix(1.00, 0.00, -0.00, -1.00, 336.9, 645.0)"> </text><text xml:space="preserve" font-family="HelveticaNeue-Light" font-size="42.0" fill="#000000" transform="matrix(1.00, 0.00, -0.00, -1.00, 348.6, 645.0)">a</text><text xml:space="preserve" font-family="HelveticaNeue-Light" font-size="42.0" fill="#000000" transform="matrix(1.00, 0.00, -0.00, -1.00, 370.4, 645.0)">d</text><text xml:space="preserve" font-family="HelveticaNeue-Light" font-size="42.0" fill="#000000" transform="matrix(1.00, 0.00, -0.00, -1.00, 394.5, 645.0)">d</text><text xml:space="preserve" font-family="HelveticaNeue-Light" font-size="42.0" fill="#000000" transform="matrix(1.00, 0.00, -0.00, -1.00, 418.6, 645.0)">i</text><text xml:space="preserve" font-family="HelveticaNeue-Light" font-size="42.0" fill="#000000" transform="matrix(1.00, 0.00, -0.00, -1.00, 426.4, 645.0)">t</text><text xml:space="preserve" font-family="HelveticaNeue-Light" font-size="42.0" fill="#000000" transform="matrix(1.00, 0.00, -0.00, -1.00, 438.8, 645.0)">i</text><text xml:space="preserve" font-family="HelveticaNeue-Light" font-size="42.0" fill="#000000" transform="matrix(1.00, 0.00, -0.00, -1.00, 446.6, 645.0)">v</text><text xml:space="preserve" font-family="HelveticaNeue-Light" font-size="42.0" fill="#000000" transform="matrix(1.00, 0.00, -0.00, -1.00, 466.0, 645.0)">e</text><text xml:space="preserve" font-family="HelveticaNeue-Light" font-size="42.0" fill="#000000" transform="matrix(1.00, 0.00, -0.00, -1.00, 487.8, 645.0)"> </text><text xml:space="preserve" font-family="HelveticaNeue-Light" font-size="42.0" fill="#000000" transform="matrix(1.00, 0.00, -0.00, -1.00, 499.5, 645.0)">r</text><text xml:space="preserve" font-family="HelveticaNeue-Light" font-size="42.0" fill="#000000" transform="matrix(1.00, 0.00, -0.00, -1.00, 512.7, 645.0)">u</text><text xml:space="preserve" font-family="HelveticaNeue-Light" font-size="42.0" fill="#000000" transform="matrix(1.00, 0.00, -0.00, -1.00, 535.3, 645.0)">l</text><text xml:space="preserve" font-family="HelveticaNeue-Light" font-size="42.0" fill="#000000" transform="matrix(1.00, 0.00, -0.00, -1.00, 543.0, 645.0)">e</text><text xml:space="preserve" font-family="HelveticaNeue" font-size="14.0" fill="#000000" transform="matrix(1.00, 0.00, -0.00, -1.00, 971.0, 27.4)">3</text><text xml:space="preserve" font-family="HelveticaNeue" font-size="14.0" fill="#000000" transform="matrix(1.00, 0.00, -0.00, -1.00, 978.8, 27.4)">8</text><g><clipPath id="clip-1961"><path d="M 24.0 92.0 L 1000.0 92.0 L 1000.0 594.0 L 24.0 594.0 Z M 24.0 92.0 "></path></clipPath><g clip-path="url(#clip-1961)"><path d="M 632.4 505.8 C 632.4 505.8 511.8 505.8 511.8 505.8 C 511.8 505.8 511.8 472.5 511.8 472.5 C 511.8 472.5 632.4 472.5 632.4 472.5 C 632.4 472.5 632.4 505.8 632.4 505.8 Z M 632.4 505.8 " fill="#000000" fill-opacity="0.63"></path><path d="M 754.5 505.8 C 754.5 505.8 634.0 505.8 634.0 505.8 C 634.0 505.8 634.0 472.5 634.0 472.5 C 634.0 472.5 754.5 472.5 754.5 472.5 C 754.5 472.5 754.5 505.8 754.5 505.8 Z M 754.5 505.8 " fill="#000000" fill-opacity="0.63"></path><path d="M 876.7 505.8 C 876.7 505.8 756.1 505.8 756.1 505.8 C 756.1 505.8 756.1 472.5 756.1 472.5 C 756.1 472.5 876.7 472.5 876.7 472.5 C 876.7 472.5 876.7 505.8 876.7 505.8 Z M 876.7 505.8 " fill="#000000" fill-opacity="0.63"></path><path d="M 998.8 505.8 C 998.8 505.8 878.2 505.8 878.2 505.8 C 878.2 505.8 878.2 472.5 878.2 472.5 C 878.2 472.5 998.8 472.5 998.8 472.5 C 998.8 472.5 998.8 505.8 998.8 505.8 Z M 998.8 505.8 " fill="#000000" fill-opacity="0.63"></path><path d="M 144.9 505.8 C 144.9 505.8 24.3 505.8 24.3 505.8 C 24.3 505.8 24.3 472.5 24.3 472.5 C 24.3 472.5 144.9 472.5 144.9 472.5 C 144.9 472.5 144.9 505.8 144.9 505.8 Z M 144.9 505.8 " fill="#000000" fill-opacity="0.63"></path><path d="M 267.0 505.8 C 267.0 505.8 146.4 505.8 146.4 505.8 C 146.4 505.8 146.4 472.5 146.4 472.5 C 146.4 472.5 267.0 472.5 267.0 472.5 C 267.0 472.5 267.0 505.8 267.0 505.8 Z M 267.0 505.8 " fill="#000000" fill-opacity="0.63"></path><path d="M 389.1 505.8 C 389.1 505.8 268.5 505.8 268.5 505.8 C 268.5 505.8 268.5 472.5 268.5 472.5 C 268.5 472.5 389.1 472.5 389.1 472.5 C 389.1 472.5 389.1 505.8 389.1 505.8 Z M 389.1 505.8 " fill="#000000" fill-opacity="0.63"></path><path d="M 511.2 505.8 C 511.2 505.8 390.6 505.8 390.6 505.8 C 390.6 505.8 390.6 472.5 390.6 472.5 C 390.6 472.5 511.2 472.5 511.2 472.5 C 511.2 472.5 511.2 505.8 511.2 505.8 Z M 511.2 505.8 " fill="#000000" fill-opacity="0.63"></path><path d="M 144.9 505.8 C 144.9 505.8 24.3 505.8 24.3 505.8 C 24.3 505.8 24.3 472.5 24.3 472.5 C 24.3 472.5 144.9 472.5 144.9 472.5 C 144.9 472.5 144.9 505.8 144.9 505.8 Z M 144.9 505.8 " fill="#1B9E76" fill-opacity="0.50"></path><path d="M 266.2 505.8 C 266.2 505.8 145.6 505.8 145.6 505.8 C 145.6 505.8 145.6 472.5 145.6 472.5 C 145.6 472.5 266.2 472.5 266.2 472.5 C 266.2 472.5 266.2 505.8 266.2 505.8 Z M 266.2 505.8 " fill="#D85F02" fill-opacity="0.50"></path><path d="M 389.0 505.8 C 389.0 505.8 268.5 505.8 268.5 505.8 C 268.5 505.8 268.5 472.5 268.5 472.5 C 268.5 472.5 389.0 472.5 389.0 472.5 C 389.0 472.5 389.0 505.8 389.0 505.8 Z M 389.0 505.8 " fill="#7470B2" fill-opacity="0.50"></path><path d="M 511.1 505.8 C 511.1 505.8 390.5 505.8 390.5 505.8 C 390.5 505.8 390.5 472.5 390.5 472.5 C 390.5 472.5 511.1 472.5 511.1 472.5 C 511.1 472.5 511.1 505.8 511.1 505.8 Z M 511.1 505.8 " fill="#E62989" fill-opacity="0.50"></path><text xml:space="preserve" font-family="Arial-BoldMT" font-weight="bold" font-size="9.6" fill="#FEFFFE" transform="matrix(1.52, 0.00, -0.00, -1.52, 66.2, 484.0)">d</text><text xml:space="preserve" font-family="Arial-BoldMT" font-weight="bold" font-size="9.6" fill="#FEFFFE" transform="matrix(1.52, 0.00, -0.00, -1.52, 75.1, 484.0)">i</text><text xml:space="preserve" font-family="Arial-BoldMT" font-weight="bold" font-size="9.6" fill="#FEFFFE" transform="matrix(1.52, 0.00, -0.00, -1.52, 79.2, 484.0)">c</text><text xml:space="preserve" font-family="Arial-BoldMT" font-weight="bold" font-size="9.6" fill="#FEFFFE" transform="matrix(1.52, 0.00, -0.00, -1.52, 87.3, 484.0)">e</text><text xml:space="preserve" font-family="Arial-BoldMT" font-weight="bold" font-size="9.6" fill="#FEFFFE" transform="matrix(1.52, 0.00, -0.00, -1.52, 95.4, 484.0)">6</text><text xml:space="preserve" font-family="Arial-BoldMT" font-weight="bold" font-size="9.6" fill="#FEFFFE" transform="matrix(1.52, 0.00, -0.00, -1.52, 184.8, 484.0)">E</text><text xml:space="preserve" font-family="Arial-BoldMT" font-weight="bold" font-size="9.6" fill="#FEFFFE" transform="matrix(1.52, 0.00, -0.00, -1.52, 194.6, 484.0)">r</text><text xml:space="preserve" font-family="Arial-BoldMT" font-weight="bold" font-size="9.6" fill="#FEFFFE" transform="matrix(1.52, 0.00, -0.00, -1.52, 200.2, 484.0)">r</text><text xml:space="preserve" font-family="Arial-BoldMT" font-weight="bold" font-size="9.6" fill="#FEFFFE" transform="matrix(1.52, 0.00, -0.00, -1.52, 205.9, 484.0)">o</text><text xml:space="preserve" font-family="Arial-BoldMT" font-weight="bold" font-size="9.6" fill="#FEFFFE" transform="matrix(1.52, 0.00, -0.00, -1.52, 214.8, 484.0)">r</text><text xml:space="preserve" font-family="Arial-BoldMT" font-weight="bold" font-size="9.6" fill="#FEFFFE" transform="matrix(1.52, 0.00, -0.00, -1.52, 220.5, 484.0)">6</text><text xml:space="preserve" font-family="Arial-BoldMT" font-weight="bold" font-size="9.6" fill="#FEFFFE" transform="matrix(1.52, 0.00, -0.00, -1.52, 309.5, 484.0)">d</text><text xml:space="preserve" font-family="Arial-BoldMT" font-weight="bold" font-size="9.6" fill="#FEFFFE" transform="matrix(1.52, 0.00, -0.00, -1.52, 318.4, 484.0)">i</text><text xml:space="preserve" font-family="Arial-BoldMT" font-weight="bold" font-size="9.6" fill="#FEFFFE" transform="matrix(1.52, 0.00, -0.00, -1.52, 322.5, 484.0)">c</text><text xml:space="preserve" font-family="Arial-BoldMT" font-weight="bold" font-size="9.6" fill="#FEFFFE" transform="matrix(1.52, 0.00, -0.00, -1.52, 330.6, 484.0)">e</text><text xml:space="preserve" font-family="Arial-BoldMT" font-weight="bold" font-size="9.6" fill="#FEFFFE" transform="matrix(1.52, 0.00, -0.00, -1.52, 338.7, 484.0)">5</text><text xml:space="preserve" font-family="Arial-BoldMT" font-weight="bold" font-size="9.6" fill="#FEFFFE" transform="matrix(1.52, 0.00, -0.00, -1.52, 427.2, 484.0)">E</text><text xml:space="preserve" font-family="Arial-BoldMT" font-weight="bold" font-size="9.6" fill="#FEFFFE" transform="matrix(1.52, 0.00, -0.00, -1.52, 436.9, 484.0)">r</text><text xml:space="preserve" font-family="Arial-BoldMT" font-weight="bold" font-size="9.6" fill="#FEFFFE" transform="matrix(1.52, 0.00, -0.00, -1.52, 442.6, 484.0)">r</text><text xml:space="preserve" font-family="Arial-BoldMT" font-weight="bold" font-size="9.6" fill="#FEFFFE" transform="matrix(1.52, 0.00, -0.00, -1.52, 448.3, 484.0)">o</text><text xml:space="preserve" font-family="Arial-BoldMT" font-weight="bold" font-size="9.6" fill="#FEFFFE" transform="matrix(1.52, 0.00, -0.00, -1.52, 457.2, 484.0)">r</text><text xml:space="preserve" font-family="Arial-BoldMT" font-weight="bold" font-size="9.6" fill="#FEFFFE" transform="matrix(1.52, 0.00, -0.00, -1.52, 462.9, 484.0)">5</text><text xml:space="preserve" font-family="Arial-BoldMT" font-weight="bold" font-size="9.6" fill="#FEFFFE" transform="matrix(1.52, 0.00, -0.00, -1.52, 550.3, 484.0)">a</text><text xml:space="preserve" font-family="Arial-BoldMT" font-weight="bold" font-size="9.6" fill="#FEFFFE" transform="matrix(1.52, 0.00, -0.00, -1.52, 558.4, 484.0)">l</text><text xml:space="preserve" font-family="Arial-BoldMT" font-weight="bold" font-size="9.6" fill="#FEFFFE" transform="matrix(1.52, 0.00, -0.00, -1.52, 562.5, 484.0)">p</text><text xml:space="preserve" font-family="Arial-BoldMT" font-weight="bold" font-size="9.6" fill="#FEFFFE" transform="matrix(1.52, 0.00, -0.00, -1.52, 571.4, 484.0)">h</text><text xml:space="preserve" font-family="Arial-BoldMT" font-weight="bold" font-size="9.6" fill="#FEFFFE" transform="matrix(1.52, 0.00, -0.00, -1.52, 580.3, 484.0)">a</text><text xml:space="preserve" font-family="Arial-BoldMT" font-weight="bold" font-size="9.6" fill="#FEFFFE" transform="matrix(1.52, 0.00, -0.00, -1.52, 588.4, 484.0)">1</text><text xml:space="preserve" font-family="Arial-BoldMT" font-weight="bold" font-size="9.6" fill="#FEFFFE" transform="matrix(1.52, 0.00, -0.00, -1.52, 671.3, 484.0)">a</text><text xml:space="preserve" font-family="Arial-BoldMT" font-weight="bold" font-size="9.6" fill="#FEFFFE" transform="matrix(1.52, 0.00, -0.00, -1.52, 679.5, 484.0)">l</text><text xml:space="preserve" font-family="Arial-BoldMT" font-weight="bold" font-size="9.6" fill="#FEFFFE" transform="matrix(1.52, 0.00, -0.00, -1.52, 683.5, 484.0)">p</text><text xml:space="preserve" font-family="Arial-BoldMT" font-weight="bold" font-size="9.6" fill="#FEFFFE" transform="matrix(1.52, 0.00, -0.00, -1.52, 692.4, 484.0)">h</text><text xml:space="preserve" font-family="Arial-BoldMT" font-weight="bold" font-size="9.6" fill="#FEFFFE" transform="matrix(1.52, 0.00, -0.00, -1.52, 701.3, 484.0)">a</text><text xml:space="preserve" font-family="Arial-BoldMT" font-weight="bold" font-size="9.6" fill="#FEFFFE" transform="matrix(1.52, 0.00, -0.00, -1.52, 709.5, 484.0)">2</text><text xml:space="preserve" font-family="Arial-BoldMT" font-weight="bold" font-size="9.6" fill="#FEFFFE" transform="matrix(1.52, 0.00, -0.00, -1.52, 794.5, 484.0)">a</text><text xml:space="preserve" font-family="Arial-BoldMT" font-weight="bold" font-size="9.6" fill="#FEFFFE" transform="matrix(1.52, 0.00, -0.00, -1.52, 802.6, 484.0)">l</text><text xml:space="preserve" font-family="Arial-BoldMT" font-weight="bold" font-size="9.6" fill="#FEFFFE" transform="matrix(1.52, 0.00, -0.00, -1.52, 806.7, 484.0)">p</text><text xml:space="preserve" font-family="Arial-BoldMT" font-weight="bold" font-size="9.6" fill="#FEFFFE" transform="matrix(1.52, 0.00, -0.00, -1.52, 815.6, 484.0)">h</text><text xml:space="preserve" font-family="Arial-BoldMT" font-weight="bold" font-size="9.6" fill="#FEFFFE" transform="matrix(1.52, 0.00, -0.00, -1.52, 824.5, 484.0)">a</text><text xml:space="preserve" font-family="Arial-BoldMT" font-weight="bold" font-size="9.6" fill="#FEFFFE" transform="matrix(1.52, 0.00, -0.00, -1.52, 832.6, 484.0)">3</text><text xml:space="preserve" font-family="Arial-BoldMT" font-weight="bold" font-size="9.6" fill="#FEFFFE" transform="matrix(1.52, 0.00, -0.00, -1.52, 914.6, 484.0)">a</text><text xml:space="preserve" font-family="Arial-BoldMT" font-weight="bold" font-size="9.6" fill="#FEFFFE" transform="matrix(1.52, 0.00, -0.00, -1.52, 922.7, 484.0)">l</text><text xml:space="preserve" font-family="Arial-BoldMT" font-weight="bold" font-size="9.6" fill="#FEFFFE" transform="matrix(1.52, 0.00, -0.00, -1.52, 926.8, 484.0)">p</text><text xml:space="preserve" font-family="Arial-BoldMT" font-weight="bold" font-size="9.6" fill="#FEFFFE" transform="matrix(1.52, 0.00, -0.00, -1.52, 935.7, 484.0)">h</text><text xml:space="preserve" font-family="Arial-BoldMT" font-weight="bold" font-size="9.6" fill="#FEFFFE" transform="matrix(1.52, 0.00, -0.00, -1.52, 944.6, 484.0)">a</text><text xml:space="preserve" font-family="Arial-BoldMT" font-weight="bold" font-size="9.6" fill="#FEFFFE" transform="matrix(1.52, 0.00, -0.00, -1.52, 952.7, 484.0)">4</text><path d="M 998.8 471.0 C 998.8 471.0 24.3 471.0 24.3 471.0 C 24.3 471.0 24.3 419.4 24.3 419.4 C 24.3 419.4 998.8 419.4 998.8 419.4 C 998.8 419.4 998.8 471.0 998.8 471.0 Z M 998.8 471.0 " fill="#EAEAEA"></path><path d="M 998.8 416.4 C 998.8 416.4 24.3 416.4 24.3 416.4 C 24.3 416.4 24.3 364.9 24.3 364.9 C 24.3 364.9 998.8 364.9 998.8 364.9 C 998.8 364.9 998.8 416.4 998.8 416.4 Z M 998.8 416.4 " fill="#EAEAEA"></path><path d="M 998.8 361.8 C 998.8 361.8 24.3 361.8 24.3 361.8 C 24.3 361.8 24.3 310.3 24.3 310.3 C 24.3 310.3 998.8 310.3 998.8 310.3 C 998.8 310.3 998.8 361.8 998.8 361.8 Z M 998.8 361.8 " fill="#EAEAEA"></path><path d="M 998.8 307.3 C 998.8 307.3 24.3 307.3 24.3 307.3 C 24.3 307.3 24.3 255.7 24.3 255.7 C 24.3 255.7 998.8 255.7 998.8 255.7 C 998.8 255.7 998.8 307.3 998.8 307.3 Z M 998.8 307.3 " fill="#EAEAEA"></path><path d="M 998.8 198.1 C 998.8 198.1 24.3 198.1 24.3 198.1 C 24.3 198.1 24.3 146.6 24.3 146.6 C 24.3 146.6 998.8 146.6 998.8 146.6 C 998.8 146.6 998.8 198.1 998.8 198.1 Z M 998.8 198.1 " fill="#EAEAEA"></path><path d="M 998.8 252.7 C 998.8 252.7 24.3 252.7 24.3 252.7 C 24.3 252.7 24.3 201.1 24.3 201.1 C 24.3 201.1 998.8 201.1 998.8 201.1 C 998.8 201.1 998.8 252.7 998.8 252.7 Z M 998.8 252.7 " fill="#EAEAEA"></path><path d="M 998.8 143.5 C 998.8 143.5 24.3 143.5 24.3 143.5 C 24.3 143.5 24.3 92.0 24.3 92.0 C 24.3 92.0 998.8 92.0 998.8 92.0 C 998.8 92.0 998.8 143.5 998.8 143.5 Z M 998.8 143.5 " fill="#EAEAEA"></path><path d="M 119.8 565.0 C 119.8 565.0 24.3 565.0 24.3 565.0 C 24.3 565.0 24.3 534.6 24.3 534.6 C 24.3 534.6 119.8 534.6 119.8 534.6 C 119.8 534.6 119.8 565.0 119.8 565.0 Z M 119.8 565.0 " fill="#1B9E76"></path><path d="M 180.5 565.0 C 180.5 565.0 119.8 565.0 119.8 565.0 C 119.8 565.0 119.8 534.6 119.8 534.6 C 119.8 534.6 180.5 534.6 180.5 534.6 C 180.5 534.6 180.5 565.0 180.5 565.0 Z M 180.5 565.0 " fill="#D85F02"></path><path d="M 402.7 565.0 C 402.7 565.0 180.5 565.0 180.5 565.0 C 180.5 565.0 180.5 534.6 180.5 534.6 C 180.5 534.6 402.7 534.6 402.7 534.6 C 402.7 534.6 402.7 565.0 402.7 565.0 Z M 402.7 565.0 " fill="#7470B2"></path><path d="M 511.8 565.0 C 511.8 565.0 402.7 565.0 402.7 565.0 C 402.7 565.0 402.7 534.6 402.7 534.6 C 402.7 534.6 511.8 534.6 511.8 534.6 C 511.8 534.6 511.8 565.0 511.8 565.0 Z M 511.8 565.0 " fill="#E62989"></path><text xml:space="preserve" font-family="ArialMT" font-size="16.0" fill="#000000" transform="matrix(1.52, 0.00, -0.00, -1.52, 27.2, 572.0)">w</text><text xml:space="preserve" font-family="ArialMT" font-size="16.0" fill="#000000" transform="matrix(1.52, 0.00, -0.00, -1.52, 44.8, 572.0)">e</text><text xml:space="preserve" font-family="ArialMT" font-size="16.0" fill="#000000" transform="matrix(1.52, 0.00, -0.00, -1.52, 58.3, 572.0)">i</text><text xml:space="preserve" font-family="ArialMT" font-size="16.0" fill="#000000" transform="matrix(1.52, 0.00, -0.00, -1.52, 63.6, 572.0)">g</text><text xml:space="preserve" font-family="ArialMT" font-size="16.0" fill="#000000" transform="matrix(1.52, 0.00, -0.00, -1.52, 77.1, 572.0)">h</text><text xml:space="preserve" font-family="ArialMT" font-size="16.0" fill="#000000" transform="matrix(1.52, 0.00, -0.00, -1.52, 90.6, 572.0)">t</text><text xml:space="preserve" font-family="ArialMT" font-size="16.0" fill="#000000" transform="matrix(1.52, 0.00, -0.00, -1.52, 97.4, 572.0)">s</text><path d="M 27.2 569.5 C 27.2 569.5 109.5 569.5 109.5 569.5 C 109.5 569.5 109.5 567.7 109.5 567.7 C 109.5 567.7 27.2 567.7 27.2 567.7 C 27.2 567.7 27.2 569.5 27.2 569.5 Z M 27.2 569.5 " fill="#000000"></path><path d="M 41.0 410.3 C 41.0 410.3 24.3 410.3 24.3 410.3 C 24.3 410.3 24.3 370.9 24.3 370.9 C 24.3 370.9 41.0 370.9 41.0 370.9 C 41.0 370.9 41.0 410.3 41.0 410.3 Z M 41.0 410.3 " fill="#1B9E76"></path><path d="M 75.9 410.3 C 75.9 410.3 41.0 410.3 41.0 410.3 C 41.0 410.3 41.0 370.9 41.0 370.9 C 41.0 370.9 75.9 370.9 75.9 370.9 C 75.9 370.9 75.9 410.3 75.9 410.3 Z M 75.9 410.3 " fill="#D85F02"></path><path d="M 291.6 410.3 C 291.6 410.3 75.9 410.3 75.9 410.3 C 75.9 410.3 75.9 370.9 75.9 370.9 C 75.9 370.9 291.6 370.9 291.6 370.9 C 291.6 370.9 291.6 410.3 291.6 410.3 Z M 291.6 410.3 " fill="#7470B2"></path><path d="M 352.2 410.3 C 352.2 410.3 291.6 410.3 291.6 410.3 C 291.6 410.3 291.6 370.9 291.6 370.9 C 291.6 370.9 352.2 370.9 352.2 370.9 C 352.2 370.9 352.2 410.3 352.2 410.3 Z M 352.2 410.3 " fill="#E62989"></path><path d="M 54.6 355.8 C 54.6 355.8 24.3 355.8 24.3 355.8 C 24.3 355.8 24.3 316.4 24.3 316.4 C 24.3 316.4 54.6 316.4 54.6 316.4 C 54.6 316.4 54.6 355.8 54.6 355.8 Z M 54.6 355.8 " fill="#1B9E76"></path><path d="M 63.7 355.8 C 63.7 355.8 54.6 355.8 54.6 355.8 C 54.6 355.8 54.6 316.4 54.6 316.4 C 54.6 316.4 63.7 316.4 63.7 316.4 C 63.7 316.4 63.7 355.8 63.7 355.8 Z M 63.7 355.8 " fill="#D85F02"></path><path d="M 249.5 355.8 C 249.5 355.8 63.7 355.8 63.7 355.8 C 63.7 355.8 63.7 316.4 63.7 316.4 C 63.7 316.4 249.5 316.4 249.5 316.4 C 249.5 316.4 249.5 355.8 249.5 355.8 Z M 249.5 355.8 " fill="#7470B2"></path><path d="M 298.0 355.8 C 298.0 355.8 249.5 355.8 249.5 355.8 C 249.5 355.8 249.5 316.4 249.5 316.4 C 249.5 316.4 298.0 316.4 298.0 316.4 C 298.0 316.4 298.0 355.8 298.0 355.8 Z M 298.0 355.8 " fill="#E62989"></path><path d="M 38.0 137.5 C 38.0 137.5 24.3 137.5 24.3 137.5 C 24.3 137.5 24.3 98.1 24.3 98.1 C 24.3 98.1 38.0 98.1 38.0 98.1 C 38.0 98.1 38.0 137.5 38.0 137.5 Z M 38.0 137.5 " fill="#1B9E76"></path><path d="M 51.6 137.5 C 51.6 137.5 38.0 137.5 38.0 137.5 C 38.0 137.5 38.0 98.1 38.0 98.1 C 38.0 98.1 51.6 98.1 51.6 98.1 C 51.6 98.1 51.6 137.5 51.6 137.5 Z M 51.6 137.5 " fill="#D85F02"></path><path d="M 69.0 137.5 C 69.0 137.5 51.6 137.5 51.6 137.5 C 51.6 137.5 51.6 98.1 51.6 98.1 C 51.6 98.1 69.0 98.1 69.0 98.1 C 69.0 98.1 69.0 137.5 69.0 137.5 Z M 69.0 137.5 " fill="#7470B2"></path><path d="M 97.9 137.5 C 97.9 137.5 69.0 137.5 69.0 137.5 C 69.0 137.5 69.0 98.1 69.0 98.1 C 69.0 98.1 97.9 98.1 97.9 98.1 C 97.9 98.1 97.9 137.5 97.9 137.5 Z M 97.9 137.5 " fill="#E62989"></path><path d="M 51.6 192.0 C 51.6 192.0 24.3 192.0 24.3 192.0 C 24.3 192.0 24.3 152.6 24.3 152.6 C 24.3 152.6 51.6 152.6 51.6 152.6 C 51.6 152.6 51.6 192.0 51.6 192.0 Z M 51.6 192.0 " fill="#1B9E76"></path><path d="M 86.5 192.0 C 86.5 192.0 51.6 192.0 51.6 192.0 C 51.6 192.0 51.6 152.6 51.6 152.6 C 51.6 152.6 86.5 152.6 86.5 152.6 C 86.5 152.6 86.5 192.0 86.5 192.0 Z M 86.5 192.0 " fill="#D85F02"></path><path d="M 123.6 192.0 C 123.6 192.0 86.5 192.0 86.5 192.0 C 86.5 192.0 86.5 152.6 86.5 152.6 C 86.5 152.6 123.6 152.6 123.6 152.6 C 123.6 152.6 123.6 192.0 123.6 192.0 Z M 123.6 192.0 " fill="#7470B2"></path><path d="M 135.7 192.0 C 135.7 192.0 123.6 192.0 123.6 192.0 C 123.6 192.0 123.6 152.6 123.6 152.6 C 123.6 152.6 135.7 152.6 135.7 152.6 C 135.7 152.6 135.7 192.0 135.7 192.0 Z M 135.7 192.0 " fill="#E62989"></path><path d="M 41.6 246.6 C 41.6 246.6 24.3 246.6 24.3 246.6 C 24.3 246.6 24.3 207.2 24.3 207.2 C 24.3 207.2 41.6 207.2 41.6 207.2 C 41.6 207.2 41.6 246.6 41.6 246.6 Z M 41.6 246.6 " fill="#1B9E76"></path><path d="M 96.2 246.6 C 96.2 246.6 41.6 246.6 41.6 246.6 C 41.6 246.6 41.6 207.2 41.6 207.2 C 41.6 207.2 96.2 207.2 96.2 207.2 C 96.2 207.2 96.2 246.6 96.2 246.6 Z M 96.2 246.6 " fill="#D85F02"></path><path d="M 168.2 246.6 C 168.2 246.6 96.2 246.6 96.2 246.6 C 96.2 246.6 96.2 207.2 96.2 207.2 C 96.2 207.2 168.2 207.2 168.2 207.2 C 168.2 207.2 168.2 246.6 168.2 246.6 Z M 168.2 246.6 " fill="#7470B2"></path><path d="M 195.5 246.6 C 195.5 246.6 168.2 246.6 168.2 246.6 C 168.2 246.6 168.2 207.2 168.2 207.2 C 168.2 207.2 195.5 207.2 195.5 207.2 C 195.5 207.2 195.5 246.6 195.5 246.6 Z M 195.5 246.6 " fill="#E62989"></path><path d="M 59.2 301.2 C 59.2 301.2 24.0 301.2 24.0 301.2 C 24.0 301.2 24.0 261.8 24.0 261.8 C 24.0 261.8 59.2 261.8 59.2 261.8 C 59.2 261.8 59.2 301.2 59.2 301.2 Z M 59.2 301.2 " fill="#1B9E76"></path><path d="M 85.0 301.2 C 85.0 301.2 59.2 301.2 59.2 301.2 C 59.2 301.2 59.2 261.8 59.2 261.8 C 59.2 261.8 85.0 261.8 85.0 261.8 C 85.0 261.8 85.0 301.2 85.0 301.2 Z M 85.0 301.2 " fill="#D85F02"></path><path d="M 225.2 301.2 C 225.2 301.2 85.0 301.2 85.0 301.2 C 85.0 301.2 85.0 261.8 85.0 261.8 C 85.0 261.8 225.2 261.8 225.2 261.8 C 225.2 261.8 225.2 301.2 225.2 301.2 Z M 225.2 301.2 " fill="#7470B2"></path><path d="M 266.2 301.2 C 266.2 301.2 225.2 301.2 225.2 301.2 C 225.2 301.2 225.2 261.8 225.2 261.8 C 225.2 261.8 266.2 261.8 266.2 261.8 C 266.2 261.8 266.2 301.2 266.2 301.2 Z M 266.2 301.2 " fill="#E62989"></path><path d="M 103.2 463.4 C 103.2 463.4 24.3 463.4 24.3 463.4 C 24.3 463.4 24.3 424.0 24.3 424.0 C 24.3 424.0 103.2 424.0 103.2 424.0 C 103.2 424.0 103.2 463.4 103.2 463.4 Z M 103.2 463.4 " fill="#1B9E76"></path><path d="M 118.3 463.4 C 118.3 463.4 103.2 463.4 103.2 463.4 C 103.2 463.4 103.2 424.0 103.2 424.0 C 103.2 424.0 118.3 424.0 118.3 424.0 C 118.3 424.0 118.3 463.4 118.3 463.4 Z M 118.3 463.4 " fill="#D85F02"></path><path d="M 317.7 463.4 C 317.7 463.4 118.3 463.4 118.3 463.4 C 118.3 463.4 118.3 424.0 118.3 424.0 C 118.3 424.0 317.7 424.0 317.7 424.0 C 317.7 424.0 317.7 463.4 317.7 463.4 Z M 317.7 463.4 " fill="#7470B2"></path><path d="M 402.7 463.4 C 402.7 463.4 317.7 463.4 317.7 463.4 C 317.7 463.4 317.7 424.0 317.7 424.0 C 317.7 424.0 402.7 424.0 402.7 424.0 C 402.7 424.0 402.7 463.4 402.7 463.4 Z M 402.7 463.4 " fill="#E62989"></path><path d="M 538.6 158.0 C 538.6 158.0 538.6 188.0 538.6 188.0 " fill="none" stroke="#000000" stroke-width="1.00" stroke-miterlimit="1.41" stroke-linecap="round" stroke-linejoin="round" transform="matrix(1.52, 0.00, 0.00, -1.52, -301.8, 707.5)"></path><path d="M 538.6 188.0 C 538.6 188.0 613.6 188.0 613.6 188.0 " fill="none" stroke="#000000" stroke-width="1.00" stroke-miterlimit="1.41" stroke-linecap="round" stroke-linejoin="round" transform="matrix(1.52, 0.00, 0.00, -1.52, -301.8, 707.5)"></path><path d="M 540.1 179.9 C 546.7 175.4 555.6 169.8 567.0 170.0 C 568.9 170.0 573.6 169.6 575.3 170.4 C 578.3 171.8 581.0 174.2 582.9 176.0 C 583.2 176.3 585.1 179.2 586.0 179.4 C 588.2 179.8 590.4 179.9 592.9 179.9 C 594.7 179.9 597.6 180.1 599.2 179.5 C 607.0 176.6 609.7 170.1 613.6 165.7 " fill="none" stroke="#000000" stroke-width="1.00" stroke-miterlimit="1.41" stroke-linecap="round" stroke-linejoin="round" transform="matrix(1.52, 0.00, 0.00, -1.52, -301.8, 707.5)"></path><path d="M 700.8 230.0 C 700.8 230.0 700.8 260.0 700.8 260.0 " fill="none" stroke="#000000" stroke-width="1.00" stroke-miterlimit="1.41" stroke-linecap="round" stroke-linejoin="round" transform="matrix(1.52, 0.00, 0.00, -1.52, -301.8, 707.5)"></path><path d="M 700.8 260.0 C 700.8 260.0 775.8 260.0 775.8 260.0 " fill="none" stroke="#000000" stroke-width="1.00" stroke-miterlimit="1.41" stroke-linecap="round" stroke-linejoin="round" transform="matrix(1.52, 0.00, 0.00, -1.52, -301.8, 707.5)"></path><path d="M 702.3 251.9 C 708.8 247.4 717.8 241.8 729.1 242.0 C 731.0 242.0 735.8 241.6 737.5 242.4 C 740.4 243.8 743.1 246.2 745.0 248.0 C 745.3 248.3 747.3 251.2 748.1 251.4 C 750.4 251.8 752.6 251.9 755.0 251.9 C 756.8 251.9 759.7 252.1 761.3 251.5 C 769.2 248.6 771.8 242.1 775.8 237.7 " fill="none" stroke="#000000" stroke-width="1.00" stroke-miterlimit="1.41" stroke-linecap="round" stroke-linejoin="round" transform="matrix(1.52, 0.00, 0.00, -1.52, -301.8, 707.5)"></path><path d="M 699.8 194.0 C 699.8 194.0 699.8 224.0 699.8 224.0 " fill="none" stroke="#000000" stroke-width="1.00" stroke-miterlimit="1.41" stroke-linecap="round" stroke-linejoin="round" transform="matrix(1.52, 0.00, 0.00, -1.52, -301.8, 707.5)"></path><path d="M 699.8 224.0 C 699.8 224.0 774.8 224.0 774.8 224.0 " fill="none" stroke="#000000" stroke-width="1.00" stroke-miterlimit="1.41" stroke-linecap="round" stroke-linejoin="round" transform="matrix(1.52, 0.00, 0.00, -1.52, -301.8, 707.5)"></path><path d="M 701.3 215.9 C 707.8 211.4 716.8 205.8 728.1 206.0 C 730.0 206.0 734.8 205.6 736.5 206.4 C 739.4 207.8 742.1 210.2 744.0 212.0 C 744.3 212.3 746.3 215.2 747.1 215.4 C 749.4 215.8 751.6 215.9 754.0 215.9 C 755.8 215.9 758.7 216.1 760.3 215.5 C 768.2 212.6 770.8 206.1 774.8 201.7 " fill="none" stroke="#000000" stroke-width="1.00" stroke-miterlimit="1.41" stroke-linecap="round" stroke-linejoin="round" transform="matrix(1.52, 0.00, 0.00, -1.52, -301.8, 707.5)"></path><path d="M 619.5 194.0 C 619.5 194.0 619.5 224.0 619.5 224.0 " fill="none" stroke="#000000" stroke-width="1.00" stroke-miterlimit="1.41" stroke-linecap="round" stroke-linejoin="round" transform="matrix(1.52, 0.00, 0.00, -1.52, -301.8, 707.5)"></path><path d="M 619.5 224.0 C 619.5 224.0 694.5 224.0 694.5 224.0 " fill="none" stroke="#000000" stroke-width="1.00" stroke-miterlimit="1.41" stroke-linecap="round" stroke-linejoin="round" transform="matrix(1.52, 0.00, 0.00, -1.52, -301.8, 707.5)"></path><path d="M 621.0 215.9 C 627.6 211.4 636.5 205.8 647.9 206.0 C 649.7 206.0 654.5 205.6 656.2 206.4 C 659.1 207.8 661.9 210.2 663.7 212.0 C 664.1 212.3 666.0 215.2 666.9 215.4 C 669.1 215.8 671.3 215.9 673.8 215.9 C 675.6 215.9 678.4 216.1 680.1 215.5 C 687.9 212.6 690.6 206.1 694.5 201.7 " fill="none" stroke="#000000" stroke-width="1.00" stroke-miterlimit="1.41" stroke-linecap="round" stroke-linejoin="round" transform="matrix(1.52, 0.00, 0.00, -1.52, -301.8, 707.5)"></path><path d="M 619.3 158.0 C 619.3 158.0 619.3 188.0 619.3 188.0 " fill="none" stroke="#000000" stroke-width="1.00" stroke-miterlimit="1.41" stroke-linecap="round" stroke-linejoin="round" transform="matrix(1.52, 0.00, 0.00, -1.52, -301.8, 707.5)"></path><path d="M 619.3 188.0 C 619.3 188.0 694.3 188.0 694.3 188.0 " fill="none" stroke="#000000" stroke-width="1.00" stroke-miterlimit="1.41" stroke-linecap="round" stroke-linejoin="round" transform="matrix(1.52, 0.00, 0.00, -1.52, -301.8, 707.5)"></path><path d="M 622.5 181.0 C 622.1 175.9 626.5 169.1 635.9 165.9 C 641.2 164.1 646.1 162.0 652.5 161.4 C 656.0 161.0 665.9 161.5 669.6 161.5 C 671.1 161.5 672.8 161.2 674.2 161.5 C 684.7 164.0 696.8 173.0 693.8 181.8 " fill="none" stroke="#000000" stroke-width="1.00" stroke-miterlimit="1.41" stroke-linecap="round" stroke-linejoin="round" transform="matrix(1.52, 0.00, 0.00, -1.52, -301.8, 707.5)"></path><path d="M 539.1 230.0 C 539.1 230.0 539.1 260.0 539.1 260.0 " fill="none" stroke="#000000" stroke-width="1.00" stroke-miterlimit="1.41" stroke-linecap="round" stroke-linejoin="round" transform="matrix(1.52, 0.00, 0.00, -1.52, -301.8, 707.5)"></path><path d="M 539.1 260.0 C 539.1 260.0 614.1 260.0 614.1 260.0 " fill="none" stroke="#000000" stroke-width="1.00" stroke-miterlimit="1.41" stroke-linecap="round" stroke-linejoin="round" transform="matrix(1.52, 0.00, 0.00, -1.52, -301.8, 707.5)"></path><path d="M 542.3 253.0 C 542.0 247.9 546.4 241.1 555.7 237.9 C 561.1 236.1 566.0 234.0 572.3 233.4 C 575.9 233.0 585.8 233.5 589.4 233.5 C 591.0 233.5 592.7 233.2 594.0 233.5 C 604.6 236.0 616.7 245.0 613.7 253.8 " fill="none" stroke="#000000" stroke-width="1.00" stroke-miterlimit="1.41" stroke-linecap="round" stroke-linejoin="round" transform="matrix(1.52, 0.00, 0.00, -1.52, -301.8, 707.5)"></path><path d="M 701.1 374.0 C 701.1 374.0 701.1 404.0 701.1 404.0 " fill="none" stroke="#000000" stroke-width="1.00" stroke-miterlimit="1.41" stroke-linecap="round" stroke-linejoin="round" transform="matrix(1.52, 0.00, 0.00, -1.52, -301.8, 707.5)"></path><path d="M 701.1 404.0 C 701.1 404.0 776.1 404.0 776.1 404.0 " fill="none" stroke="#000000" stroke-width="1.00" stroke-miterlimit="1.41" stroke-linecap="round" stroke-linejoin="round" transform="matrix(1.52, 0.00, 0.00, -1.52, -301.8, 707.5)"></path><path d="M 704.3 397.0 C 704.0 391.9 708.4 385.1 717.7 381.9 C 723.1 380.1 728.0 378.0 734.3 377.4 C 737.9 377.0 747.8 377.5 751.4 377.5 C 753.0 377.5 754.7 377.2 756.0 377.5 C 766.6 380.0 778.7 389.0 775.7 397.8 " fill="none" stroke="#000000" stroke-width="1.00" stroke-miterlimit="1.41" stroke-linecap="round" stroke-linejoin="round" transform="matrix(1.52, 0.00, 0.00, -1.52, -301.8, 707.5)"></path><path d="M 699.8 158.0 C 699.8 158.0 699.8 188.0 699.8 188.0 " fill="none" stroke="#000000" stroke-width="1.00" stroke-miterlimit="1.41" stroke-linecap="round" stroke-linejoin="round" transform="matrix(1.52, 0.00, 0.00, -1.52, -301.8, 707.5)"></path><path d="M 699.8 188.0 C 699.8 188.0 774.8 188.0 774.8 188.0 " fill="none" stroke="#000000" stroke-width="1.00" stroke-miterlimit="1.41" stroke-linecap="round" stroke-linejoin="round" transform="matrix(1.52, 0.00, 0.00, -1.52, -301.8, 707.5)"></path><path d="M 702.5 180.6 C 710.7 183.2 720.2 183.1 730.4 183.1 C 733.6 183.1 739.8 183.5 742.8 182.7 C 747.7 181.5 753.4 179.7 757.8 178.0 C 761.9 176.4 766.2 174.9 770.2 173.3 C 771.4 172.8 773.2 171.4 774.5 171.5 " fill="none" stroke="#000000" stroke-width="1.00" stroke-miterlimit="1.41" stroke-linejoin="round" transform="matrix(1.52, 0.00, 0.00, -1.52, -301.8, 707.5)"></path><path d="M 781.3 230.0 C 781.3 230.0 781.3 260.0 781.3 260.0 " fill="none" stroke="#000000" stroke-width="1.00" stroke-miterlimit="1.41" stroke-linecap="round" stroke-linejoin="round" transform="matrix(1.52, 0.00, 0.00, -1.52, -301.8, 707.5)"></path><path d="M 781.3 260.0 C 781.3 260.0 856.3 260.0 856.3 260.0 " fill="none" stroke="#000000" stroke-width="1.00" stroke-miterlimit="1.41" stroke-linecap="round" stroke-linejoin="round" transform="matrix(1.52, 0.00, 0.00, -1.52, -301.8, 707.5)"></path><path d="M 784.0 252.6 C 792.2 255.2 801.7 255.1 811.9 255.1 C 815.1 255.1 821.3 255.5 824.3 254.7 C 829.2 253.5 834.9 251.7 839.3 250.0 C 843.4 248.4 847.7 246.9 851.7 245.3 C 852.9 244.8 854.7 243.4 856.0 243.5 " fill="none" stroke="#000000" stroke-width="1.00" stroke-miterlimit="1.41" stroke-linejoin="round" transform="matrix(1.52, 0.00, 0.00, -1.52, -301.8, 707.5)"></path><path d="M 538.8 194.0 C 538.8 194.0 538.8 224.0 538.8 224.0 " fill="none" stroke="#000000" stroke-width="1.00" stroke-miterlimit="1.41" stroke-linecap="round" stroke-linejoin="round" transform="matrix(1.52, 0.00, 0.00, -1.52, -301.8, 707.5)"></path><path d="M 538.8 224.0 C 538.8 224.0 613.8 224.0 613.8 224.0 " fill="none" stroke="#000000" stroke-width="1.00" stroke-miterlimit="1.41" stroke-linecap="round" stroke-linejoin="round" transform="matrix(1.52, 0.00, 0.00, -1.52, -301.8, 707.5)"></path><path d="M 541.5 216.6 C 549.7 219.2 559.2 219.1 569.4 219.1 C 572.6 219.1 578.8 219.5 581.8 218.7 C 586.7 217.5 592.4 215.7 596.8 214.0 C 600.9 212.4 605.2 210.9 609.2 209.3 C 610.4 208.8 612.2 207.4 613.5 207.5 " fill="none" stroke="#000000" stroke-width="1.00" stroke-miterlimit="1.41" stroke-linejoin="round" transform="matrix(1.52, 0.00, 0.00, -1.52, -301.8, 707.5)"></path><path d="M 622.0 374.0 C 622.0 374.0 622.0 404.0 622.0 404.0 " fill="none" stroke="#000000" stroke-width="1.00" stroke-miterlimit="1.41" stroke-linecap="round" stroke-linejoin="round" transform="matrix(1.52, 0.00, 0.00, -1.52, -301.8, 707.5)"></path><path d="M 622.0 404.0 C 622.0 404.0 697.0 404.0 697.0 404.0 " fill="none" stroke="#000000" stroke-width="1.00" stroke-miterlimit="1.41" stroke-linecap="round" stroke-linejoin="round" transform="matrix(1.52, 0.00, 0.00, -1.52, -301.8, 707.5)"></path><path d="M 624.8 396.6 C 633.0 399.2 642.5 399.1 652.6 399.1 C 655.9 399.1 662.1 399.5 665.1 398.7 C 669.9 397.5 675.7 395.7 680.1 394.0 C 684.2 392.4 688.5 390.9 692.5 389.3 C 693.7 388.8 695.5 387.4 696.8 387.5 " fill="none" stroke="#000000" stroke-width="1.00" stroke-miterlimit="1.41" stroke-linejoin="round" transform="matrix(1.52, 0.00, 0.00, -1.52, -301.8, 707.5)"></path><path d="M 781.0 194.0 C 781.0 194.0 781.0 224.0 781.0 224.0 " fill="none" stroke="#000000" stroke-width="1.00" stroke-miterlimit="1.41" stroke-linecap="round" stroke-linejoin="round" transform="matrix(1.52, 0.00, 0.00, -1.52, -301.8, 707.5)"></path><path d="M 781.0 224.0 C 781.0 224.0 856.0 224.0 856.0 224.0 " fill="none" stroke="#000000" stroke-width="1.00" stroke-miterlimit="1.41" stroke-linecap="round" stroke-linejoin="round" transform="matrix(1.52, 0.00, 0.00, -1.52, -301.8, 707.5)"></path><path d="M 784.0 196.8 C 784.0 196.8 854.5 222.0 854.5 222.0 " fill="none" stroke="#000000" stroke-width="1.00" stroke-miterlimit="1.41" stroke-linejoin="round" transform="matrix(1.52, 0.00, 0.00, -1.52, -301.8, 707.5)"></path><path d="M 781.0 158.0 C 781.0 158.0 781.0 188.0 781.0 188.0 " fill="none" stroke="#000000" stroke-width="1.00" stroke-miterlimit="1.41" stroke-linecap="round" stroke-linejoin="round" transform="matrix(1.52, 0.00, 0.00, -1.52, -301.8, 707.5)"></path><path d="M 781.0 188.0 C 781.0 188.0 856.0 188.0 856.0 188.0 " fill="none" stroke="#000000" stroke-width="1.00" stroke-miterlimit="1.41" stroke-linecap="round" stroke-linejoin="round" transform="matrix(1.52, 0.00, 0.00, -1.52, -301.8, 707.5)"></path><path d="M 784.0 171.0 C 784.0 171.0 854.5 174.0 854.5 174.0 " fill="none" stroke="#000000" stroke-width="1.00" stroke-miterlimit="1.41" stroke-linejoin="round" transform="matrix(1.52, 0.00, 0.00, -1.52, -301.8, 707.5)"></path><path d="M 620.3 230.0 C 620.3 230.0 620.3 260.0 620.3 260.0 " fill="none" stroke="#000000" stroke-width="1.00" stroke-miterlimit="1.41" stroke-linecap="round" stroke-linejoin="round" transform="matrix(1.52, 0.00, 0.00, -1.52, -301.8, 707.5)"></path><path d="M 620.3 260.0 C 620.3 260.0 695.3 260.0 695.3 260.0 " fill="none" stroke="#000000" stroke-width="1.00" stroke-miterlimit="1.41" stroke-linecap="round" stroke-linejoin="round" transform="matrix(1.52, 0.00, 0.00, -1.52, -301.8, 707.5)"></path><path d="M 623.3 243.0 C 623.3 243.0 693.8 246.0 693.8 246.0 " fill="none" stroke="#000000" stroke-width="1.00" stroke-miterlimit="1.41" stroke-linejoin="round" transform="matrix(1.52, 0.00, 0.00, -1.52, -301.8, 707.5)"></path><path d="M 539.6 266.0 C 539.6 266.0 539.6 296.0 539.6 296.0 " fill="none" stroke="#000000" stroke-width="1.00" stroke-miterlimit="1.41" stroke-linecap="round" stroke-linejoin="round" transform="matrix(1.52, 0.00, 0.00, -1.52, -301.8, 707.5)"></path><path d="M 539.6 296.0 C 539.6 296.0 614.6 296.0 614.6 296.0 " fill="none" stroke="#000000" stroke-width="1.00" stroke-miterlimit="1.41" stroke-linecap="round" stroke-linejoin="round" transform="matrix(1.52, 0.00, 0.00, -1.52, -301.8, 707.5)"></path><path d="M 541.1 287.9 C 547.7 283.4 556.6 277.8 568.0 278.0 C 569.9 278.0 574.6 277.6 576.3 278.4 C 579.3 279.8 582.0 282.2 583.9 284.0 C 584.2 284.4 586.1 287.2 587.0 287.4 C 589.2 287.8 591.4 287.9 593.9 287.9 C 595.7 287.9 598.6 288.1 600.2 287.5 C 608.0 284.6 610.7 278.1 614.6 273.7 " fill="none" stroke="#000000" stroke-width="1.00" stroke-miterlimit="1.41" stroke-linecap="round" stroke-linejoin="round" transform="matrix(1.52, 0.00, 0.00, -1.52, -301.8, 707.5)"></path><path d="M 782.5 374.0 C 782.5 374.0 782.5 404.0 782.5 404.0 " fill="none" stroke="#000000" stroke-width="1.00" stroke-miterlimit="1.41" stroke-linecap="round" stroke-linejoin="round" transform="matrix(1.52, 0.00, 0.00, -1.52, -301.8, 707.5)"></path><path d="M 782.5 404.0 C 782.5 404.0 857.5 404.0 857.5 404.0 " fill="none" stroke="#000000" stroke-width="1.00" stroke-miterlimit="1.41" stroke-linecap="round" stroke-linejoin="round" transform="matrix(1.52, 0.00, 0.00, -1.52, -301.8, 707.5)"></path><path d="M 784.0 395.9 C 790.6 391.4 799.5 385.8 810.8 386.0 C 812.7 386.0 817.5 385.6 819.2 386.4 C 822.1 387.8 824.9 390.2 826.7 392.0 C 827.1 392.4 829.0 395.2 829.9 395.4 C 832.1 395.8 834.3 395.9 836.8 395.9 C 838.5 395.9 841.4 396.1 843.1 395.5 C 850.9 392.6 853.5 386.1 857.5 381.7 " fill="none" stroke="#000000" stroke-width="1.00" stroke-miterlimit="1.41" stroke-linecap="round" stroke-linejoin="round" transform="matrix(1.52, 0.00, 0.00, -1.52, -301.8, 707.5)"></path><path d="M 700.8 302.0 C 700.8 302.0 700.8 332.0 700.8 332.0 " fill="none" stroke="#000000" stroke-width="1.00" stroke-miterlimit="1.41" stroke-linecap="round" stroke-linejoin="round" transform="matrix(1.52, 0.00, 0.00, -1.52, -301.8, 707.5)"></path><path d="M 700.8 332.0 C 700.8 332.0 775.8 332.0 775.8 332.0 " fill="none" stroke="#000000" stroke-width="1.00" stroke-miterlimit="1.41" stroke-linecap="round" stroke-linejoin="round" transform="matrix(1.52, 0.00, 0.00, -1.52, -301.8, 707.5)"></path><path d="M 702.3 323.9 C 708.8 319.4 717.8 313.8 729.1 314.0 C 731.0 314.0 735.8 313.6 737.5 314.4 C 740.4 315.8 743.1 318.2 745.0 320.0 C 745.3 320.4 747.3 323.2 748.1 323.4 C 750.4 323.8 752.6 323.9 755.0 323.9 C 756.8 323.9 759.7 324.1 761.3 323.5 C 769.2 320.6 771.8 314.1 775.8 309.7 " fill="none" stroke="#000000" stroke-width="1.00" stroke-miterlimit="1.41" stroke-linecap="round" stroke-linejoin="round" transform="matrix(1.52, 0.00, 0.00, -1.52, -301.8, 707.5)"></path><path d="M 620.5 302.0 C 620.5 302.0 620.5 332.0 620.5 332.0 " fill="none" stroke="#000000" stroke-width="1.00" stroke-miterlimit="1.41" stroke-linecap="round" stroke-linejoin="round" transform="matrix(1.52, 0.00, 0.00, -1.52, -301.8, 707.5)"></path><path d="M 620.5 332.0 C 620.5 332.0 695.5 332.0 695.5 332.0 " fill="none" stroke="#000000" stroke-width="1.00" stroke-miterlimit="1.41" stroke-linecap="round" stroke-linejoin="round" transform="matrix(1.52, 0.00, 0.00, -1.52, -301.8, 707.5)"></path><path d="M 622.0 323.9 C 628.6 319.4 637.5 313.8 648.9 314.0 C 650.7 314.0 655.5 313.6 657.2 314.4 C 660.1 315.8 662.9 318.2 664.7 320.0 C 665.1 320.4 667.0 323.2 667.9 323.4 C 670.1 323.8 672.3 323.9 674.8 323.9 C 676.6 323.9 679.4 324.1 681.1 323.5 C 688.9 320.6 691.6 314.1 695.5 309.7 " fill="none" stroke="#000000" stroke-width="1.00" stroke-miterlimit="1.41" stroke-linecap="round" stroke-linejoin="round" transform="matrix(1.52, 0.00, 0.00, -1.52, -301.8, 707.5)"></path><path d="M 620.3 266.0 C 620.3 266.0 620.3 296.0 620.3 296.0 " fill="none" stroke="#000000" stroke-width="1.00" stroke-miterlimit="1.41" stroke-linecap="round" stroke-linejoin="round" transform="matrix(1.52, 0.00, 0.00, -1.52, -301.8, 707.5)"></path><path d="M 620.3 296.0 C 620.3 296.0 695.3 296.0 695.3 296.0 " fill="none" stroke="#000000" stroke-width="1.00" stroke-miterlimit="1.41" stroke-linecap="round" stroke-linejoin="round" transform="matrix(1.52, 0.00, 0.00, -1.52, -301.8, 707.5)"></path><path d="M 623.5 289.0 C 623.1 283.9 627.5 277.1 636.9 273.9 C 642.2 272.1 647.1 270.0 653.5 269.4 C 657.0 269.0 666.9 269.5 670.6 269.5 C 672.1 269.5 673.8 269.2 675.2 269.5 C 685.7 272.0 697.8 281.0 694.8 289.8 " fill="none" stroke="#000000" stroke-width="1.00" stroke-miterlimit="1.41" stroke-linecap="round" stroke-linejoin="round" transform="matrix(1.52, 0.00, 0.00, -1.52, -301.8, 707.5)"></path><path d="M 540.1 338.0 C 540.1 338.0 540.1 368.0 540.1 368.0 " fill="none" stroke="#000000" stroke-width="1.00" stroke-miterlimit="1.41" stroke-linecap="round" stroke-linejoin="round" transform="matrix(1.52, 0.00, 0.00, -1.52, -301.8, 707.5)"></path><path d="M 540.1 368.0 C 540.1 368.0 615.1 368.0 615.1 368.0 " fill="none" stroke="#000000" stroke-width="1.00" stroke-miterlimit="1.41" stroke-linecap="round" stroke-linejoin="round" transform="matrix(1.52, 0.00, 0.00, -1.52, -301.8, 707.5)"></path><path d="M 543.3 361.0 C 543.0 355.9 547.4 349.1 556.7 345.9 C 562.1 344.1 567.0 342.0 573.3 341.4 C 576.9 341.0 586.8 341.5 590.4 341.5 C 592.0 341.5 593.7 341.2 595.0 341.5 C 605.6 344.0 617.7 353.0 614.7 361.8 " fill="none" stroke="#000000" stroke-width="1.00" stroke-miterlimit="1.41" stroke-linecap="round" stroke-linejoin="round" transform="matrix(1.52, 0.00, 0.00, -1.52, -301.8, 707.5)"></path><path d="M 700.8 266.0 C 700.8 266.0 700.8 296.0 700.8 296.0 " fill="none" stroke="#000000" stroke-width="1.00" stroke-miterlimit="1.41" stroke-linecap="round" stroke-linejoin="round" transform="matrix(1.52, 0.00, 0.00, -1.52, -301.8, 707.5)"></path><path d="M 700.8 296.0 C 700.8 296.0 775.8 296.0 775.8 296.0 " fill="none" stroke="#000000" stroke-width="1.00" stroke-miterlimit="1.41" stroke-linecap="round" stroke-linejoin="round" transform="matrix(1.52, 0.00, 0.00, -1.52, -301.8, 707.5)"></path><path d="M 703.5 288.6 C 711.7 291.2 721.2 291.1 731.4 291.1 C 734.6 291.1 740.8 291.5 743.8 290.7 C 748.7 289.5 754.4 287.7 758.8 286.0 C 762.9 284.4 767.2 282.9 771.2 281.3 C 772.4 280.8 774.2 279.4 775.5 279.5 " fill="none" stroke="#000000" stroke-width="1.00" stroke-miterlimit="1.41" stroke-linejoin="round" transform="matrix(1.52, 0.00, 0.00, -1.52, -301.8, 707.5)"></path><path d="M 781.3 338.0 C 781.3 338.0 781.3 368.0 781.3 368.0 " fill="none" stroke="#000000" stroke-width="1.00" stroke-miterlimit="1.41" stroke-linecap="round" stroke-linejoin="round" transform="matrix(1.52, 0.00, 0.00, -1.52, -301.8, 707.5)"></path><path d="M 781.3 368.0 C 781.3 368.0 856.3 368.0 856.3 368.0 " fill="none" stroke="#000000" stroke-width="1.00" stroke-miterlimit="1.41" stroke-linecap="round" stroke-linejoin="round" transform="matrix(1.52, 0.00, 0.00, -1.52, -301.8, 707.5)"></path><path d="M 784.0 360.6 C 792.2 363.2 801.7 363.1 811.9 363.1 C 815.1 363.1 821.3 363.5 824.3 362.7 C 829.2 361.5 834.9 359.7 839.3 358.0 C 843.4 356.4 847.7 354.9 851.7 353.3 C 852.9 352.8 854.7 351.4 856.0 351.5 " fill="none" stroke="#000000" stroke-width="1.00" stroke-miterlimit="1.41" stroke-linejoin="round" transform="matrix(1.52, 0.00, 0.00, -1.52, -301.8, 707.5)"></path><path d="M 539.8 302.0 C 539.8 302.0 539.8 332.0 539.8 332.0 " fill="none" stroke="#000000" stroke-width="1.00" stroke-miterlimit="1.41" stroke-linecap="round" stroke-linejoin="round" transform="matrix(1.52, 0.00, 0.00, -1.52, -301.8, 707.5)"></path><path d="M 539.8 332.0 C 539.8 332.0 614.8 332.0 614.8 332.0 " fill="none" stroke="#000000" stroke-width="1.00" stroke-miterlimit="1.41" stroke-linecap="round" stroke-linejoin="round" transform="matrix(1.52, 0.00, 0.00, -1.52, -301.8, 707.5)"></path><path d="M 542.5 324.6 C 550.7 327.2 560.2 327.1 570.4 327.1 C 573.6 327.1 579.8 327.5 582.8 326.7 C 587.7 325.5 593.4 323.7 597.8 322.0 C 601.9 320.4 606.2 318.9 610.2 317.3 C 611.4 316.8 613.2 315.4 614.5 315.5 " fill="none" stroke="#000000" stroke-width="1.00" stroke-miterlimit="1.41" stroke-linejoin="round" transform="matrix(1.52, 0.00, 0.00, -1.52, -301.8, 707.5)"></path><path d="M 781.0 302.0 C 781.0 302.0 781.0 332.0 781.0 332.0 " fill="none" stroke="#000000" stroke-width="1.00" stroke-miterlimit="1.41" stroke-linecap="round" stroke-linejoin="round" transform="matrix(1.52, 0.00, 0.00, -1.52, -301.8, 707.5)"></path><path d="M 781.0 332.0 C 781.0 332.0 856.0 332.0 856.0 332.0 " fill="none" stroke="#000000" stroke-width="1.00" stroke-miterlimit="1.41" stroke-linecap="round" stroke-linejoin="round" transform="matrix(1.52, 0.00, 0.00, -1.52, -301.8, 707.5)"></path><path d="M 784.0 304.8 C 784.0 304.8 854.5 330.0 854.5 330.0 " fill="none" stroke="#000000" stroke-width="1.00" stroke-miterlimit="1.41" stroke-linejoin="round" transform="matrix(1.52, 0.00, 0.00, -1.52, -301.8, 707.5)"></path><path d="M 781.0 266.0 C 781.0 266.0 781.0 296.0 781.0 296.0 " fill="none" stroke="#000000" stroke-width="1.00" stroke-miterlimit="1.41" stroke-linecap="round" stroke-linejoin="round" transform="matrix(1.52, 0.00, 0.00, -1.52, -301.8, 707.5)"></path><path d="M 781.0 296.0 C 781.0 296.0 856.0 296.0 856.0 296.0 " fill="none" stroke="#000000" stroke-width="1.00" stroke-miterlimit="1.41" stroke-linecap="round" stroke-linejoin="round" transform="matrix(1.52, 0.00, 0.00, -1.52, -301.8, 707.5)"></path><path d="M 784.0 279.0 C 784.0 279.0 854.5 282.0 854.5 282.0 " fill="none" stroke="#000000" stroke-width="1.00" stroke-miterlimit="1.41" stroke-linejoin="round" transform="matrix(1.52, 0.00, 0.00, -1.52, -301.8, 707.5)"></path><path d="M 621.3 338.0 C 621.3 338.0 621.3 368.0 621.3 368.0 " fill="none" stroke="#000000" stroke-width="1.00" stroke-miterlimit="1.41" stroke-linecap="round" stroke-linejoin="round" transform="matrix(1.52, 0.00, 0.00, -1.52, -301.8, 707.5)"></path><path d="M 621.3 368.0 C 621.3 368.0 696.3 368.0 696.3 368.0 " fill="none" stroke="#000000" stroke-width="1.00" stroke-miterlimit="1.41" stroke-linecap="round" stroke-linejoin="round" transform="matrix(1.52, 0.00, 0.00, -1.52, -301.8, 707.5)"></path><path d="M 624.3 351.0 C 624.3 351.0 694.8 354.0 694.8 354.0 " fill="none" stroke="#000000" stroke-width="1.00" stroke-miterlimit="1.41" stroke-linejoin="round" transform="matrix(1.52, 0.00, 0.00, -1.52, -301.8, 707.5)"></path><path d="M 701.3 338.0 C 701.3 338.0 701.3 368.0 701.3 368.0 " fill="none" stroke="#000000" stroke-width="1.00" stroke-miterlimit="1.41" stroke-linecap="round" stroke-linejoin="round" transform="matrix(1.52, 0.00, 0.00, -1.52, -301.8, 707.5)"></path><path d="M 701.3 368.0 C 701.3 368.0 776.3 368.0 776.3 368.0 " fill="none" stroke="#000000" stroke-width="1.00" stroke-miterlimit="1.41" stroke-linecap="round" stroke-linejoin="round" transform="matrix(1.52, 0.00, 0.00, -1.52, -301.8, 707.5)"></path><path d="M 704.3 340.8 C 704.3 340.8 774.8 366.0 774.8 366.0 " fill="none" stroke="#000000" stroke-width="1.00" stroke-miterlimit="1.41" stroke-linejoin="round" transform="matrix(1.52, 0.00, 0.00, -1.52, -301.8, 707.5)"></path><path d="M 540.0 374.0 C 540.0 374.0 540.0 404.0 540.0 404.0 " fill="none" stroke="#000000" stroke-width="1.00" stroke-miterlimit="1.41" stroke-linecap="round" stroke-linejoin="round" transform="matrix(1.52, 0.00, 0.00, -1.52, -301.8, 707.5)"></path><path d="M 540.0 404.0 C 540.0 404.0 615.0 404.0 615.0 404.0 " fill="none" stroke="#000000" stroke-width="1.00" stroke-miterlimit="1.41" stroke-linecap="round" stroke-linejoin="round" transform="matrix(1.52, 0.00, 0.00, -1.52, -301.8, 707.5)"></path><path d="M 543.0 376.8 C 543.0 376.8 613.5 402.0 613.5 402.0 " fill="none" stroke="#000000" stroke-width="1.00" stroke-miterlimit="1.41" stroke-linejoin="round" transform="matrix(1.52, 0.00, 0.00, -1.52, -301.8, 707.5)"></path></g></g><path d="M 542.8 477.3 C 542.2 477.7 540.8 477.2 540.3 477.5 M 542.8 477.3 C 541.3 475.1 538.7 475.0 535.2 474.6 C 531.4 474.5 535.3 476.6 534.9 477.5 C 529.9 478.4 529.9 476.8 530.6 474.4 C 528.7 476.0 523.0 473.2 524.2 476.1 C 532.2 476.1 518.5 476.9 525.2 478.6 C 526.0 479.0 524.0 479.8 523.3 479.8 C 525.5 481.1 521.7 482.5 525.3 483.4 C 525.8 485.2 525.1 484.4 527.4 485.9 C 528.4 486.1 528.0 485.4 527.9 485.0 C 528.2 482.8 530.6 486.2 532.5 484.9 C 534.2 487.7 536.0 484.4 534.5 483.2 C 536.2 483.5 538.1 486.5 539.9 484.4 C 540.9 485.8 545.4 484.9 542.7 483.1 C 540.7 481.9 542.9 481.1 543.2 480.4 C 542.5 479.8 539.7 480.7 539.3 480.2 C 540.2 479.7 543.8 478.7 540.0 478.8 C 541.2 477.8 539.3 477.2 542.8 477.3 C 542.8 477.3 542.8 477.3 542.8 477.3 Z M 529.2 475.7 C 529.2 474.9 530.5 475.7 529.2 475.7 C 529.2 475.7 529.2 475.7 529.2 475.7 Z M 538.4 485.9 C 538.4 485.1 539.7 485.9 538.4 485.9 C 538.4 485.9 538.4 485.9 538.4 485.9 Z M 528.5 485.1 C 528.5 484.3 529.8 485.1 528.5 485.1 C 528.5 485.1 528.5 485.1 528.5 485.1 Z M 532.7 476.2 C 534.9 476.8 530.9 477.3 530.6 476.5 C 531.1 476.6 532.2 475.5 532.7 476.2 C 532.7 476.2 532.7 476.2 532.7 476.2 Z M 533.0 480.6 C 533.2 480.3 534.1 480.2 534.0 481.0 C 533.4 481.2 532.9 480.8 533.0 480.6 C 533.0 480.6 533.0 480.6 533.0 480.6 Z M 522.4 477.5 C 522.6 477.2 523.5 477.1 523.4 477.9 C 522.8 478.1 522.3 477.7 522.4 477.5 C 522.4 477.5 522.4 477.5 522.4 477.5 Z M 535.2 478.2 C 535.7 478.3 535.9 479.0 535.2 479.1 C 535.0 478.8 533.4 478.6 535.2 478.2 C 535.2 478.2 535.2 478.2 535.2 478.2 Z M 538.5 475.7 C 540.3 476.0 536.7 477.2 536.7 476.8 C 536.1 476.3 537.5 475.0 538.5 475.7 C 538.5 475.7 538.5 475.7 538.5 475.7 Z M 536.2 479.2 C 537.7 479.6 535.6 479.8 536.2 479.2 C 536.2 479.2 536.2 479.2 536.2 479.2 Z M 523.9 483.1 C 525.4 483.5 523.3 483.6 523.9 483.1 C 523.9 483.1 523.9 483.1 523.9 483.1 Z M 531.7 485.5 C 533.2 485.8 531.1 486.0 531.7 485.5 C 531.7 485.5 531.7 485.5 531.7 485.5 Z M 528.8 477.7 C 526.2 477.6 528.4 475.8 528.8 477.7 C 528.8 477.7 528.8 477.7 528.8 477.7 Z M 542.6 475.5 C 540.0 475.4 542.3 473.5 542.6 475.5 C 542.6 475.5 542.6 475.5 542.6 475.5 Z M 517.8 476.2 C 519.0 476.0 517.2 475.2 516.0 474.8 C 514.9 474.4 514.0 474.4 515.0 476.0 C 515.4 478.6 511.3 477.5 512.9 475.6 C 511.9 475.0 512.2 474.9 511.0 475.5 C 511.8 473.9 511.1 471.9 509.9 471.6 C 508.3 471.7 510.6 473.4 508.4 472.6 C 506.3 469.4 506.8 473.8 504.4 472.7 C 504.3 472.5 505.3 472.2 504.6 471.9 C 503.7 472.1 503.1 472.9 502.5 473.6 C 502.0 474.4 501.7 475.5 500.7 474.8 C 501.4 475.8 502.8 481.6 502.7 478.7 C 503.2 477.9 503.6 479.4 504.5 480.7 C 505.4 482.1 506.7 483.2 507.2 481.8 C 508.0 483.9 510.6 482.9 511.5 484.8 C 512.5 485.4 512.7 483.8 512.7 483.4 C 512.8 482.0 513.5 486.7 515.3 484.4 C 515.4 485.1 520.1 485.0 516.7 483.8 C 517.6 484.1 524.1 484.7 520.6 482.1 C 516.0 480.9 525.2 479.4 520.0 479.2 C 516.0 478.9 515.7 479.4 518.3 478.1 C 519.1 478.2 523.6 478.0 519.8 476.8 C 518.9 477.1 517.4 476.9 517.8 476.2 C 517.8 476.2 517.8 476.2 517.8 476.2 Z M 518.5 480.0 C 516.4 480.1 518.3 479.0 518.5 480.0 C 518.5 480.0 518.5 480.0 518.5 480.0 Z M 511.1 485.3 C 509.1 485.0 511.2 484.3 511.1 485.3 C 511.1 485.3 511.1 485.3 511.1 485.3 Z M 513.7 475.1 C 513.1 475.8 513.5 473.0 513.7 475.1 C 513.7 475.1 513.7 475.1 513.7 475.1 Z M 514.6 483.6 C 514.5 483.6 514.9 483.3 515.3 483.2 C 515.2 483.3 514.7 483.6 514.6 483.6 C 514.6 483.6 514.6 483.6 514.6 483.6 Z M 512.3 474.6 C 510.4 475.0 513.1 472.5 512.3 474.6 C 512.3 474.6 512.3 474.6 512.3 474.6 Z M 507.9 474.0 C 505.5 475.3 507.2 471.8 507.9 474.0 C 507.9 474.0 507.9 474.0 507.9 474.0 Z M 506.4 481.0 C 507.2 480.9 506.7 481.6 506.4 481.0 C 506.4 481.0 506.4 481.0 506.4 481.0 Z M 519.3 484.5 C 519.9 483.9 519.9 484.9 519.3 484.5 C 519.3 484.5 519.3 484.5 519.3 484.5 Z M 503.4 477.6 C 504.4 477.3 503.7 479.0 503.4 477.6 C 503.4 477.6 503.4 477.6 503.4 477.6 Z M 513.2 476.1 C 515.2 474.3 514.2 479.6 513.2 476.1 C 513.2 476.1 513.2 476.1 513.2 476.1 Z M 516.2 476.3 C 517.7 475.9 515.9 477.6 515.3 477.2 C 515.4 477.0 516.0 476.4 516.2 476.3 C 516.2 476.3 516.2 476.3 516.2 476.3 Z M 511.7 475.7 C 513.2 475.3 512.3 476.8 511.7 475.7 C 511.7 475.7 511.7 475.7 511.7 475.7 Z M 514.4 475.4 C 514.8 475.7 513.9 475.6 514.4 475.4 C 514.4 475.4 514.4 475.4 514.4 475.4 Z M 511.5 472.8 C 511.6 473.3 511.1 472.8 511.5 472.8 C 511.5 472.8 511.5 472.8 511.5 472.8 Z M 518.2 475.2 C 519.1 475.5 517.5 475.5 518.2 475.2 C 518.2 475.2 518.2 475.2 518.2 475.2 Z M 510.8 474.1 C 510.0 474.7 509.2 477.5 508.8 473.9 C 509.1 473.1 510.8 473.0 510.8 474.1 C 510.8 474.1 510.8 474.1 510.8 474.1 Z M 550.0 477.4 C 539.6 474.3 542.1 479.7 541.6 480.7 C 540.2 482.2 541.6 483.1 543.6 484.1 C 545.9 487.5 547.0 480.6 548.5 484.0 C 551.3 488.5 551.7 480.0 552.9 484.8 C 552.5 486.1 556.5 485.0 556.2 484.7 C 558.2 487.0 561.1 483.0 561.1 482.5 C 562.5 483.2 562.6 487.4 566.9 484.2 C 570.1 483.1 571.5 487.3 570.6 484.4 C 573.0 487.7 572.3 483.5 574.7 484.5 C 576.3 486.3 574.7 481.8 577.7 485.2 C 579.0 482.5 576.3 487.1 584.4 485.1 C 580.5 484.9 588.1 482.9 586.6 484.7 C 583.9 486.7 590.4 484.0 594.0 485.2 C 595.0 484.2 599.4 481.7 598.7 484.4 C 602.5 487.6 602.5 482.5 604.2 485.1 C 605.4 486.2 605.9 483.8 606.8 484.0 C 608.1 486.0 609.3 484.7 614.0 485.2 C 624.3 486.2 615.5 480.2 619.5 479.6 C 620.1 478.6 614.4 472.2 616.7 477.0 C 615.9 475.7 607.5 480.7 611.7 475.4 C 608.5 477.5 612.4 473.2 605.9 475.8 C 614.8 479.5 595.9 477.3 604.4 475.4 C 603.0 474.4 599.5 474.6 602.0 475.5 C 603.0 478.8 595.9 473.9 599.5 478.1 C 594.1 476.9 595.5 480.6 594.0 478.0 C 592.7 473.6 594.2 479.2 591.5 477.9 C 585.1 477.8 590.0 472.7 586.1 476.1 C 579.9 473.9 584.8 478.1 582.6 478.6 C 582.0 481.7 576.2 476.2 581.0 475.8 C 578.5 477.5 580.5 474.4 577.7 476.3 C 579.8 479.2 574.0 473.3 574.8 475.6 C 572.3 476.3 573.6 478.0 572.8 478.1 C 569.0 478.1 570.2 475.3 569.4 477.4 C 568.5 478.5 566.7 474.8 566.2 475.8 C 570.2 475.9 563.0 478.8 562.6 477.2 C 565.0 477.0 561.3 473.5 559.8 475.7 C 561.8 482.0 556.4 474.1 554.6 476.3 C 556.3 479.8 546.1 476.8 549.9 475.2 C 549.7 475.4 550.1 477.4 550.0 477.4 M 565.1 476.3 C 568.3 476.6 561.6 477.0 565.1 476.3 M 565.0 475.4 C 566.4 476.5 561.9 474.5 565.1 475.0 C 565.2 475.0 564.7 475.3 565.0 475.4 M 578.3 475.2 C 577.9 476.2 576.5 474.7 578.3 475.2 M 580.9 477.4 C 583.0 478.3 578.0 477.5 580.9 477.4 M 610.4 476.7 C 607.4 481.8 607.2 473.8 610.4 476.7 M 590.8 475.6 C 587.2 476.3 592.1 473.5 590.8 475.6 M 589.8 476.9 C 588.1 477.8 589.4 475.8 589.8 476.9 M 604.8 476.7 C 605.0 476.8 605.0 476.8 604.8 476.7 C 604.8 476.7 604.8 476.7 604.8 476.7 Z M 613.5 476.8 C 613.5 476.7 613.5 476.7 613.5 476.8 C 613.5 476.8 613.5 476.8 613.5 476.8 Z M 596.3 477.2 C 593.5 476.0 600.7 476.8 596.3 477.2 C 596.3 477.2 596.3 477.2 596.3 477.2 Z M 609.3 484.6 C 609.2 484.7 609.2 484.7 609.3 484.6 C 609.3 484.6 609.3 484.6 609.3 484.6 Z M 562.5 478.6 C 562.4 478.7 562.4 478.7 562.5 478.6 C 562.5 478.6 562.5 478.6 562.5 478.6 Z M 552.6 476.7 C 552.7 477.4 550.8 476.1 552.6 476.7 C 552.6 476.7 552.6 476.7 552.6 476.7 Z M 544.5 482.5 C 544.4 482.6 544.4 482.6 544.5 482.5 C 544.5 482.5 544.5 482.5 544.5 482.5 Z M 559.2 481.3 C 559.1 481.4 559.1 481.4 559.2 481.3 C 559.2 481.3 559.2 481.3 559.2 481.3 Z M 560.6 477.5 C 559.0 474.7 564.4 478.3 560.6 477.5 C 560.6 477.5 560.6 477.5 560.6 477.5 Z M 592.9 484.3 C 593.0 483.1 595.2 484.8 592.9 484.3 C 592.9 484.3 592.9 484.3 592.9 484.3 Z M 581.2 478.5 C 581.7 477.9 582.7 478.8 581.2 478.5 C 581.2 478.5 581.2 478.5 581.2 478.5 Z M 575.8 474.7 C 576.2 474.0 577.2 475.0 575.8 474.7 C 575.8 474.7 575.8 474.7 575.8 474.7 Z M 552.8 475.9 C 553.0 475.7 553.0 475.7 552.8 475.9 C 552.8 475.9 552.8 475.9 552.8 475.9 Z M 556.3 478.0 C 553.9 475.4 560.1 479.5 556.3 478.0 C 556.3 478.0 556.3 478.0 556.3 478.0 Z M 552.1 478.8 C 553.4 479.8 548.9 478.3 552.1 478.8 M 554.5 482.9 C 557.5 481.7 551.8 487.6 554.5 482.9 C 554.5 482.9 554.5 482.9 554.5 482.9 Z M 569.9 483.9 C 570.0 484.0 570.0 484.0 569.9 483.9 C 569.9 483.9 569.9 483.9 569.9 483.9 Z M 568.2 476.2 C 570.9 476.3 566.5 476.8 568.2 476.2 C 568.2 476.2 568.2 476.2 568.2 476.2 Z M 545.1 475.6 C 547.8 475.7 543.4 476.2 545.1 475.6 C 545.1 475.6 545.1 475.6 545.1 475.6 Z M 578.8 481.3 C 583.1 480.9 576.1 482.7 578.8 481.3 C 578.8 481.3 578.8 481.3 578.8 481.3 Z M 594.7 478.3 C 594.9 478.3 594.9 478.3 594.7 478.3 C 594.7 478.3 594.7 478.3 594.7 478.3 Z M 597.7 477.2 C 597.8 477.2 597.8 477.2 597.7 477.2 C 597.7 477.2 597.7 477.2 597.7 477.2 Z M 610.1 479.9 C 610.3 480.0 610.3 480.0 610.1 479.9 C 610.1 479.9 610.1 479.9 610.1 479.9 Z M 600.4 475.9 C 600.5 475.9 600.5 475.9 600.4 475.9 C 600.4 475.9 600.4 475.9 600.4 475.9 Z M 609.0 476.6 C 609.2 476.7 609.2 476.7 609.0 476.6 C 609.0 476.6 609.0 476.6 609.0 476.6 Z M 607.8 474.3 C 608.0 474.4 608.0 474.4 607.8 474.3 C 607.8 474.3 607.8 474.3 607.8 474.3 Z M 588.7 485.9 C 588.9 486.0 588.9 486.0 588.7 485.9 C 588.7 485.9 588.7 485.9 588.7 485.9 Z M 557.5 475.0 C 557.7 475.2 557.7 475.2 557.5 475.0 C 557.5 475.0 557.5 475.0 557.5 475.0 Z M 608.3 477.6 C 608.4 477.7 608.4 477.7 608.3 477.6 C 608.3 477.6 608.3 477.6 608.3 477.6 Z M 587.3 479.7 C 587.5 482.0 585.6 476.7 587.9 479.6 C 587.8 479.7 587.2 479.4 587.3 479.7 M 590.2 483.5 C 590.1 483.5 590.1 483.5 590.2 483.5 C 590.2 483.5 590.2 483.5 590.2 483.5 Z M 580.7 484.9 C 580.6 484.9 580.6 484.9 580.7 484.9 C 580.7 484.9 580.7 484.9 580.7 484.9 Z M 598.9 475.4 C 598.5 474.2 601.3 476.4 598.6 475.5 M 610.2 483.8 C 609.8 482.6 612.6 484.8 609.8 483.9 M 542.1 476.4 C 541.8 477.4 540.3 475.9 542.1 476.4 M 578.6 486.0 C 578.2 487.0 576.8 485.5 578.6 486.0 M 583.0 483.2 C 582.6 481.9 585.3 484.1 582.6 483.2 M 603.7 483.8 C 603.8 483.8 603.8 483.8 603.7 483.8 C 603.7 483.8 603.7 483.8 603.7 483.8 Z M 572.3 476.4 C 572.4 476.5 572.4 476.5 572.3 476.4 C 572.3 476.4 572.3 476.4 572.3 476.4 Z M 583.9 479.1 C 582.3 477.4 586.0 480.2 583.9 479.1 M 568.9 479.4 C 566.6 477.3 572.6 480.1 568.9 479.4 M 615.1 484.4 C 612.6 481.8 617.0 485.8 615.1 484.4 M 602.4 477.9 C 599.8 475.3 604.3 479.3 602.4 477.9 M 574.6 477.5 C 574.5 476.2 577.2 478.3 574.6 477.5 M 548.1 476.2 C 545.7 476.0 551.4 475.2 548.1 476.2 M 597.4 483.8 C 597.5 483.9 597.5 483.9 597.4 483.8 C 597.4 483.8 597.4 483.8 597.4 483.8 Z M 556.1 486.1 C 556.3 486.2 556.3 486.2 556.1 486.1 C 556.1 486.1 556.1 486.1 556.1 486.1 Z M 618.4 475.9 C 618.6 476.0 618.6 476.0 618.4 475.9 C 618.4 475.9 618.4 475.9 618.4 475.9 Z M 600.8 479.1 C 600.9 479.2 600.9 479.2 600.8 479.1 C 600.8 479.1 600.8 479.1 600.8 479.1 Z M 613.5 475.5 C 613.6 475.7 613.6 475.7 613.5 475.5 C 613.5 475.5 613.5 475.5 613.5 475.5 Z M 592.8 481.1 C 592.8 481.2 592.8 481.2 592.8 481.1 C 592.8 481.1 592.8 481.1 592.8 481.1 Z M 591.2 474.5 C 591.2 474.5 591.2 474.5 591.2 474.5 C 591.2 474.5 591.2 474.5 591.2 474.5 Z M 582.4 477.3 C 582.4 477.4 582.4 477.4 582.4 477.3 C 582.4 477.3 582.4 477.3 582.4 477.3 Z M 595.2 475.0 C 600.4 474.6 592.5 477.2 595.2 475.0 C 595.2 475.0 595.2 475.0 595.2 475.0 Z M 586.1 481.6 C 586.1 481.7 586.1 481.7 586.1 481.6 C 586.1 481.6 586.1 481.6 586.1 481.6 Z M 585.4 476.9 C 588.7 475.0 587.1 480.1 585.4 476.9 M 570.7 475.4 C 571.8 474.4 571.3 476.9 570.7 475.4 M 564.9 484.0 C 564.9 484.2 564.9 484.2 564.9 484.0 C 564.9 484.0 564.9 484.0 564.9 484.0 Z M 566.5 483.4 C 566.6 483.4 566.6 483.4 566.5 483.4 C 566.5 483.4 566.5 483.4 566.5 483.4 Z M 567.2 475.0 C 567.3 475.0 567.3 475.0 567.2 475.0 C 567.2 475.0 567.2 475.0 567.2 475.0 Z M 566.7 485.8 C 566.9 485.9 566.9 485.9 566.7 485.8 C 566.7 485.8 566.7 485.8 566.7 485.8 Z M 589.2 474.7 C 589.2 474.7 589.2 474.7 589.2 474.7 C 589.2 474.7 589.2 474.7 589.2 474.7 Z M 616.1 474.6 C 616.1 474.6 616.1 474.6 616.1 474.6 C 616.1 474.6 616.1 474.6 616.1 474.6 Z M 548.9 483.1 C 549.1 483.2 549.1 483.2 548.9 483.1 C 548.9 483.1 548.9 483.1 548.9 483.1 Z M 592.0 477.3 C 592.1 477.4 592.1 477.4 592.0 477.3 C 592.0 477.3 592.0 477.3 592.0 477.3 Z M 561.1 483.7 C 561.2 483.8 561.2 483.8 561.1 483.7 C 561.1 483.7 561.1 483.7 561.1 483.7 Z M 590.2 476.7 C 590.3 476.7 590.3 476.7 590.2 476.7 C 590.2 476.7 590.2 476.7 590.2 476.7 Z M 596.6 484.4 C 596.6 484.4 596.6 484.4 596.6 484.4 C 596.6 484.4 596.6 484.4 596.6 484.4 Z M 602.3 485.9 C 602.4 485.9 602.4 485.9 602.3 485.9 C 602.3 485.9 602.3 485.9 602.3 485.9 Z M 596.1 479.8 C 596.3 479.8 596.3 479.8 596.1 479.8 C 596.1 479.8 596.1 479.8 596.1 479.8 Z M 559.2 480.8 C 548.7 478.6 567.6 479.8 559.2 480.8 M 597.9 480.3 C 590.5 479.8 603.9 477.8 597.9 480.3 C 598.7 479.7 598.0 480.3 597.9 480.3 M 621.1 474.8 C 618.0 477.2 618.0 479.6 619.3 482.1 C 620.8 483.3 620.8 478.4 620.8 482.6 C 617.4 483.3 622.4 488.7 622.3 483.4 C 626.8 482.7 623.0 486.8 625.8 484.7 C 630.6 484.2 628.1 485.8 631.9 485.4 C 634.1 482.5 634.1 486.8 635.0 484.1 C 634.1 485.6 635.1 485.4 636.4 485.0 C 637.6 484.6 639.9 483.9 640.0 484.6 C 638.0 485.6 641.9 485.6 644.5 485.0 C 647.1 484.3 648.8 483.4 644.3 483.5 C 647.7 481.7 647.3 484.2 649.2 483.8 C 649.9 482.6 651.8 482.0 653.7 480.7 C 655.6 479.5 657.3 477.5 657.2 475.7 C 656.6 476.1 655.7 477.3 655.0 477.4 C 653.6 477.4 656.8 474.5 656.5 474.9 C 656.6 473.9 656.4 471.9 656.4 471.1 C 656.4 470.3 657.0 470.2 657.6 473.7 C 658.9 474.4 657.8 468.5 659.1 468.8 C 659.5 462.9 656.3 467.5 658.5 464.4 C 658.6 459.3 658.6 457.1 658.2 457.2 C 658.5 454.8 660.2 454.3 658.6 452.2 C 661.7 447.4 652.5 448.8 658.7 447.0 C 657.2 445.6 661.2 444.3 657.4 444.5 C 659.2 446.2 660.4 436.4 657.6 440.6 C 656.7 439.5 661.6 433.4 657.7 434.2 C 654.8 432.0 652.0 432.4 649.3 437.2 C 651.5 436.7 647.0 442.3 650.8 438.7 C 652.1 434.6 652.2 446.2 650.8 443.8 C 646.3 443.2 653.6 449.4 650.4 451.9 C 652.2 449.9 653.1 459.3 649.7 456.6 C 649.4 458.3 651.0 458.8 649.1 460.7 C 649.4 455.0 652.6 463.1 650.5 462.5 C 649.9 461.8 649.3 464.7 649.1 466.5 C 648.9 468.4 649.0 469.6 649.9 469.4 C 654.8 467.9 648.9 470.4 650.4 471.8 C 650.4 473.4 649.4 472.8 648.9 472.3 C 648.3 471.8 648.3 471.2 649.1 473.1 C 648.3 473.3 645.8 475.5 646.7 473.5 C 647.2 473.4 647.7 474.7 647.4 475.7 C 647.1 476.8 646.1 477.4 645.3 475.5 C 646.1 474.7 645.9 474.3 645.6 474.2 C 645.3 474.1 645.0 474.2 644.4 474.4 C 643.2 474.8 640.8 475.5 641.8 476.1 C 644.0 476.5 644.2 476.8 644.0 477.1 C 643.7 477.5 642.7 477.8 641.3 477.8 C 639.9 477.9 637.9 477.8 636.9 477.6 C 636.0 477.4 636.5 477.0 638.9 476.4 C 633.4 474.3 639.6 475.6 634.0 476.5 C 634.7 477.7 630.3 479.0 631.4 476.5 C 630.5 472.7 629.8 481.5 626.4 476.3 C 625.9 474.1 619.5 478.0 622.0 475.5 C 622.2 475.2 621.2 474.8 621.1 474.8 M 623.1 475.2 C 622.3 476.1 621.8 474.2 623.1 475.2 M 622.3 476.1 C 622.2 476.0 622.2 476.0 622.3 476.1 C 622.3 476.1 622.3 476.1 622.3 476.1 Z M 633.2 476.6 C 633.1 476.5 633.1 476.5 633.2 476.6 C 633.2 476.6 633.2 476.6 633.2 476.6 Z M 643.0 486.0 C 642.9 485.9 642.9 485.9 643.0 486.0 C 643.0 486.0 643.0 486.0 643.0 486.0 Z M 641.2 476.8 C 641.1 476.8 641.1 476.8 641.2 476.8 C 641.2 476.8 641.2 476.8 641.2 476.8 Z M 629.3 477.2 C 629.2 477.2 629.2 477.2 629.3 477.2 C 629.3 477.2 629.3 477.2 629.3 477.2 Z M 640.5 475.4 C 641.1 476.9 638.0 474.5 640.6 475.2 C 640.7 475.3 640.2 475.3 640.5 475.4 M 646.0 473.9 C 646.2 474.0 646.2 474.0 646.0 473.9 M 660.0 459.4 C 660.1 459.4 660.1 459.4 660.0 459.4 M 648.7 457.7 C 648.9 457.5 648.9 457.5 648.7 457.7 M 649.9 470.5 C 650.1 468.7 650.7 470.2 649.9 470.5 M 649.5 450.1 C 648.6 453.7 648.7 446.2 649.5 450.1 M 648.7 446.5 C 648.8 446.2 648.8 446.2 648.7 446.5 M 649.2 463.2 C 649.3 463.3 649.3 463.3 649.2 463.2 C 649.2 463.2 649.2 463.2 649.2 463.2 Z M 649.2 471.1 C 647.9 472.9 648.5 468.6 649.2 471.1 M 634.4 475.3 C 636.5 474.6 634.4 477.1 634.4 475.3 M 630.1 476.1 C 630.1 476.2 630.1 476.2 630.1 476.1 C 630.1 476.1 630.1 476.1 630.1 476.1 Z M 649.4 455.9 C 649.5 456.1 649.5 456.1 649.4 455.9 C 649.4 455.9 649.4 455.9 649.4 455.9 Z M 649.2 451.7 C 649.2 451.9 649.2 451.9 649.2 451.7 C 649.2 451.7 649.2 451.7 649.2 451.7 Z M 659.6 444.7 C 659.6 444.9 659.6 444.9 659.6 444.7 C 659.6 444.7 659.6 444.7 659.6 444.7 Z M 633.3 480.4 C 630.5 479.7 636.2 477.0 635.7 479.5 C 636.0 480.6 633.7 480.2 633.3 480.4 M 651.4 473.9 C 654.8 475.1 646.0 473.6 651.4 473.9 M 651.0 446.0 C 655.2 443.2 648.0 449.6 651.0 446.0 M 650.3 440.3 C 651.1 438.6 650.8 451.0 649.6 442.3 C 649.0 441.5 649.8 440.9 650.3 440.3 M 647.0 475.3 C 648.5 476.6 644.1 476.1 647.0 475.3 M 656.4 462.9 C 655.2 461.0 654.1 457.8 656.2 459.4 C 657.6 459.4 657.9 460.7 657.8 461.7 C 657.6 462.8 657.0 464.1 656.4 462.9 M 623.9 477.2 C 626.2 474.1 623.9 479.9 623.9 477.2 M 635.0 477.5 C 635.0 477.4 635.0 477.4 635.0 477.5 C 635.0 477.5 635.0 477.5 635.0 477.5 Z M 640.1 477.0 C 640.3 477.2 640.3 477.2 640.1 477.0 M 625.7 474.5 C 625.9 474.7 625.9 474.7 625.7 474.5 M 653.2 463.0 C 653.4 462.7 653.4 462.7 653.2 463.0 M 650.6 471.2 C 654.2 469.3 650.9 472.7 650.6 471.2 M 648.4 481.9 C 650.5 482.6 645.3 483.3 648.4 481.9 M 649.9 465.5 C 652.9 462.1 652.6 470.2 649.9 465.5 M 649.9 472.3 C 650.0 472.1 650.0 472.1 649.9 472.3 C 649.9 472.3 649.9 472.3 649.9 472.3 Z M 656.8 461.7 C 656.8 461.7 656.8 461.7 656.8 461.7 C 656.8 461.7 656.8 461.7 656.8 461.7 Z M 656.6 460.4 C 656.7 460.5 656.7 460.5 656.6 460.4 C 656.6 460.4 656.6 460.4 656.6 460.4 Z M 649.6 461.1 C 649.6 461.2 649.6 461.2 649.6 461.1 C 649.6 461.1 649.6 461.1 649.6 461.1 Z M 629.9 484.2 C 632.9 484.4 627.5 484.7 629.9 484.2 C 629.9 484.2 629.9 484.2 629.9 484.2 Z M 643.3 475.3 C 646.8 477.2 641.3 477.8 643.3 475.3 C 643.3 475.3 643.3 475.3 643.3 475.3 Z M 648.1 477.8 C 648.2 478.0 648.2 478.0 648.1 477.8 C 648.1 477.8 648.1 477.8 648.1 477.8 Z M 648.0 467.3 C 648.2 467.3 648.2 467.3 648.0 467.3 C 648.0 467.3 648.0 467.3 648.0 467.3 Z M 631.4 484.6 C 631.4 484.8 631.4 484.8 631.4 484.6 C 631.4 484.6 631.4 484.6 631.4 484.6 Z M 651.2 452.5 C 651.3 452.5 651.3 452.5 651.2 452.5 C 651.2 452.5 651.2 452.5 651.2 452.5 Z M 656.9 470.8 C 655.9 469.6 657.8 470.7 656.9 470.8 C 656.9 470.8 656.9 470.8 656.9 470.8 Z M 657.2 466.2 C 657.2 466.0 657.2 466.0 657.2 466.2 C 657.2 466.2 657.2 466.2 657.2 466.2 Z M 648.5 445.4 C 648.4 445.3 648.4 445.3 648.5 445.4 C 648.5 445.4 648.5 445.4 648.5 445.4 Z M 660.0 453.8 C 660.0 453.7 660.0 453.7 660.0 453.8 C 660.0 453.8 660.0 453.8 660.0 453.8 Z M 656.6 450.1 C 656.6 450.1 656.6 450.1 656.6 450.1 C 656.6 450.1 656.6 450.1 656.6 450.1 Z M 650.3 461.9 C 649.7 457.4 651.6 462.9 650.3 461.9 C 650.3 461.9 650.3 461.9 650.3 461.9 Z M 655.6 438.9 C 655.8 438.8 655.8 438.8 655.6 438.9 C 655.6 438.9 655.6 438.9 655.6 438.9 Z M 651.6 436.6 C 651.8 436.5 651.8 436.5 651.6 436.6 C 651.6 436.6 651.6 436.6 651.6 436.6 Z M 649.4 435.5 C 649.6 435.4 649.6 435.4 649.4 435.5 C 649.4 435.5 649.4 435.5 649.4 435.5 Z M 640.1 481.3 C 639.9 481.2 639.9 481.2 640.1 481.3 C 640.1 481.3 640.1 481.3 640.1 481.3 Z M 637.9 474.8 C 637.8 474.7 637.8 474.7 637.9 474.8 C 637.9 474.8 637.9 474.8 637.9 474.8 Z M 643.4 474.3 C 643.3 474.2 643.3 474.2 643.4 474.3 C 643.4 474.3 643.4 474.3 643.4 474.3 Z M 638.8 485.3 C 638.7 485.2 638.7 485.2 638.8 485.3 C 638.8 485.3 638.8 485.3 638.8 485.3 Z M 653.5 469.3 C 653.4 469.4 653.4 469.4 653.5 469.3 C 653.5 469.3 653.5 469.3 653.5 469.3 Z M 656.3 467.4 C 656.1 467.5 656.1 467.5 656.3 467.4 C 656.3 467.4 656.3 467.4 656.3 467.4 Z M 659.1 473.2 C 659.0 473.3 659.0 473.3 659.1 473.2 C 659.1 473.2 659.1 473.2 659.1 473.2 Z M 658.6 465.6 C 658.5 465.6 658.5 465.6 658.6 465.6 C 658.6 465.6 658.6 465.6 658.6 465.6 Z M 622.8 484.1 C 622.8 484.2 622.8 484.2 622.8 484.1 C 622.8 484.1 622.8 484.1 622.8 484.1 Z M 622.4 479.1 C 622.3 479.2 622.3 479.2 622.4 479.1 C 622.4 479.1 622.4 479.1 622.4 479.1 Z M 649.9 468.4 C 648.9 467.6 651.4 466.9 649.9 468.4 M 648.9 473.8 C 648.9 473.9 648.9 473.9 648.9 473.8 C 648.9 473.8 648.9 473.8 648.9 473.8 Z M 650.2 453.2 C 652.2 452.1 649.2 457.3 650.2 453.2 C 650.2 453.2 650.2 453.2 650.2 453.2 Z M 658.6 457.9 C 658.6 457.8 658.6 457.8 658.6 457.9 C 658.6 457.9 658.6 457.9 658.6 457.9 Z M 657.8 455.6 C 657.9 455.4 657.9 455.4 657.8 455.6 C 657.8 455.6 657.8 455.6 657.8 455.6 Z M 652.3 443.0 C 652.5 442.8 652.5 442.8 652.3 443.0 M 647.1 473.1 C 648.2 473.2 648.0 473.2 647.1 473.1 M 650.3 450.3 C 650.3 450.4 650.3 450.4 650.3 450.3 C 650.3 450.3 650.3 450.3 650.3 450.3 Z M 651.2 440.2 C 651.3 440.3 651.3 440.3 651.2 440.2 C 651.2 440.2 651.2 440.2 651.2 440.2 Z M 644.9 475.8 C 645.6 478.1 644.8 477.8 644.9 475.8 M 628.4 477.1 C 628.4 477.2 628.4 477.2 628.4 477.1 C 628.4 477.1 628.4 477.1 628.4 477.1 Z M 649.4 426.4 C 646.8 431.1 650.6 431.1 650.7 431.1 C 645.6 430.6 652.7 435.3 653.7 434.4 C 654.4 434.6 663.3 430.9 657.9 427.6 C 657.2 426.7 658.8 426.1 658.9 425.2 C 658.8 421.3 658.1 422.8 657.4 423.8 C 656.8 424.9 656.2 425.3 656.1 421.5 C 656.8 420.2 661.3 421.0 657.8 417.4 C 657.9 417.3 658.2 415.9 658.1 414.9 C 658.0 413.8 657.4 412.6 656.9 414.1 C 657.6 410.5 654.1 409.8 651.8 408.5 C 651.2 407.3 652.0 407.0 651.9 406.6 C 651.9 406.3 651.6 406.1 650.7 405.7 C 649.8 405.4 648.1 405.0 646.3 405.2 C 645.3 403.2 644.0 403.7 643.0 404.2 C 641.9 404.8 641.0 405.3 639.4 403.4 C 637.3 403.2 634.0 409.6 638.9 406.0 C 638.6 406.2 639.2 407.1 639.0 407.7 C 638.9 408.4 637.5 408.9 634.8 408.4 C 635.6 407.5 638.6 401.1 630.1 404.2 C 628.7 404.0 625.5 405.7 624.8 405.0 C 629.1 404.2 618.9 402.1 619.9 404.1 C 613.1 402.7 617.0 405.7 612.2 403.5 C 608.2 403.4 613.5 406.4 608.5 404.7 C 604.8 405.0 607.3 403.4 607.7 403.5 C 604.5 403.2 603.3 404.4 602.1 404.3 C 601.4 404.0 600.0 402.6 599.2 404.3 C 595.8 407.2 598.9 410.1 597.3 413.0 C 599.9 414.5 598.5 410.8 600.2 413.0 C 601.4 411.2 600.4 413.2 607.2 412.8 C 607.0 412.3 605.4 411.0 607.0 410.9 C 609.7 411.1 607.8 416.1 612.2 412.5 C 607.0 411.5 619.5 411.0 614.6 409.9 C 620.6 409.3 616.4 410.3 620.7 411.5 C 620.5 408.2 621.0 415.1 622.7 412.4 C 623.1 413.8 629.9 413.2 625.0 411.1 C 632.1 410.3 627.6 412.2 630.2 413.9 C 633.5 414.1 630.4 408.5 632.5 412.6 C 636.7 414.4 632.6 410.5 635.7 413.8 C 634.3 410.9 639.7 413.8 638.2 410.7 C 642.8 410.6 641.8 411.5 641.4 412.0 C 640.9 412.6 640.3 412.9 642.5 411.9 C 641.2 411.7 641.6 415.8 643.8 413.4 C 643.8 408.5 645.2 418.3 645.4 411.5 C 647.1 411.5 648.2 412.3 648.6 412.8 C 648.9 413.2 648.7 413.6 648.3 413.9 C 647.6 414.5 646.7 415.0 647.6 416.1 C 648.0 416.7 648.6 414.0 649.2 414.6 C 650.4 416.9 649.4 417.3 649.3 417.2 C 649.1 417.2 649.4 416.6 651.2 417.5 C 652.2 419.7 651.3 420.5 650.5 420.6 C 649.7 420.7 648.8 420.3 648.7 421.9 C 650.3 422.1 652.9 425.7 649.4 426.4 M 650.9 419.6 C 649.7 418.6 651.8 418.8 650.9 419.6 M 649.5 434.3 C 648.5 432.8 650.6 433.4 649.5 434.3 M 649.1 416.4 C 647.6 415.8 650.4 415.3 649.1 416.4 M 616.7 411.0 C 619.4 411.0 615.5 411.9 616.7 411.0 M 649.3 428.6 C 648.1 426.6 651.1 428.1 649.3 428.6 M 651.8 431.2 C 651.9 431.1 651.9 431.1 651.8 431.2 M 612.9 413.7 C 612.8 413.6 612.8 413.6 612.9 413.7 M 623.2 413.7 C 621.0 413.6 624.4 413.0 623.2 413.7 M 623.6 403.0 C 621.4 402.9 624.8 402.3 623.6 403.0 M 607.3 413.8 C 605.2 414.6 606.7 412.6 607.3 413.8 M 601.6 411.5 C 599.7 412.4 600.3 410.4 601.6 411.5 M 654.7 420.5 C 654.8 420.5 654.8 420.5 654.7 420.5 C 654.7 420.5 654.7 420.5 654.7 420.5 Z M 644.4 405.5 C 646.4 406.9 641.9 403.9 644.4 405.5 M 645.6 413.0 C 645.4 410.6 647.3 413.6 645.6 413.0 C 645.6 413.0 645.6 413.0 645.6 413.0 Z M 647.9 413.1 C 648.0 413.0 648.0 413.0 647.9 413.1 C 647.9 413.1 647.9 413.1 647.9 413.1 Z M 640.3 411.2 C 640.4 411.2 640.4 411.2 640.3 411.2 C 640.3 411.2 640.3 411.2 640.3 411.2 Z M 642.4 411.1 C 643.1 410.7 643.4 411.6 642.4 411.1 C 642.4 411.1 642.4 411.1 642.4 411.1 Z M 626.2 404.1 C 627.2 403.6 627.4 404.5 626.2 404.1 C 626.2 404.1 626.2 404.1 626.2 404.1 Z M 645.0 410.7 C 645.6 408.6 645.8 412.3 645.0 410.7 C 645.0 410.7 645.0 410.7 645.0 410.7 Z M 633.6 405.0 C 632.7 405.6 631.7 403.0 633.6 405.0 M 610.8 413.3 C 609.9 413.9 608.8 411.2 610.8 413.3 M 633.3 413.9 C 632.3 414.5 631.3 411.8 633.3 413.9 M 649.8 418.9 C 650.0 418.7 650.0 418.7 649.8 418.9 M 649.0 404.4 C 646.6 404.4 648.3 403.1 649.0 404.4 M 658.8 427.5 C 658.0 426.0 659.8 426.8 658.8 427.5 M 614.0 403.2 C 614.0 403.8 611.7 402.9 614.0 403.2 M 630.6 410.4 C 628.6 410.1 626.6 409.0 630.8 409.1 C 631.0 409.6 629.8 409.9 630.6 410.4 C 630.6 410.4 630.6 410.4 630.6 410.4 Z M 623.6 405.4 C 623.3 405.2 623.3 405.2 623.6 405.4 M 627.1 412.4 C 626.8 412.2 626.8 412.2 627.1 412.4 M 615.6 412.2 C 615.4 411.9 615.4 411.9 615.6 412.2 M 614.2 412.8 C 614.2 412.7 614.2 412.7 614.2 412.8 C 614.2 412.8 614.2 412.8 614.2 412.8 Z M 601.6 413.7 C 601.6 413.6 601.6 413.6 601.6 413.7 C 601.6 413.7 601.6 413.7 601.6 413.7 Z M 619.3 411.9 C 619.3 411.8 619.3 411.8 619.3 411.9 C 619.3 411.9 619.3 411.9 619.3 411.9 Z M 608.9 403.6 C 608.9 403.5 608.9 403.5 608.9 403.6 C 608.9 403.6 608.9 403.6 608.9 403.6 Z M 610.2 404.9 C 610.2 404.8 610.2 404.8 610.2 404.9 C 610.2 404.9 610.2 404.9 610.2 404.9 Z M 649.5 425.0 C 647.9 422.7 653.3 423.8 649.5 425.0 M 604.6 404.9 C 602.9 403.4 607.5 404.6 604.6 404.9 C 604.6 404.9 604.6 404.9 604.6 404.9 Z M 620.7 410.1 C 620.5 409.8 620.5 409.8 620.7 410.1 M 613.5 412.6 C 613.3 412.3 613.3 412.3 613.5 412.6 M 645.1 414.9 C 645.1 414.6 645.1 414.6 645.1 414.9 M 604.6 412.2 C 599.2 411.7 607.0 409.1 604.6 412.2 M 647.0 413.5 C 647.0 413.7 647.0 413.7 647.0 413.5 M 637.7 408.1 C 632.9 408.3 639.4 406.9 637.7 408.1 M 628.2 410.9 C 628.3 410.8 628.3 410.8 628.2 410.9 C 628.2 410.9 628.2 410.9 628.2 410.9 Z M 633.5 410.9 C 636.1 410.6 634.2 411.5 633.5 410.9 C 633.5 410.9 633.5 410.9 633.5 410.9 Z M 651.4 422.1 C 651.7 418.6 652.3 425.6 651.4 422.1 C 651.4 422.1 651.4 422.1 651.4 422.1 Z M 607.1 407.1 C 607.2 407.0 607.2 407.0 607.1 407.1 C 607.1 407.1 607.1 407.1 607.1 407.1 Z M 619.9 413.5 C 621.5 412.9 620.7 414.1 619.9 413.5 C 619.9 413.5 619.9 413.5 619.9 413.5 Z M 599.7 413.7 C 601.3 413.2 600.4 414.4 599.7 413.7 C 599.7 413.7 599.7 413.7 599.7 413.7 Z M 651.1 426.9 C 651.6 425.4 651.9 423.9 652.1 423.4 C 652.3 422.9 652.4 422.9 652.5 423.3 C 652.6 424.2 652.4 426.7 652.1 428.5 C 651.5 432.1 650.6 435.2 651.1 426.9 C 651.1 426.9 651.1 426.9 651.1 426.9 Z M 631.4 412.4 C 631.4 412.2 631.4 412.2 631.4 412.4 C 631.4 412.4 631.4 412.4 631.4 412.4 Z M 647.8 416.7 C 647.9 416.6 647.9 416.6 647.8 416.7 C 647.8 416.7 647.8 416.7 647.8 416.7 Z M 650.4 417.9 C 650.5 417.9 650.5 417.9 650.4 417.9 C 650.4 417.9 650.4 417.9 650.4 417.9 Z M 658.4 414.9 C 658.5 414.9 658.5 414.9 658.4 414.9 C 658.4 414.9 658.4 414.9 658.4 414.9 Z M 654.2 414.6 C 654.5 414.7 654.5 414.7 654.2 414.6 C 654.2 414.6 654.2 414.6 654.2 414.6 Z M 656.9 422.1 C 657.0 422.2 657.0 422.2 656.9 422.1 C 656.9 422.1 656.9 422.1 656.9 422.1 Z M 658.0 421.9 C 658.1 421.9 658.1 421.9 658.0 421.9 C 658.0 421.9 658.0 421.9 658.0 421.9 Z M 613.5 410.2 C 613.6 410.0 613.6 410.0 613.5 410.2 C 613.5 410.2 613.5 410.2 613.5 410.2 Z M 617.7 406.7 C 614.9 407.9 618.6 404.8 617.7 406.7 C 617.7 406.7 617.7 406.7 617.7 406.7 Z M 644.1 408.7 C 641.8 408.8 645.6 407.8 644.1 408.7 C 644.1 408.7 644.1 408.7 644.1 408.7 Z M 641.6 403.8 C 641.6 403.8 641.6 403.8 641.6 403.8 C 641.6 403.8 641.6 403.8 641.6 403.8 Z M 648.4 418.3 C 648.6 418.3 648.6 418.3 648.4 418.3 C 648.4 418.3 648.4 418.3 648.4 418.3 Z M 650.2 421.5 C 652.0 421.7 649.3 423.0 650.2 421.5 M 639.1 413.5 C 639.1 413.3 639.1 413.3 639.1 413.5 C 639.1 413.5 639.1 413.5 639.1 413.5 Z M 622.9 410.7 C 622.9 410.6 622.9 410.6 622.9 410.7 C 622.9 410.7 622.9 410.7 622.9 410.7 Z M 607.4 411.9 C 607.5 411.6 607.5 411.6 607.4 411.9 C 607.4 411.9 607.4 411.9 607.4 411.9 Z M 628.8 413.3 C 628.9 413.1 628.9 413.1 628.8 413.3 C 628.8 413.3 628.8 413.3 628.8 413.3 Z M 636.1 411.6 C 636.2 411.4 636.2 411.4 636.1 411.6 C 636.1 411.6 636.1 411.6 636.1 411.6 Z M 604.0 409.3 C 604.1 409.2 604.1 409.2 604.0 409.3 C 604.0 409.3 604.0 409.3 604.0 409.3 Z M 627.0 413.5 C 627.1 413.5 627.1 413.5 627.0 413.5 C 627.0 413.5 627.0 413.5 627.0 413.5 Z M 622.6 407.8 C 622.7 407.7 622.7 407.7 622.6 407.8 C 622.6 407.8 622.6 407.8 622.6 407.8 Z M 647.6 421.0 C 647.7 421.1 647.7 421.1 647.6 421.0 C 647.6 421.0 647.6 421.0 647.6 421.0 Z M 603.9 411.7 C 603.9 411.6 603.9 411.6 603.9 411.7 C 603.9 411.7 603.9 411.7 603.9 411.7 Z M 602.9 413.3 C 603.0 413.2 603.0 413.2 602.9 413.3 C 602.9 413.3 602.9 413.3 602.9 413.3 Z M 613.9 404.8 C 619.3 405.8 609.0 405.2 612.9 407.1 C 605.1 407.6 612.7 404.7 613.9 404.8 C 613.9 404.8 613.9 404.8 613.9 404.8 Z M 595.6 414.0 C 598.6 411.6 598.6 409.2 597.3 406.7 C 595.8 405.5 595.9 410.3 595.8 406.2 C 599.3 405.4 594.3 400.0 594.4 405.3 C 589.8 406.1 593.6 402.0 590.9 404.1 C 586.0 404.6 588.5 403.0 584.8 403.3 C 582.6 406.2 582.6 401.9 581.6 404.7 C 583.5 401.7 577.6 405.5 577.4 404.1 C 580.9 402.3 564.5 404.1 573.4 405.0 C 569.7 406.4 570.4 403.9 569.2 403.5 C 567.6 405.3 563.2 402.1 561.0 403.9 C 561.4 404.3 562.5 404.4 562.9 405.0 C 563.5 406.1 560.3 404.7 560.7 404.8 C 559.2 405.5 553.3 407.3 559.6 404.1 C 559.9 402.7 554.5 404.8 554.6 403.5 C 549.2 403.4 553.3 406.4 550.9 404.2 C 547.0 404.1 544.2 404.1 544.2 404.5 C 541.8 404.2 541.3 402.5 539.2 404.1 C 534.4 401.0 535.8 410.2 534.0 404.0 C 532.7 405.5 531.3 401.5 531.5 405.3 C 533.2 403.5 523.4 402.3 527.6 405.1 C 526.5 406.0 519.8 401.1 521.0 405.0 C 518.0 407.9 519.4 410.7 524.2 413.4 C 523.7 411.2 529.3 415.7 525.7 411.9 C 521.6 410.6 533.3 410.5 530.8 411.9 C 530.2 416.4 536.4 409.1 538.9 412.3 C 536.9 410.5 546.4 409.6 543.6 413.0 C 545.4 413.3 545.8 411.7 547.7 413.6 C 542.0 413.3 549.9 410.1 549.5 412.2 C 548.6 413.4 557.0 414.5 556.2 412.6 C 553.2 407.9 558.4 413.5 559.8 411.7 C 564.5 410.7 559.1 415.7 562.6 412.2 C 563.5 412.8 569.7 412.8 565.8 413.8 C 564.3 413.3 569.5 408.7 570.1 412.7 C 563.5 414.9 577.8 413.9 575.5 412.6 C 565.3 410.5 586.4 410.2 578.3 412.3 C 582.9 414.5 577.0 413.2 582.6 412.3 C 581.9 411.0 586.3 409.8 585.2 412.3 C 586.1 416.1 586.8 407.3 590.3 412.4 C 590.8 414.7 597.1 410.8 594.6 413.3 C 594.5 413.6 595.4 414.0 595.6 414.0 M 593.6 413.5 C 594.3 412.7 594.8 414.6 593.6 413.5 M 594.4 412.7 C 594.4 412.8 594.4 412.8 594.4 412.7 C 594.4 412.7 594.4 412.7 594.4 412.7 Z M 583.5 412.1 C 583.5 412.2 583.5 412.2 583.5 412.1 C 583.5 412.1 583.5 412.1 583.5 412.1 Z M 574.8 402.6 C 574.9 402.7 574.9 402.7 574.8 402.6 C 574.8 402.6 574.8 402.6 574.8 402.6 Z M 576.2 411.9 C 576.3 411.9 576.3 411.9 576.2 411.9 C 576.2 411.9 576.2 411.9 576.2 411.9 Z M 587.4 411.5 C 587.4 411.5 587.4 411.5 587.4 411.5 C 587.4 411.5 587.4 411.5 587.4 411.5 Z M 576.9 413.3 C 576.3 411.9 579.4 414.3 576.7 413.5 C 576.6 413.4 577.1 413.4 576.9 413.3 M 567.4 413.9 C 567.3 413.7 567.3 413.7 567.4 413.9 M 546.5 402.7 C 546.4 402.6 546.4 402.6 546.5 402.7 M 544.7 414.0 C 544.5 413.8 544.5 413.8 544.7 414.0 M 558.0 412.4 C 555.0 412.6 557.2 411.7 558.0 412.4 M 537.1 413.2 C 540.7 414.1 533.2 413.9 537.1 413.2 M 533.6 414.0 C 533.2 413.9 533.2 413.9 533.6 414.0 M 550.0 413.5 C 550.1 413.4 550.1 413.4 550.0 413.5 C 550.0 413.5 550.0 413.5 550.0 413.5 Z M 559.2 413.0 C 563.0 413.8 555.3 414.3 559.2 413.0 M 582.2 413.5 C 580.1 414.2 582.2 411.7 582.2 413.5 M 586.5 412.7 C 586.5 412.6 586.5 412.6 586.5 412.7 C 586.5 412.7 586.5 412.7 586.5 412.7 Z M 542.9 413.3 C 543.1 413.2 543.1 413.2 542.9 413.3 C 542.9 413.3 542.9 413.3 542.9 413.3 Z M 538.7 413.5 C 538.9 413.5 538.9 413.5 538.7 413.5 C 538.7 413.5 538.7 413.5 538.7 413.5 Z M 531.7 403.1 C 531.9 403.1 531.9 403.1 531.7 403.1 C 531.7 403.1 531.7 403.1 531.7 403.1 Z M 583.3 408.4 C 586.1 409.1 580.4 411.8 581.0 409.2 C 580.7 408.2 583.0 408.6 583.3 408.4 M 561.9 409.9 C 561.2 406.3 564.7 414.7 561.9 409.9 M 533.0 411.7 C 530.2 407.5 536.6 414.7 533.0 411.7 M 527.3 412.4 C 525.6 411.6 538.0 411.9 529.3 413.0 C 528.5 413.7 527.9 412.9 527.3 412.4 M 567.2 412.2 C 566.4 410.2 571.7 413.0 567.2 412.2 M 549.8 406.3 C 548.4 407.5 544.8 408.6 546.4 406.5 C 546.4 403.7 551.5 405.2 549.8 406.3 M 592.7 411.5 C 590.4 414.7 592.8 408.9 592.7 411.5 M 581.6 411.3 C 581.6 411.4 581.6 411.4 581.6 411.3 C 581.6 411.3 581.6 411.3 581.6 411.3 Z M 577.3 411.8 C 577.1 411.5 577.1 411.5 577.3 411.8 M 590.9 414.3 C 590.7 414.0 590.7 414.0 590.9 414.3 M 549.9 409.5 C 549.7 409.3 549.7 409.3 549.9 409.5 M 558.8 411.6 C 554.5 408.5 561.1 411.0 558.8 411.6 M 569.2 405.6 C 567.9 404.1 571.8 405.5 569.2 405.6 M 551.8 412.8 C 548.8 409.9 555.9 410.0 551.8 412.8 M 560.9 411.9 C 560.7 411.9 560.7 411.9 560.9 411.9 C 560.9 411.9 560.9 411.9 560.9 411.9 Z M 548.7 405.9 C 548.8 405.9 548.8 405.9 548.7 405.9 C 548.7 405.9 548.7 405.9 548.7 405.9 Z M 547.4 406.1 C 547.5 406.0 547.5 406.0 547.4 406.1 C 547.4 406.1 547.4 406.1 547.4 406.1 Z M 548.1 413.1 C 548.2 413.0 548.2 413.0 548.1 413.1 C 548.1 413.1 548.1 413.1 548.1 413.1 Z M 586.8 404.6 C 583.8 404.3 589.1 404.1 586.8 404.6 C 586.8 404.6 586.8 404.6 586.8 404.6 Z M 573.4 413.3 C 568.4 410.9 576.9 411.1 573.4 413.3 C 573.4 413.3 573.4 413.3 573.4 413.3 Z M 567.8 409.4 C 567.8 409.3 567.8 409.3 567.8 409.4 C 567.8 409.4 567.8 409.4 567.8 409.4 Z M 553.7 414.6 C 553.7 414.4 553.7 414.4 553.7 414.6 C 553.7 414.6 553.7 414.6 553.7 414.6 Z M 585.3 404.2 C 585.3 404.0 585.3 404.0 585.3 404.2 C 585.3 404.2 585.3 404.2 585.3 404.2 Z M 539.5 411.5 C 539.5 411.4 539.5 411.4 539.5 411.5 C 539.5 411.5 539.5 411.5 539.5 411.5 Z M 556.8 405.5 C 555.7 406.6 556.6 404.6 556.8 405.5 C 556.8 405.5 556.8 405.5 556.8 405.5 Z M 552.3 405.4 C 552.2 405.5 552.2 405.5 552.3 405.4 C 552.3 405.4 552.3 405.4 552.3 405.4 Z M 532.4 414.2 C 532.3 414.3 532.3 414.3 532.4 414.2 C 532.4 414.2 532.4 414.2 532.4 414.2 Z M 540.9 402.7 C 540.7 402.7 540.7 402.7 540.9 402.7 C 540.9 402.7 540.9 402.7 540.9 402.7 Z M 537.1 406.1 C 537.1 406.1 537.1 406.1 537.1 406.1 C 537.1 406.1 537.1 406.1 537.1 406.1 Z M 548.9 412.4 C 544.4 413.0 549.9 411.1 548.9 412.4 C 548.9 412.4 548.9 412.4 548.9 412.4 Z M 525.9 407.1 C 525.8 406.9 525.8 406.9 525.9 407.1 C 525.9 407.1 525.9 407.1 525.9 407.1 Z M 523.7 411.1 C 523.5 410.9 523.5 410.9 523.7 411.1 C 523.7 411.1 523.7 411.1 523.7 411.1 Z M 522.5 413.3 C 522.4 413.1 522.4 413.1 522.5 413.3 C 522.5 413.3 522.5 413.3 522.5 413.3 Z M 577.4 407.4 C 577.5 407.6 577.5 407.6 577.4 407.4 C 577.4 407.4 577.4 407.4 577.4 407.4 Z M 579.2 414.0 C 579.2 414.0 579.2 414.0 579.2 414.0 C 579.2 414.0 579.2 414.0 579.2 414.0 Z M 573.1 414.3 C 573.1 414.4 573.1 414.4 573.1 414.3 C 573.1 414.3 573.1 414.3 573.1 414.3 Z M 578.5 403.5 C 578.5 403.5 578.5 403.5 578.5 403.5 C 578.5 403.5 578.5 403.5 578.5 403.5 Z M 555.6 409.0 C 555.7 409.2 555.7 409.2 555.6 409.0 C 555.6 409.0 555.6 409.0 555.6 409.0 Z M 553.5 406.4 C 553.6 406.5 553.6 406.5 553.5 406.4 C 553.5 406.4 553.5 406.4 553.5 406.4 Z M 558.7 402.8 C 558.8 402.9 558.8 402.9 558.7 402.8 C 558.7 402.8 558.7 402.8 558.7 402.8 Z M 551.8 404.1 C 551.8 404.1 551.8 404.1 551.8 404.1 C 551.8 404.1 551.8 404.1 551.8 404.1 Z M 593.8 404.7 C 593.8 404.6 593.8 404.6 593.8 404.7 C 593.8 404.7 593.8 404.7 593.8 404.7 Z M 594.3 409.7 C 594.4 409.5 594.4 409.5 594.3 409.7 C 594.3 409.7 594.3 409.7 594.3 409.7 Z M 554.9 412.7 C 553.9 413.8 552.8 411.3 554.9 412.7 M 563.6 412.0 C 563.7 412.0 563.7 412.0 563.6 412.0 C 563.6 412.0 563.6 412.0 563.6 412.0 Z M 540.3 412.5 C 539.1 410.5 544.4 413.5 540.3 412.5 C 540.3 412.5 540.3 412.5 540.3 412.5 Z M 544.9 404.1 C 544.8 404.1 544.8 404.1 544.9 404.1 C 544.9 404.1 544.9 404.1 544.9 404.1 Z M 542.6 404.9 C 542.4 404.7 542.4 404.7 542.6 404.9 C 542.6 404.9 542.6 404.9 542.6 404.9 Z M 530.0 410.4 C 529.8 410.2 529.8 410.2 530.0 410.4 M 564.7 413.8 C 563.4 412.9 563.7 413.1 564.7 413.8 M 537.3 412.4 C 537.5 412.4 537.5 412.4 537.3 412.4 C 537.3 412.4 537.3 412.4 537.3 412.4 Z M 527.2 411.5 C 527.3 411.4 527.3 411.4 527.2 411.5 C 527.2 411.5 527.2 411.5 527.2 411.5 Z M 570.9 412.5 C 570.7 410.0 571.9 410.6 570.9 412.5 M 588.2 411.7 C 588.2 411.5 588.2 411.5 588.2 411.7 C 588.2 411.7 588.2 411.7 588.2 411.7 Z M 514.0 413.6 C 517.2 415.7 517.4 412.2 517.4 412.1 C 517.2 414.6 518.2 414.1 519.3 412.8 C 520.5 411.5 521.9 409.5 521.2 409.0 C 521.4 408.3 516.0 399.3 513.5 405.1 C 512.7 405.9 512.0 404.5 511.3 404.5 C 509.8 404.9 509.0 405.6 509.1 405.8 C 509.2 406.1 510.1 406.0 510.6 406.2 C 511.6 406.6 512.4 406.4 508.8 408.5 C 508.0 408.5 507.4 407.5 506.6 407.1 C 505.8 406.7 504.4 407.0 503.8 410.1 C 503.3 410.0 498.8 415.2 501.5 413.7 C 498.5 415.7 500.8 417.7 501.1 419.8 C 500.5 420.8 499.7 420.3 499.4 420.5 C 499.0 420.8 499.1 421.1 500.3 426.0 C 498.5 428.1 499.1 428.5 499.7 429.5 C 500.4 430.4 500.9 431.4 499.0 432.7 C 498.9 434.4 505.3 437.0 501.6 433.0 C 502.0 433.6 505.1 431.1 504.0 436.5 C 503.2 435.7 496.7 432.8 499.8 441.2 C 499.6 442.6 501.3 445.8 500.6 446.5 C 499.9 442.2 497.8 452.4 499.7 451.4 C 498.4 458.2 501.3 454.3 499.1 459.1 C 499.1 461.1 499.8 460.8 500.3 460.6 C 500.6 460.5 500.8 460.4 500.8 460.7 C 500.9 461.0 500.7 461.2 500.3 462.9 C 500.6 468.2 499.1 464.6 499.2 464.0 C 498.8 468.3 500.1 469.1 500.2 470.3 C 499.9 471.1 498.9 472.9 500.7 473.3 C 504.4 475.9 506.4 472.3 509.4 471.9 C 510.1 469.9 507.0 471.9 509.0 470.5 C 508.0 470.3 508.1 470.3 508.2 469.7 C 508.4 469.2 508.6 468.8 508.4 464.6 C 507.9 464.9 506.7 466.9 506.5 464.9 C 506.7 461.6 511.7 463.5 508.2 459.1 C 507.1 464.3 506.6 451.8 505.5 456.7 C 504.9 450.7 505.9 455.0 507.1 450.6 C 503.8 450.8 510.7 450.3 508.0 448.6 C 509.4 448.2 508.8 441.4 506.8 446.3 C 505.9 439.2 507.8 443.7 509.5 441.1 C 509.8 437.8 504.1 440.9 508.2 438.8 C 510.1 434.6 506.2 438.7 509.4 435.6 C 506.5 437.0 509.4 432.4 506.3 433.6 C 506.1 426.3 509.6 434.5 507.4 429.4 C 507.3 431.0 511.5 430.4 508.8 427.2 C 503.9 428.6 513.2 422.0 506.6 425.0 C 506.2 421.7 506.2 420.7 506.4 420.1 C 506.6 419.5 507.0 419.5 507.5 419.6 C 508.4 419.8 509.4 420.2 509.7 418.7 C 509.8 417.9 507.4 419.3 507.5 418.4 C 508.3 416.2 509.2 416.6 509.3 416.7 C 509.4 416.8 508.7 417.2 508.1 415.1 C 509.2 412.6 510.4 413.1 510.9 413.7 C 511.4 414.3 511.8 415.1 512.6 414.8 C 511.9 413.4 513.0 410.3 514.0 413.6 M 510.0 413.9 C 509.9 415.3 508.8 413.5 510.0 413.9 M 521.1 413.2 C 519.1 414.2 519.9 412.1 521.1 413.2 M 508.8 417.4 C 509.5 418.8 507.1 417.3 508.8 417.4 M 506.7 454.6 C 506.7 451.9 507.5 455.8 506.7 454.6 M 515.4 413.6 C 514.1 414.9 514.9 411.8 515.4 413.6 M 517.5 410.9 C 517.3 410.9 517.3 410.9 517.5 410.9 M 509.3 458.4 C 509.3 458.5 509.3 458.5 509.3 458.4 M 509.4 448.1 C 509.3 450.3 508.7 446.9 509.4 448.1 M 498.6 447.7 C 498.5 449.9 497.9 446.5 498.6 447.7 M 509.4 464.4 C 510.3 467.2 508.2 465.3 509.4 464.4 M 507.3 469.9 C 508.5 471.1 506.4 470.9 507.3 469.9 M 508.5 410.3 C 508.5 410.1 508.5 410.1 508.5 410.3 C 508.5 410.3 508.5 410.3 508.5 410.3 Z M 500.9 427.9 C 501.9 425.7 499.5 430.7 500.9 427.9 M 507.9 423.9 C 505.7 425.7 508.1 420.4 507.9 423.9 C 507.9 423.9 507.9 423.9 507.9 423.9 Z M 507.0 420.5 C 506.9 420.4 506.9 420.4 507.0 420.5 C 507.0 420.5 507.0 420.5 507.0 420.5 Z M 506.8 431.8 C 506.8 431.7 506.8 431.7 506.8 431.8 C 506.8 431.8 506.8 431.8 506.8 431.8 Z M 506.6 429.6 C 506.1 428.8 507.1 428.4 506.6 429.6 C 506.6 429.6 506.6 429.6 506.6 429.6 Z M 499.7 445.1 C 499.2 444.2 500.1 443.9 499.7 445.1 C 499.7 445.1 499.7 445.1 499.7 445.1 Z M 505.9 426.2 C 503.7 425.8 507.3 424.0 505.9 426.2 C 505.9 426.2 505.9 426.2 505.9 426.2 Z M 500.7 437.7 C 501.2 438.6 498.6 439.6 500.7 437.7 M 508.9 460.5 C 509.5 461.4 506.8 462.5 508.9 460.5 M 509.5 438.0 C 510.1 439.0 507.5 440.0 509.5 438.0 M 510.1 415.1 C 509.9 415.1 509.9 415.1 510.1 415.1 M 498.8 423.3 C 499.6 425.1 497.8 424.3 498.8 423.3 M 513.3 404.2 C 511.9 405.3 512.5 403.4 513.3 404.2 M 498.8 457.3 C 499.4 457.3 498.5 459.6 498.8 457.3 M 506.0 440.7 C 505.8 442.7 504.6 444.7 504.7 440.6 C 505.2 440.3 505.6 441.5 506.0 440.7 C 506.0 440.7 506.0 440.7 506.0 440.7 Z M 501.0 447.8 C 500.9 448.0 500.9 448.0 501.0 447.8 M 508.1 444.2 C 507.9 444.5 507.9 444.5 508.1 444.2 M 507.8 455.7 C 507.5 455.9 507.5 455.9 507.8 455.7 M 508.5 457.1 C 508.4 457.1 508.4 457.1 508.5 457.1 C 508.5 457.1 508.5 457.1 508.5 457.1 Z M 509.6 469.6 C 509.5 469.6 509.5 469.6 509.6 469.6 C 509.6 469.6 509.6 469.6 509.6 469.6 Z M 507.6 452.0 C 507.5 452.0 507.5 452.0 507.6 452.0 C 507.6 452.0 507.6 452.0 507.6 452.0 Z M 499.2 462.4 C 499.1 462.4 499.1 462.4 499.2 462.4 C 499.2 462.4 499.2 462.4 499.2 462.4 Z M 500.6 461.1 C 500.5 461.1 500.5 461.1 500.6 461.1 C 500.6 461.1 500.6 461.1 500.6 461.1 Z M 513.5 413.7 C 512.9 415.4 512.0 410.2 513.5 413.7 M 500.6 467.7 C 499.2 469.6 500.2 464.6 500.6 467.7 C 500.6 467.7 500.6 467.7 500.6 467.7 Z M 505.7 450.6 C 505.5 450.8 505.5 450.8 505.7 450.6 M 508.3 457.8 C 508.0 458.0 508.0 458.0 508.3 457.8 M 509.9 423.8 C 509.6 424.0 509.6 424.0 509.9 423.8 M 507.9 467.4 C 507.6 472.4 504.7 465.3 507.9 467.4 M 507.9 421.2 C 508.1 421.1 508.1 421.1 507.9 421.2 M 503.8 434.0 C 503.9 437.6 502.5 432.7 503.8 434.0 M 506.5 443.1 C 506.4 443.1 506.4 443.1 506.5 443.1 C 506.5 443.1 506.5 443.1 506.5 443.1 Z M 506.5 437.8 C 506.2 435.2 507.1 437.1 506.5 437.8 C 506.5 437.8 506.5 437.8 506.5 437.8 Z M 511.4 412.4 C 509.0 413.3 513.3 410.5 511.4 412.4 C 511.4 412.4 511.4 412.4 511.4 412.4 Z M 502.8 464.8 C 502.6 464.7 502.6 464.7 502.8 464.8 C 502.8 464.8 502.8 464.8 502.8 464.8 Z M 509.1 451.4 C 508.5 449.8 509.7 450.6 509.1 451.4 C 509.1 451.4 509.1 451.4 509.1 451.4 Z M 509.8 470.6 C 509.0 469.9 510.3 470.1 509.8 470.6 C 509.8 470.6 509.8 470.6 509.8 470.6 Z M 514.0 411.9 C 509.6 410.8 512.1 410.5 515.0 410.8 C 516.5 410.9 518.3 411.3 518.5 411.5 C 518.7 411.7 516.8 411.7 514.0 411.9 C 514.0 411.9 514.0 411.9 514.0 411.9 Z M 508.0 439.9 C 507.9 439.9 507.9 439.9 508.0 439.9 C 508.0 439.9 508.0 439.9 508.0 439.9 Z M 509.9 418.1 C 509.8 418.0 509.8 418.0 509.9 418.1 C 509.9 418.1 509.9 418.1 509.9 418.1 Z M 509.0 415.4 C 508.9 415.3 508.9 415.3 509.0 415.4 C 509.0 415.4 509.0 415.4 509.0 415.4 Z M 501.1 412.0 C 501.0 411.9 501.0 411.9 501.1 412.0 C 501.1 412.0 501.1 412.0 501.1 412.0 Z M 503.9 415.2 C 503.7 414.9 503.7 414.9 503.9 415.2 C 503.9 415.2 503.9 415.2 503.9 415.2 Z M 509.0 407.5 C 509.0 407.3 509.0 407.3 509.0 407.5 C 509.0 407.5 509.0 407.5 509.0 407.5 Z M 508.3 406.6 C 508.3 406.5 508.3 406.5 508.3 406.6 C 508.3 406.6 508.3 406.6 508.3 406.6 Z M 505.9 457.9 C 505.7 457.7 505.7 457.7 505.9 457.9 C 505.9 457.9 505.9 457.9 505.9 457.9 Z M 502.3 453.6 C 503.6 456.5 500.5 452.7 502.3 453.6 C 502.3 453.6 502.3 453.6 502.3 453.6 Z M 504.0 427.9 C 504.5 430.6 502.9 426.2 504.0 427.9 C 504.0 427.9 504.0 427.9 504.0 427.9 Z M 499.4 430.7 C 499.4 430.8 499.4 430.8 499.4 430.7 C 499.4 430.7 499.4 430.7 499.4 430.7 Z M 510.7 416.6 C 510.5 416.4 510.5 416.4 510.7 416.6 C 510.7 416.6 510.7 416.6 510.7 416.6 Z M 511.7 413.7 C 510.8 412.0 512.9 413.9 511.7 413.7 M 509.1 432.8 C 508.9 432.8 508.9 432.8 509.1 432.8 C 509.1 432.8 509.1 432.8 509.1 432.8 Z M 506.3 448.4 C 506.2 448.4 506.2 448.4 506.3 448.4 C 506.3 448.4 506.3 448.4 506.3 448.4 Z M 507.5 464.4 C 507.2 464.3 507.2 464.3 507.5 464.4 C 507.5 464.4 507.5 464.4 507.5 464.4 Z M 508.9 442.5 C 508.7 442.5 508.7 442.5 508.9 442.5 C 508.9 442.5 508.9 442.5 508.9 442.5 Z M 507.3 435.2 C 507.0 435.1 507.0 435.1 507.3 435.2 C 507.3 435.2 507.3 435.2 507.3 435.2 Z M 505.0 468.1 C 504.9 468.0 504.9 468.0 505.0 468.1 C 505.0 468.1 505.0 468.1 505.0 468.1 Z M 509.2 444.3 C 509.1 444.2 509.1 444.2 509.2 444.3 C 509.2 444.3 509.2 444.3 509.2 444.3 Z M 503.5 448.7 C 503.3 448.6 503.3 448.6 503.5 448.7 C 503.5 448.7 503.5 448.7 503.5 448.7 Z M 512.7 416.0 C 512.7 415.9 512.7 415.9 512.7 416.0 C 512.7 416.0 512.7 416.0 512.7 416.0 Z M 507.4 468.1 C 507.3 468.1 507.3 468.1 507.4 468.1 C 507.4 468.1 507.4 468.1 507.4 468.1 Z M 509.1 468.7 C 509.0 468.7 509.0 468.7 509.1 468.7 C 509.1 468.7 509.1 468.7 509.1 468.7 Z M 500.4 457.4 C 501.4 452.0 500.8 462.3 502.7 458.4 C 503.2 466.2 500.3 458.6 500.4 457.4 C 500.4 457.4 500.4 457.4 500.4 457.4 Z M 500.4 457.4 " fill="#FF2600"></path></g></svg>