<?xml version="1.0" encoding="UTF-8" standalone="no"?><svg xmlns="http://www.w3.org/2000/svg" xmlns:xlink="http://www.w3.org/1999/xlink" clip-rule="evenodd" stroke-miterlimit="4.00" viewBox="0 0 1024 768"><desc>SVG generated by Keynote</desc><defs></defs><g transform="matrix(1.00, 0.00, -0.00, -1.00, 0.0, 768.0)"><path d="M 0.0 768.0 L 1024.0 768.0 L 1024.0 0.0 L 0.0 0.0 Z M 0.0 768.0 " fill="#FEFFFE"></path><path d="M 0.0 0.0 L 934.5 0.0 " fill="none" stroke="#9A9A9A" stroke-width="1.00" transform="matrix(1.00, 0.00, 0.00, -1.00, 45.0, 613.0)"></path><text xml:space="preserve" font-family="HelveticaNeue-Light" font-size="42.0" fill="#000000" transform="matrix(1.00, 0.00, -0.00, -1.00, 49.0, 645.0)">T</text><text xml:space="preserve" font-family="HelveticaNeue-Light" font-size="42.0" fill="#000000" transform="matrix(1.00, 0.00, -0.00, -1.00, 68.5, 645.0)">u</text><text xml:space="preserve" font-family="HelveticaNeue-Light" font-size="42.0" fill="#000000" transform="matrix(1.00, 0.00, -0.00, -1.00, 91.0, 645.0)">n</text><text xml:space="preserve" font-family="HelveticaNeue-Light" font-size="42.0" fill="#000000" transform="matrix(1.00, 0.00, -0.00, -1.00, 113.6, 645.0)">e</text><text xml:space="preserve" font-family="HelveticaNeue-Light" font-size="42.0" fill="#000000" transform="matrix(1.00, 0.00, -0.00, -1.00, 135.4, 645.0)">r</text><text xml:space="preserve" font-family="HelveticaNeue" font-size="14.0" fill="#000000" transform="matrix(1.00, 0.00, -0.00, -1.00, 971.0, 27.4)">2</text><text xml:space="preserve" font-family="HelveticaNeue" font-size="14.0" fill="#000000" transform="matrix(1.00, 0.00, -0.00, -1.00, 978.8, 27.4)">6</text><image xlink:href="../../5F05B9CE-50B1-4486-93FC-CFFE7C98A295/assets/639F8CFD29BBCE762DE5310ECC7CDA40.png" width="637.00" height="539.00" transform="matrix(1.27, 0.00, -0.00, -1.27, 98.0, 525.0)"></image><text xml:space="preserve" font-family="HelveticaNeue-Bold" font-weight="bold" font-size="36.0" fill="#000000" transform="matrix(1.00, 0.00, -0.00, -1.00, 138.0, 555.0)">o</text><text xml:space="preserve" font-family="HelveticaNeue-Bold" font-weight="bold" font-size="36.0" fill="#000000" transform="matrix(1.00, 0.00, -0.00, -1.00, 160.0, 555.0)">v</text><text xml:space="preserve" font-family="HelveticaNeue-Bold" font-weight="bold" font-size="36.0" fill="#000000" transform="matrix(1.00, 0.00, -0.00, -1.00, 178.7, 555.0)">e</text><text xml:space="preserve" font-family="HelveticaNeue-Bold" font-weight="bold" font-size="36.0" fill="#000000" transform="matrix(1.00, 0.00, -0.00, -1.00, 199.4, 555.0)">r</text><text xml:space="preserve" font-family="HelveticaNeue-Bold" font-weight="bold" font-size="36.0" fill="#000000" transform="matrix(1.00, 0.00, -0.00, -1.00, 213.4, 555.0)">a</text><text xml:space="preserve" font-family="HelveticaNeue-Bold" font-weight="bold" font-size="36.0" fill="#000000" transform="matrix(1.00, 0.00, -0.00, -1.00, 234.0, 555.0)">l</text><text xml:space="preserve" font-family="HelveticaNeue-Bold" font-weight="bold" font-size="36.0" fill="#000000" transform="matrix(1.00, 0.00, -0.00, -1.00, 243.3, 555.0)">l</text><text xml:space="preserve" font-family="HelveticaNeue-Bold" font-weight="bold" font-size="36.0" fill="#000000" transform="matrix(1.00, 0.00, -0.00, -1.00, 252.6, 555.0)"> </text><text xml:space="preserve" font-family="HelveticaNeue-Bold" font-weight="bold" font-size="36.0" fill="#000000" transform="matrix(1.00, 0.00, -0.00, -1.00, 262.6, 555.0)">g</text><text xml:space="preserve" font-family="HelveticaNeue-Bold" font-weight="bold" font-size="36.0" fill="#000000" transform="matrix(1.00, 0.00, -0.00, -1.00, 284.6, 555.0)">o</text><text xml:space="preserve" font-family="HelveticaNeue-Bold" font-weight="bold" font-size="36.0" fill="#000000" transform="matrix(1.00, 0.00, -0.00, -1.00, 306.6, 555.0)">a</text><text xml:space="preserve" font-family="HelveticaNeue-Bold" font-weight="bold" font-size="36.0" fill="#000000" transform="matrix(1.00, 0.00, -0.00, -1.00, 327.3, 555.0)">l</text><text xml:space="preserve" font-family="HelveticaNeue-Light" font-size="36.0" fill="#000000" transform="matrix(1.00, 0.00, -0.00, -1.00, 336.6, 555.0)">:</text><text xml:space="preserve" font-family="HelveticaNeue-Light" font-size="36.0" fill="#000000" transform="matrix(1.00, 0.00, -0.00, -1.00, 346.6, 555.0)"> </text><text xml:space="preserve" font-family="HelveticaNeue-Light" font-size="36.0" fill="#000000" transform="matrix(1.00, 0.00, -0.00, -1.00, 356.6, 555.0)">r</text><text xml:space="preserve" font-family="HelveticaNeue-Light" font-size="36.0" fill="#000000" transform="matrix(1.00, 0.00, -0.00, -1.00, 367.3, 555.0)">o</text><text xml:space="preserve" font-family="HelveticaNeue-Light" font-size="36.0" fill="#000000" transform="matrix(1.00, 0.00, -0.00, -1.00, 387.3, 555.0)">b</text><text xml:space="preserve" font-family="HelveticaNeue-Light" font-size="36.0" fill="#000000" transform="matrix(1.00, 0.00, -0.00, -1.00, 408.0, 555.0)">u</text><text xml:space="preserve" font-family="HelveticaNeue-Light" font-size="36.0" fill="#000000" transform="matrix(1.00, 0.00, -0.00, -1.00, 427.3, 555.0)">s</text><text xml:space="preserve" font-family="HelveticaNeue-Light" font-size="36.0" fill="#000000" transform="matrix(1.00, 0.00, -0.00, -1.00, 444.6, 555.0)">t</text><text xml:space="preserve" font-family="HelveticaNeue-Light" font-size="36.0" fill="#000000" transform="matrix(1.00, 0.00, -0.00, -1.00, 455.3, 555.0)"> </text><text xml:space="preserve" font-family="HelveticaNeue-Light" font-size="36.0" fill="#000000" transform="matrix(1.00, 0.00, -0.00, -1.00, 465.3, 555.0)">m</text><text xml:space="preserve" font-family="HelveticaNeue-Light" font-size="36.0" fill="#000000" transform="matrix(1.00, 0.00, -0.00, -1.00, 495.3, 555.0)">u</text><text xml:space="preserve" font-family="HelveticaNeue-Light" font-size="36.0" fill="#000000" transform="matrix(1.00, 0.00, -0.00, -1.00, 514.6, 555.0)">l</text><text xml:space="preserve" font-family="HelveticaNeue-Light" font-size="36.0" fill="#000000" transform="matrix(1.00, 0.00, -0.00, -1.00, 521.3, 555.0)">t</text><text xml:space="preserve" font-family="HelveticaNeue-Light" font-size="36.0" fill="#000000" transform="matrix(1.00, 0.00, -0.00, -1.00, 531.9, 555.0)">i</text><text xml:space="preserve" font-family="HelveticaNeue-Light" font-size="36.0" fill="#000000" transform="matrix(1.00, 0.00, -0.00, -1.00, 538.6, 555.0)">-</text><text xml:space="preserve" font-family="HelveticaNeue-Light" font-size="36.0" fill="#000000" transform="matrix(1.00, 0.00, -0.00, -1.00, 551.9, 555.0)">o</text><text xml:space="preserve" font-family="HelveticaNeue-Light" font-size="36.0" fill="#000000" transform="matrix(1.00, 0.00, -0.00, -1.00, 571.9, 555.0)">b</text><text xml:space="preserve" font-family="HelveticaNeue-Light" font-size="36.0" fill="#000000" transform="matrix(1.00, 0.00, -0.00, -1.00, 592.6, 555.0)">j</text><text xml:space="preserve" font-family="HelveticaNeue-Light" font-size="36.0" fill="#000000" transform="matrix(1.00, 0.00, -0.00, -1.00, 599.2, 555.0)">e</text><text xml:space="preserve" font-family="HelveticaNeue-Light" font-size="36.0" fill="#000000" transform="matrix(1.00, 0.00, -0.00, -1.00, 617.9, 555.0)">c</text><text xml:space="preserve" font-family="HelveticaNeue-Light" font-size="36.0" fill="#000000" transform="matrix(1.00, 0.00, -0.00, -1.00, 636.6, 555.0)">t</text><text xml:space="preserve" font-family="HelveticaNeue-Light" font-size="36.0" fill="#000000" transform="matrix(1.00, 0.00, -0.00, -1.00, 647.3, 555.0)">i</text><text xml:space="preserve" font-family="HelveticaNeue-Light" font-size="36.0" fill="#000000" transform="matrix(1.00, 0.00, -0.00, -1.00, 653.9, 555.0)">v</text><text xml:space="preserve" font-family="HelveticaNeue-Light" font-size="36.0" fill="#000000" transform="matrix(1.00, 0.00, -0.00, -1.00, 670.6, 555.0)">e</text><text xml:space="preserve" font-family="HelveticaNeue-Light" font-size="36.0" fill="#000000" transform="matrix(1.00, 0.00, -0.00, -1.00, 689.3, 555.0)"> </text><text xml:space="preserve" font-family="HelveticaNeue-Light" font-size="36.0" fill="#000000" transform="matrix(1.00, 0.00, -0.00, -1.00, 699.3, 555.0)">o</text><text xml:space="preserve" font-family="HelveticaNeue-Light" font-size="36.0" fill="#000000" transform="matrix(1.00, 0.00, -0.00, -1.00, 719.3, 555.0)">p</text><text xml:space="preserve" font-family="HelveticaNeue-Light" font-size="36.0" fill="#000000" transform="matrix(1.00, 0.00, -0.00, -1.00, 740.0, 555.0)">t</text><text xml:space="preserve" font-family="HelveticaNeue-Light" font-size="36.0" fill="#000000" transform="matrix(1.00, 0.00, -0.00, -1.00, 750.6, 555.0)">i</text><text xml:space="preserve" font-family="HelveticaNeue-Light" font-size="36.0" fill="#000000" transform="matrix(1.00, 0.00, -0.00, -1.00, 757.3, 555.0)">m</text><text xml:space="preserve" font-family="HelveticaNeue-Light" font-size="36.0" fill="#000000" transform="matrix(1.00, 0.00, -0.00, -1.00, 787.3, 555.0)">i</text><text xml:space="preserve" font-family="HelveticaNeue-Light" font-size="36.0" fill="#000000" transform="matrix(1.00, 0.00, -0.00, -1.00, 793.9, 555.0)">z</text><text xml:space="preserve" font-family="HelveticaNeue-Light" font-size="36.0" fill="#000000" transform="matrix(1.00, 0.00, -0.00, -1.00, 810.6, 555.0)">a</text><text xml:space="preserve" font-family="HelveticaNeue-Light" font-size="36.0" fill="#000000" transform="matrix(1.00, 0.00, -0.00, -1.00, 829.3, 555.0)">t</text><text xml:space="preserve" font-family="HelveticaNeue-Light" font-size="36.0" fill="#000000" transform="matrix(1.00, 0.00, -0.00, -1.00, 839.9, 555.0)">i</text><text xml:space="preserve" font-family="HelveticaNeue-Light" font-size="36.0" fill="#000000" transform="matrix(1.00, 0.00, -0.00, -1.00, 846.6, 555.0)">o</text><text xml:space="preserve" font-family="HelveticaNeue-Light" font-size="36.0" fill="#000000" transform="matrix(1.00, 0.00, -0.00, -1.00, 866.6, 555.0)">n</text><path d="M 664.0 51.8 L 961.1 51.8 L 961.1 12.6 L 664.0 12.6 Z M 664.0 51.8 " fill="#FEFFFE"></path><g><clipPath id="clip-1459"><path d="M 660.2 8.1 L 964.8 8.1 L 964.8 55.6 L 660.2 55.6 Z M 660.2 8.1 "></path></clipPath><g clip-path="url(#clip-1459)"><text xml:space="preserve" font-family="HelveticaNeue-Medium" font-size="26.0" fill="#000000" transform="matrix(1.00, 0.00, -0.00, -1.00, 668.0, 22.0)">T</text><text xml:space="preserve" font-family="HelveticaNeue-Medium" font-size="26.0" fill="#000000" transform="matrix(1.00, 0.00, -0.00, -1.00, 680.5, 22.0)">o</text><text xml:space="preserve" font-family="HelveticaNeue-Medium" font-size="26.0" fill="#000000" transform="matrix(1.00, 0.00, -0.00, -1.00, 696.0, 22.0)">r</text><text xml:space="preserve" font-family="HelveticaNeue-Medium" font-size="26.0" fill="#000000" transform="matrix(1.00, 0.00, -0.00, -1.00, 705.1, 22.0)">s</text><text xml:space="preserve" font-family="HelveticaNeue-Medium" font-size="26.0" fill="#000000" transform="matrix(1.00, 0.00, -0.00, -1.00, 718.6, 22.0)">n</text><text xml:space="preserve" font-family="HelveticaNeue-Medium" font-size="26.0" fill="#000000" transform="matrix(1.00, 0.00, -0.00, -1.00, 733.5, 22.0)">e</text><text xml:space="preserve" font-family="HelveticaNeue-Medium" font-size="26.0" fill="#000000" transform="matrix(1.00, 0.00, -0.00, -1.00, 748.0, 22.0)">y</text><text xml:space="preserve" font-family="HelveticaNeue-Medium" font-size="26.0" fill="#000000" transform="matrix(1.00, 0.00, -0.00, -1.00, 761.5, 22.0)">-</text><text xml:space="preserve" font-family="HelveticaNeue-Medium" font-size="26.0" fill="#000000" transform="matrix(1.00, 0.00, -0.00, -1.00, 771.6, 22.0)">W</text><text xml:space="preserve" font-family="HelveticaNeue-Medium" font-size="26.0" fill="#000000" transform="matrix(1.00, 0.00, -0.00, -1.00, 795.7, 22.0)">e</text><text xml:space="preserve" font-family="HelveticaNeue-Medium" font-size="26.0" fill="#000000" transform="matrix(1.00, 0.00, -0.00, -1.00, 810.1, 22.0)">i</text><text xml:space="preserve" font-family="HelveticaNeue-Medium" font-size="26.0" fill="#000000" transform="matrix(1.00, 0.00, -0.00, -1.00, 816.4, 22.0)">r</text><text xml:space="preserve" font-family="HelveticaNeue-Medium" font-size="26.0" fill="#000000" transform="matrix(1.00, 0.00, -0.00, -1.00, 825.5, 22.0)"> </text><text xml:space="preserve" font-family="HelveticaNeue-Medium" font-size="26.0" fill="#000000" transform="matrix(1.00, 0.00, -0.00, -1.00, 832.8, 22.0)">e</text><text xml:space="preserve" font-family="HelveticaNeue-Medium" font-size="26.0" fill="#000000" transform="matrix(1.00, 0.00, -0.00, -1.00, 847.2, 22.0)">t</text><text xml:space="preserve" font-family="HelveticaNeue-Medium" font-size="26.0" fill="#000000" transform="matrix(1.00, 0.00, -0.00, -1.00, 855.9, 22.0)"> </text><text xml:space="preserve" font-family="HelveticaNeue-Medium" font-size="26.0" fill="#000000" transform="matrix(1.00, 0.00, -0.00, -1.00, 863.1, 22.0)">a</text><text xml:space="preserve" font-family="HelveticaNeue-Medium" font-size="26.0" fill="#000000" transform="matrix(1.00, 0.00, -0.00, -1.00, 877.6, 22.0)">l</text><text xml:space="preserve" font-family="HelveticaNeue-Medium" font-size="26.0" fill="#000000" transform="matrix(1.00, 0.00, -0.00, -1.00, 883.8, 22.0)">.</text><text xml:space="preserve" font-family="HelveticaNeue-Medium" font-size="26.0" fill="#000000" transform="matrix(1.00, 0.00, -0.00, -1.00, 891.1, 22.0)"> </text><text xml:space="preserve" font-family="HelveticaNeue-Medium" font-size="26.0" fill="#000000" transform="matrix(1.00, 0.00, -0.00, -1.00, 898.3, 22.0)">2</text><text xml:space="preserve" font-family="HelveticaNeue-Medium" font-size="26.0" fill="#000000" transform="matrix(1.00, 0.00, -0.00, -1.00, 912.7, 22.0)">0</text><text xml:space="preserve" font-family="HelveticaNeue-Medium" font-size="26.0" fill="#000000" transform="matrix(1.00, 0.00, -0.00, -1.00, 927.2, 22.0)">1</text><text xml:space="preserve" font-family="HelveticaNeue-Medium" font-size="26.0" fill="#000000" transform="matrix(1.00, 0.00, -0.00, -1.00, 941.6, 22.0)">1</text></g></g></g></svg>