<?xml version="1.0" encoding="UTF-8" standalone="no"?><svg xmlns="http://www.w3.org/2000/svg" xmlns:xlink="http://www.w3.org/1999/xlink" clip-rule="evenodd" stroke-miterlimit="4.00" viewBox="0 0 1024 768"><desc>SVG generated by Keynote</desc><defs></defs><g transform="matrix(1.00, 0.00, -0.00, -1.00, 0.0, 768.0)"><path d="M 0.0 768.0 L 1024.0 768.0 L 1024.0 0.0 L 0.0 0.0 Z M 0.0 768.0 " fill="#FEFFFE"></path><path d="M 0.0 0.0 L 934.5 0.0 " fill="none" stroke="#9A9A9A" stroke-width="1.00" transform="matrix(1.00, 0.00, 0.00, -1.00, 45.0, 613.0)"></path><text xml:space="preserve" font-family="HelveticaNeue-Light" font-size="42.0" fill="#000000" transform="matrix(1.00, 0.00, -0.00, -1.00, 49.0, 645.0)">W</text><text xml:space="preserve" font-family="HelveticaNeue-Light" font-size="42.0" fill="#000000" transform="matrix(1.00, 0.00, -0.00, -1.00, 86.3, 645.0)">e</text><text xml:space="preserve" font-family="HelveticaNeue-Light" font-size="42.0" fill="#000000" transform="matrix(1.00, 0.00, -0.00, -1.00, 108.1, 645.0)">i</text><text xml:space="preserve" font-family="HelveticaNeue-Light" font-size="42.0" fill="#000000" transform="matrix(1.00, 0.00, -0.00, -1.00, 115.9, 645.0)">g</text><text xml:space="preserve" font-family="HelveticaNeue-Light" font-size="42.0" fill="#000000" transform="matrix(1.00, 0.00, -0.00, -1.00, 139.3, 645.0)">h</text><text xml:space="preserve" font-family="HelveticaNeue-Light" font-size="42.0" fill="#000000" transform="matrix(1.00, 0.00, -0.00, -1.00, 161.8, 645.0)">t</text><text xml:space="preserve" font-family="HelveticaNeue-Light" font-size="42.0" fill="#000000" transform="matrix(1.00, 0.00, -0.00, -1.00, 174.2, 645.0)">e</text><text xml:space="preserve" font-family="HelveticaNeue-Light" font-size="42.0" fill="#000000" transform="matrix(1.00, 0.00, -0.00, -1.00, 196.0, 645.0)">d</text><text xml:space="preserve" font-family="HelveticaNeue-Light" font-size="42.0" fill="#000000" transform="matrix(1.00, 0.00, -0.00, -1.00, 220.2, 645.0)"> </text><text xml:space="preserve" font-family="HelveticaNeue-Light" font-size="42.0" fill="#000000" transform="matrix(1.00, 0.00, -0.00, -1.00, 231.8, 645.0)">a</text><text xml:space="preserve" font-family="HelveticaNeue-Light" font-size="42.0" fill="#000000" transform="matrix(1.00, 0.00, -0.00, -1.00, 253.6, 645.0)">d</text><text xml:space="preserve" font-family="HelveticaNeue-Light" font-size="42.0" fill="#000000" transform="matrix(1.00, 0.00, -0.00, -1.00, 277.7, 645.0)">d</text><text xml:space="preserve" font-family="HelveticaNeue-Light" font-size="42.0" fill="#000000" transform="matrix(1.00, 0.00, -0.00, -1.00, 301.8, 645.0)">i</text><text xml:space="preserve" font-family="HelveticaNeue-Light" font-size="42.0" fill="#000000" transform="matrix(1.00, 0.00, -0.00, -1.00, 309.6, 645.0)">t</text><text xml:space="preserve" font-family="HelveticaNeue-Light" font-size="42.0" fill="#000000" transform="matrix(1.00, 0.00, -0.00, -1.00, 322.0, 645.0)">i</text><text xml:space="preserve" font-family="HelveticaNeue-Light" font-size="42.0" fill="#000000" transform="matrix(1.00, 0.00, -0.00, -1.00, 329.8, 645.0)">v</text><text xml:space="preserve" font-family="HelveticaNeue-Light" font-size="42.0" fill="#000000" transform="matrix(1.00, 0.00, -0.00, -1.00, 349.3, 645.0)">e</text><text xml:space="preserve" font-family="HelveticaNeue-Light" font-size="42.0" fill="#000000" transform="matrix(1.00, 0.00, -0.00, -1.00, 371.1, 645.0)"> </text><text xml:space="preserve" font-family="HelveticaNeue-Light" font-size="42.0" fill="#000000" transform="matrix(1.00, 0.00, -0.00, -1.00, 382.7, 645.0)">r</text><text xml:space="preserve" font-family="HelveticaNeue-Light" font-size="42.0" fill="#000000" transform="matrix(1.00, 0.00, -0.00, -1.00, 396.0, 645.0)">u</text><text xml:space="preserve" font-family="HelveticaNeue-Light" font-size="42.0" fill="#000000" transform="matrix(1.00, 0.00, -0.00, -1.00, 418.5, 645.0)">l</text><text xml:space="preserve" font-family="HelveticaNeue-Light" font-size="42.0" fill="#000000" transform="matrix(1.00, 0.00, -0.00, -1.00, 426.3, 645.0)">e</text><text xml:space="preserve" font-family="HelveticaNeue" font-size="14.0" fill="#000000" transform="matrix(1.00, 0.00, -0.00, -1.00, 971.0, 27.4)">1</text><text xml:space="preserve" font-family="HelveticaNeue" font-size="14.0" fill="#000000" transform="matrix(1.00, 0.00, -0.00, -1.00, 978.8, 27.4)">8</text><g><clipPath id="clip-888"><path d="M 44.5 593.5 L 978.5 593.5 L 978.5 68.5 L 44.5 68.5 Z M 44.5 593.5 "></path></clipPath><g clip-path="url(#clip-888)"><path d="M 45.0 593.0 L 282.5 593.0 L 282.5 505.7 L 45.0 505.7 Z M 45.0 593.0 " fill="#325D6A"></path><path d="M 282.5 593.0 L 494.4 593.0 L 494.4 505.7 L 282.5 505.7 Z M 282.5 593.0 " fill="#325D6A"></path><path d="M 494.4 593.0 L 706.7 593.0 L 706.7 505.7 L 494.4 505.7 Z M 494.4 593.0 " fill="#325D6A"></path><path d="M 706.7 593.0 L 909.7 593.0 L 909.7 505.7 L 706.7 505.7 Z M 706.7 593.0 " fill="#325D6A"></path><path d="M 909.7 593.0 L 978.0 593.0 L 978.0 505.7 L 909.7 505.7 Z M 909.7 593.0 " fill="#325D6A"></path><path d="M 45.0 505.7 L 282.5 505.7 L 282.5 418.3 L 45.0 418.3 Z M 45.0 505.7 " fill="#E8E8E8"></path><path d="M 45.0 418.3 L 282.5 418.3 L 282.5 331.0 L 45.0 331.0 Z M 45.0 418.3 " fill="#E8E8E8"></path><path d="M 45.0 331.0 L 282.5 331.0 L 282.5 243.7 L 45.0 243.7 Z M 45.0 331.0 " fill="#E8E8E8"></path><path d="M 45.0 243.7 L 282.5 243.7 L 282.5 156.3 L 45.0 156.3 Z M 45.0 243.7 " fill="#E8E8E8"></path><path d="M 45.0 156.3 L 282.5 156.3 L 282.5 69.0 L 45.0 69.0 Z M 45.0 156.3 " fill="#E8E8E8"></path></g></g><g><clipPath id="clip-889"><path d="M 44.5 593.5 L 978.5 593.5 L 978.5 68.5 L 44.5 68.5 Z M 44.5 593.5 "></path></clipPath><g clip-path="url(#clip-889)"><g><clipPath id="clip-890"><path d="M 282.5 505.7 L 494.4 505.7 L 494.4 592.5 L 282.5 592.5 Z M 282.5 505.7 "></path></clipPath><g clip-path="url(#clip-890)"><text xml:space="preserve" font-family="HelveticaNeue" font-size="28.0" fill="#FEFFFE" transform="matrix(1.00, 0.00, -0.00, -1.00, 357.0, 538.0)">P</text><text xml:space="preserve" font-family="HelveticaNeue" font-size="28.0" fill="#FEFFFE" transform="matrix(1.00, 0.00, -0.00, -1.00, 375.1, 538.0)">r</text><text xml:space="preserve" font-family="HelveticaNeue" font-size="28.0" fill="#FEFFFE" transform="matrix(1.00, 0.00, -0.00, -1.00, 384.5, 538.0)">i</text><text xml:space="preserve" font-family="HelveticaNeue" font-size="28.0" fill="#FEFFFE" transform="matrix(1.00, 0.00, -0.00, -1.00, 390.7, 538.0)">c</text><text xml:space="preserve" font-family="HelveticaNeue" font-size="28.0" fill="#FEFFFE" transform="matrix(1.00, 0.00, -0.00, -1.00, 405.7, 538.0)">e</text></g></g></g></g><g><clipPath id="clip-891"><path d="M 44.5 593.5 L 978.5 593.5 L 978.5 68.5 L 44.5 68.5 Z M 44.5 593.5 "></path></clipPath><g clip-path="url(#clip-891)"><g><clipPath id="clip-892"><path d="M 494.4 505.7 L 706.7 505.7 L 706.7 592.5 L 494.4 592.5 Z M 494.4 505.7 "></path></clipPath><g clip-path="url(#clip-892)"><text xml:space="preserve" font-family="HelveticaNeue" font-size="28.0" fill="#FEFFFE" transform="matrix(1.00, 0.00, -0.00, -1.00, 557.0, 538.0)">Q</text><text xml:space="preserve" font-family="HelveticaNeue" font-size="28.0" fill="#FEFFFE" transform="matrix(1.00, 0.00, -0.00, -1.00, 578.3, 538.0)">u</text><text xml:space="preserve" font-family="HelveticaNeue" font-size="28.0" fill="#FEFFFE" transform="matrix(1.00, 0.00, -0.00, -1.00, 593.8, 538.0)">a</text><text xml:space="preserve" font-family="HelveticaNeue" font-size="28.0" fill="#FEFFFE" transform="matrix(1.00, 0.00, -0.00, -1.00, 608.9, 538.0)">l</text><text xml:space="preserve" font-family="HelveticaNeue" font-size="28.0" fill="#FEFFFE" transform="matrix(1.00, 0.00, -0.00, -1.00, 615.1, 538.0)">i</text><text xml:space="preserve" font-family="HelveticaNeue" font-size="28.0" fill="#FEFFFE" transform="matrix(1.00, 0.00, -0.00, -1.00, 621.3, 538.0)">t</text><text xml:space="preserve" font-family="HelveticaNeue" font-size="28.0" fill="#FEFFFE" transform="matrix(1.00, 0.00, -0.00, -1.00, 630.1, 538.0)">y</text></g></g></g></g><g><clipPath id="clip-893"><path d="M 44.5 593.5 L 978.5 593.5 L 978.5 68.5 L 44.5 68.5 Z M 44.5 593.5 "></path></clipPath><g clip-path="url(#clip-893)"><g><clipPath id="clip-894"><path d="M 706.7 505.7 L 908.7 505.7 L 908.7 592.5 L 706.7 592.5 Z M 706.7 505.7 "></path></clipPath><g clip-path="url(#clip-894)"><text xml:space="preserve" font-family="HelveticaNeue" font-size="28.0" fill="#FEFFFE" transform="matrix(1.00, 0.00, -0.00, -1.00, 753.0, 538.0)">D</text><text xml:space="preserve" font-family="HelveticaNeue" font-size="28.0" fill="#FEFFFE" transform="matrix(1.00, 0.00, -0.00, -1.00, 772.7, 538.0)">i</text><text xml:space="preserve" font-family="HelveticaNeue" font-size="28.0" fill="#FEFFFE" transform="matrix(1.00, 0.00, -0.00, -1.00, 778.9, 538.0)">s</text><text xml:space="preserve" font-family="HelveticaNeue" font-size="28.0" fill="#FEFFFE" transform="matrix(1.00, 0.00, -0.00, -1.00, 792.9, 538.0)">t</text><text xml:space="preserve" font-family="HelveticaNeue" font-size="28.0" fill="#FEFFFE" transform="matrix(1.00, 0.00, -0.00, -1.00, 801.7, 538.0)">a</text><text xml:space="preserve" font-family="HelveticaNeue" font-size="28.0" fill="#FEFFFE" transform="matrix(1.00, 0.00, -0.00, -1.00, 816.8, 538.0)">n</text><text xml:space="preserve" font-family="HelveticaNeue" font-size="28.0" fill="#FEFFFE" transform="matrix(1.00, 0.00, -0.00, -1.00, 832.4, 538.0)">c</text><text xml:space="preserve" font-family="HelveticaNeue" font-size="28.0" fill="#FEFFFE" transform="matrix(1.00, 0.00, -0.00, -1.00, 847.4, 538.0)">e</text></g></g></g></g><g><clipPath id="clip-895"><path d="M 44.5 593.5 L 978.5 593.5 L 978.5 68.5 L 44.5 68.5 Z M 44.5 593.5 "></path></clipPath><g clip-path="url(#clip-895)"><g><clipPath id="clip-896"><path d="M 910.7 505.7 L 977.5 505.7 L 977.5 592.5 L 910.7 592.5 Z M 910.7 505.7 "></path></clipPath><g clip-path="url(#clip-896)"><text xml:space="preserve" font-family="HelveticaNeue" font-size="28.0" fill="#FEFFFE" transform="matrix(1.00, 0.00, -0.00, -1.00, 915.0, 538.0)">S</text><text xml:space="preserve" font-family="HelveticaNeue" font-size="28.0" fill="#FEFFFE" transform="matrix(1.00, 0.00, -0.00, -1.00, 933.1, 538.0)">u</text><text xml:space="preserve" font-family="HelveticaNeue" font-size="28.0" fill="#FEFFFE" transform="matrix(1.00, 0.00, -0.00, -1.00, 948.7, 538.0)">m</text></g></g></g></g><g><clipPath id="clip-897"><path d="M 44.5 593.5 L 978.5 593.5 L 978.5 68.5 L 44.5 68.5 Z M 44.5 593.5 "></path></clipPath><g clip-path="url(#clip-897)"><g><clipPath id="clip-898"><path d="M 45.5 419.3 L 282.0 419.3 L 282.0 505.7 L 45.5 505.7 Z M 45.5 419.3 "></path></clipPath><g clip-path="url(#clip-898)"><text xml:space="preserve" font-family="HelveticaNeue" font-size="28.0" fill="#434343" transform="matrix(1.00, 0.00, -0.00, -1.00, 89.0, 452.0)">M</text><text xml:space="preserve" font-family="HelveticaNeue" font-size="28.0" fill="#434343" transform="matrix(1.00, 0.00, -0.00, -1.00, 113.4, 452.0)">c</text><text xml:space="preserve" font-family="HelveticaNeue" font-size="28.0" fill="#434343" transform="matrix(1.00, 0.00, -0.00, -1.00, 128.4, 452.0)">D</text><text xml:space="preserve" font-family="HelveticaNeue" font-size="28.0" fill="#434343" transform="matrix(1.00, 0.00, -0.00, -1.00, 148.1, 452.0)">o</text><text xml:space="preserve" font-family="HelveticaNeue" font-size="28.0" fill="#434343" transform="matrix(1.00, 0.00, -0.00, -1.00, 164.2, 452.0)">n</text><text xml:space="preserve" font-family="HelveticaNeue" font-size="28.0" fill="#434343" transform="matrix(1.00, 0.00, -0.00, -1.00, 179.8, 452.0)">a</text><text xml:space="preserve" font-family="HelveticaNeue" font-size="28.0" fill="#434343" transform="matrix(1.00, 0.00, -0.00, -1.00, 194.8, 452.0)">l</text><text xml:space="preserve" font-family="HelveticaNeue" font-size="28.0" fill="#434343" transform="matrix(1.00, 0.00, -0.00, -1.00, 201.0, 452.0)">d</text><text xml:space="preserve" font-family="HelveticaNeue" font-size="28.0" fill="#434343" transform="matrix(1.00, 0.00, -0.00, -1.00, 217.6, 452.0)">'</text><text xml:space="preserve" font-family="HelveticaNeue" font-size="28.0" fill="#434343" transform="matrix(1.00, 0.00, -0.00, -1.00, 225.4, 452.0)">s</text></g></g></g></g><g><clipPath id="clip-899"><path d="M 44.5 593.5 L 978.5 593.5 L 978.5 68.5 L 44.5 68.5 Z M 44.5 593.5 "></path></clipPath><g clip-path="url(#clip-899)"><g><clipPath id="clip-900"><path d="M 283.0 419.3 L 494.4 419.3 L 494.4 505.7 L 283.0 505.7 Z M 283.0 419.3 "></path></clipPath><g clip-path="url(#clip-900)"><text xml:space="preserve" font-family="HelveticaNeue" font-size="28.0" fill="#434343" transform="matrix(1.00, 0.00, -0.00, -1.00, 346.0, 452.0)">L</text><text xml:space="preserve" font-family="HelveticaNeue" font-size="28.0" fill="#434343" transform="matrix(1.00, 0.00, -0.00, -1.00, 361.6, 452.0)">o</text><text xml:space="preserve" font-family="HelveticaNeue" font-size="28.0" fill="#434343" transform="matrix(1.00, 0.00, -0.00, -1.00, 377.6, 452.0)">w</text><text xml:space="preserve" font-family="HelveticaNeue-Bold" font-weight="bold" font-size="28.0" fill="#434343" transform="matrix(1.00, 0.00, -0.00, -1.00, 398.9, 452.0)">(</text><text xml:space="preserve" font-family="HelveticaNeue-Bold" font-weight="bold" font-size="28.0" fill="#434343" transform="matrix(1.00, 0.00, -0.00, -1.00, 407.2, 452.0)">3</text><text xml:space="preserve" font-family="HelveticaNeue-Bold" font-weight="bold" font-size="28.0" fill="#434343" transform="matrix(1.00, 0.00, -0.00, -1.00, 422.7, 452.0)">)</text></g></g></g></g><g><clipPath id="clip-901"><path d="M 44.5 593.5 L 978.5 593.5 L 978.5 68.5 L 44.5 68.5 Z M 44.5 593.5 "></path></clipPath><g clip-path="url(#clip-901)"><g><clipPath id="clip-902"><path d="M 494.4 419.3 L 706.7 419.3 L 706.7 505.7 L 494.4 505.7 Z M 494.4 419.3 "></path></clipPath><g clip-path="url(#clip-902)"><text xml:space="preserve" font-family="HelveticaNeue" font-size="28.0" fill="#434343" transform="matrix(1.00, 0.00, -0.00, -1.00, 558.0, 452.0)">L</text><text xml:space="preserve" font-family="HelveticaNeue" font-size="28.0" fill="#434343" transform="matrix(1.00, 0.00, -0.00, -1.00, 573.6, 452.0)">o</text><text xml:space="preserve" font-family="HelveticaNeue" font-size="28.0" fill="#434343" transform="matrix(1.00, 0.00, -0.00, -1.00, 589.6, 452.0)">w</text><text xml:space="preserve" font-family="HelveticaNeue-Bold" font-weight="bold" font-size="28.0" fill="#434343" transform="matrix(1.00, 0.00, -0.00, -1.00, 610.9, 452.0)">(</text><text xml:space="preserve" font-family="HelveticaNeue-Bold" font-weight="bold" font-size="28.0" fill="#434343" transform="matrix(1.00, 0.00, -0.00, -1.00, 619.2, 452.0)">1</text><text xml:space="preserve" font-family="HelveticaNeue-Bold" font-weight="bold" font-size="28.0" fill="#434343" transform="matrix(1.00, 0.00, -0.00, -1.00, 634.7, 452.0)">)</text></g></g></g></g><g><clipPath id="clip-903"><path d="M 44.5 593.5 L 978.5 593.5 L 978.5 68.5 L 44.5 68.5 Z M 44.5 593.5 "></path></clipPath><g clip-path="url(#clip-903)"><g><clipPath id="clip-904"><path d="M 706.7 419.3 L 908.7 419.3 L 908.7 505.7 L 706.7 505.7 Z M 706.7 419.3 "></path></clipPath><g clip-path="url(#clip-904)"><text xml:space="preserve" font-family="HelveticaNeue" font-size="28.0" fill="#434343" transform="matrix(1.00, 0.00, -0.00, -1.00, 756.0, 452.0)">C</text><text xml:space="preserve" font-family="HelveticaNeue" font-size="28.0" fill="#434343" transform="matrix(1.00, 0.00, -0.00, -1.00, 776.2, 452.0)">l</text><text xml:space="preserve" font-family="HelveticaNeue" font-size="28.0" fill="#434343" transform="matrix(1.00, 0.00, -0.00, -1.00, 782.4, 452.0)">o</text><text xml:space="preserve" font-family="HelveticaNeue" font-size="28.0" fill="#434343" transform="matrix(1.00, 0.00, -0.00, -1.00, 798.5, 452.0)">s</text><text xml:space="preserve" font-family="HelveticaNeue" font-size="28.0" fill="#434343" transform="matrix(1.00, 0.00, -0.00, -1.00, 812.5, 452.0)">e</text><text xml:space="preserve" font-family="HelveticaNeue-Bold" font-weight="bold" font-size="28.0" fill="#434343" transform="matrix(1.00, 0.00, -0.00, -1.00, 827.5, 452.0)">(</text><text xml:space="preserve" font-family="HelveticaNeue-Bold" font-weight="bold" font-size="28.0" fill="#434343" transform="matrix(1.00, 0.00, -0.00, -1.00, 835.8, 452.0)">3</text><text xml:space="preserve" font-family="HelveticaNeue-Bold" font-weight="bold" font-size="28.0" fill="#434343" transform="matrix(1.00, 0.00, -0.00, -1.00, 851.4, 452.0)">)</text></g></g></g></g><g><clipPath id="clip-905"><path d="M 44.5 593.5 L 978.5 593.5 L 978.5 68.5 L 44.5 68.5 Z M 44.5 593.5 "></path></clipPath><g clip-path="url(#clip-905)"><g><clipPath id="clip-906"><path d="M 910.7 419.3 L 977.5 419.3 L 977.5 505.7 L 910.7 505.7 Z M 910.7 419.3 "></path></clipPath><g clip-path="url(#clip-906)"><text xml:space="preserve" font-family="HelveticaNeue" font-size="28.0" fill="#434343" transform="matrix(1.00, 0.00, -0.00, -1.00, 936.0, 452.0)">2</text></g></g></g></g><g><clipPath id="clip-907"><path d="M 44.5 593.5 L 978.5 593.5 L 978.5 68.5 L 44.5 68.5 Z M 44.5 593.5 "></path></clipPath><g clip-path="url(#clip-907)"><g><clipPath id="clip-908"><path d="M 45.5 332.0 L 282.0 332.0 L 282.0 417.3 L 45.5 417.3 Z M 45.5 332.0 "></path></clipPath><g clip-path="url(#clip-908)"><text xml:space="preserve" font-family="HelveticaNeue" font-size="28.0" fill="#434343" transform="matrix(1.00, 0.00, -0.00, -1.00, 117.0, 364.0)">K</text><text xml:space="preserve" font-family="HelveticaNeue" font-size="28.0" fill="#434343" transform="matrix(1.00, 0.00, -0.00, -1.00, 135.7, 364.0)">u</text><text xml:space="preserve" font-family="HelveticaNeue" font-size="28.0" fill="#434343" transform="matrix(1.00, 0.00, -0.00, -1.00, 151.2, 364.0)">m</text><text xml:space="preserve" font-family="HelveticaNeue" font-size="28.0" fill="#434343" transform="matrix(1.00, 0.00, -0.00, -1.00, 175.1, 364.0)">a</text><text xml:space="preserve" font-family="HelveticaNeue" font-size="28.0" fill="#434343" transform="matrix(1.00, 0.00, -0.00, -1.00, 190.2, 364.0)">’</text><text xml:space="preserve" font-family="HelveticaNeue" font-size="28.0" fill="#434343" transform="matrix(1.00, 0.00, -0.00, -1.00, 195.9, 364.0)">s</text></g></g></g></g><g><clipPath id="clip-909"><path d="M 44.5 593.5 L 978.5 593.5 L 978.5 68.5 L 44.5 68.5 Z M 44.5 593.5 "></path></clipPath><g clip-path="url(#clip-909)"><g><clipPath id="clip-910"><path d="M 283.0 332.0 L 494.4 332.0 L 494.4 417.3 L 283.0 417.3 Z M 283.0 332.0 "></path></clipPath><g clip-path="url(#clip-910)"><text xml:space="preserve" font-family="HelveticaNeue" font-size="28.0" fill="#434343" transform="matrix(1.00, 0.00, -0.00, -1.00, 345.0, 364.0)">M</text><text xml:space="preserve" font-family="HelveticaNeue" font-size="28.0" fill="#434343" transform="matrix(1.00, 0.00, -0.00, -1.00, 369.4, 364.0)">e</text><text xml:space="preserve" font-family="HelveticaNeue" font-size="28.0" fill="#434343" transform="matrix(1.00, 0.00, -0.00, -1.00, 384.4, 364.0)">d</text><text xml:space="preserve" font-family="HelveticaNeue-Bold" font-weight="bold" font-size="28.0" fill="#434343" transform="matrix(1.00, 0.00, -0.00, -1.00, 401.0, 364.0)">(</text><text xml:space="preserve" font-family="HelveticaNeue-Bold" font-weight="bold" font-size="28.0" fill="#434343" transform="matrix(1.00, 0.00, -0.00, -1.00, 409.3, 364.0)">2</text><text xml:space="preserve" font-family="HelveticaNeue-Bold" font-weight="bold" font-size="28.0" fill="#434343" transform="matrix(1.00, 0.00, -0.00, -1.00, 424.9, 364.0)">)</text></g></g></g></g><g><clipPath id="clip-911"><path d="M 44.5 593.5 L 978.5 593.5 L 978.5 68.5 L 44.5 68.5 Z M 44.5 593.5 "></path></clipPath><g clip-path="url(#clip-911)"><g><clipPath id="clip-912"><path d="M 494.4 332.0 L 706.7 332.0 L 706.7 417.3 L 494.4 417.3 Z M 494.4 332.0 "></path></clipPath><g clip-path="url(#clip-912)"><text xml:space="preserve" font-family="HelveticaNeue" font-size="28.0" fill="#434343" transform="matrix(1.00, 0.00, -0.00, -1.00, 555.0, 364.0)">H</text><text xml:space="preserve" font-family="HelveticaNeue" font-size="28.0" fill="#434343" transform="matrix(1.00, 0.00, -0.00, -1.00, 575.2, 364.0)">i</text><text xml:space="preserve" font-family="HelveticaNeue" font-size="28.0" fill="#434343" transform="matrix(1.00, 0.00, -0.00, -1.00, 581.4, 364.0)">g</text><text xml:space="preserve" font-family="HelveticaNeue" font-size="28.0" fill="#434343" transform="matrix(1.00, 0.00, -0.00, -1.00, 597.5, 364.0)">h</text><text xml:space="preserve" font-family="HelveticaNeue-Bold" font-weight="bold" font-size="28.0" fill="#434343" transform="matrix(1.00, 0.00, -0.00, -1.00, 613.1, 364.0)">(</text><text xml:space="preserve" font-family="HelveticaNeue-Bold" font-weight="bold" font-size="28.0" fill="#434343" transform="matrix(1.00, 0.00, -0.00, -1.00, 621.4, 364.0)">3</text><text xml:space="preserve" font-family="HelveticaNeue-Bold" font-weight="bold" font-size="28.0" fill="#434343" transform="matrix(1.00, 0.00, -0.00, -1.00, 636.9, 364.0)">)</text></g></g></g></g><g><clipPath id="clip-913"><path d="M 44.5 593.5 L 978.5 593.5 L 978.5 68.5 L 44.5 68.5 Z M 44.5 593.5 "></path></clipPath><g clip-path="url(#clip-913)"><g><clipPath id="clip-914"><path d="M 706.7 332.0 L 908.7 332.0 L 908.7 417.3 L 706.7 417.3 Z M 706.7 332.0 "></path></clipPath><g clip-path="url(#clip-914)"><text xml:space="preserve" font-family="HelveticaNeue" font-size="28.0" fill="#434343" transform="matrix(1.00, 0.00, -0.00, -1.00, 771.0, 364.0)">F</text><text xml:space="preserve" font-family="HelveticaNeue" font-size="28.0" fill="#434343" transform="matrix(1.00, 0.00, -0.00, -1.00, 787.1, 364.0)">a</text><text xml:space="preserve" font-family="HelveticaNeue" font-size="28.0" fill="#434343" transform="matrix(1.00, 0.00, -0.00, -1.00, 802.1, 364.0)">r</text><text xml:space="preserve" font-family="HelveticaNeue-Bold" font-weight="bold" font-size="28.0" fill="#434343" transform="matrix(1.00, 0.00, -0.00, -1.00, 811.4, 364.0)">(</text><text xml:space="preserve" font-family="HelveticaNeue-Bold" font-weight="bold" font-size="28.0" fill="#434343" transform="matrix(1.00, 0.00, -0.00, -1.00, 819.7, 364.0)">1</text><text xml:space="preserve" font-family="HelveticaNeue-Bold" font-weight="bold" font-size="28.0" fill="#434343" transform="matrix(1.00, 0.00, -0.00, -1.00, 835.3, 364.0)">)</text></g></g></g></g><g><clipPath id="clip-915"><path d="M 44.5 593.5 L 978.5 593.5 L 978.5 68.5 L 44.5 68.5 Z M 44.5 593.5 "></path></clipPath><g clip-path="url(#clip-915)"><g><clipPath id="clip-916"><path d="M 910.7 332.0 L 977.5 332.0 L 977.5 417.3 L 910.7 417.3 Z M 910.7 332.0 "></path></clipPath><g clip-path="url(#clip-916)"><text xml:space="preserve" font-family="HelveticaNeue" font-size="28.0" fill="#434343" transform="matrix(1.00, 0.00, -0.00, -1.00, 925.0, 364.0)">1</text><text xml:space="preserve" font-family="HelveticaNeue" font-size="28.0" fill="#434343" transform="matrix(1.00, 0.00, -0.00, -1.00, 940.6, 364.0)">.</text><text xml:space="preserve" font-family="HelveticaNeue" font-size="28.0" fill="#434343" transform="matrix(1.00, 0.00, -0.00, -1.00, 948.4, 364.0)">9</text></g></g></g></g><g><clipPath id="clip-917"><path d="M 44.5 593.5 L 978.5 593.5 L 978.5 68.5 L 44.5 68.5 Z M 44.5 593.5 "></path></clipPath><g clip-path="url(#clip-917)"><g><clipPath id="clip-918"><path d="M 45.5 244.7 L 282.0 244.7 L 282.0 330.0 L 45.5 330.0 Z M 45.5 244.7 "></path></clipPath><g clip-path="url(#clip-918)"><text xml:space="preserve" font-family="HelveticaNeue" font-size="28.0" fill="#434343" transform="matrix(1.00, 0.00, -0.00, -1.00, 94.0, 277.0)">2</text><text xml:space="preserve" font-family="HelveticaNeue" font-size="28.0" fill="#434343" transform="matrix(1.00, 0.00, -0.00, -1.00, 109.6, 277.0)">5</text><text xml:space="preserve" font-family="HelveticaNeue" font-size="28.0" fill="#434343" transform="matrix(1.00, 0.00, -0.00, -1.00, 125.1, 277.0)"> </text><text xml:space="preserve" font-family="HelveticaNeue" font-size="28.0" fill="#434343" transform="matrix(1.00, 0.00, -0.00, -1.00, 132.9, 277.0)">d</text><text xml:space="preserve" font-family="HelveticaNeue" font-size="28.0" fill="#434343" transform="matrix(1.00, 0.00, -0.00, -1.00, 149.5, 277.0)">e</text><text xml:space="preserve" font-family="HelveticaNeue" font-size="28.0" fill="#434343" transform="matrix(1.00, 0.00, -0.00, -1.00, 164.6, 277.0)">g</text><text xml:space="preserve" font-family="HelveticaNeue" font-size="28.0" fill="#434343" transform="matrix(1.00, 0.00, -0.00, -1.00, 180.6, 277.0)">r</text><text xml:space="preserve" font-family="HelveticaNeue" font-size="28.0" fill="#434343" transform="matrix(1.00, 0.00, -0.00, -1.00, 189.5, 277.0)">e</text><text xml:space="preserve" font-family="HelveticaNeue" font-size="28.0" fill="#434343" transform="matrix(1.00, 0.00, -0.00, -1.00, 204.5, 277.0)">e</text><text xml:space="preserve" font-family="HelveticaNeue" font-size="28.0" fill="#434343" transform="matrix(1.00, 0.00, -0.00, -1.00, 219.5, 277.0)">s</text></g></g></g></g><g><clipPath id="clip-919"><path d="M 44.5 593.5 L 978.5 593.5 L 978.5 68.5 L 44.5 68.5 Z M 44.5 593.5 "></path></clipPath><g clip-path="url(#clip-919)"><g><clipPath id="clip-920"><path d="M 283.0 244.7 L 494.4 244.7 L 494.4 330.0 L 283.0 330.0 Z M 283.0 244.7 "></path></clipPath><g clip-path="url(#clip-920)"><text xml:space="preserve" font-family="HelveticaNeue" font-size="28.0" fill="#434343" transform="matrix(1.00, 0.00, -0.00, -1.00, 345.0, 277.0)">M</text><text xml:space="preserve" font-family="HelveticaNeue" font-size="28.0" fill="#434343" transform="matrix(1.00, 0.00, -0.00, -1.00, 369.4, 277.0)">e</text><text xml:space="preserve" font-family="HelveticaNeue" font-size="28.0" fill="#434343" transform="matrix(1.00, 0.00, -0.00, -1.00, 384.4, 277.0)">d</text><text xml:space="preserve" font-family="HelveticaNeue-Bold" font-weight="bold" font-size="28.0" fill="#434343" transform="matrix(1.00, 0.00, -0.00, -1.00, 401.0, 277.0)">(</text><text xml:space="preserve" font-family="HelveticaNeue-Bold" font-weight="bold" font-size="28.0" fill="#434343" transform="matrix(1.00, 0.00, -0.00, -1.00, 409.3, 277.0)">2</text><text xml:space="preserve" font-family="HelveticaNeue-Bold" font-weight="bold" font-size="28.0" fill="#434343" transform="matrix(1.00, 0.00, -0.00, -1.00, 424.9, 277.0)">)</text></g></g></g></g><g><clipPath id="clip-921"><path d="M 44.5 593.5 L 978.5 593.5 L 978.5 68.5 L 44.5 68.5 Z M 44.5 593.5 "></path></clipPath><g clip-path="url(#clip-921)"><g><clipPath id="clip-922"><path d="M 494.4 244.7 L 706.7 244.7 L 706.7 330.0 L 494.4 330.0 Z M 494.4 244.7 "></path></clipPath><g clip-path="url(#clip-922)"><text xml:space="preserve" font-family="HelveticaNeue" font-size="28.0" fill="#434343" transform="matrix(1.00, 0.00, -0.00, -1.00, 555.0, 277.0)">H</text><text xml:space="preserve" font-family="HelveticaNeue" font-size="28.0" fill="#434343" transform="matrix(1.00, 0.00, -0.00, -1.00, 575.2, 277.0)">i</text><text xml:space="preserve" font-family="HelveticaNeue" font-size="28.0" fill="#434343" transform="matrix(1.00, 0.00, -0.00, -1.00, 581.4, 277.0)">g</text><text xml:space="preserve" font-family="HelveticaNeue" font-size="28.0" fill="#434343" transform="matrix(1.00, 0.00, -0.00, -1.00, 597.5, 277.0)">h</text><text xml:space="preserve" font-family="HelveticaNeue-Bold" font-weight="bold" font-size="28.0" fill="#434343" transform="matrix(1.00, 0.00, -0.00, -1.00, 613.1, 277.0)">(</text><text xml:space="preserve" font-family="HelveticaNeue-Bold" font-weight="bold" font-size="28.0" fill="#434343" transform="matrix(1.00, 0.00, -0.00, -1.00, 621.4, 277.0)">3</text><text xml:space="preserve" font-family="HelveticaNeue-Bold" font-weight="bold" font-size="28.0" fill="#434343" transform="matrix(1.00, 0.00, -0.00, -1.00, 636.9, 277.0)">)</text></g></g></g></g><g><clipPath id="clip-923"><path d="M 44.5 593.5 L 978.5 593.5 L 978.5 68.5 L 44.5 68.5 Z M 44.5 593.5 "></path></clipPath><g clip-path="url(#clip-923)"><g><clipPath id="clip-924"><path d="M 706.7 244.7 L 908.7 244.7 L 908.7 330.0 L 706.7 330.0 Z M 706.7 244.7 "></path></clipPath><g clip-path="url(#clip-924)"><text xml:space="preserve" font-family="HelveticaNeue" font-size="28.0" fill="#434343" transform="matrix(1.00, 0.00, -0.00, -1.00, 764.0, 277.0)">M</text><text xml:space="preserve" font-family="HelveticaNeue" font-size="28.0" fill="#434343" transform="matrix(1.00, 0.00, -0.00, -1.00, 788.4, 277.0)">e</text><text xml:space="preserve" font-family="HelveticaNeue" font-size="28.0" fill="#434343" transform="matrix(1.00, 0.00, -0.00, -1.00, 803.4, 277.0)">d</text><text xml:space="preserve" font-family="HelveticaNeue-Bold" font-weight="bold" font-size="28.0" fill="#434343" transform="matrix(1.00, 0.00, -0.00, -1.00, 820.0, 277.0)">(</text><text xml:space="preserve" font-family="HelveticaNeue-Bold" font-weight="bold" font-size="28.0" fill="#434343" transform="matrix(1.00, 0.00, -0.00, -1.00, 828.3, 277.0)">2</text><text xml:space="preserve" font-family="HelveticaNeue-Bold" font-weight="bold" font-size="28.0" fill="#434343" transform="matrix(1.00, 0.00, -0.00, -1.00, 843.9, 277.0)">)</text></g></g></g></g><g><clipPath id="clip-925"><path d="M 44.5 593.5 L 978.5 593.5 L 978.5 68.5 L 44.5 68.5 Z M 44.5 593.5 "></path></clipPath><g clip-path="url(#clip-925)"><g><clipPath id="clip-926"><path d="M 910.7 244.7 L 977.5 244.7 L 977.5 330.0 L 910.7 330.0 Z M 910.7 244.7 "></path></clipPath><g clip-path="url(#clip-926)"><text xml:space="preserve" font-family="HelveticaNeue" font-size="28.0" fill="#434343" transform="matrix(1.00, 0.00, -0.00, -1.00, 925.0, 277.0)">2</text><text xml:space="preserve" font-family="HelveticaNeue" font-size="28.0" fill="#434343" transform="matrix(1.00, 0.00, -0.00, -1.00, 940.6, 277.0)">.</text><text xml:space="preserve" font-family="HelveticaNeue" font-size="28.0" fill="#434343" transform="matrix(1.00, 0.00, -0.00, -1.00, 948.4, 277.0)">4</text></g></g></g></g><g><clipPath id="clip-927"><path d="M 44.5 593.5 L 978.5 593.5 L 978.5 68.5 L 44.5 68.5 Z M 44.5 593.5 "></path></clipPath><g clip-path="url(#clip-927)"><g><clipPath id="clip-928"><path d="M 45.5 157.3 L 282.0 157.3 L 282.0 242.7 L 45.5 242.7 Z M 45.5 157.3 "></path></clipPath><g clip-path="url(#clip-928)"><text xml:space="preserve" font-family="HelveticaNeue" font-size="28.0" fill="#434343" transform="matrix(1.00, 0.00, -0.00, -1.00, 64.0, 189.0)">D</text><text xml:space="preserve" font-family="HelveticaNeue" font-size="28.0" fill="#434343" transform="matrix(1.00, 0.00, -0.00, -1.00, 83.7, 189.0)">M</text><text xml:space="preserve" font-family="HelveticaNeue" font-size="28.0" fill="#434343" transform="matrix(1.00, 0.00, -0.00, -1.00, 108.1, 189.0)">K</text><text xml:space="preserve" font-family="HelveticaNeue" font-size="28.0" fill="#434343" transform="matrix(1.00, 0.00, -0.00, -1.00, 126.8, 189.0)"> </text><text xml:space="preserve" font-family="HelveticaNeue" font-size="28.0" fill="#434343" transform="matrix(1.00, 0.00, -0.00, -1.00, 134.6, 189.0)">b</text><text xml:space="preserve" font-family="HelveticaNeue" font-size="28.0" fill="#434343" transform="matrix(1.00, 0.00, -0.00, -1.00, 151.2, 189.0)">u</text><text xml:space="preserve" font-family="HelveticaNeue" font-size="28.0" fill="#434343" transform="matrix(1.00, 0.00, -0.00, -1.00, 166.7, 189.0)">r</text><text xml:space="preserve" font-family="HelveticaNeue" font-size="28.0" fill="#434343" transform="matrix(1.00, 0.00, -0.00, -1.00, 175.3, 189.0)">g</text><text xml:space="preserve" font-family="HelveticaNeue" font-size="28.0" fill="#434343" transform="matrix(1.00, 0.00, -0.00, -1.00, 191.3, 189.0)">e</text><text xml:space="preserve" font-family="HelveticaNeue" font-size="28.0" fill="#434343" transform="matrix(1.00, 0.00, -0.00, -1.00, 206.4, 189.0)">r</text><text xml:space="preserve" font-family="HelveticaNeue" font-size="28.0" fill="#434343" transform="matrix(1.00, 0.00, -0.00, -1.00, 215.7, 189.0)"> </text><text xml:space="preserve" font-family="HelveticaNeue" font-size="28.0" fill="#434343" transform="matrix(1.00, 0.00, -0.00, -1.00, 223.5, 189.0)">b</text><text xml:space="preserve" font-family="HelveticaNeue" font-size="28.0" fill="#434343" transform="matrix(1.00, 0.00, -0.00, -1.00, 240.1, 189.0)">a</text><text xml:space="preserve" font-family="HelveticaNeue" font-size="28.0" fill="#434343" transform="matrix(1.00, 0.00, -0.00, -1.00, 255.1, 189.0)">r</text></g></g></g></g><g><clipPath id="clip-929"><path d="M 44.5 593.5 L 978.5 593.5 L 978.5 68.5 L 44.5 68.5 Z M 44.5 593.5 "></path></clipPath><g clip-path="url(#clip-929)"><g><clipPath id="clip-930"><path d="M 283.0 157.3 L 494.4 157.3 L 494.4 242.7 L 283.0 242.7 Z M 283.0 157.3 "></path></clipPath><g clip-path="url(#clip-930)"><text xml:space="preserve" font-family="HelveticaNeue" font-size="28.0" fill="#434343" transform="matrix(1.00, 0.00, -0.00, -1.00, 345.0, 189.0)">M</text><text xml:space="preserve" font-family="HelveticaNeue" font-size="28.0" fill="#434343" transform="matrix(1.00, 0.00, -0.00, -1.00, 369.4, 189.0)">e</text><text xml:space="preserve" font-family="HelveticaNeue" font-size="28.0" fill="#434343" transform="matrix(1.00, 0.00, -0.00, -1.00, 384.4, 189.0)">d</text><text xml:space="preserve" font-family="HelveticaNeue-Bold" font-weight="bold" font-size="28.0" fill="#434343" transform="matrix(1.00, 0.00, -0.00, -1.00, 401.0, 189.0)">(</text><text xml:space="preserve" font-family="HelveticaNeue-Bold" font-weight="bold" font-size="28.0" fill="#434343" transform="matrix(1.00, 0.00, -0.00, -1.00, 409.3, 189.0)">2</text><text xml:space="preserve" font-family="HelveticaNeue-Bold" font-weight="bold" font-size="28.0" fill="#434343" transform="matrix(1.00, 0.00, -0.00, -1.00, 424.9, 189.0)">)</text></g></g></g></g><g><clipPath id="clip-931"><path d="M 44.5 593.5 L 978.5 593.5 L 978.5 68.5 L 44.5 68.5 Z M 44.5 593.5 "></path></clipPath><g clip-path="url(#clip-931)"><g><clipPath id="clip-932"><path d="M 494.4 157.3 L 706.7 157.3 L 706.7 242.7 L 494.4 242.7 Z M 494.4 157.3 "></path></clipPath><g clip-path="url(#clip-932)"><text xml:space="preserve" font-family="HelveticaNeue" font-size="28.0" fill="#434343" transform="matrix(1.00, 0.00, -0.00, -1.00, 556.0, 189.0)">M</text><text xml:space="preserve" font-family="HelveticaNeue" font-size="28.0" fill="#434343" transform="matrix(1.00, 0.00, -0.00, -1.00, 580.4, 189.0)">e</text><text xml:space="preserve" font-family="HelveticaNeue" font-size="28.0" fill="#434343" transform="matrix(1.00, 0.00, -0.00, -1.00, 595.4, 189.0)">d</text><text xml:space="preserve" font-family="HelveticaNeue-Bold" font-weight="bold" font-size="28.0" fill="#434343" transform="matrix(1.00, 0.00, -0.00, -1.00, 612.0, 189.0)">(</text><text xml:space="preserve" font-family="HelveticaNeue-Bold" font-weight="bold" font-size="28.0" fill="#434343" transform="matrix(1.00, 0.00, -0.00, -1.00, 620.3, 189.0)">2</text><text xml:space="preserve" font-family="HelveticaNeue-Bold" font-weight="bold" font-size="28.0" fill="#434343" transform="matrix(1.00, 0.00, -0.00, -1.00, 635.9, 189.0)">)</text></g></g></g></g><g><clipPath id="clip-933"><path d="M 44.5 593.5 L 978.5 593.5 L 978.5 68.5 L 44.5 68.5 Z M 44.5 593.5 "></path></clipPath><g clip-path="url(#clip-933)"><g><clipPath id="clip-934"><path d="M 706.7 157.3 L 908.7 157.3 L 908.7 242.7 L 706.7 242.7 Z M 706.7 157.3 "></path></clipPath><g clip-path="url(#clip-934)"><text xml:space="preserve" font-family="HelveticaNeue" font-size="28.0" fill="#434343" transform="matrix(1.00, 0.00, -0.00, -1.00, 756.0, 189.0)">C</text><text xml:space="preserve" font-family="HelveticaNeue" font-size="28.0" fill="#434343" transform="matrix(1.00, 0.00, -0.00, -1.00, 776.2, 189.0)">l</text><text xml:space="preserve" font-family="HelveticaNeue" font-size="28.0" fill="#434343" transform="matrix(1.00, 0.00, -0.00, -1.00, 782.4, 189.0)">o</text><text xml:space="preserve" font-family="HelveticaNeue" font-size="28.0" fill="#434343" transform="matrix(1.00, 0.00, -0.00, -1.00, 798.5, 189.0)">s</text><text xml:space="preserve" font-family="HelveticaNeue" font-size="28.0" fill="#434343" transform="matrix(1.00, 0.00, -0.00, -1.00, 812.5, 189.0)">e</text><text xml:space="preserve" font-family="HelveticaNeue-Bold" font-weight="bold" font-size="28.0" fill="#434343" transform="matrix(1.00, 0.00, -0.00, -1.00, 827.5, 189.0)">(</text><text xml:space="preserve" font-family="HelveticaNeue-Bold" font-weight="bold" font-size="28.0" fill="#434343" transform="matrix(1.00, 0.00, -0.00, -1.00, 835.8, 189.0)">3</text><text xml:space="preserve" font-family="HelveticaNeue-Bold" font-weight="bold" font-size="28.0" fill="#434343" transform="matrix(1.00, 0.00, -0.00, -1.00, 851.4, 189.0)">)</text></g></g></g></g><g><clipPath id="clip-935"><path d="M 44.5 593.5 L 978.5 593.5 L 978.5 68.5 L 44.5 68.5 Z M 44.5 593.5 "></path></clipPath><g clip-path="url(#clip-935)"><g><clipPath id="clip-936"><path d="M 910.7 157.3 L 977.5 157.3 L 977.5 242.7 L 910.7 242.7 Z M 910.7 157.3 "></path></clipPath><g clip-path="url(#clip-936)"><text xml:space="preserve" font-family="HelveticaNeue" font-size="28.0" fill="#434343" transform="matrix(1.00, 0.00, -0.00, -1.00, 925.0, 189.0)">2</text><text xml:space="preserve" font-family="HelveticaNeue" font-size="28.0" fill="#434343" transform="matrix(1.00, 0.00, -0.00, -1.00, 940.6, 189.0)">.</text><text xml:space="preserve" font-family="HelveticaNeue" font-size="28.0" fill="#434343" transform="matrix(1.00, 0.00, -0.00, -1.00, 948.4, 189.0)">5</text></g></g></g></g><g><clipPath id="clip-937"><path d="M 44.5 593.5 L 978.5 593.5 L 978.5 68.5 L 44.5 68.5 Z M 44.5 593.5 "></path></clipPath><g clip-path="url(#clip-937)"><g><clipPath id="clip-938"><path d="M 45.5 69.5 L 282.0 69.5 L 282.0 155.3 L 45.5 155.3 Z M 45.5 69.5 "></path></clipPath><g clip-path="url(#clip-938)"><text xml:space="preserve" font-family="HelveticaNeue" font-size="28.0" fill="#434343" transform="matrix(1.00, 0.00, -0.00, -1.00, 79.0, 102.0)">R</text><text xml:space="preserve" font-family="HelveticaNeue" font-size="28.0" fill="#434343" transform="matrix(1.00, 0.00, -0.00, -1.00, 98.2, 102.0)">L</text><text xml:space="preserve" font-family="HelveticaNeue" font-size="28.0" fill="#434343" transform="matrix(1.00, 0.00, -0.00, -1.00, 113.7, 102.0)"> </text><text xml:space="preserve" font-family="HelveticaNeue" font-size="28.0" fill="#434343" transform="matrix(1.00, 0.00, -0.00, -1.00, 121.5, 102.0)">r</text><text xml:space="preserve" font-family="HelveticaNeue" font-size="28.0" fill="#434343" transform="matrix(1.00, 0.00, -0.00, -1.00, 130.4, 102.0)">e</text><text xml:space="preserve" font-family="HelveticaNeue" font-size="28.0" fill="#434343" transform="matrix(1.00, 0.00, -0.00, -1.00, 145.4, 102.0)">s</text><text xml:space="preserve" font-family="HelveticaNeue" font-size="28.0" fill="#434343" transform="matrix(1.00, 0.00, -0.00, -1.00, 159.4, 102.0)">t</text><text xml:space="preserve" font-family="HelveticaNeue" font-size="28.0" fill="#434343" transform="matrix(1.00, 0.00, -0.00, -1.00, 168.2, 102.0)">a</text><text xml:space="preserve" font-family="HelveticaNeue" font-size="28.0" fill="#434343" transform="matrix(1.00, 0.00, -0.00, -1.00, 183.2, 102.0)">u</text><text xml:space="preserve" font-family="HelveticaNeue" font-size="28.0" fill="#434343" transform="matrix(1.00, 0.00, -0.00, -1.00, 198.8, 102.0)">r</text><text xml:space="preserve" font-family="HelveticaNeue" font-size="28.0" fill="#434343" transform="matrix(1.00, 0.00, -0.00, -1.00, 208.1, 102.0)">a</text><text xml:space="preserve" font-family="HelveticaNeue" font-size="28.0" fill="#434343" transform="matrix(1.00, 0.00, -0.00, -1.00, 223.2, 102.0)">n</text><text xml:space="preserve" font-family="HelveticaNeue" font-size="28.0" fill="#434343" transform="matrix(1.00, 0.00, -0.00, -1.00, 238.7, 102.0)">t</text></g></g></g></g><g><clipPath id="clip-939"><path d="M 44.5 593.5 L 978.5 593.5 L 978.5 68.5 L 44.5 68.5 Z M 44.5 593.5 "></path></clipPath><g clip-path="url(#clip-939)"><g><clipPath id="clip-940"><path d="M 283.0 69.5 L 494.4 69.5 L 494.4 155.3 L 283.0 155.3 Z M 283.0 69.5 "></path></clipPath><g clip-path="url(#clip-940)"><text xml:space="preserve" font-family="HelveticaNeue" font-size="28.0" fill="#434343" transform="matrix(1.00, 0.00, -0.00, -1.00, 344.0, 102.0)">H</text><text xml:space="preserve" font-family="HelveticaNeue" font-size="28.0" fill="#434343" transform="matrix(1.00, 0.00, -0.00, -1.00, 364.2, 102.0)">i</text><text xml:space="preserve" font-family="HelveticaNeue" font-size="28.0" fill="#434343" transform="matrix(1.00, 0.00, -0.00, -1.00, 370.4, 102.0)">g</text><text xml:space="preserve" font-family="HelveticaNeue" font-size="28.0" fill="#434343" transform="matrix(1.00, 0.00, -0.00, -1.00, 386.5, 102.0)">h</text><text xml:space="preserve" font-family="HelveticaNeue-Bold" font-weight="bold" font-size="28.0" fill="#434343" transform="matrix(1.00, 0.00, -0.00, -1.00, 402.1, 102.0)">(</text><text xml:space="preserve" font-family="HelveticaNeue-Bold" font-weight="bold" font-size="28.0" fill="#434343" transform="matrix(1.00, 0.00, -0.00, -1.00, 410.4, 102.0)">1</text><text xml:space="preserve" font-family="HelveticaNeue-Bold" font-weight="bold" font-size="28.0" fill="#434343" transform="matrix(1.00, 0.00, -0.00, -1.00, 425.9, 102.0)">)</text></g></g></g></g><g><clipPath id="clip-941"><path d="M 44.5 593.5 L 978.5 593.5 L 978.5 68.5 L 44.5 68.5 Z M 44.5 593.5 "></path></clipPath><g clip-path="url(#clip-941)"><g><clipPath id="clip-942"><path d="M 494.4 69.5 L 706.7 69.5 L 706.7 155.3 L 494.4 155.3 Z M 494.4 69.5 "></path></clipPath><g clip-path="url(#clip-942)"><text xml:space="preserve" font-family="HelveticaNeue" font-size="28.0" fill="#434343" transform="matrix(1.00, 0.00, -0.00, -1.00, 555.0, 102.0)">H</text><text xml:space="preserve" font-family="HelveticaNeue" font-size="28.0" fill="#434343" transform="matrix(1.00, 0.00, -0.00, -1.00, 575.2, 102.0)">i</text><text xml:space="preserve" font-family="HelveticaNeue" font-size="28.0" fill="#434343" transform="matrix(1.00, 0.00, -0.00, -1.00, 581.4, 102.0)">g</text><text xml:space="preserve" font-family="HelveticaNeue" font-size="28.0" fill="#434343" transform="matrix(1.00, 0.00, -0.00, -1.00, 597.5, 102.0)">h</text><text xml:space="preserve" font-family="HelveticaNeue-Bold" font-weight="bold" font-size="28.0" fill="#434343" transform="matrix(1.00, 0.00, -0.00, -1.00, 613.1, 102.0)">(</text><text xml:space="preserve" font-family="HelveticaNeue-Bold" font-weight="bold" font-size="28.0" fill="#434343" transform="matrix(1.00, 0.00, -0.00, -1.00, 621.4, 102.0)">3</text><text xml:space="preserve" font-family="HelveticaNeue-Bold" font-weight="bold" font-size="28.0" fill="#434343" transform="matrix(1.00, 0.00, -0.00, -1.00, 636.9, 102.0)">)</text></g></g></g></g><g><clipPath id="clip-943"><path d="M 44.5 593.5 L 978.5 593.5 L 978.5 68.5 L 44.5 68.5 Z M 44.5 593.5 "></path></clipPath><g clip-path="url(#clip-943)"><g><clipPath id="clip-944"><path d="M 706.7 69.5 L 908.7 69.5 L 908.7 155.3 L 706.7 155.3 Z M 706.7 69.5 "></path></clipPath><g clip-path="url(#clip-944)"><text xml:space="preserve" font-family="HelveticaNeue" font-size="28.0" fill="#434343" transform="matrix(1.00, 0.00, -0.00, -1.00, 780.0, 102.0)">M</text><text xml:space="preserve" font-family="HelveticaNeue" font-size="28.0" fill="#434343" transform="matrix(1.00, 0.00, -0.00, -1.00, 804.4, 102.0)">e</text><text xml:space="preserve" font-family="HelveticaNeue" font-size="28.0" fill="#434343" transform="matrix(1.00, 0.00, -0.00, -1.00, 819.4, 102.0)">d</text></g></g></g></g><g><clipPath id="clip-945"><path d="M 44.5 593.5 L 978.5 593.5 L 978.5 68.5 L 44.5 68.5 Z M 44.5 593.5 "></path></clipPath><g clip-path="url(#clip-945)"><g><clipPath id="clip-946"><path d="M 910.7 69.5 L 977.5 69.5 L 977.5 155.3 L 910.7 155.3 Z M 910.7 69.5 "></path></clipPath><g clip-path="url(#clip-946)"><text xml:space="preserve" font-family="HelveticaNeue" font-size="28.0" fill="#434343" transform="matrix(1.00, 0.00, -0.00, -1.00, 925.0, 102.0)">2</text><text xml:space="preserve" font-family="HelveticaNeue" font-size="28.0" fill="#434343" transform="matrix(1.00, 0.00, -0.00, -1.00, 940.6, 102.0)">.</text><text xml:space="preserve" font-family="HelveticaNeue" font-size="28.0" fill="#434343" transform="matrix(1.00, 0.00, -0.00, -1.00, 948.4, 102.0)">3</text></g></g></g></g><g><clipPath id="clip-947"><path d="M 44.5 593.5 L 978.5 593.5 L 978.5 68.5 L 44.5 68.5 Z M 44.5 593.5 "></path></clipPath><g clip-path="url(#clip-947)"><g><clipPath id="clip-948"><path d="M 908.7 68.5 L 910.7 68.5 L 910.7 593.5 L 908.7 593.5 Z M 908.7 68.5 "></path></clipPath><g clip-path="url(#clip-948)"><path d="M 866.7 1.5 L 866.7 526.5 " fill="none" stroke="#C3C5C5" stroke-width="2.00" stroke-dasharray="4.0, 4.0" transform="matrix(1.00, 0.00, 0.00, -1.00, 43.0, 595.0)"></path></g></g></g></g><g><clipPath id="clip-949"><path d="M 44.5 593.5 L 978.5 593.5 L 978.5 68.5 L 44.5 68.5 Z M 44.5 593.5 "></path></clipPath><g clip-path="url(#clip-949)"><path d="M 1.5 176.7 L 239.5 176.7 " fill="none" stroke="#C3C5C5" stroke-width="2.00" transform="matrix(1.00, 0.00, 0.00, -1.00, 43.0, 595.0)"></path><path d="M 239.5 176.7 L 935.5 176.7 " fill="none" stroke="#C3C5C5" stroke-width="2.00" transform="matrix(1.00, 0.00, 0.00, -1.00, 43.0, 595.0)"></path><path d="M 1.5 264.0 L 239.5 264.0 " fill="none" stroke="#C3C5C5" stroke-width="2.00" transform="matrix(1.00, 0.00, 0.00, -1.00, 43.0, 595.0)"></path><path d="M 239.5 264.0 L 935.5 264.0 " fill="none" stroke="#C3C5C5" stroke-width="2.00" transform="matrix(1.00, 0.00, 0.00, -1.00, 43.0, 595.0)"></path><path d="M 1.5 351.3 L 239.5 351.3 " fill="none" stroke="#C3C5C5" stroke-width="2.00" transform="matrix(1.00, 0.00, 0.00, -1.00, 43.0, 595.0)"></path><path d="M 239.5 351.3 L 935.5 351.3 " fill="none" stroke="#C3C5C5" stroke-width="2.00" transform="matrix(1.00, 0.00, 0.00, -1.00, 43.0, 595.0)"></path><path d="M 1.5 438.7 L 239.5 438.7 " fill="none" stroke="#C3C5C5" stroke-width="2.00" transform="matrix(1.00, 0.00, 0.00, -1.00, 43.0, 595.0)"></path><path d="M 239.5 438.7 L 935.5 438.7 " fill="none" stroke="#C3C5C5" stroke-width="2.00" transform="matrix(1.00, 0.00, 0.00, -1.00, 43.0, 595.0)"></path><path d="M 239.5 89.3 L 239.5 526.5 " fill="none" stroke="#C3C5C5" stroke-width="1.00" transform="matrix(1.00, 0.00, 0.00, -1.00, 43.0, 595.0)"></path><path d="M 2.0 1.5 L 2.0 89.3 " fill="none" stroke="#000000" stroke-width="1.00" transform="matrix(1.00, 0.00, 0.00, -1.00, 43.0, 595.0)"></path><path d="M 2.0 89.3 L 2.0 526.5 " fill="none" stroke="#000000" stroke-width="1.00" transform="matrix(1.00, 0.00, 0.00, -1.00, 43.0, 595.0)"></path><path d="M 935.0 1.5 L 935.0 89.3 " fill="none" stroke="#000000" stroke-width="1.00" transform="matrix(1.00, 0.00, 0.00, -1.00, 43.0, 595.0)"></path><path d="M 935.0 89.3 L 935.0 526.5 " fill="none" stroke="#000000" stroke-width="1.00" transform="matrix(1.00, 0.00, 0.00, -1.00, 43.0, 595.0)"></path><path d="M 1.5 2.0 L 935.5 2.0 " fill="none" stroke="#000000" stroke-width="1.00" transform="matrix(1.00, 0.00, 0.00, -1.00, 43.0, 595.0)"></path><path d="M 1.5 526.0 L 239.5 526.0 " fill="none" stroke="#000000" stroke-width="1.00" transform="matrix(1.00, 0.00, 0.00, -1.00, 43.0, 595.0)"></path><path d="M 239.5 526.0 L 935.5 526.0 " fill="none" stroke="#000000" stroke-width="1.00" transform="matrix(1.00, 0.00, 0.00, -1.00, 43.0, 595.0)"></path></g></g><text xml:space="preserve" font-family="HelveticaNeue-Bold" font-weight="bold" font-size="36.0" fill="#FF2600" transform="matrix(1.00, 0.00, -0.00, -1.00, 780.0, 567.0)">0</text><text xml:space="preserve" font-family="HelveticaNeue-Bold" font-weight="bold" font-size="36.0" fill="#FF2600" transform="matrix(1.00, 0.00, -0.00, -1.00, 800.0, 567.0)">.</text><text xml:space="preserve" font-family="HelveticaNeue-Bold" font-weight="bold" font-size="36.0" fill="#FF2600" transform="matrix(1.00, 0.00, -0.00, -1.00, 810.0, 567.0)">5</text><text xml:space="preserve" font-family="HelveticaNeue-Bold" font-weight="bold" font-size="36.0" fill="#FF2600" transform="matrix(1.00, 0.00, -0.00, -1.00, 572.0, 567.0)">0</text><text xml:space="preserve" font-family="HelveticaNeue-Bold" font-weight="bold" font-size="36.0" fill="#FF2600" transform="matrix(1.00, 0.00, -0.00, -1.00, 592.0, 567.0)">.</text><text xml:space="preserve" font-family="HelveticaNeue-Bold" font-weight="bold" font-size="36.0" fill="#FF2600" transform="matrix(1.00, 0.00, -0.00, -1.00, 602.0, 567.0)">4</text><text xml:space="preserve" font-family="HelveticaNeue-Bold" font-weight="bold" font-size="36.0" fill="#FF2600" transform="matrix(1.00, 0.00, -0.00, -1.00, 363.0, 567.0)">0</text><text xml:space="preserve" font-family="HelveticaNeue-Bold" font-weight="bold" font-size="36.0" fill="#FF2600" transform="matrix(1.00, 0.00, -0.00, -1.00, 383.0, 567.0)">.</text><text xml:space="preserve" font-family="HelveticaNeue-Bold" font-weight="bold" font-size="36.0" fill="#FF2600" transform="matrix(1.00, 0.00, -0.00, -1.00, 393.0, 567.0)">1</text></g></svg>