<?xml version="1.0" encoding="UTF-8" standalone="no"?><svg xmlns="http://www.w3.org/2000/svg" xmlns:xlink="http://www.w3.org/1999/xlink" clip-rule="evenodd" stroke-miterlimit="4.00" viewBox="0 0 1024 768"><desc>SVG generated by Keynote</desc><defs></defs><g transform="matrix(1.00, 0.00, -0.00, -1.00, 0.0, 768.0)"><path d="M 0.0 768.0 L 1024.0 768.0 L 1024.0 0.0 L 0.0 0.0 Z M 0.0 768.0 " fill="#FEFFFE"></path><text xml:space="preserve" font-family="HelveticaNeue-Light" font-size="36.0" fill="#000000" transform="matrix(1.00, 0.00, -0.00, -1.00, 62.0, 392.0)">w</text><text xml:space="preserve" font-family="HelveticaNeue-Light" font-size="36.0" fill="#000000" transform="matrix(1.00, 0.00, -0.00, -1.00, 88.7, 392.0)">i</text><text xml:space="preserve" font-family="HelveticaNeue-Light" font-size="36.0" fill="#000000" transform="matrix(1.00, 0.00, -0.00, -1.00, 95.3, 392.0)">t</text><text xml:space="preserve" font-family="HelveticaNeue-Light" font-size="36.0" fill="#000000" transform="matrix(1.00, 0.00, -0.00, -1.00, 106.0, 392.0)">h</text><text xml:space="preserve" font-family="HelveticaNeue-Light" font-size="36.0" fill="#000000" transform="matrix(1.00, 0.00, -0.00, -1.00, 125.3, 392.0)"> </text><text xml:space="preserve" font-family="HelveticaNeue-Light" font-size="36.0" fill="#000000" transform="matrix(1.00, 0.00, -0.00, -1.00, 135.3, 392.0)">b</text><text xml:space="preserve" font-family="HelveticaNeue-Light" font-size="36.0" fill="#000000" transform="matrix(1.00, 0.00, -0.00, -1.00, 156.0, 392.0)">e</text><text xml:space="preserve" font-family="HelveticaNeue-Light" font-size="36.0" fill="#000000" transform="matrix(1.00, 0.00, -0.00, -1.00, 174.7, 392.0)">t</text><text xml:space="preserve" font-family="HelveticaNeue-Light" font-size="36.0" fill="#000000" transform="matrix(1.00, 0.00, -0.00, -1.00, 185.3, 392.0)">t</text><text xml:space="preserve" font-family="HelveticaNeue-Light" font-size="36.0" fill="#000000" transform="matrix(1.00, 0.00, -0.00, -1.00, 196.0, 392.0)">e</text><text xml:space="preserve" font-family="HelveticaNeue-Light" font-size="36.0" fill="#000000" transform="matrix(1.00, 0.00, -0.00, -1.00, 214.7, 392.0)">r</text><text xml:space="preserve" font-family="HelveticaNeue-Light" font-size="36.0" fill="#000000" transform="matrix(1.00, 0.00, -0.00, -1.00, 226.0, 392.0)"> </text><text xml:space="preserve" font-family="HelveticaNeue-Light" font-size="36.0" fill="#000000" transform="matrix(1.00, 0.00, -0.00, -1.00, 236.0, 392.0)">s</text><text xml:space="preserve" font-family="HelveticaNeue-Light" font-size="36.0" fill="#000000" transform="matrix(1.00, 0.00, -0.00, -1.00, 253.3, 392.0)">u</text><text xml:space="preserve" font-family="HelveticaNeue-Light" font-size="36.0" fill="#000000" transform="matrix(1.00, 0.00, -0.00, -1.00, 272.7, 392.0)">p</text><text xml:space="preserve" font-family="HelveticaNeue-Light" font-size="36.0" fill="#000000" transform="matrix(1.00, 0.00, -0.00, -1.00, 293.3, 392.0)">p</text><text xml:space="preserve" font-family="HelveticaNeue-Light" font-size="36.0" fill="#000000" transform="matrix(1.00, 0.00, -0.00, -1.00, 314.0, 392.0)">o</text><text xml:space="preserve" font-family="HelveticaNeue-Light" font-size="36.0" fill="#000000" transform="matrix(1.00, 0.00, -0.00, -1.00, 334.0, 392.0)">r</text><text xml:space="preserve" font-family="HelveticaNeue-Light" font-size="36.0" fill="#000000" transform="matrix(1.00, 0.00, -0.00, -1.00, 345.4, 392.0)">t</text><text xml:space="preserve" font-family="HelveticaNeue-Light" font-size="36.0" fill="#000000" transform="matrix(1.00, 0.00, -0.00, -1.00, 356.0, 392.0)"> </text><text xml:space="preserve" font-family="HelveticaNeue-Light" font-size="36.0" fill="#000000" transform="matrix(1.00, 0.00, -0.00, -1.00, 366.0, 392.0)">o</text><text xml:space="preserve" font-family="HelveticaNeue-Light" font-size="36.0" fill="#000000" transform="matrix(1.00, 0.00, -0.00, -1.00, 386.0, 392.0)">f</text><text xml:space="preserve" font-family="HelveticaNeue-Light" font-size="36.0" fill="#000000" transform="matrix(1.00, 0.00, -0.00, -1.00, 395.4, 392.0)"> </text><text xml:space="preserve" font-family="HelveticaNeue-Light" font-size="36.0" fill="#000000" transform="matrix(1.00, 0.00, -0.00, -1.00, 405.4, 392.0)">d</text><text xml:space="preserve" font-family="HelveticaNeue-Light" font-size="36.0" fill="#000000" transform="matrix(1.00, 0.00, -0.00, -1.00, 426.0, 392.0)">e</text><text xml:space="preserve" font-family="HelveticaNeue-Light" font-size="36.0" fill="#000000" transform="matrix(1.00, 0.00, -0.00, -1.00, 444.7, 392.0)">c</text><text xml:space="preserve" font-family="HelveticaNeue-Light" font-size="36.0" fill="#000000" transform="matrix(1.00, 0.00, -0.00, -1.00, 463.4, 392.0)">i</text><text xml:space="preserve" font-family="HelveticaNeue-Light" font-size="36.0" fill="#000000" transform="matrix(1.00, 0.00, -0.00, -1.00, 470.1, 392.0)">s</text><text xml:space="preserve" font-family="HelveticaNeue-Light" font-size="36.0" fill="#000000" transform="matrix(1.00, 0.00, -0.00, -1.00, 487.4, 392.0)">i</text><text xml:space="preserve" font-family="HelveticaNeue-Light" font-size="36.0" fill="#000000" transform="matrix(1.00, 0.00, -0.00, -1.00, 494.0, 392.0)">o</text><text xml:space="preserve" font-family="HelveticaNeue-Light" font-size="36.0" fill="#000000" transform="matrix(1.00, 0.00, -0.00, -1.00, 514.1, 392.0)">n</text><text xml:space="preserve" font-family="HelveticaNeue-Light" font-size="36.0" fill="#000000" transform="matrix(1.00, 0.00, -0.00, -1.00, 533.4, 392.0)"> </text><text xml:space="preserve" font-family="HelveticaNeue-Light" font-size="36.0" fill="#000000" transform="matrix(1.00, 0.00, -0.00, -1.00, 543.4, 392.0)">m</text><text xml:space="preserve" font-family="HelveticaNeue-Light" font-size="36.0" fill="#000000" transform="matrix(1.00, 0.00, -0.00, -1.00, 573.4, 392.0)">a</text><text xml:space="preserve" font-family="HelveticaNeue-Light" font-size="36.0" fill="#000000" transform="matrix(1.00, 0.00, -0.00, -1.00, 592.1, 392.0)">k</text><text xml:space="preserve" font-family="HelveticaNeue-Light" font-size="36.0" fill="#000000" transform="matrix(1.00, 0.00, -0.00, -1.00, 610.1, 392.0)">i</text><text xml:space="preserve" font-family="HelveticaNeue-Light" font-size="36.0" fill="#000000" transform="matrix(1.00, 0.00, -0.00, -1.00, 616.7, 392.0)">n</text><text xml:space="preserve" font-family="HelveticaNeue-Light" font-size="36.0" fill="#000000" transform="matrix(1.00, 0.00, -0.00, -1.00, 636.1, 392.0)">g</text><text xml:space="preserve" font-family="HelveticaNeue-Light" font-size="36.0" fill="#000000" transform="matrix(1.00, 0.00, -0.00, -1.00, 656.1, 392.0)"> </text><text xml:space="preserve" font-family="HelveticaNeue-Light" font-size="36.0" fill="#000000" transform="matrix(1.00, 0.00, -0.00, -1.00, 666.1, 392.0)">h</text><text xml:space="preserve" font-family="HelveticaNeue-Light" font-size="36.0" fill="#000000" transform="matrix(1.00, 0.00, -0.00, -1.00, 685.4, 392.0)">e</text><text xml:space="preserve" font-family="HelveticaNeue-Light" font-size="36.0" fill="#000000" transform="matrix(1.00, 0.00, -0.00, -1.00, 704.1, 392.0)">u</text><text xml:space="preserve" font-family="HelveticaNeue-Light" font-size="36.0" fill="#000000" transform="matrix(1.00, 0.00, -0.00, -1.00, 723.4, 392.0)">r</text><text xml:space="preserve" font-family="HelveticaNeue-Light" font-size="36.0" fill="#000000" transform="matrix(1.00, 0.00, -0.00, -1.00, 734.8, 392.0)">i</text><text xml:space="preserve" font-family="HelveticaNeue-Light" font-size="36.0" fill="#000000" transform="matrix(1.00, 0.00, -0.00, -1.00, 741.4, 392.0)">s</text><text xml:space="preserve" font-family="HelveticaNeue-Light" font-size="36.0" fill="#000000" transform="matrix(1.00, 0.00, -0.00, -1.00, 758.7, 392.0)">t</text><text xml:space="preserve" font-family="HelveticaNeue-Light" font-size="36.0" fill="#000000" transform="matrix(1.00, 0.00, -0.00, -1.00, 769.4, 392.0)">i</text><text xml:space="preserve" font-family="HelveticaNeue-Light" font-size="36.0" fill="#000000" transform="matrix(1.00, 0.00, -0.00, -1.00, 776.1, 392.0)">c</text><text xml:space="preserve" font-family="HelveticaNeue-Light" font-size="36.0" fill="#000000" transform="matrix(1.00, 0.00, -0.00, -1.00, 794.7, 392.0)">s</text><text xml:space="preserve" font-family="HelveticaNeue-Light" font-size="36.0" fill="#000000" transform="matrix(1.00, 0.00, -0.00, -1.00, 812.1, 392.0)"> </text><text xml:space="preserve" font-family="HelveticaNeue-Light" font-size="36.0" fill="#000000" transform="matrix(1.00, 0.00, -0.00, -1.00, 822.1, 392.0)">w</text><text xml:space="preserve" font-family="HelveticaNeue-Light" font-size="36.0" fill="#000000" transform="matrix(1.00, 0.00, -0.00, -1.00, 848.7, 392.0)">e</text><text xml:space="preserve" font-family="HelveticaNeue-Light" font-size="36.0" fill="#000000" transform="matrix(1.00, 0.00, -0.00, -1.00, 867.4, 392.0)"> </text><text xml:space="preserve" font-family="HelveticaNeue-Light" font-size="36.0" fill="#000000" transform="matrix(1.00, 0.00, -0.00, -1.00, 877.4, 392.0)">c</text><text xml:space="preserve" font-family="HelveticaNeue-Light" font-size="36.0" fill="#000000" transform="matrix(1.00, 0.00, -0.00, -1.00, 896.1, 392.0)">o</text><text xml:space="preserve" font-family="HelveticaNeue-Light" font-size="36.0" fill="#000000" transform="matrix(1.00, 0.00, -0.00, -1.00, 916.1, 392.0)">u</text><text xml:space="preserve" font-family="HelveticaNeue-Light" font-size="36.0" fill="#000000" transform="matrix(1.00, 0.00, -0.00, -1.00, 935.5, 392.0)">l</text><text xml:space="preserve" font-family="HelveticaNeue-Light" font-size="36.0" fill="#000000" transform="matrix(1.00, 0.00, -0.00, -1.00, 942.1, 392.0)">d</text><text xml:space="preserve" font-family="HelveticaNeue-Light" font-size="36.0" fill="#000000" transform="matrix(1.00, 0.00, -0.00, -1.00, 962.8, 392.0)"> </text><text xml:space="preserve" font-family="HelveticaNeue-Light" font-size="36.0" fill="#000000" transform="matrix(1.00, 0.00, -0.00, -1.00, 271.0, 348.0)">d</text><text xml:space="preserve" font-family="HelveticaNeue-Light" font-size="36.0" fill="#000000" transform="matrix(1.00, 0.00, -0.00, -1.00, 291.7, 348.0)">e</text><text xml:space="preserve" font-family="HelveticaNeue-Light" font-size="36.0" fill="#000000" transform="matrix(1.00, 0.00, -0.00, -1.00, 310.3, 348.0)">s</text><text xml:space="preserve" font-family="HelveticaNeue-Light" font-size="36.0" fill="#000000" transform="matrix(1.00, 0.00, -0.00, -1.00, 327.7, 348.0)">i</text><text xml:space="preserve" font-family="HelveticaNeue-Light" font-size="36.0" fill="#000000" transform="matrix(1.00, 0.00, -0.00, -1.00, 334.3, 348.0)">g</text><text xml:space="preserve" font-family="HelveticaNeue-Light" font-size="36.0" fill="#000000" transform="matrix(1.00, 0.00, -0.00, -1.00, 354.3, 348.0)">n</text><text xml:space="preserve" font-family="HelveticaNeue-Light" font-size="36.0" fill="#000000" transform="matrix(1.00, 0.00, -0.00, -1.00, 373.7, 348.0)"> </text><text xml:space="preserve" font-family="HelveticaNeue-Light" font-size="36.0" fill="#000000" transform="matrix(1.00, 0.00, -0.00, -1.00, 383.7, 348.0)">b</text><text xml:space="preserve" font-family="HelveticaNeue-Light" font-size="36.0" fill="#000000" transform="matrix(1.00, 0.00, -0.00, -1.00, 404.3, 348.0)">e</text><text xml:space="preserve" font-family="HelveticaNeue-Light" font-size="36.0" fill="#000000" transform="matrix(1.00, 0.00, -0.00, -1.00, 423.0, 348.0)">t</text><text xml:space="preserve" font-family="HelveticaNeue-Light" font-size="36.0" fill="#000000" transform="matrix(1.00, 0.00, -0.00, -1.00, 433.7, 348.0)">t</text><text xml:space="preserve" font-family="HelveticaNeue-Light" font-size="36.0" fill="#000000" transform="matrix(1.00, 0.00, -0.00, -1.00, 444.3, 348.0)">e</text><text xml:space="preserve" font-family="HelveticaNeue-Light" font-size="36.0" fill="#000000" transform="matrix(1.00, 0.00, -0.00, -1.00, 463.0, 348.0)">r</text><text xml:space="preserve" font-family="HelveticaNeue-Light" font-size="36.0" fill="#000000" transform="matrix(1.00, 0.00, -0.00, -1.00, 474.4, 348.0)"> </text><text xml:space="preserve" font-family="HelveticaNeue-Light" font-size="36.0" fill="#000000" transform="matrix(1.00, 0.00, -0.00, -1.00, 484.4, 348.0)">v</text><text xml:space="preserve" font-family="HelveticaNeue-Light" font-size="36.0" fill="#000000" transform="matrix(1.00, 0.00, -0.00, -1.00, 501.0, 348.0)">i</text><text xml:space="preserve" font-family="HelveticaNeue-Light" font-size="36.0" fill="#000000" transform="matrix(1.00, 0.00, -0.00, -1.00, 507.7, 348.0)">s</text><text xml:space="preserve" font-family="HelveticaNeue-Light" font-size="36.0" fill="#000000" transform="matrix(1.00, 0.00, -0.00, -1.00, 525.0, 348.0)">u</text><text xml:space="preserve" font-family="HelveticaNeue-Light" font-size="36.0" fill="#000000" transform="matrix(1.00, 0.00, -0.00, -1.00, 544.3, 348.0)">a</text><text xml:space="preserve" font-family="HelveticaNeue-Light" font-size="36.0" fill="#000000" transform="matrix(1.00, 0.00, -0.00, -1.00, 563.0, 348.0)">l</text><text xml:space="preserve" font-family="HelveticaNeue-Light" font-size="36.0" fill="#000000" transform="matrix(1.00, 0.00, -0.00, -1.00, 569.7, 348.0)">i</text><text xml:space="preserve" font-family="HelveticaNeue-Light" font-size="36.0" fill="#000000" transform="matrix(1.00, 0.00, -0.00, -1.00, 576.4, 348.0)">z</text><text xml:space="preserve" font-family="HelveticaNeue-Light" font-size="36.0" fill="#000000" transform="matrix(1.00, 0.00, -0.00, -1.00, 593.0, 348.0)">a</text><text xml:space="preserve" font-family="HelveticaNeue-Light" font-size="36.0" fill="#000000" transform="matrix(1.00, 0.00, -0.00, -1.00, 611.7, 348.0)">t</text><text xml:space="preserve" font-family="HelveticaNeue-Light" font-size="36.0" fill="#000000" transform="matrix(1.00, 0.00, -0.00, -1.00, 622.4, 348.0)">i</text><text xml:space="preserve" font-family="HelveticaNeue-Light" font-size="36.0" fill="#000000" transform="matrix(1.00, 0.00, -0.00, -1.00, 629.0, 348.0)">o</text><text xml:space="preserve" font-family="HelveticaNeue-Light" font-size="36.0" fill="#000000" transform="matrix(1.00, 0.00, -0.00, -1.00, 649.0, 348.0)">n</text><text xml:space="preserve" font-family="HelveticaNeue-Light" font-size="36.0" fill="#000000" transform="matrix(1.00, 0.00, -0.00, -1.00, 668.4, 348.0)"> </text><text xml:space="preserve" font-family="HelveticaNeue-Light" font-size="36.0" fill="#000000" transform="matrix(1.00, 0.00, -0.00, -1.00, 678.4, 348.0)">t</text><text xml:space="preserve" font-family="HelveticaNeue-Light" font-size="36.0" fill="#000000" transform="matrix(1.00, 0.00, -0.00, -1.00, 689.0, 348.0)">o</text><text xml:space="preserve" font-family="HelveticaNeue-Light" font-size="36.0" fill="#000000" transform="matrix(1.00, 0.00, -0.00, -1.00, 709.0, 348.0)">o</text><text xml:space="preserve" font-family="HelveticaNeue-Light" font-size="36.0" fill="#000000" transform="matrix(1.00, 0.00, -0.00, -1.00, 729.1, 348.0)">l</text><text xml:space="preserve" font-family="HelveticaNeue-Light" font-size="36.0" fill="#000000" transform="matrix(1.00, 0.00, -0.00, -1.00, 735.7, 348.0)">s</text><text xml:space="preserve" font-family="HelveticaNeue" font-size="14.0" fill="#000000" transform="matrix(1.00, 0.00, -0.00, -1.00, 971.0, 27.4)">4</text><text xml:space="preserve" font-family="HelveticaNeue" font-size="14.0" fill="#000000" transform="matrix(1.00, 0.00, -0.00, -1.00, 978.8, 27.4)">1</text></g></svg>