<?xml version="1.0" encoding="UTF-8" standalone="no"?><svg xmlns="http://www.w3.org/2000/svg" xmlns:xlink="http://www.w3.org/1999/xlink" clip-rule="evenodd" stroke-miterlimit="4.00" viewBox="0 0 1024 768"><desc>SVG generated by Keynote</desc><defs></defs><g transform="matrix(1.00, 0.00, -0.00, -1.00, 0.0, 768.0)"><path d="M 0.0 768.0 L 1024.0 768.0 L 1024.0 0.0 L 0.0 0.0 Z M 0.0 768.0 " fill="#FEFFFE"></path><path d="M 0.0 0.0 L 934.5 0.0 " fill="none" stroke="#9A9A9A" stroke-width="1.00" transform="matrix(1.00, 0.00, 0.00, -1.00, 45.0, 613.0)"></path><text xml:space="preserve" font-family="HelveticaNeue-Light" font-size="42.0" fill="#000000" transform="matrix(1.00, 0.00, -0.00, -1.00, 49.0, 645.0)">T</text><text xml:space="preserve" font-family="HelveticaNeue-Light" font-size="42.0" fill="#000000" transform="matrix(1.00, 0.00, -0.00, -1.00, 68.5, 645.0)">u</text><text xml:space="preserve" font-family="HelveticaNeue-Light" font-size="42.0" fill="#000000" transform="matrix(1.00, 0.00, -0.00, -1.00, 91.0, 645.0)">n</text><text xml:space="preserve" font-family="HelveticaNeue-Light" font-size="42.0" fill="#000000" transform="matrix(1.00, 0.00, -0.00, -1.00, 113.6, 645.0)">e</text><text xml:space="preserve" font-family="HelveticaNeue-Light" font-size="42.0" fill="#000000" transform="matrix(1.00, 0.00, -0.00, -1.00, 135.4, 645.0)">r</text><text xml:space="preserve" font-family="HelveticaNeue-Light" font-size="42.0" fill="#000000" transform="matrix(1.00, 0.00, -0.00, -1.00, 148.6, 645.0)">:</text><text xml:space="preserve" font-family="HelveticaNeue-Light" font-size="42.0" fill="#000000" transform="matrix(1.00, 0.00, -0.00, -1.00, 160.3, 645.0)"> </text><text xml:space="preserve" font-family="HelveticaNeue-Light" font-size="42.0" fill="#000000" transform="matrix(1.00, 0.00, -0.00, -1.00, 172.0, 645.0)">l</text><text xml:space="preserve" font-family="HelveticaNeue-Light" font-size="42.0" fill="#000000" transform="matrix(1.00, 0.00, -0.00, -1.00, 179.7, 645.0)">e</text><text xml:space="preserve" font-family="HelveticaNeue-Light" font-size="42.0" fill="#000000" transform="matrix(1.00, 0.00, -0.00, -1.00, 201.5, 645.0)">x</text><text xml:space="preserve" font-family="HelveticaNeue-Light" font-size="42.0" fill="#000000" transform="matrix(1.00, 0.00, -0.00, -1.00, 221.7, 645.0)">i</text><text xml:space="preserve" font-family="HelveticaNeue-Light" font-size="42.0" fill="#000000" transform="matrix(1.00, 0.00, -0.00, -1.00, 229.5, 645.0)">c</text><text xml:space="preserve" font-family="HelveticaNeue-Light" font-size="42.0" fill="#000000" transform="matrix(1.00, 0.00, -0.00, -1.00, 251.3, 645.0)">o</text><text xml:space="preserve" font-family="HelveticaNeue-Light" font-size="42.0" fill="#000000" transform="matrix(1.00, 0.00, -0.00, -1.00, 274.7, 645.0)">g</text><text xml:space="preserve" font-family="HelveticaNeue-Light" font-size="42.0" fill="#000000" transform="matrix(1.00, 0.00, -0.00, -1.00, 298.0, 645.0)">r</text><text xml:space="preserve" font-family="HelveticaNeue-Light" font-size="42.0" fill="#000000" transform="matrix(1.00, 0.00, -0.00, -1.00, 311.2, 645.0)">a</text><text xml:space="preserve" font-family="HelveticaNeue-Light" font-size="42.0" fill="#000000" transform="matrix(1.00, 0.00, -0.00, -1.00, 333.0, 645.0)">p</text><text xml:space="preserve" font-family="HelveticaNeue-Light" font-size="42.0" fill="#000000" transform="matrix(1.00, 0.00, -0.00, -1.00, 357.2, 645.0)">h</text><text xml:space="preserve" font-family="HelveticaNeue-Light" font-size="42.0" fill="#000000" transform="matrix(1.00, 0.00, -0.00, -1.00, 379.7, 645.0)">i</text><text xml:space="preserve" font-family="HelveticaNeue-Light" font-size="42.0" fill="#000000" transform="matrix(1.00, 0.00, -0.00, -1.00, 387.5, 645.0)">c</text><text xml:space="preserve" font-family="HelveticaNeue" font-size="14.0" fill="#000000" transform="matrix(1.00, 0.00, -0.00, -1.00, 971.0, 27.4)">3</text><text xml:space="preserve" font-family="HelveticaNeue" font-size="14.0" fill="#000000" transform="matrix(1.00, 0.00, -0.00, -1.00, 978.8, 27.4)">1</text><g><clipPath id="clip-1918"><path d="M 23.0 547.0 C 23.0 547.0 418.2 547.0 418.2 547.0 C 418.2 547.0 418.2 151.3 418.2 151.3 C 418.2 151.3 23.0 151.3 23.0 151.3 C 23.0 151.3 23.0 547.0 23.0 547.0 Z M 23.0 547.0 "></path></clipPath><g clip-path="url(#clip-1918)"><g><clipPath id="clip-1919"><path d="M 23.0 113.0 L 1001.0 113.0 L 1001.0 547.0 L 23.0 547.0 Z M 23.0 113.0 "></path></clipPath><g clip-path="url(#clip-1919)"><image xlink:href="../../4F3FD1A9-5EB3-4333-B656-E6A17CA1B824/assets/CFABE2CF96301AB4403B160092FCBC9E.jpeg" width="386.00" height="386.00" transform="matrix(1.02, 0.00, -0.00, -1.03, 23.0, 547.0)"></image></g></g></g></g><g><clipPath id="clip-1920"><path d="M 430.5 547.0 C 430.5 547.0 1001.0 547.0 1001.0 547.0 C 1001.0 547.0 1001.0 113.0 1001.0 113.0 C 1001.0 113.0 430.5 113.0 430.5 113.0 C 430.5 113.0 430.5 547.0 430.5 547.0 Z M 430.5 547.0 "></path></clipPath><g clip-path="url(#clip-1920)"><g><clipPath id="clip-1921"><path d="M 23.0 113.0 L 1001.0 113.0 L 1001.0 547.0 L 23.0 547.0 Z M 23.0 113.0 "></path></clipPath><g clip-path="url(#clip-1921)"><image xlink:href="../../4F3FD1A9-5EB3-4333-B656-E6A17CA1B824/assets/447806A66BBF19A2166BD5637220F613.jpeg" width="986.00" height="746.00" transform="matrix(0.58, 0.00, -0.00, -0.58, 430.5, 547.0)"></image></g></g></g></g><g><clipPath id="clip-1922"><path d="M 23.0 113.0 L 1001.0 113.0 L 1001.0 547.0 L 23.0 547.0 Z M 23.0 113.0 "></path></clipPath><g clip-path="url(#clip-1922)"><image xlink:href="../../4F3FD1A9-5EB3-4333-B656-E6A17CA1B824/assets/CC998998D0328BC8006BB075A321B325.png" width="138.00" height="28.00" transform="matrix(1.23, 0.00, -0.00, -1.24, 229.2, 147.6)"></image><text xml:space="preserve" font-family="ArialMT" font-size="12.0" fill="#000000" transform="matrix(1.23, 0.00, -0.00, -1.24, 239.8, 124.8)">E</text><text xml:space="preserve" font-family="ArialMT" font-size="12.0" fill="#000000" transform="matrix(1.23, 0.00, -0.00, -1.24, 249.7, 124.8)">r</text><text xml:space="preserve" font-family="ArialMT" font-size="12.0" fill="#000000" transform="matrix(1.23, 0.00, -0.00, -1.24, 254.6, 124.8)">r</text><text xml:space="preserve" font-family="ArialMT" font-size="12.0" fill="#000000" transform="matrix(1.23, 0.00, -0.00, -1.24, 259.5, 124.8)">o</text><text xml:space="preserve" font-family="ArialMT" font-size="12.0" fill="#000000" transform="matrix(1.23, 0.00, -0.00, -1.24, 267.8, 124.8)">r</text><text xml:space="preserve" font-family="ArialMT" font-size="12.0" fill="#000000" transform="matrix(1.23, 0.00, -0.00, -1.24, 272.7, 124.8)">6</text><image xlink:href="../../4F3FD1A9-5EB3-4333-B656-E6A17CA1B824/assets/CC998998D0328BC8006BB075A321B325.png" width="138.00" height="28.00" transform="matrix(1.23, 0.00, -0.00, -1.24, 42.8, 147.6)"></image><text xml:space="preserve" font-family="ArialMT" font-size="12.0" fill="#000000" transform="matrix(1.23, 0.00, -0.00, -1.24, 55.3, 124.8)">d</text><text xml:space="preserve" font-family="ArialMT" font-size="12.0" fill="#000000" transform="matrix(1.23, 0.00, -0.00, -1.24, 63.6, 124.8)">i</text><text xml:space="preserve" font-family="ArialMT" font-size="12.0" fill="#000000" transform="matrix(1.23, 0.00, -0.00, -1.24, 66.9, 124.8)">c</text><text xml:space="preserve" font-family="ArialMT" font-size="12.0" fill="#000000" transform="matrix(1.23, 0.00, -0.00, -1.24, 74.3, 124.8)">e</text><text xml:space="preserve" font-family="ArialMT" font-size="12.0" fill="#000000" transform="matrix(1.23, 0.00, -0.00, -1.24, 82.5, 124.8)">6</text></g></g><path d="M 75.3 155.6 C 74.7 156.0 73.3 155.5 72.9 155.8 M 75.3 155.6 C 73.9 153.4 71.2 153.3 67.7 152.9 C 63.9 152.8 67.8 154.9 67.4 155.8 C 62.4 156.7 62.4 155.1 63.1 152.7 C 61.2 154.4 55.5 151.5 56.7 154.5 C 64.7 154.5 51.1 155.2 57.8 156.9 C 58.5 157.3 56.5 158.1 55.8 158.1 C 58.0 159.4 54.2 160.8 57.8 161.7 C 58.3 163.6 57.6 162.7 59.9 164.2 C 60.9 164.4 60.5 163.8 60.4 163.3 C 60.8 161.1 63.2 164.5 65.0 163.2 C 66.7 166.1 68.5 162.7 67.0 161.5 C 68.7 161.8 70.7 164.8 72.4 162.7 C 73.4 164.2 77.9 163.2 75.2 161.4 C 73.2 160.3 75.4 159.4 75.7 158.7 C 75.1 158.1 72.2 159.0 71.9 158.5 C 72.7 158.0 76.3 157.0 72.5 157.1 C 73.7 156.1 71.8 155.5 75.3 155.6 C 75.3 155.6 75.3 155.6 75.3 155.6 Z M 61.7 154.0 C 61.7 153.2 63.0 154.0 61.7 154.0 C 61.7 154.0 61.7 154.0 61.7 154.0 Z M 71.0 164.2 C 70.9 163.4 72.2 164.2 71.0 164.2 C 71.0 164.2 71.0 164.2 71.0 164.2 Z M 61.0 163.4 C 61.0 162.6 62.3 163.4 61.0 163.4 C 61.0 163.4 61.0 163.4 61.0 163.4 Z M 65.3 154.5 C 67.4 155.1 63.5 155.6 63.2 154.8 C 63.6 155.0 64.7 153.9 65.3 154.5 C 65.3 154.5 65.3 154.5 65.3 154.5 Z M 65.6 158.9 C 65.7 158.6 66.6 158.5 66.5 159.3 C 65.9 159.5 65.4 159.2 65.6 158.9 C 65.6 158.9 65.6 158.9 65.6 158.9 Z M 55.0 155.8 C 55.1 155.5 56.0 155.4 55.9 156.2 C 55.4 156.4 54.8 156.0 55.0 155.8 C 55.0 155.8 55.0 155.8 55.0 155.8 Z M 67.7 156.5 C 68.2 156.6 68.4 157.3 67.8 157.4 C 67.5 157.1 66.0 157.0 67.7 156.5 C 67.7 156.5 67.7 156.5 67.7 156.5 Z M 71.0 154.0 C 72.8 154.4 69.2 155.5 69.2 155.2 C 68.7 154.6 70.0 153.4 71.0 154.0 C 71.0 154.0 71.0 154.0 71.0 154.0 Z M 68.7 157.6 C 70.2 157.9 68.1 158.1 68.7 157.6 C 68.7 157.6 68.7 157.6 68.7 157.6 Z M 56.4 161.4 C 57.9 161.8 55.8 162.0 56.4 161.4 C 56.4 161.4 56.4 161.4 56.4 161.4 Z M 64.2 163.8 C 65.7 164.1 63.6 164.3 64.2 163.8 C 64.2 163.8 64.2 163.8 64.2 163.8 Z M 61.3 156.0 C 58.7 156.0 61.0 154.1 61.3 156.0 C 61.3 156.0 61.3 156.0 61.3 156.0 Z M 75.2 153.8 C 72.6 153.7 74.8 151.9 75.2 153.8 C 75.2 153.8 75.2 153.8 75.2 153.8 Z M 50.4 154.5 C 51.6 154.3 49.7 153.5 48.6 153.2 C 47.4 152.8 46.5 152.7 47.5 154.4 C 48.0 156.9 43.8 155.8 45.4 153.9 C 44.4 153.3 44.7 153.2 43.5 153.8 C 44.4 152.2 43.7 150.2 42.5 149.9 C 40.9 150.1 43.1 151.7 40.9 150.9 C 38.8 147.7 39.4 152.1 36.9 151.0 C 36.9 150.8 37.8 150.5 37.2 150.2 C 36.2 150.4 35.6 151.2 35.1 151.9 C 34.5 152.7 34.2 153.8 33.2 153.1 C 33.9 154.1 35.3 159.9 35.2 157.0 C 35.7 156.2 36.1 157.7 37.0 159.1 C 37.9 160.4 39.2 161.5 39.8 160.1 C 40.5 162.2 43.1 161.2 44.0 163.1 C 45.0 163.7 45.3 162.1 45.2 161.7 C 45.3 160.3 46.0 165.0 47.8 162.7 C 47.9 163.4 52.7 163.3 49.2 162.1 C 50.2 162.4 56.7 163.1 53.1 160.4 C 48.5 159.2 57.7 157.7 52.5 157.5 C 48.5 157.3 48.2 157.7 50.8 156.4 C 51.6 156.6 56.1 156.3 52.3 155.1 C 51.5 155.5 49.9 155.2 50.4 154.5 C 50.4 154.5 50.4 154.5 50.4 154.5 Z M 51.0 158.4 C 48.9 158.4 50.8 157.3 51.0 158.4 C 51.0 158.4 51.0 158.4 51.0 158.4 Z M 43.6 163.6 C 41.7 163.3 43.7 162.6 43.6 163.6 C 43.6 163.6 43.6 163.6 43.6 163.6 Z M 46.3 153.4 C 45.6 154.1 46.1 151.3 46.3 153.4 C 46.3 153.4 46.3 153.4 46.3 153.4 Z M 47.1 162.0 C 47.0 162.0 47.5 161.7 47.8 161.5 C 47.7 161.7 47.3 162.0 47.1 162.0 C 47.1 162.0 47.1 162.0 47.1 162.0 Z M 44.8 152.9 C 42.9 153.4 45.6 150.9 44.8 152.9 C 44.8 152.9 44.8 152.9 44.8 152.9 Z M 40.4 152.3 C 38.0 153.6 39.7 150.1 40.4 152.3 C 40.4 152.3 40.4 152.3 40.4 152.3 Z M 38.9 159.3 C 39.8 159.2 39.2 160.0 38.9 159.3 C 38.9 159.3 38.9 159.3 38.9 159.3 Z M 51.8 162.8 C 52.4 162.3 52.4 163.2 51.8 162.8 C 51.8 162.8 51.8 162.8 51.8 162.8 Z M 35.9 155.9 C 36.9 155.6 36.3 157.3 35.9 155.9 C 35.9 155.9 35.9 155.9 35.9 155.9 Z M 45.7 154.4 C 47.7 152.7 46.7 158.0 45.7 154.4 C 45.7 154.4 45.7 154.4 45.7 154.4 Z M 48.7 154.6 C 50.2 154.2 48.4 156.0 47.8 155.6 C 47.9 155.4 48.5 154.7 48.7 154.6 C 48.7 154.6 48.7 154.6 48.7 154.6 Z M 44.2 154.1 C 45.7 153.7 44.8 155.1 44.2 154.1 C 44.2 154.1 44.2 154.1 44.2 154.1 Z M 46.9 153.7 C 47.4 154.0 46.4 153.9 46.9 153.7 C 46.9 153.7 46.9 153.7 46.9 153.7 Z M 44.0 151.1 C 44.1 151.6 43.6 151.1 44.0 151.1 C 44.0 151.1 44.0 151.1 44.0 151.1 Z M 50.7 153.6 C 51.6 153.8 50.0 153.8 50.7 153.6 C 50.7 153.6 50.7 153.6 50.7 153.6 Z M 43.3 152.4 C 42.5 153.0 41.7 155.8 41.4 152.2 C 41.6 151.4 43.3 151.4 43.3 152.4 C 43.3 152.4 43.3 152.4 43.3 152.4 Z M 83.0 155.7 C 72.0 152.7 74.6 158.0 74.1 159.0 C 72.6 160.5 74.1 161.4 76.3 162.4 C 78.6 165.8 79.8 158.9 81.4 162.3 C 84.4 166.8 84.8 158.3 86.1 163.1 C 85.6 164.4 89.9 163.4 89.5 163.1 C 91.7 165.3 94.7 161.3 94.8 160.9 C 96.2 161.5 96.3 165.8 100.8 162.6 C 104.2 161.4 105.8 165.7 104.8 162.7 C 107.3 166.0 106.6 161.8 109.1 162.9 C 110.8 164.7 109.1 160.1 112.3 163.6 C 113.7 160.8 110.8 165.4 119.3 163.4 C 115.3 163.2 123.3 161.2 121.7 163.1 C 118.8 165.0 125.7 162.3 129.6 163.5 C 130.6 162.5 135.3 160.0 134.5 162.7 C 138.5 165.9 138.6 160.8 140.3 163.4 C 141.6 164.5 142.1 162.2 143.0 162.4 C 144.4 164.3 145.7 163.0 150.7 163.6 C 161.6 164.5 152.3 158.5 156.5 157.9 C 157.1 157.0 151.1 150.5 153.5 155.4 C 152.7 154.0 143.8 159.0 148.3 153.7 C 144.9 155.8 149.0 151.5 142.2 154.1 C 151.5 157.8 131.6 155.6 140.5 153.8 C 139.0 152.7 135.3 152.9 138.0 153.8 C 139.0 157.2 131.6 152.2 135.3 156.4 C 129.6 155.2 131.1 158.9 129.5 156.3 C 128.1 151.9 129.8 157.5 126.8 156.2 C 120.1 156.2 125.3 151.1 121.2 154.4 C 114.6 152.2 119.8 156.4 117.5 156.9 C 116.8 160.0 110.7 154.6 115.8 154.2 C 113.1 155.8 115.3 152.7 112.3 154.6 C 114.5 157.5 108.3 151.6 109.3 153.9 C 106.6 154.6 107.9 156.3 107.1 156.4 C 103.1 156.4 104.3 153.6 103.5 155.7 C 102.6 156.9 100.7 153.2 100.1 154.1 C 104.3 154.2 96.7 157.1 96.3 155.6 C 98.8 155.4 95.0 151.8 93.4 154.1 C 95.4 160.3 89.8 152.5 87.9 154.7 C 89.7 158.1 78.8 155.1 82.9 153.5 C 82.7 153.8 83.1 155.7 83.0 155.7 M 98.9 154.6 C 102.4 154.9 95.3 155.3 98.9 154.6 M 98.8 153.7 C 100.3 154.8 95.6 152.8 99.0 153.3 C 99.0 153.3 98.6 153.6 98.8 153.7 M 112.9 153.6 C 112.5 154.5 111.0 153.0 112.9 153.6 M 115.6 155.7 C 117.9 156.6 112.6 155.9 115.6 155.7 M 146.8 155.0 C 143.7 160.2 143.5 152.1 146.8 155.0 M 126.2 154.0 C 122.4 154.7 127.5 151.8 126.2 154.0 M 125.1 155.3 C 123.3 156.1 124.7 154.1 125.1 155.3 M 140.9 155.0 C 141.2 155.1 141.2 155.1 140.9 155.0 C 140.9 155.0 140.9 155.0 140.9 155.0 Z M 150.1 155.2 C 150.2 155.1 150.2 155.1 150.1 155.2 C 150.1 155.2 150.1 155.2 150.1 155.2 Z M 131.9 155.5 C 129.0 154.3 136.6 155.1 131.9 155.5 C 131.9 155.5 131.9 155.5 131.9 155.5 Z M 145.7 163.0 C 145.6 163.0 145.6 163.0 145.7 163.0 C 145.7 163.0 145.7 163.0 145.7 163.0 Z M 96.2 156.9 C 96.1 157.0 96.1 157.0 96.2 156.9 C 96.2 156.9 96.2 156.9 96.2 156.9 Z M 85.7 155.0 C 85.9 155.7 83.8 154.5 85.7 155.0 C 85.7 155.0 85.7 155.0 85.7 155.0 Z M 77.2 160.9 C 77.1 160.9 77.1 160.9 77.2 160.9 C 77.2 160.9 77.2 160.9 77.2 160.9 Z M 92.7 159.6 C 92.6 159.7 92.6 159.7 92.7 159.6 C 92.7 159.6 92.7 159.6 92.7 159.6 Z M 94.2 155.8 C 92.5 153.0 98.2 156.6 94.2 155.8 C 94.2 155.8 94.2 155.8 94.2 155.8 Z M 128.4 162.7 C 128.5 161.4 130.8 163.1 128.4 162.7 C 128.4 162.7 128.4 162.7 128.4 162.7 Z M 116.0 156.8 C 116.5 156.2 117.6 157.1 116.0 156.8 C 116.0 156.8 116.0 156.8 116.0 156.8 Z M 110.2 153.0 C 110.7 152.4 111.8 153.3 110.2 153.0 C 110.2 153.0 110.2 153.0 110.2 153.0 Z M 85.9 154.2 C 86.1 154.0 86.1 154.0 85.9 154.2 C 85.9 154.2 85.9 154.2 85.9 154.2 Z M 89.7 156.4 C 87.1 153.7 93.7 157.8 89.7 156.4 C 89.7 156.4 89.7 156.4 89.7 156.4 Z M 85.2 157.1 C 86.6 158.1 81.8 156.7 85.2 157.1 M 87.8 161.2 C 90.9 160.1 84.9 165.9 87.8 161.2 C 87.8 161.2 87.8 161.2 87.8 161.2 Z M 104.0 162.2 C 104.2 162.3 104.2 162.3 104.0 162.2 C 104.0 162.2 104.0 162.2 104.0 162.2 Z M 102.3 154.5 C 105.1 154.6 100.5 155.1 102.3 154.5 C 102.3 154.5 102.3 154.5 102.3 154.5 Z M 77.9 153.9 C 80.7 154.0 76.0 154.5 77.9 153.9 C 77.9 153.9 77.9 153.9 77.9 153.9 Z M 113.4 159.6 C 118.0 159.2 110.6 161.1 113.4 159.6 C 113.4 159.6 113.4 159.6 113.4 159.6 Z M 130.3 156.6 C 130.5 156.6 130.5 156.6 130.3 156.6 C 130.3 156.6 130.3 156.6 130.3 156.6 Z M 133.5 155.5 C 133.6 155.5 133.6 155.5 133.5 155.5 C 133.5 155.5 133.5 155.5 133.5 155.5 Z M 146.6 158.2 C 146.8 158.3 146.8 158.3 146.6 158.2 C 146.6 158.2 146.6 158.2 146.6 158.2 Z M 136.3 154.2 C 136.4 154.3 136.4 154.3 136.3 154.2 C 136.3 154.2 136.3 154.2 136.3 154.2 Z M 145.4 154.9 C 145.6 155.0 145.6 155.0 145.4 154.9 C 145.4 154.9 145.4 154.9 145.4 154.9 Z M 144.1 152.6 C 144.3 152.7 144.3 152.7 144.1 152.6 C 144.1 152.6 144.1 152.6 144.1 152.6 Z M 123.9 164.2 C 124.1 164.3 124.1 164.3 123.9 164.2 C 123.9 164.2 123.9 164.2 123.9 164.2 Z M 90.9 153.3 C 91.1 153.6 91.1 153.6 90.9 153.3 C 90.9 153.3 90.9 153.3 90.9 153.3 Z M 144.7 155.9 C 144.8 156.0 144.8 156.0 144.7 155.9 C 144.7 155.9 144.7 155.9 144.7 155.9 Z M 122.5 158.0 C 122.6 160.3 120.6 155.1 123.1 157.9 C 123.0 158.0 122.4 157.7 122.5 158.0 M 125.5 161.8 C 125.4 161.9 125.4 161.9 125.5 161.8 C 125.5 161.8 125.5 161.8 125.5 161.8 Z M 115.4 163.2 C 115.3 163.2 115.3 163.2 115.4 163.2 C 115.4 163.2 115.4 163.2 115.4 163.2 Z M 134.7 153.8 C 134.3 152.5 137.2 154.7 134.3 153.8 M 146.7 162.2 C 146.3 160.9 149.1 163.1 146.3 162.2 M 74.7 154.8 C 74.3 155.7 72.8 154.2 74.7 154.8 M 113.2 164.4 C 112.8 165.3 111.3 163.8 113.2 164.4 M 117.9 161.5 C 117.5 160.2 120.4 162.5 117.5 161.6 M 139.8 162.1 C 139.9 162.1 139.9 162.1 139.8 162.1 C 139.8 162.1 139.8 162.1 139.8 162.1 Z M 106.6 154.7 C 106.7 154.8 106.7 154.8 106.6 154.7 C 106.6 154.7 106.6 154.7 106.6 154.7 Z M 118.8 157.4 C 117.2 155.7 121.0 158.5 118.8 157.4 M 103.0 157.8 C 100.6 155.6 106.9 158.5 103.0 157.8 M 151.9 162.7 C 149.2 160.1 153.9 164.1 151.9 162.7 M 138.4 156.2 C 135.7 153.6 140.4 157.6 138.4 156.2 M 109.0 155.8 C 108.9 154.5 111.8 156.6 109.0 155.8 M 81.0 154.5 C 78.4 154.3 84.5 153.5 81.0 154.5 M 133.1 162.2 C 133.2 162.3 133.2 162.3 133.1 162.2 C 133.1 162.2 133.1 162.2 133.1 162.2 Z M 89.5 164.4 C 89.6 164.5 89.6 164.5 89.5 164.4 C 89.5 164.4 89.5 164.4 89.5 164.4 Z M 155.4 154.2 C 155.5 154.3 155.5 154.3 155.4 154.2 C 155.4 154.2 155.4 154.2 155.4 154.2 Z M 136.7 157.4 C 136.8 157.6 136.8 157.6 136.7 157.4 C 136.7 157.4 136.7 157.4 136.7 157.4 Z M 150.1 153.8 C 150.3 154.0 150.3 154.0 150.1 153.8 C 150.1 153.8 150.1 153.8 150.1 153.8 Z M 128.2 159.4 C 128.3 159.5 128.3 159.5 128.2 159.4 C 128.2 159.4 128.2 159.4 128.2 159.4 Z M 126.5 152.8 C 126.6 152.9 126.6 152.9 126.5 152.8 C 126.5 152.8 126.5 152.8 126.5 152.8 Z M 117.2 155.6 C 117.3 155.7 117.3 155.7 117.2 155.6 C 117.2 155.6 117.2 155.6 117.2 155.6 Z M 130.8 153.3 C 136.3 152.9 127.9 155.5 130.8 153.3 C 130.8 153.3 130.8 153.3 130.8 153.3 Z M 121.2 159.9 C 121.2 160.0 121.2 160.0 121.2 159.9 C 121.2 159.9 121.2 159.9 121.2 159.9 Z M 120.4 155.3 C 123.9 153.4 122.3 158.4 120.4 155.3 M 104.9 153.7 C 106.0 152.7 105.5 155.3 104.9 153.7 M 98.8 162.4 C 98.8 162.5 98.8 162.5 98.8 162.4 C 98.8 162.4 98.8 162.4 98.8 162.4 Z M 100.4 161.7 C 100.6 161.8 100.6 161.8 100.4 161.7 C 100.4 161.7 100.4 161.7 100.4 161.7 Z M 101.2 153.3 C 101.3 153.3 101.3 153.3 101.2 153.3 C 101.2 153.3 101.2 153.3 101.2 153.3 Z M 100.6 164.2 C 100.8 164.2 100.8 164.2 100.6 164.2 C 100.6 164.2 100.6 164.2 100.6 164.2 Z M 124.4 153.0 C 124.5 153.0 124.5 153.0 124.4 153.0 C 124.4 153.0 124.4 153.0 124.4 153.0 Z M 152.8 152.9 C 152.9 152.9 152.9 152.9 152.8 152.9 C 152.8 152.9 152.8 152.9 152.8 152.9 Z M 81.8 161.5 C 82.0 161.6 82.0 161.6 81.8 161.5 C 81.8 161.5 81.8 161.5 81.8 161.5 Z M 127.4 155.6 C 127.5 155.7 127.5 155.7 127.4 155.6 C 127.4 155.6 127.4 155.6 127.4 155.6 Z M 94.8 162.0 C 94.8 162.1 94.8 162.1 94.8 162.0 C 94.8 162.0 94.8 162.0 94.8 162.0 Z M 125.5 155.0 C 125.6 155.1 125.6 155.1 125.5 155.0 C 125.5 155.0 125.5 155.0 125.5 155.0 Z M 132.2 162.7 C 132.3 162.8 132.3 162.8 132.2 162.7 C 132.2 162.7 132.2 162.7 132.2 162.7 Z M 138.3 164.2 C 138.4 164.2 138.4 164.2 138.3 164.2 C 138.3 164.2 138.3 164.2 138.3 164.2 Z M 131.8 158.1 C 131.9 158.2 131.9 158.2 131.8 158.1 C 131.8 158.1 131.8 158.1 131.8 158.1 Z M 92.8 159.1 C 81.6 156.9 101.6 158.1 92.8 159.1 M 133.7 158.7 C 125.9 158.1 139.9 156.1 133.7 158.7 C 134.5 158.0 133.8 158.6 133.7 158.7 M 158.1 153.1 C 154.9 155.5 154.9 157.9 156.3 160.4 C 157.9 161.6 157.8 156.8 157.9 160.9 C 154.3 161.7 159.5 167.1 159.4 161.8 C 164.3 161.0 160.2 165.1 163.1 163.0 C 168.3 162.5 165.6 164.1 169.6 163.8 C 171.9 160.9 171.9 165.2 172.9 162.4 C 170.9 165.4 177.2 161.6 177.3 163.0 C 173.7 164.8 191.0 163.0 181.6 162.1 C 185.5 160.7 184.7 163.2 186.0 163.6 C 187.7 161.8 192.4 165.0 194.7 163.2 C 194.3 162.8 193.1 162.7 192.7 162.1 C 192.1 161.0 195.4 162.4 195.1 162.3 C 196.6 161.6 202.9 159.8 196.2 163.0 C 195.9 164.4 201.6 162.3 201.4 163.6 C 207.2 163.7 202.9 160.7 205.4 162.9 C 209.6 162.9 212.5 163.0 212.5 162.6 C 215.0 162.9 215.5 164.6 217.8 163.0 C 222.8 166.1 221.3 156.9 223.2 163.1 C 224.7 161.6 226.1 165.6 225.9 161.8 C 224.1 163.6 234.5 164.8 230.0 162.0 C 231.2 161.1 237.7 166.0 236.7 162.1 C 239.1 159.2 238.6 156.4 233.6 153.7 C 234.2 155.9 228.2 151.4 232.0 155.2 C 236.4 156.5 224.0 156.6 226.7 155.2 C 227.3 150.7 220.7 158.0 218.1 154.8 C 220.2 156.6 210.2 157.5 213.1 154.1 C 211.2 153.8 210.8 155.4 208.8 153.5 C 214.8 153.8 206.5 157.0 206.8 154.9 C 207.9 153.7 198.9 152.6 199.8 154.5 C 202.9 159.2 197.5 153.6 195.9 155.4 C 191.0 156.4 196.7 151.4 193.1 154.9 C 192.1 154.3 185.5 154.3 189.7 153.3 C 191.2 153.8 185.8 158.4 185.1 154.4 C 192.1 152.2 177.0 153.2 179.4 154.4 C 190.2 156.6 167.9 156.9 176.4 154.7 C 171.6 152.6 177.8 153.9 171.8 154.8 C 172.6 156.1 168.0 157.3 169.1 154.8 C 168.1 151.0 167.4 159.8 163.8 154.6 C 163.2 152.4 156.5 156.3 159.2 153.8 C 159.3 153.5 158.3 153.1 158.1 153.1 M 160.3 153.6 C 159.5 154.4 159.0 152.5 160.3 153.6 M 159.4 154.4 C 159.3 154.3 159.3 154.3 159.4 154.4 C 159.4 154.4 159.4 154.4 159.4 154.4 Z M 170.9 155.0 C 170.9 154.8 170.9 154.8 170.9 155.0 C 170.9 155.0 170.9 155.0 170.9 155.0 Z M 180.1 164.5 C 180.0 164.3 180.0 164.3 180.1 164.5 C 180.1 164.5 180.1 164.5 180.1 164.5 Z M 178.6 155.2 C 178.5 155.2 178.5 155.2 178.6 155.2 C 178.6 155.2 178.6 155.2 178.6 155.2 Z M 166.8 155.6 C 166.7 155.6 166.7 155.6 166.8 155.6 C 166.8 155.6 166.8 155.6 166.8 155.6 Z M 177.9 153.8 C 178.5 155.2 175.2 152.7 178.1 153.6 C 178.2 153.7 177.6 153.7 177.9 153.8 M 188.0 153.2 C 188.0 153.4 188.0 153.4 188.0 153.2 M 210.1 164.4 C 210.1 164.5 210.1 164.5 210.1 164.4 M 211.9 153.1 C 212.1 153.3 212.1 153.3 211.9 153.1 M 197.9 154.7 C 201.0 154.5 198.7 155.4 197.9 154.7 M 220.0 153.9 C 216.1 153.0 224.1 153.1 220.0 153.9 M 223.7 153.1 C 224.1 153.2 224.1 153.2 223.7 153.1 M 206.3 153.6 C 206.2 153.7 206.2 153.7 206.3 153.6 C 206.3 153.6 206.3 153.6 206.3 153.6 Z M 196.6 154.1 C 192.6 153.3 200.7 152.8 196.6 154.1 M 172.3 153.6 C 174.5 152.9 172.3 155.4 172.3 153.6 M 167.8 154.4 C 167.7 154.5 167.7 154.5 167.8 154.4 C 167.8 154.4 167.8 154.4 167.8 154.4 Z M 213.8 153.8 C 213.6 153.9 213.6 153.9 213.8 153.8 C 213.8 153.8 213.8 153.8 213.8 153.8 Z M 218.2 153.6 C 218.1 153.6 218.1 153.6 218.2 153.6 C 218.2 153.6 218.2 153.6 218.2 153.6 Z M 225.6 164.0 C 225.5 164.0 225.5 164.0 225.6 164.0 C 225.6 164.0 225.6 164.0 225.6 164.0 Z M 171.1 158.7 C 168.2 158.0 174.2 155.3 173.6 157.9 C 173.9 158.9 171.5 158.5 171.1 158.7 M 193.7 157.2 C 194.5 160.8 190.8 152.4 193.7 157.2 M 224.3 155.4 C 227.3 159.6 220.5 152.4 224.3 155.4 M 230.4 154.7 C 232.1 155.5 219.1 155.2 228.2 154.1 C 229.1 153.4 229.7 154.2 230.4 154.7 M 188.1 154.9 C 189.0 156.9 183.3 154.1 188.1 154.9 M 206.6 160.8 C 208.0 159.6 211.8 158.5 210.1 160.6 C 210.1 163.4 204.8 161.9 206.6 160.8 M 161.2 155.6 C 163.6 152.4 161.1 158.2 161.2 155.6 M 172.9 155.8 C 172.9 155.7 172.9 155.7 172.9 155.8 C 172.9 155.8 172.9 155.8 172.9 155.8 Z M 177.5 155.3 C 177.7 155.6 177.7 155.6 177.5 155.3 M 163.1 152.8 C 163.3 153.0 163.3 153.0 163.1 152.8 M 206.5 157.6 C 206.7 157.8 206.7 157.8 206.5 157.6 M 197.1 155.5 C 201.5 158.6 194.6 156.1 197.1 155.5 M 186.1 161.5 C 187.4 162.9 183.2 161.6 186.1 161.5 M 204.4 154.3 C 207.6 157.2 200.1 157.1 204.4 154.3 M 194.8 155.2 C 195.1 155.2 195.1 155.2 194.8 155.2 C 194.8 155.2 194.8 155.2 194.8 155.2 Z M 207.7 161.2 C 207.7 161.2 207.7 161.2 207.7 161.2 C 207.7 161.2 207.7 161.2 207.7 161.2 Z M 209.1 161.0 C 209.0 161.1 209.0 161.1 209.1 161.0 C 209.1 161.0 209.1 161.0 209.1 161.0 Z M 208.4 154.0 C 208.2 154.0 208.2 154.0 208.4 154.0 C 208.4 154.0 208.4 154.0 208.4 154.0 Z M 167.4 162.5 C 170.6 162.7 164.9 163.0 167.4 162.5 C 167.4 162.5 167.4 162.5 167.4 162.5 Z M 181.6 153.8 C 186.8 156.2 177.9 156.0 181.6 153.8 C 181.6 153.8 181.6 153.8 181.6 153.8 Z M 187.6 157.7 C 187.6 157.8 187.6 157.8 187.6 157.7 C 187.6 157.7 187.6 157.7 187.6 157.7 Z M 202.4 152.5 C 202.4 152.7 202.4 152.7 202.4 152.5 C 202.4 152.5 202.4 152.5 202.4 152.5 Z M 169.0 162.9 C 169.0 163.1 169.0 163.1 169.0 162.9 C 169.0 162.9 169.0 162.9 169.0 162.9 Z M 217.4 155.6 C 217.4 155.7 217.4 155.7 217.4 155.6 C 217.4 155.6 217.4 155.6 217.4 155.6 Z M 199.1 161.6 C 200.3 160.5 199.3 162.5 199.1 161.6 C 199.1 161.6 199.1 161.6 199.1 161.6 Z M 203.9 161.7 C 204.0 161.6 204.0 161.6 203.9 161.7 C 203.9 161.7 203.9 161.7 203.9 161.7 Z M 224.9 152.9 C 225.0 152.8 225.0 152.8 224.9 152.9 C 224.9 152.9 224.9 152.9 224.9 152.9 Z M 216.0 164.4 C 216.1 164.4 216.1 164.4 216.0 164.4 C 216.0 164.4 216.0 164.4 216.0 164.4 Z M 220.0 161.0 C 219.9 161.0 219.9 161.0 220.0 161.0 C 220.0 161.0 220.0 161.0 220.0 161.0 Z M 207.5 154.7 C 212.3 154.1 206.4 156.0 207.5 154.7 C 207.5 154.7 207.5 154.7 207.5 154.7 Z M 231.8 160.0 C 231.9 160.2 231.9 160.2 231.8 160.0 C 231.8 160.0 231.8 160.0 231.8 160.0 Z M 234.2 156.0 C 234.3 156.2 234.3 156.2 234.2 156.0 C 234.2 156.0 234.2 156.0 234.2 156.0 Z M 235.4 153.8 C 235.5 154.0 235.5 154.0 235.4 153.8 C 235.4 153.8 235.4 153.8 235.4 153.8 Z M 177.4 159.7 C 177.3 159.5 177.3 159.5 177.4 159.7 C 177.4 159.7 177.4 159.7 177.4 159.7 Z M 175.5 153.1 C 175.5 153.1 175.5 153.1 175.5 153.1 C 175.5 153.1 175.5 153.1 175.5 153.1 Z M 182.0 152.8 C 181.9 152.7 181.9 152.7 182.0 152.8 C 182.0 152.8 182.0 152.8 182.0 152.8 Z M 176.2 163.6 C 176.1 163.6 176.1 163.6 176.2 163.6 C 176.2 163.6 176.2 163.6 176.2 163.6 Z M 200.4 158.1 C 200.3 157.9 200.3 157.9 200.4 158.1 C 200.4 158.1 200.4 158.1 200.4 158.1 Z M 202.7 160.7 C 202.6 160.6 202.6 160.6 202.7 160.7 C 202.7 160.7 202.7 160.7 202.7 160.7 Z M 197.1 164.2 C 197.0 164.2 197.0 164.2 197.1 164.2 C 197.1 164.2 197.1 164.2 197.1 164.2 Z M 204.4 163.0 C 204.4 163.0 204.4 163.0 204.4 163.0 C 204.4 163.0 204.4 163.0 204.4 163.0 Z M 160.0 162.4 C 160.0 162.5 160.0 162.5 160.0 162.4 C 160.0 162.4 160.0 162.4 160.0 162.4 Z M 159.5 157.4 C 159.4 157.6 159.4 157.6 159.5 157.4 C 159.5 157.4 159.5 157.4 159.5 157.4 Z M 201.1 154.4 C 202.2 153.3 203.3 155.8 201.1 154.4 M 191.9 155.1 C 191.9 155.1 191.9 155.1 191.9 155.1 C 191.9 155.1 191.9 155.1 191.9 155.1 Z M 216.6 154.6 C 217.8 156.6 212.3 153.6 216.6 154.6 C 216.6 154.6 216.6 154.6 216.6 154.6 Z M 211.8 163.0 C 211.8 163.0 211.8 163.0 211.8 163.0 C 211.8 163.0 211.8 163.0 211.8 163.0 Z M 214.2 162.2 C 214.3 162.4 214.3 162.4 214.2 162.2 C 214.2 162.2 214.2 162.2 214.2 162.2 Z M 227.5 156.7 C 227.7 156.9 227.7 156.9 227.5 156.7 M 190.8 153.3 C 192.1 154.1 191.9 154.0 190.8 153.3 M 219.7 154.7 C 219.6 154.7 219.6 154.7 219.7 154.7 C 219.7 154.7 219.7 154.7 219.7 154.7 Z M 230.4 155.6 C 230.3 155.7 230.3 155.7 230.4 155.6 C 230.4 155.6 230.4 155.6 230.4 155.6 Z M 184.2 154.6 C 184.5 157.0 183.2 156.5 184.2 154.6 M 165.9 155.4 C 165.9 155.6 165.9 155.6 165.9 155.4 C 165.9 155.4 165.9 155.4 165.9 155.4 Z M 245.0 153.9 C 240.1 151.2 240.0 155.0 240.0 155.1 C 240.6 150.0 235.6 157.1 236.6 158.1 C 236.4 158.8 240.3 167.7 243.8 162.3 C 244.7 161.6 245.3 163.2 246.0 163.3 C 252.1 163.1 241.7 160.5 249.2 160.5 C 250.5 161.3 249.0 165.5 253.4 162.6 C 253.6 163.0 258.6 164.5 256.7 162.6 C 259.1 164.6 260.6 162.2 262.8 161.7 C 264.8 162.9 261.1 164.8 268.3 162.5 C 271.4 166.0 272.5 159.9 275.3 163.7 C 277.1 163.8 279.9 157.5 275.7 161.1 C 276.3 160.7 273.6 157.7 279.3 158.7 C 278.5 159.5 275.4 166.0 284.3 162.9 C 285.8 163.1 289.2 161.4 290.0 162.1 C 285.4 162.8 296.2 165.0 295.1 163.0 C 302.2 164.4 298.1 161.4 303.3 163.6 C 307.5 163.7 301.9 160.7 307.2 162.4 C 311.1 162.1 308.4 163.7 308.0 163.6 C 311.4 163.9 312.7 162.7 313.9 162.8 C 314.6 163.1 316.2 164.4 317.0 162.8 C 320.6 159.9 317.3 157.0 319.0 154.1 C 316.3 152.6 317.8 156.3 316.0 154.1 C 314.6 155.9 315.7 153.9 308.5 154.3 C 308.7 154.8 310.5 156.1 308.7 156.2 C 305.9 156.0 307.9 151.0 303.2 154.6 C 308.7 155.6 295.6 156.1 300.7 157.2 C 294.3 157.8 298.9 156.8 294.2 155.6 C 294.5 158.9 293.9 152.0 292.2 154.7 C 291.7 153.3 284.5 153.9 289.7 156.0 C 282.2 156.8 286.9 154.9 284.2 153.2 C 280.8 153.0 284.0 158.6 281.8 154.5 C 277.3 152.6 281.6 156.5 278.4 153.3 C 279.8 156.2 275.0 153.3 276.3 156.4 C 268.6 156.7 277.2 153.1 271.8 155.3 C 273.5 155.4 272.9 151.2 269.5 153.9 C 271.0 158.8 265.2 149.6 267.6 156.1 C 256.9 157.9 265.8 153.4 259.9 153.4 C 258.4 153.4 261.5 155.5 260.2 155.6 C 252.6 154.6 258.9 152.9 254.9 156.1 C 247.4 156.9 252.7 153.4 249.0 153.2 C 248.7 154.7 245.7 157.3 245.0 153.9 M 251.7 155.4 C 253.3 154.4 252.7 156.5 251.7 155.4 M 236.6 153.9 C 238.2 152.9 237.6 155.0 236.6 153.9 M 257.9 154.5 C 260.0 153.4 258.6 156.2 257.9 154.5 M 298.5 156.1 C 295.6 156.1 299.7 155.2 298.5 156.1 M 242.7 153.7 C 244.9 152.5 243.3 155.5 242.7 153.7 M 239.9 156.2 C 240.0 156.3 240.0 156.3 239.9 156.2 M 302.5 153.4 C 302.6 153.5 302.6 153.5 302.5 153.4 M 291.6 153.4 C 293.9 153.4 290.3 154.0 291.6 153.4 M 291.2 164.1 C 293.5 164.2 289.9 164.8 291.2 164.1 M 308.4 153.3 C 310.7 152.5 309.1 154.5 308.4 153.3 M 314.4 155.6 C 316.5 154.7 315.8 156.7 314.4 155.6 M 250.4 159.2 C 250.4 159.3 250.4 159.3 250.4 159.2 C 250.4 159.2 250.4 159.2 250.4 159.2 Z M 270.3 161.8 C 267.9 160.8 273.2 163.2 270.3 161.8 M 266.6 154.8 C 268.2 157.0 263.5 154.7 266.6 154.8 C 266.6 154.8 266.6 154.8 266.6 154.8 Z M 263.1 155.8 C 263.1 155.9 263.1 155.9 263.1 155.8 C 263.1 155.8 263.1 155.8 263.1 155.8 Z M 274.4 155.9 C 274.3 156.0 274.3 156.0 274.4 155.9 C 274.4 155.9 274.4 155.9 274.4 155.9 Z M 272.1 156.1 C 271.2 156.6 270.7 155.7 272.1 156.1 C 272.1 156.1 272.1 156.1 272.1 156.1 Z M 288.4 163.0 C 287.4 163.5 287.1 162.6 288.4 163.0 C 288.4 163.0 288.4 163.0 288.4 163.0 Z M 268.5 156.9 C 268.2 159.1 266.9 155.4 268.5 156.9 C 268.5 156.9 268.5 156.9 268.5 156.9 Z M 280.6 162.1 C 281.6 161.5 282.6 164.1 280.6 162.1 M 304.7 153.8 C 305.7 153.2 306.8 155.9 304.7 153.8 M 281.0 153.2 C 282.0 152.6 283.1 155.3 281.0 153.2 M 253.0 154.5 C 253.3 154.7 253.3 154.7 253.0 154.5 M 266.2 163.9 C 267.8 163.1 267.0 164.9 266.2 163.9 M 243.8 163.2 C 245.4 162.4 244.6 164.2 243.8 163.2 M 301.4 163.9 C 301.3 163.3 303.8 164.2 301.4 163.9 M 283.8 156.7 C 285.9 156.9 288.0 158.1 283.6 158.0 C 283.4 157.5 284.7 157.2 283.8 156.7 C 283.8 156.7 283.8 156.7 283.8 156.7 Z M 291.2 161.7 C 291.5 161.9 291.5 161.9 291.2 161.7 M 287.5 154.7 C 287.8 154.9 287.8 154.9 287.5 154.7 M 299.6 154.9 C 299.9 155.2 299.9 155.2 299.6 154.9 M 301.1 154.3 C 301.1 154.4 301.1 154.4 301.1 154.3 C 301.1 154.3 301.1 154.3 301.1 154.3 Z M 314.5 153.4 C 314.5 153.5 314.5 153.5 314.5 153.4 C 314.5 153.4 314.5 153.4 314.5 153.4 Z M 295.7 155.2 C 295.7 155.2 295.7 155.2 295.7 155.2 C 295.7 155.2 295.7 155.2 295.7 155.2 Z M 306.8 163.5 C 306.8 163.6 306.8 163.6 306.8 163.5 C 306.8 163.5 306.8 163.5 306.8 163.5 Z M 305.4 162.2 C 305.4 162.3 305.4 162.3 305.4 162.2 C 305.4 162.2 305.4 162.2 305.4 162.2 Z M 246.1 153.9 C 248.0 152.3 247.1 157.7 246.1 153.9 M 311.3 162.2 C 313.0 163.7 308.2 162.5 311.3 162.2 C 311.3 162.2 311.3 162.2 311.3 162.2 Z M 294.3 157.0 C 294.5 157.3 294.5 157.3 294.3 157.0 M 301.9 154.5 C 302.1 154.7 302.1 154.7 301.9 154.5 M 266.5 152.8 C 266.7 153.1 266.7 153.1 266.5 152.8 M 311.3 154.9 C 317.0 155.4 308.7 158.0 311.3 154.9 M 263.9 154.9 C 263.8 154.7 263.8 154.7 263.9 154.9 M 276.7 159.0 C 280.5 158.8 275.3 160.2 276.7 159.0 M 286.4 156.2 C 286.3 156.3 286.3 156.3 286.4 156.2 C 286.4 156.2 286.4 156.2 286.4 156.2 Z M 280.7 156.2 C 278.0 156.5 280.0 155.6 280.7 156.2 C 280.7 156.2 280.7 156.2 280.7 156.2 Z M 248.8 155.9 C 252.4 156.2 245.1 156.6 248.8 155.9 C 248.8 155.9 248.8 155.9 248.8 155.9 Z M 308.7 160.0 C 308.6 160.1 308.6 160.1 308.7 160.0 C 308.7 160.0 308.7 160.0 308.7 160.0 Z M 295.1 153.6 C 293.4 154.2 294.3 153.0 295.1 153.6 C 295.1 153.6 295.1 153.6 295.1 153.6 Z M 316.5 153.4 C 314.8 153.9 315.7 152.7 316.5 153.4 C 316.5 153.4 316.5 153.4 316.5 153.4 Z M 244.5 155.5 C 257.6 159.1 226.9 154.6 244.5 155.5 C 244.5 155.5 244.5 155.5 244.5 155.5 Z M 283.0 154.7 C 282.9 154.9 282.9 154.9 283.0 154.7 C 283.0 154.7 283.0 154.7 283.0 154.7 Z M 258.7 153.2 C 258.6 153.3 258.6 153.3 258.7 153.2 C 258.7 153.2 258.7 153.2 258.7 153.2 Z M 254.6 155.2 C 254.5 155.3 254.5 155.3 254.6 155.2 C 254.6 155.2 254.6 155.2 254.6 155.2 Z M 255.7 163.7 C 255.7 163.9 255.7 163.9 255.7 163.7 C 255.7 163.7 255.7 163.7 255.7 163.7 Z M 257.1 159.8 C 256.9 160.1 256.9 160.1 257.1 159.8 C 257.1 159.8 257.1 159.8 257.1 159.8 Z M 248.7 161.3 C 248.5 161.5 248.5 161.5 248.7 161.3 C 248.7 161.3 248.7 161.3 248.7 161.3 Z M 248.8 162.4 C 248.8 162.5 248.8 162.5 248.8 162.4 C 248.8 162.4 248.8 162.4 248.8 162.4 Z M 301.9 156.9 C 301.8 157.1 301.8 157.1 301.9 156.9 C 301.9 156.9 301.9 156.9 301.9 156.9 Z M 297.4 160.4 C 300.4 159.2 296.4 162.2 297.4 160.4 C 297.4 160.4 297.4 160.4 297.4 160.4 Z M 270.2 158.7 C 273.0 158.2 268.4 159.8 270.2 158.7 C 270.2 158.7 270.2 158.7 270.2 158.7 Z M 273.2 163.3 C 273.3 163.4 273.3 163.4 273.2 163.3 C 273.2 163.3 273.2 163.3 273.2 163.3 Z M 254.6 153.2 C 254.5 153.4 254.5 153.4 254.6 153.2 C 254.6 153.2 254.6 153.2 254.6 153.2 Z M 249.4 154.6 C 249.2 156.4 247.8 153.7 249.4 154.6 M 275.5 153.6 C 275.5 153.8 275.5 153.8 275.5 153.6 C 275.5 153.6 275.5 153.6 275.5 153.6 Z M 292.0 156.4 C 291.9 156.5 291.9 156.5 292.0 156.4 C 292.0 156.4 292.0 156.4 292.0 156.4 Z M 308.3 155.2 C 308.2 155.5 308.2 155.5 308.3 155.2 C 308.3 155.2 308.3 155.2 308.3 155.2 Z M 285.7 153.8 C 285.6 154.0 285.6 154.0 285.7 153.8 C 285.7 153.8 285.7 153.8 285.7 153.8 Z M 277.9 155.5 C 277.8 155.7 277.8 155.7 277.9 155.5 C 277.9 155.5 277.9 155.5 277.9 155.5 Z M 311.9 157.8 C 311.8 157.9 311.8 157.9 311.9 157.8 C 311.9 157.8 311.9 157.8 311.9 157.8 Z M 287.5 153.5 C 287.5 153.6 287.5 153.6 287.5 153.5 C 287.5 153.5 287.5 153.5 287.5 153.5 Z M 292.3 159.2 C 292.1 159.4 292.1 159.4 292.3 159.2 C 292.3 159.2 292.3 159.2 292.3 159.2 Z M 250.1 152.1 C 250.1 152.1 250.1 152.1 250.1 152.1 C 250.1 152.1 250.1 152.1 250.1 152.1 Z M 312.1 155.4 C 312.0 155.5 312.0 155.5 312.1 155.4 C 312.1 155.4 312.1 155.4 312.1 155.4 Z M 313.1 153.8 C 313.0 153.9 313.0 153.9 313.1 153.8 C 313.1 153.8 313.1 153.8 313.1 153.8 Z M 301.5 162.3 C 295.7 161.3 306.7 161.9 302.5 160.0 C 310.7 159.5 302.7 162.4 301.5 162.3 C 301.5 162.3 301.5 162.3 301.5 162.3 Z M 320.8 153.1 C 317.6 155.5 317.6 157.9 319.0 160.4 C 320.6 161.6 320.5 156.8 320.6 160.9 C 316.9 161.7 322.2 167.1 322.1 161.8 C 326.9 161.0 322.9 165.1 325.8 163.0 C 330.9 162.5 328.3 164.1 332.3 163.8 C 334.6 160.9 334.6 165.2 335.6 162.4 C 333.6 165.4 339.9 161.6 340.0 163.0 C 336.4 164.8 353.7 163.0 344.3 162.1 C 348.1 160.7 347.4 163.2 348.7 163.6 C 350.4 161.8 355.1 164.9 357.4 163.2 C 357.0 162.8 355.8 162.7 355.4 162.1 C 354.8 161.0 358.1 162.4 357.8 162.3 C 359.3 161.6 365.6 159.8 358.9 163.0 C 358.6 164.4 364.3 162.3 364.1 163.6 C 369.9 163.7 365.6 160.7 368.1 162.9 C 372.2 162.9 375.2 163.0 375.2 162.6 C 377.7 162.9 378.2 164.6 380.4 163.0 C 385.5 166.1 384.0 156.9 385.9 163.1 C 387.4 161.6 388.8 165.6 388.5 161.8 C 386.8 163.6 398.7 164.7 393.6 162.0 C 394.9 161.1 402.3 164.6 400.4 161.2 C 401.8 157.8 399.8 155.8 396.3 153.5 C 396.9 155.6 391.9 151.5 395.3 155.1 C 397.1 155.6 395.7 156.1 393.5 156.2 C 391.2 156.2 387.5 155.9 389.4 155.2 C 390.3 150.7 383.4 158.0 380.8 154.8 C 382.9 156.6 372.9 157.5 375.8 154.1 C 373.9 153.8 373.5 155.4 371.5 153.5 C 377.5 153.8 369.1 157.0 369.5 154.9 C 370.5 153.7 361.6 152.6 362.5 154.5 C 365.6 159.2 360.2 153.6 358.6 155.4 C 353.7 156.4 359.4 151.4 355.7 154.9 C 354.8 154.3 348.2 154.3 352.3 153.3 C 353.9 153.8 348.4 158.4 347.7 154.4 C 354.8 152.2 339.7 153.2 342.0 154.4 C 352.9 156.6 330.6 156.9 339.0 154.7 C 334.2 152.6 340.5 153.9 334.5 154.8 C 335.3 156.1 330.6 157.3 331.7 154.8 C 330.8 151.0 330.1 159.8 326.4 154.6 C 325.9 152.4 319.2 156.3 321.8 153.8 C 322.0 153.5 321.0 153.1 320.8 153.1 M 323.0 153.6 C 322.2 154.4 321.7 152.5 323.0 153.6 M 322.1 154.4 C 322.0 154.3 322.0 154.3 322.1 154.4 C 322.1 154.4 322.1 154.4 322.1 154.4 Z M 333.6 155.0 C 333.5 154.8 333.5 154.8 333.6 155.0 C 333.6 155.0 333.6 155.0 333.6 155.0 Z M 342.7 164.5 C 342.7 164.3 342.7 164.3 342.7 164.5 C 342.7 164.5 342.7 164.5 342.7 164.5 Z M 341.3 155.2 C 341.2 155.2 341.2 155.2 341.3 155.2 C 341.3 155.2 341.3 155.2 341.3 155.2 Z M 329.5 155.6 C 329.4 155.6 329.4 155.6 329.5 155.6 C 329.5 155.6 329.5 155.6 329.5 155.6 Z M 340.6 153.8 C 341.2 155.2 337.9 152.7 340.7 153.6 C 340.8 153.7 340.3 153.7 340.6 153.8 M 350.6 153.2 C 350.7 153.4 350.7 153.4 350.6 153.2 M 372.8 164.4 C 372.8 164.5 372.8 164.5 372.8 164.4 M 374.6 153.1 C 374.8 153.3 374.8 153.3 374.6 153.1 M 360.6 154.7 C 363.7 154.5 361.4 155.4 360.6 154.7 M 382.7 153.9 C 378.8 153.0 386.8 153.1 382.7 153.9 M 386.4 153.1 C 386.8 153.2 386.8 153.2 386.4 153.1 M 369.0 153.6 C 368.9 153.7 368.9 153.7 369.0 153.6 C 369.0 153.6 369.0 153.6 369.0 153.6 Z M 359.3 154.1 C 355.3 153.3 363.4 152.8 359.3 154.1 M 335.0 153.6 C 337.2 152.9 335.0 155.4 335.0 153.6 M 330.4 154.4 C 330.4 154.5 330.4 154.5 330.4 154.4 C 330.4 154.4 330.4 154.4 330.4 154.4 Z M 376.5 153.8 C 376.3 153.9 376.3 153.9 376.5 153.8 C 376.5 153.8 376.5 153.8 376.5 153.8 Z M 380.9 153.6 C 380.8 153.6 380.8 153.6 380.9 153.6 C 380.9 153.6 380.9 153.6 380.9 153.6 Z M 388.3 164.0 C 388.2 164.0 388.2 164.0 388.3 164.0 C 388.3 164.0 388.3 164.0 388.3 164.0 Z M 333.8 158.7 C 330.8 158.0 336.8 155.3 336.3 157.9 C 336.6 158.9 334.2 158.5 333.8 158.7 M 356.4 157.2 C 357.2 160.8 353.5 152.4 356.4 157.2 M 387.0 155.4 C 390.0 159.6 383.2 152.4 387.0 155.4 M 393.8 154.6 C 394.2 154.8 393.8 155.0 392.9 155.1 C 392.0 155.2 390.2 155.2 389.2 155.1 C 387.3 155.0 385.9 154.6 391.4 154.0 C 392.5 153.4 393.2 154.2 393.8 154.6 M 350.8 154.9 C 351.7 156.9 346.0 154.1 350.8 154.9 M 369.3 160.8 C 370.7 159.6 374.5 158.5 372.8 160.6 C 372.8 163.4 367.5 161.9 369.3 160.8 M 323.9 155.6 C 326.3 152.4 323.8 158.2 323.9 155.6 M 335.6 155.8 C 335.6 155.7 335.6 155.7 335.6 155.8 C 335.6 155.8 335.6 155.8 335.6 155.8 Z M 340.2 155.3 C 340.4 155.6 340.4 155.6 340.2 155.3 M 325.7 152.8 C 326.0 153.0 326.0 153.0 325.7 152.8 M 369.2 157.6 C 369.4 157.8 369.4 157.8 369.2 157.6 M 359.8 155.5 C 364.2 158.6 357.3 156.1 359.8 155.5 M 348.7 161.5 C 350.1 162.9 345.9 161.6 348.7 161.5 M 367.1 154.3 C 370.3 157.2 362.8 157.1 367.1 154.3 M 357.5 155.2 C 357.7 155.2 357.7 155.2 357.5 155.2 C 357.5 155.2 357.5 155.2 357.5 155.2 Z M 370.4 161.2 C 370.3 161.2 370.3 161.2 370.4 161.2 C 370.4 161.2 370.4 161.2 370.4 161.2 Z M 371.8 161.0 C 371.6 161.1 371.6 161.1 371.8 161.0 C 371.8 161.0 371.8 161.0 371.8 161.0 Z M 371.1 154.0 C 370.9 154.0 370.9 154.0 371.1 154.0 C 371.1 154.0 371.1 154.0 371.1 154.0 Z M 330.1 162.5 C 333.3 162.7 327.6 163.0 330.1 162.5 C 330.1 162.5 330.1 162.5 330.1 162.5 Z M 344.3 153.8 C 349.5 156.2 340.6 156.0 344.3 153.8 C 344.3 153.8 344.3 153.8 344.3 153.8 Z M 350.2 157.7 C 350.2 157.8 350.2 157.8 350.2 157.7 C 350.2 157.7 350.2 157.7 350.2 157.7 Z M 365.1 152.5 C 365.1 152.7 365.1 152.7 365.1 152.5 C 365.1 152.5 365.1 152.5 365.1 152.5 Z M 331.7 162.9 C 331.7 163.1 331.7 163.1 331.7 162.9 C 331.7 162.9 331.7 162.9 331.7 162.9 Z M 380.1 155.6 C 380.1 155.7 380.1 155.7 380.1 155.6 C 380.1 155.6 380.1 155.6 380.1 155.6 Z M 361.8 161.6 C 362.9 160.5 362.0 162.5 361.8 161.6 C 361.8 161.6 361.8 161.6 361.8 161.6 Z M 366.6 161.7 C 366.7 161.6 366.7 161.6 366.6 161.7 C 366.6 161.7 366.6 161.7 366.6 161.7 Z M 387.6 152.9 C 387.7 152.8 387.7 152.8 387.6 152.9 C 387.6 152.9 387.6 152.9 387.6 152.9 Z M 378.7 164.4 C 378.8 164.4 378.8 164.4 378.7 164.4 C 378.7 164.4 378.7 164.4 378.7 164.4 Z M 382.7 161.0 C 382.6 161.0 382.6 161.0 382.7 161.0 C 382.7 161.0 382.7 161.0 382.7 161.0 Z M 370.2 154.7 C 375.0 154.1 369.1 156.0 370.2 154.7 C 370.2 154.7 370.2 154.7 370.2 154.7 Z M 395.4 159.9 C 395.5 160.1 395.5 160.1 395.4 159.9 C 395.4 159.9 395.4 159.9 395.4 159.9 Z M 397.0 155.7 C 397.1 155.9 397.1 155.9 397.0 155.7 C 397.0 155.7 397.0 155.7 397.0 155.7 Z M 397.3 153.4 C 397.4 153.6 397.4 153.6 397.3 153.4 C 397.3 153.4 397.3 153.4 397.3 153.4 Z M 340.1 159.7 C 340.0 159.5 340.0 159.5 340.1 159.7 C 340.1 159.7 340.1 159.7 340.1 159.7 Z M 338.2 153.1 C 338.1 153.1 338.1 153.1 338.2 153.1 C 338.2 153.1 338.2 153.1 338.2 153.1 Z M 344.6 152.8 C 344.6 152.7 344.6 152.7 344.6 152.8 C 344.6 152.8 344.6 152.8 344.6 152.8 Z M 338.9 163.6 C 338.8 163.6 338.8 163.6 338.9 163.6 C 338.9 163.6 338.9 163.6 338.9 163.6 Z M 363.1 158.1 C 363.0 157.9 363.0 157.9 363.1 158.1 C 363.1 158.1 363.1 158.1 363.1 158.1 Z M 365.4 160.7 C 365.2 160.6 365.2 160.6 365.4 160.7 C 365.4 160.7 365.4 160.7 365.4 160.7 Z M 359.8 164.2 C 359.7 164.2 359.7 164.2 359.8 164.2 C 359.8 164.2 359.8 164.2 359.8 164.2 Z M 367.1 163.0 C 367.1 163.0 367.1 163.0 367.1 163.0 C 367.1 163.0 367.1 163.0 367.1 163.0 Z M 322.7 162.4 C 322.7 162.5 322.7 162.5 322.7 162.4 C 322.7 162.4 322.7 162.4 322.7 162.4 Z M 322.2 157.4 C 322.1 157.6 322.1 157.6 322.2 157.4 C 322.2 157.4 322.2 157.4 322.2 157.4 Z M 363.8 154.4 C 364.9 153.3 366.0 155.8 363.8 154.4 M 354.6 155.1 C 354.6 155.1 354.6 155.1 354.6 155.1 C 354.6 155.1 354.6 155.1 354.6 155.1 Z M 379.3 154.6 C 380.5 156.6 375.0 153.6 379.3 154.6 C 379.3 154.6 379.3 154.6 379.3 154.6 Z M 374.4 163.0 C 374.5 163.0 374.5 163.0 374.4 163.0 C 374.4 163.0 374.4 163.0 374.4 163.0 Z M 376.9 162.2 C 377.0 162.4 377.0 162.4 376.9 162.2 C 376.9 162.2 376.9 162.2 376.9 162.2 Z M 390.5 156.7 C 390.8 156.9 390.8 156.9 390.5 156.7 M 353.4 153.3 C 354.8 154.1 354.5 154.0 353.4 153.3 M 382.4 154.7 C 382.3 154.7 382.3 154.7 382.4 154.7 C 382.4 154.7 382.4 154.7 382.4 154.7 Z M 393.9 155.6 C 393.8 155.6 393.8 155.6 393.9 155.6 C 393.9 155.6 393.9 155.6 393.9 155.6 Z M 346.9 154.6 C 347.1 157.0 345.9 156.5 346.9 154.6 M 328.6 155.4 C 328.6 155.6 328.6 155.6 328.6 155.4 C 328.6 155.4 328.6 155.4 328.6 155.4 Z M 401.3 150.5 C 399.5 151.1 399.4 151.3 399.5 152.0 C 399.7 152.7 400.2 153.5 400.2 153.5 C 398.9 151.3 398.8 152.0 398.8 153.5 C 398.7 154.9 398.6 157.0 399.1 157.4 C 399.1 157.7 400.6 159.9 403.0 160.5 C 405.5 161.0 408.7 159.4 407.8 156.0 C 408.0 154.6 409.7 154.7 410.2 153.9 C 411.9 149.8 410.3 151.3 409.4 151.9 C 408.5 152.5 408.0 153.0 408.6 149.7 C 409.5 148.6 413.7 150.7 411.0 145.7 C 411.4 145.6 413.0 139.1 411.0 141.7 C 413.0 138.4 410.7 137.5 410.2 135.3 C 411.4 133.3 413.3 137.0 410.9 129.8 C 414.4 126.7 408.3 125.6 412.2 122.8 C 412.3 121.0 405.9 118.3 409.5 122.5 C 409.1 121.9 406.1 124.5 407.2 118.8 C 408.0 119.6 414.5 122.8 411.4 113.8 C 411.5 112.4 409.9 108.4 410.6 107.4 C 411.0 110.2 411.7 108.2 412.0 105.9 C 412.3 103.6 412.0 101.1 411.1 101.8 C 411.2 98.1 409.9 96.8 409.3 96.3 C 408.7 95.9 408.8 95.6 406.9 92.3 C 404.7 90.2 404.5 91.2 404.4 91.8 C 404.4 92.4 404.7 92.5 401.7 90.3 C 399.2 89.4 399.2 89.4 399.6 89.1 C 399.9 88.8 400.7 88.7 400.9 88.8 C 397.6 87.4 396.1 88.8 394.8 88.6 C 394.0 88.3 392.2 86.9 391.1 88.5 C 386.4 91.4 390.3 94.4 388.6 97.3 C 391.3 98.7 390.3 95.0 392.3 97.3 C 393.1 96.3 393.1 96.4 393.9 96.6 C 394.6 96.9 395.9 97.2 398.0 97.5 C 398.0 97.1 397.2 95.6 398.4 95.7 C 399.3 96.0 398.8 97.3 398.7 98.2 C 398.6 99.0 398.4 99.2 400.7 98.9 C 399.8 97.3 400.9 97.7 402.2 98.5 C 403.4 99.4 404.7 100.8 403.9 98.6 C 405.6 100.8 405.3 101.3 405.0 101.5 C 404.7 101.8 404.3 101.8 403.9 103.6 C 407.2 103.0 400.4 103.9 403.1 105.3 C 401.7 105.7 402.4 113.9 404.4 107.8 C 405.4 116.6 403.4 111.2 401.7 113.9 C 401.4 117.4 407.1 114.1 403.0 116.3 C 401.1 120.8 405.0 116.5 401.8 119.8 C 404.7 118.3 401.8 123.1 404.9 121.8 C 405.1 129.5 401.6 120.9 403.7 126.3 C 403.9 124.6 399.7 125.3 402.4 128.6 C 407.3 127.2 398.0 132.9 404.6 130.5 C 406.4 141.3 401.8 132.3 401.8 138.2 C 401.8 139.7 404.0 136.6 404.0 137.9 C 403.6 141.7 402.9 142.6 402.8 142.4 C 402.6 142.2 403.0 141.7 404.6 143.9 C 404.9 148.2 404.1 147.9 403.3 147.8 C 402.5 147.8 401.6 147.5 401.3 148.5 C 402.8 148.9 404.5 151.8 401.3 150.5 M 403.8 147.0 C 402.9 145.6 404.9 146.3 403.8 147.0 M 398.0 153.3 C 398.6 152.1 398.8 154.2 398.0 153.3 M 402.9 140.2 C 401.9 138.1 404.6 139.5 402.9 140.2 M 403.7 100.7 C 404.5 102.8 402.6 100.1 403.7 100.7 M 400.5 151.5 C 400.3 149.8 402.0 152.4 400.5 151.5 M 400.8 154.5 C 400.9 154.5 400.9 154.5 400.8 154.5 M 400.2 100.0 C 400.2 99.9 400.2 99.9 400.2 100.0 M 401.8 105.8 C 401.8 103.7 402.5 107.0 401.8 105.8 M 412.5 105.9 C 412.5 103.2 413.3 107.4 412.5 105.9 M 397.8 98.6 C 396.4 99.0 397.8 97.3 397.8 98.6 M 393.9 95.7 C 391.9 96.6 392.7 94.6 393.9 95.7 M 407.4 148.4 C 407.5 148.5 407.5 148.5 407.4 148.4 C 407.4 148.4 407.4 148.4 407.4 148.4 Z M 410.3 127.9 C 409.2 130.2 411.6 124.9 410.3 127.9 M 403.3 131.5 C 405.5 129.9 403.1 134.6 403.3 131.5 C 403.3 131.5 403.3 131.5 403.3 131.5 Z M 404.3 135.0 C 404.4 135.0 404.4 135.0 404.3 135.0 C 404.3 135.0 404.3 135.0 404.3 135.0 Z M 404.4 123.7 C 404.4 123.9 404.4 123.9 404.4 123.7 C 404.4 123.7 404.4 123.7 404.4 123.7 Z M 404.6 126.1 C 405.1 127.0 404.1 127.4 404.6 126.1 C 404.6 126.1 404.6 126.1 404.6 126.1 Z M 411.5 109.4 C 412.0 110.7 411.1 111.1 411.5 109.4 C 411.5 109.4 411.5 109.4 411.5 109.4 Z M 405.3 129.6 C 407.5 129.9 403.9 131.2 405.3 129.6 C 405.3 129.6 405.3 129.6 405.3 129.6 Z M 410.5 117.6 C 410.0 116.5 412.6 115.5 410.5 117.6 M 399.6 98.9 C 398.8 99.0 399.8 96.5 399.6 98.9 M 401.7 117.2 C 401.1 116.2 403.7 115.1 401.7 117.2 M 402.9 145.8 C 403.1 145.6 403.1 145.6 402.9 145.8 M 412.4 131.9 C 411.6 130.4 413.4 131.1 412.4 131.9 M 408.6 156.5 C 409.2 154.2 410.1 156.2 408.6 156.5 M 408.9 94.1 C 408.6 94.6 407.0 91.1 408.9 94.1 M 405.1 114.4 C 405.4 112.3 406.6 110.2 406.5 114.5 C 406.0 114.8 405.6 113.5 405.1 114.4 C 405.1 114.4 405.1 114.4 405.1 114.4 Z M 410.1 106.0 C 410.3 105.6 410.3 105.6 410.1 106.0 M 403.1 110.7 C 403.3 110.4 403.3 110.4 403.1 110.7 M 402.3 100.5 C 402.5 100.2 402.5 100.2 402.3 100.5 M 401.3 100.0 C 401.4 100.0 401.4 100.0 401.3 100.0 C 401.3 100.0 401.3 100.0 401.3 100.0 Z M 393.8 98.0 C 393.9 97.9 393.9 97.9 393.8 98.0 C 393.8 98.0 393.8 98.0 393.8 98.0 Z M 403.3 102.6 C 403.4 102.6 403.4 102.6 403.3 102.6 C 403.3 102.6 403.3 102.6 403.3 102.6 Z M 402.7 89.6 C 402.7 89.5 402.7 89.5 402.7 89.6 C 402.7 89.6 402.7 89.6 402.7 89.6 Z M 403.7 91.6 C 403.8 91.6 403.8 91.6 403.7 91.6 C 403.7 91.6 403.7 91.6 403.7 91.6 Z M 401.6 150.0 C 400.6 148.4 405.3 150.9 401.6 150.0 M 397.4 89.4 C 395.9 87.7 400.5 89.5 397.4 89.4 C 397.4 89.4 397.4 89.4 397.4 89.4 Z M 405.2 103.4 C 405.5 103.2 405.5 103.2 405.2 103.4 M 401.2 99.5 C 401.3 99.3 401.3 99.3 401.2 99.5 M 401.3 131.6 C 401.6 131.4 401.6 131.4 401.3 131.6 M 396.4 96.7 C 392.7 95.7 398.6 93.8 396.4 96.7 M 403.4 134.2 C 403.2 134.3 403.2 134.3 403.4 134.2 M 407.4 121.4 C 407.3 117.6 408.6 122.8 407.4 121.4 M 404.7 111.8 C 404.8 111.9 404.8 111.9 404.7 111.8 C 404.7 111.8 404.7 111.8 404.7 111.8 Z M 404.7 117.4 C 405.0 120.2 404.1 118.1 404.7 117.4 C 404.7 117.4 404.7 117.4 404.7 117.4 Z M 403.9 149.1 C 404.7 146.9 404.2 151.7 403.9 149.1 C 403.9 149.1 403.9 149.1 403.9 149.1 Z M 399.3 92.1 C 399.5 92.0 399.5 92.0 399.3 92.1 C 399.3 92.1 399.3 92.1 399.3 92.1 Z M 401.8 103.3 C 402.5 104.2 401.3 103.8 401.8 103.3 C 401.8 103.3 401.8 103.3 401.8 103.3 Z M 391.7 98.0 C 393.7 97.4 392.6 98.6 391.7 98.0 C 391.7 98.0 391.7 98.0 391.7 98.0 Z M 402.6 151.6 C 404.6 150.1 404.8 149.6 404.7 150.2 C 404.7 150.7 403.9 152.2 402.7 153.2 C 401.5 154.2 400.1 154.5 399.8 154.4 C 399.6 154.3 400.8 154.1 402.6 151.6 C 402.6 151.6 402.6 151.6 402.6 151.6 Z M 403.2 115.1 C 403.3 115.2 403.3 115.2 403.2 115.1 C 403.2 115.1 403.2 115.1 403.2 115.1 Z M 401.7 139.4 C 401.8 139.5 401.8 139.5 401.7 139.4 C 401.7 139.4 401.7 139.4 401.7 139.4 Z M 403.7 144.3 C 403.8 144.4 403.8 144.4 403.7 144.3 C 403.7 144.3 403.7 144.3 403.7 144.3 Z M 412.2 143.0 C 412.3 143.1 412.3 143.1 412.2 143.0 C 412.2 143.0 412.2 143.0 412.2 143.0 Z M 408.3 141.1 C 408.6 141.4 408.6 141.4 408.3 141.1 C 408.3 141.1 408.3 141.1 408.3 141.1 Z M 409.2 150.3 C 409.4 150.5 409.4 150.5 409.2 150.3 C 409.2 150.3 409.2 150.3 409.2 150.3 Z M 410.4 150.4 C 410.5 150.4 410.5 150.4 410.4 150.4 C 410.4 150.4 410.4 150.4 410.4 150.4 Z M 403.0 98.0 C 403.2 97.9 403.2 97.9 403.0 98.0 C 403.0 98.0 403.0 98.0 403.0 98.0 Z M 408.1 100.2 C 406.2 97.9 410.1 100.6 408.1 100.2 C 408.1 100.2 408.1 100.2 408.1 100.2 Z M 407.2 127.9 C 406.7 125.1 408.2 129.7 407.2 127.9 C 407.2 127.9 407.2 127.9 407.2 127.9 Z M 411.8 124.9 C 411.8 124.8 411.8 124.8 411.8 124.9 C 411.8 124.9 411.8 124.9 411.8 124.9 Z M 401.6 144.3 C 401.8 144.4 401.8 144.4 401.6 144.3 C 401.6 144.3 401.6 144.3 401.6 144.3 Z M 402.8 148.5 C 404.5 148.9 401.7 149.3 402.8 148.5 M 402.0 122.7 C 402.3 122.7 402.3 122.7 402.0 122.7 C 402.0 122.7 402.0 122.7 402.0 122.7 Z M 404.8 105.4 C 404.9 105.4 404.9 105.4 404.8 105.4 C 404.8 105.4 404.8 105.4 404.8 105.4 Z M 398.4 96.7 C 398.5 96.5 398.5 96.5 398.4 96.7 C 398.4 96.7 398.4 96.7 398.4 96.7 Z M 402.3 112.4 C 402.5 112.5 402.5 112.5 402.3 112.4 C 402.3 112.4 402.3 112.4 402.3 112.4 Z M 403.9 120.2 C 404.2 120.3 404.2 120.3 403.9 120.2 C 403.9 120.2 403.9 120.2 403.9 120.2 Z M 396.3 93.8 C 396.4 93.7 396.4 93.7 396.3 93.8 C 396.3 93.8 396.3 93.8 396.3 93.8 Z M 402.0 110.6 C 402.1 110.6 402.1 110.6 402.0 110.6 C 402.0 110.6 402.0 110.6 402.0 110.6 Z M 407.6 105.0 C 407.8 105.1 407.8 105.1 407.6 105.0 C 407.6 105.0 407.6 105.0 407.6 105.0 Z M 400.3 147.7 C 400.4 147.7 400.4 147.7 400.3 147.7 C 400.3 147.7 400.3 147.7 400.3 147.7 Z M 395.9 96.1 C 396.0 96.1 396.0 96.1 395.9 96.1 C 395.9 96.1 395.9 96.1 395.9 96.1 Z M 395.1 97.7 C 395.1 97.6 395.1 97.6 395.1 97.7 C 395.1 97.7 395.1 97.7 395.1 97.7 Z M 407.6 95.0 C 409.5 98.3 408.3 96.9 407.0 95.6 C 405.7 94.2 404.2 93.2 405.0 95.6 C 401.8 92.3 401.4 92.4 402.9 92.5 C 404.4 92.7 407.1 94.3 407.6 95.0 C 407.6 95.0 407.6 95.0 407.6 95.0 Z M 386.8 98.2 C 390.0 95.8 390.0 93.5 388.6 91.0 C 387.0 89.7 387.1 94.6 387.0 90.5 C 390.7 89.7 385.4 84.3 385.5 89.6 C 380.6 90.3 384.7 86.2 381.8 88.3 C 376.7 88.8 379.3 87.2 375.3 87.6 C 373.0 90.5 373.0 86.2 372.0 88.9 C 374.0 85.9 367.7 89.7 367.6 88.4 C 371.2 86.5 353.9 88.4 363.3 89.2 C 359.4 90.6 360.2 88.1 358.9 87.8 C 357.2 89.5 352.5 86.4 350.2 88.1 C 350.6 88.5 351.8 88.6 352.2 89.2 C 352.8 90.4 349.5 89.0 349.8 89.1 C 348.3 89.7 342.0 91.5 348.7 88.4 C 349.0 87.0 343.3 89.0 343.5 87.8 C 337.7 87.7 342.0 90.6 339.5 88.4 C 335.4 88.4 332.4 88.4 332.4 88.8 C 329.9 88.4 329.4 86.8 327.1 88.4 C 322.1 85.2 323.6 94.4 321.7 88.3 C 320.2 89.7 318.8 85.7 319.0 89.5 C 320.8 87.8 310.4 86.5 314.9 89.3 C 313.7 90.2 307.2 85.4 308.2 89.3 C 305.8 92.1 306.3 94.9 311.3 97.6 C 310.8 95.4 316.7 99.9 312.9 96.1 C 308.5 94.9 320.9 94.8 318.2 96.1 C 317.6 100.7 324.2 93.3 326.8 96.6 C 324.7 94.8 334.7 93.9 331.8 97.2 C 333.7 97.5 334.1 95.9 336.1 97.9 C 330.1 97.6 338.4 94.3 338.1 96.4 C 337.0 97.7 346.0 98.7 345.1 96.8 C 342.0 92.1 347.4 97.8 349.0 95.9 C 353.9 94.9 348.2 99.9 351.8 96.5 C 352.8 97.1 359.4 97.1 355.2 98.0 C 353.7 97.6 359.2 92.9 359.9 96.9 C 352.8 99.1 367.9 98.1 365.6 96.9 C 354.7 94.7 377.0 94.4 368.5 96.6 C 373.4 98.8 367.1 97.5 373.1 96.5 C 372.3 95.3 376.9 94.1 375.8 96.6 C 376.8 100.4 377.5 91.5 381.1 96.7 C 381.7 98.9 388.4 95.1 385.8 97.5 C 385.6 97.8 386.6 98.2 386.8 98.2 M 384.6 97.8 C 385.4 96.9 385.9 98.8 384.6 97.8 M 385.5 97.0 C 385.6 97.0 385.6 97.0 385.5 97.0 C 385.5 97.0 385.5 97.0 385.5 97.0 Z M 374.0 96.4 C 374.0 96.5 374.0 96.5 374.0 96.4 C 374.0 96.4 374.0 96.4 374.0 96.4 Z M 364.8 86.9 C 364.9 87.0 364.9 87.0 364.8 86.9 C 364.8 86.9 364.8 86.9 364.8 86.9 Z M 366.3 96.2 C 366.4 96.2 366.4 96.2 366.3 96.2 C 366.3 96.2 366.3 96.2 366.3 96.2 Z M 378.1 95.8 C 378.2 95.8 378.2 95.8 378.1 95.8 C 378.1 95.8 378.1 95.8 378.1 95.8 Z M 367.0 97.6 C 366.4 96.1 369.7 98.6 366.8 97.8 C 366.8 97.7 367.3 97.7 367.0 97.6 M 357.0 98.1 C 356.9 97.9 356.9 97.9 357.0 98.1 M 334.8 87.0 C 334.8 86.8 334.8 86.8 334.8 87.0 M 333.0 98.2 C 332.8 98.1 332.8 98.1 333.0 98.2 M 347.0 96.7 C 343.9 96.9 346.2 96.0 347.0 96.7 M 324.9 97.4 C 328.8 98.3 320.8 98.2 324.9 97.4 M 321.2 98.3 C 320.8 98.1 320.8 98.1 321.2 98.3 M 338.6 97.7 C 338.7 97.6 338.7 97.6 338.6 97.7 C 338.6 97.7 338.6 97.7 338.6 97.7 Z M 348.3 97.3 C 352.3 98.0 344.2 98.6 348.3 97.3 M 372.6 97.7 C 370.4 98.4 372.6 95.9 372.6 97.7 M 377.2 96.9 C 377.2 96.9 377.2 96.9 377.2 96.9 C 377.2 96.9 377.2 96.9 377.2 96.9 Z M 331.1 97.5 C 331.3 97.5 331.3 97.5 331.1 97.5 C 331.1 97.5 331.1 97.5 331.1 97.5 Z M 326.7 97.8 C 326.8 97.7 326.8 97.7 326.7 97.8 C 326.7 97.8 326.7 97.8 326.7 97.8 Z M 319.3 87.3 C 319.4 87.3 319.4 87.3 319.3 87.3 C 319.3 87.3 319.3 87.3 319.3 87.3 Z M 373.8 92.6 C 376.8 93.3 370.7 96.0 371.3 93.5 C 371.0 92.4 373.4 92.9 373.8 92.6 M 351.2 94.1 C 350.4 90.5 354.1 98.9 351.2 94.1 M 320.6 95.9 C 317.6 91.7 324.4 98.9 320.6 95.9 M 314.5 96.7 C 312.8 95.8 325.8 96.2 316.7 97.3 C 315.8 98.0 315.2 97.1 314.5 96.7 M 356.8 96.4 C 355.9 94.4 361.6 97.3 356.8 96.4 M 338.3 90.5 C 336.9 91.8 333.1 92.9 334.8 90.7 C 334.8 88.0 340.1 89.4 338.3 90.5 M 383.7 95.8 C 381.3 98.9 383.8 93.1 383.7 95.8 M 372.0 95.5 C 372.0 95.6 372.0 95.6 372.0 95.5 C 372.0 95.5 372.0 95.5 372.0 95.5 Z M 367.4 96.0 C 367.2 95.8 367.2 95.8 367.4 96.0 M 381.8 98.5 C 381.6 98.3 381.6 98.3 381.8 98.5 M 338.4 93.8 C 338.2 93.5 338.2 93.5 338.4 93.8 M 347.8 95.9 C 343.4 92.7 350.3 95.2 347.8 95.9 M 358.8 89.9 C 357.5 88.4 361.7 89.7 358.8 89.9 M 340.5 97.0 C 337.3 94.1 344.8 94.2 340.5 97.0 M 350.1 96.2 C 349.8 96.2 349.8 96.2 350.1 96.2 C 350.1 96.2 350.1 96.2 350.1 96.2 Z M 337.2 90.2 C 337.3 90.1 337.3 90.1 337.2 90.2 C 337.2 90.2 337.2 90.2 337.2 90.2 Z M 335.8 90.3 C 335.9 90.2 335.9 90.2 335.8 90.3 C 335.8 90.3 335.8 90.3 335.8 90.3 Z M 336.5 97.4 C 336.7 97.3 336.7 97.3 336.5 97.4 C 336.5 97.4 336.5 97.4 336.5 97.4 Z M 377.5 88.8 C 374.3 88.6 380.0 88.3 377.5 88.8 C 377.5 88.8 377.5 88.8 377.5 88.8 Z M 363.3 97.5 C 358.1 95.2 367.0 95.3 363.3 97.5 C 363.3 97.5 363.3 97.5 363.3 97.5 Z M 357.3 93.7 C 357.3 93.5 357.3 93.5 357.3 93.7 C 357.3 93.7 357.3 93.7 357.3 93.7 Z M 342.5 98.9 C 342.5 98.7 342.5 98.7 342.5 98.9 C 342.5 98.9 342.5 98.9 342.5 98.9 Z M 375.9 88.4 C 375.9 88.3 375.9 88.3 375.9 88.4 C 375.9 88.4 375.9 88.4 375.9 88.4 Z M 327.5 95.8 C 327.5 95.6 327.5 95.6 327.5 95.8 C 327.5 95.8 327.5 95.8 327.5 95.8 Z M 345.8 89.7 C 344.6 90.8 345.6 88.8 345.8 89.7 C 345.8 89.7 345.8 89.7 345.8 89.7 Z M 341.0 89.7 C 340.9 89.7 340.9 89.7 341.0 89.7 C 341.0 89.7 341.0 89.7 341.0 89.7 Z M 320.0 98.5 C 319.9 98.5 319.9 98.5 320.0 98.5 C 320.0 98.5 320.0 98.5 320.0 98.5 Z M 328.9 86.9 C 328.8 86.9 328.8 86.9 328.9 86.9 C 328.9 86.9 328.9 86.9 328.9 86.9 Z M 324.9 90.4 C 325.0 90.3 325.0 90.3 324.9 90.4 C 324.9 90.4 324.9 90.4 324.9 90.4 Z M 337.4 96.7 C 332.6 97.2 338.5 95.3 337.4 96.7 C 337.4 96.7 337.4 96.7 337.4 96.7 Z M 313.1 91.3 C 313.0 91.1 313.0 91.1 313.1 91.3 C 313.1 91.3 313.1 91.3 313.1 91.3 Z M 310.7 95.4 C 310.6 95.2 310.6 95.2 310.7 95.4 C 310.7 95.4 310.7 95.4 310.7 95.4 Z M 309.5 97.5 C 309.4 97.3 309.4 97.3 309.5 97.5 C 309.5 97.5 309.5 97.5 309.5 97.5 Z M 367.5 91.7 C 367.6 91.8 367.6 91.8 367.5 91.7 C 367.5 91.7 367.5 91.7 367.5 91.7 Z M 369.4 98.2 C 369.4 98.3 369.4 98.3 369.4 98.2 C 369.4 98.2 369.4 98.2 369.4 98.2 Z M 362.9 98.5 C 363.0 98.6 363.0 98.6 362.9 98.5 C 362.9 98.5 362.9 98.5 362.9 98.5 Z M 368.7 87.7 C 368.8 87.8 368.8 87.8 368.7 87.7 C 368.7 87.7 368.7 87.7 368.7 87.7 Z M 344.5 93.3 C 344.6 93.4 344.6 93.4 344.5 93.3 C 344.5 93.3 344.5 93.3 344.5 93.3 Z M 342.2 90.6 C 342.3 90.8 342.3 90.8 342.2 90.6 C 342.2 90.6 342.2 90.6 342.2 90.6 Z M 347.8 87.1 C 347.9 87.1 347.9 87.1 347.8 87.1 C 347.8 87.1 347.8 87.1 347.8 87.1 Z M 340.5 88.3 C 340.5 88.4 340.5 88.4 340.5 88.3 C 340.5 88.3 340.5 88.3 340.5 88.3 Z M 384.9 88.9 C 384.9 88.8 384.9 88.8 384.9 88.9 C 384.9 88.9 384.9 88.9 384.9 88.9 Z M 385.4 94.0 C 385.5 93.8 385.5 93.8 385.4 94.0 C 385.4 94.0 385.4 94.0 385.4 94.0 Z M 343.8 96.9 C 342.7 98.0 341.6 95.5 343.8 96.9 M 353.0 96.3 C 353.0 96.2 353.0 96.2 353.0 96.3 C 353.0 96.3 353.0 96.3 353.0 96.3 Z M 328.3 96.7 C 327.1 94.8 332.6 97.8 328.3 96.7 C 328.3 96.7 328.3 96.7 328.3 96.7 Z M 333.1 88.3 C 333.1 88.3 333.1 88.3 333.1 88.3 C 333.1 88.3 333.1 88.3 333.1 88.3 Z M 330.7 89.2 C 330.6 89.0 330.6 89.0 330.7 89.2 C 330.7 89.2 330.7 89.2 330.7 89.2 Z M 317.4 94.6 C 317.2 94.4 317.2 94.4 317.4 94.6 M 354.2 98.1 C 352.8 97.2 353.0 97.4 354.2 98.1 M 325.2 96.7 C 325.3 96.6 325.3 96.6 325.2 96.7 C 325.2 96.7 325.2 96.7 325.2 96.7 Z M 314.5 95.7 C 314.6 95.7 314.6 95.7 314.5 95.7 C 314.5 95.7 314.5 95.7 314.5 95.7 Z M 360.7 96.7 C 360.4 94.3 361.7 94.9 360.7 96.7 M 379.0 96.0 C 379.0 95.8 379.0 95.8 379.0 96.0 C 379.0 96.0 379.0 96.0 379.0 96.0 Z M 299.2 95.6 C 310.3 98.7 307.6 93.3 308.1 92.3 C 309.6 90.9 308.1 89.9 305.9 88.9 C 303.6 85.5 302.4 92.4 300.8 89.1 C 297.8 84.5 297.4 93.0 296.2 88.2 C 296.6 87.0 292.3 88.0 292.7 88.3 C 290.6 86.0 287.5 90.1 287.5 90.5 C 286.0 89.9 285.9 85.6 281.4 88.8 C 278.0 89.9 276.5 85.7 277.4 88.6 C 274.9 85.3 275.7 89.5 273.2 88.5 C 271.4 86.7 273.1 91.3 269.9 87.8 C 268.5 90.5 271.4 85.9 262.9 87.9 C 267.0 88.2 258.9 90.1 260.5 88.3 C 263.4 86.3 256.5 89.0 252.6 87.8 C 251.6 88.8 247.0 91.3 247.7 88.6 C 243.7 85.4 243.7 90.5 242.0 87.9 C 240.6 86.8 240.1 89.2 239.2 89.0 C 237.8 87.0 236.5 88.4 231.6 87.8 C 220.7 86.8 229.9 92.8 225.8 93.5 C 225.1 94.4 231.1 100.8 228.7 96.0 C 229.5 97.3 238.4 92.3 234.0 97.6 C 237.4 95.5 233.2 99.8 240.1 97.3 C 230.7 93.5 250.7 95.8 241.7 97.6 C 243.2 98.7 246.9 98.5 244.2 97.6 C 243.2 94.2 250.6 99.1 246.9 95.0 C 252.6 96.1 251.2 92.4 252.7 95.0 C 254.1 99.4 252.5 93.9 255.4 95.2 C 262.1 95.2 256.9 100.3 261.0 96.9 C 267.6 99.1 262.4 95.0 264.7 94.4 C 265.4 91.4 271.5 96.8 266.5 97.2 C 269.1 95.5 266.9 98.6 269.9 96.7 C 267.7 93.9 273.9 99.7 273.0 97.4 C 275.7 96.7 274.3 95.0 275.1 95.0 C 279.1 94.9 277.9 97.7 278.7 95.6 C 279.6 94.5 281.5 98.2 282.1 97.3 C 277.9 97.1 285.5 94.2 285.9 95.8 C 283.4 96.0 287.2 99.5 288.9 97.3 C 286.8 91.1 292.5 98.9 294.3 96.7 C 292.5 93.2 303.4 96.3 299.3 97.9 C 299.6 97.6 299.2 95.6 299.2 95.6 M 283.3 96.7 C 279.9 96.5 287.0 96.1 283.3 96.7 M 283.4 97.7 C 281.9 96.5 286.6 98.5 283.2 98.0 C 283.2 98.0 283.6 97.7 283.4 97.7 M 269.3 97.8 C 269.7 96.8 271.2 98.3 269.3 97.8 M 266.6 95.6 C 264.3 94.7 269.6 95.5 266.6 95.6 M 235.4 96.3 C 238.5 91.2 238.7 99.2 235.4 96.3 M 256.0 97.4 C 259.8 96.7 254.7 99.5 256.0 97.4 M 257.2 96.1 C 258.9 95.3 257.6 97.3 257.2 96.1 M 241.3 96.3 C 241.0 96.2 241.0 96.2 241.3 96.3 C 241.3 96.3 241.3 96.3 241.3 96.3 Z M 232.1 96.2 C 232.0 96.3 232.0 96.3 232.1 96.2 C 232.1 96.2 232.1 96.2 232.1 96.2 Z M 250.3 95.8 C 253.2 97.0 245.6 96.3 250.3 95.8 C 250.3 95.8 250.3 95.8 250.3 95.8 Z M 236.5 88.4 C 236.7 88.3 236.7 88.3 236.5 88.4 C 236.5 88.4 236.5 88.4 236.5 88.4 Z M 286.0 94.4 C 286.1 94.3 286.1 94.3 286.0 94.4 C 286.0 94.4 286.0 94.4 286.0 94.4 Z M 296.5 96.3 C 296.4 95.7 298.4 96.9 296.5 96.3 C 296.5 96.3 296.5 96.3 296.5 96.3 Z M 305.0 90.5 C 305.1 90.4 305.1 90.4 305.0 90.5 C 305.0 90.5 305.0 90.5 305.0 90.5 Z M 289.5 91.7 C 289.6 91.6 289.6 91.6 289.5 91.7 C 289.5 91.7 289.5 91.7 289.5 91.7 Z M 288.0 95.5 C 289.7 98.3 284.0 94.8 288.0 95.5 C 288.0 95.5 288.0 95.5 288.0 95.5 Z M 253.8 88.7 C 253.7 89.9 251.4 88.3 253.8 88.7 C 253.8 88.7 253.8 88.7 253.8 88.7 Z M 266.2 94.5 C 265.8 95.2 264.7 94.2 266.2 94.5 C 266.2 94.5 266.2 94.5 266.2 94.5 Z M 272.0 98.3 C 271.5 99.0 270.4 98.0 272.0 98.3 C 272.0 98.3 272.0 98.3 272.0 98.3 Z M 296.3 97.1 C 296.1 97.3 296.1 97.3 296.3 97.1 C 296.3 97.1 296.3 97.1 296.3 97.1 Z M 292.6 95.0 C 295.1 97.6 288.5 93.6 292.6 95.0 C 292.6 95.0 292.6 95.0 292.6 95.0 Z M 297.0 94.2 C 295.6 93.2 300.4 94.7 297.0 94.2 M 294.5 90.2 C 291.3 91.3 297.3 85.4 294.5 90.2 C 294.5 90.2 294.5 90.2 294.5 90.2 Z M 278.2 89.1 C 278.0 89.0 278.0 89.0 278.2 89.1 C 278.2 89.1 278.2 89.1 278.2 89.1 Z M 279.9 96.8 C 277.1 96.8 281.8 96.2 279.9 96.8 C 279.9 96.8 279.9 96.8 279.9 96.8 Z M 304.4 97.4 C 301.5 97.3 306.2 96.8 304.4 97.4 C 304.4 97.4 304.4 97.4 304.4 97.4 Z M 268.8 91.7 C 264.2 92.1 271.6 90.3 268.8 91.7 C 268.8 91.7 268.8 91.7 268.8 91.7 Z M 251.9 94.8 C 251.8 94.7 251.8 94.7 251.9 94.8 C 251.9 94.8 251.9 94.8 251.9 94.8 Z M 248.8 95.9 C 248.7 95.8 248.7 95.8 248.8 95.9 C 248.8 95.9 248.8 95.9 248.8 95.9 Z M 235.7 93.1 C 235.4 93.0 235.4 93.0 235.7 93.1 C 235.7 93.1 235.7 93.1 235.7 93.1 Z M 245.9 97.1 C 245.8 97.1 245.8 97.1 245.9 97.1 C 245.9 97.1 245.9 97.1 245.9 97.1 Z M 236.8 96.4 C 236.6 96.3 236.6 96.3 236.8 96.4 C 236.8 96.4 236.8 96.4 236.8 96.4 Z M 238.1 98.7 C 237.9 98.6 237.9 98.6 238.1 98.7 C 238.1 98.7 238.1 98.7 238.1 98.7 Z M 258.3 87.2 C 258.1 87.1 258.1 87.1 258.3 87.2 C 258.3 87.2 258.3 87.2 258.3 87.2 Z M 291.3 98.0 C 291.1 97.8 291.1 97.8 291.3 98.0 C 291.3 98.0 291.3 98.0 291.3 98.0 Z M 237.5 95.4 C 237.5 95.3 237.5 95.3 237.5 95.4 C 237.5 95.4 237.5 95.4 237.5 95.4 Z M 259.7 93.3 C 259.6 91.0 261.6 96.3 259.2 93.4 C 259.3 93.3 259.9 93.7 259.7 93.3 M 256.7 89.6 C 256.9 89.5 256.9 89.5 256.7 89.6 C 256.7 89.6 256.7 89.6 256.7 89.6 Z M 266.8 88.2 C 266.9 88.1 266.9 88.1 266.8 88.2 C 266.8 88.2 266.8 88.2 266.8 88.2 Z M 247.5 97.6 C 247.9 98.8 245.0 96.6 247.9 97.5 M 235.6 89.2 C 236.0 90.4 233.1 88.2 235.9 89.1 M 307.6 96.6 C 308.0 95.6 309.5 97.2 307.6 96.6 M 269.0 87.0 C 269.4 86.0 270.9 87.5 269.0 87.0 M 264.3 89.9 C 264.8 91.1 261.9 88.9 264.7 89.8 M 242.5 89.3 C 242.3 89.2 242.3 89.2 242.5 89.3 C 242.5 89.3 242.5 89.3 242.5 89.3 Z M 275.7 96.6 C 275.5 96.6 275.5 96.6 275.7 96.6 C 275.7 96.6 275.7 96.6 275.7 96.6 Z M 263.4 93.9 C 265.1 95.6 261.2 92.8 263.4 93.9 M 279.2 93.6 C 281.6 95.7 275.4 92.9 279.2 93.6 M 230.4 88.7 C 233.1 91.2 228.4 87.2 230.4 88.7 M 243.8 95.1 C 246.5 97.7 241.8 93.7 243.8 95.1 M 273.2 95.5 C 273.4 96.8 270.5 94.7 273.2 95.5 M 301.2 96.8 C 303.8 97.1 297.8 97.9 301.2 96.8 M 249.1 89.2 C 249.0 89.1 249.0 89.1 249.1 89.2 C 249.1 89.2 249.1 89.2 249.1 89.2 Z M 292.7 86.9 C 292.6 86.8 292.6 86.8 292.7 86.9 C 292.7 86.9 292.7 86.9 292.7 86.9 Z M 226.9 97.1 C 226.7 97.1 226.7 97.1 226.9 97.1 C 226.9 97.1 226.9 97.1 226.9 97.1 Z M 245.5 93.9 C 245.4 93.8 245.4 93.8 245.5 93.9 C 245.5 93.9 245.5 93.9 245.5 93.9 Z M 232.1 97.5 C 231.9 97.3 231.9 97.3 232.1 97.5 C 232.1 97.5 232.1 97.5 232.1 97.5 Z M 254.0 91.9 C 253.9 91.9 253.9 91.9 254.0 91.9 C 254.0 91.9 254.0 91.9 254.0 91.9 Z M 255.7 98.5 C 255.6 98.5 255.6 98.5 255.7 98.5 C 255.7 98.5 255.7 98.5 255.7 98.5 Z M 265.0 95.7 C 264.9 95.7 264.9 95.7 265.0 95.7 C 265.0 95.7 265.0 95.7 265.0 95.7 Z M 251.5 98.0 C 245.9 98.4 254.3 95.8 251.5 98.0 C 251.5 98.0 251.5 98.0 251.5 98.0 Z M 261.0 91.4 C 261.0 91.4 261.0 91.4 261.0 91.4 C 261.0 91.4 261.0 91.4 261.0 91.4 Z M 261.8 96.1 C 258.3 98.0 260.0 92.9 261.8 96.1 M 277.3 97.6 C 276.2 98.6 276.8 96.1 277.3 97.6 M 283.4 89.0 C 283.5 88.9 283.5 88.9 283.4 89.0 C 283.4 89.0 283.4 89.0 283.4 89.0 Z M 281.8 89.6 C 281.6 89.6 281.6 89.6 281.8 89.6 C 281.8 89.6 281.8 89.6 281.8 89.6 Z M 281.0 98.0 C 281.0 98.0 281.0 98.0 281.0 98.0 C 281.0 98.0 281.0 98.0 281.0 98.0 Z M 281.6 87.2 C 281.4 87.1 281.4 87.1 281.6 87.2 C 281.6 87.2 281.6 87.2 281.6 87.2 Z M 257.8 98.4 C 257.7 98.3 257.7 98.3 257.8 98.4 C 257.8 98.4 257.8 98.4 257.8 98.4 Z M 229.4 98.4 C 229.3 98.4 229.3 98.4 229.4 98.4 C 229.4 98.4 229.4 98.4 229.4 98.4 Z M 300.4 89.9 C 300.2 89.8 300.2 89.8 300.4 89.9 C 300.4 89.9 300.4 89.9 300.4 89.9 Z M 254.8 95.7 C 254.8 95.7 254.8 95.7 254.8 95.7 C 254.8 95.7 254.8 95.7 254.8 95.7 Z M 287.5 89.4 C 287.4 89.3 287.4 89.3 287.5 89.4 C 287.5 89.4 287.5 89.4 287.5 89.4 Z M 256.7 96.3 C 256.6 96.3 256.6 96.3 256.7 96.3 C 256.7 96.3 256.7 96.3 256.7 96.3 Z M 250.0 88.6 C 249.9 88.6 249.9 88.6 250.0 88.6 C 250.0 88.6 250.0 88.6 250.0 88.6 Z M 243.9 87.1 C 243.8 87.1 243.8 87.1 243.9 87.1 C 243.9 87.1 243.9 87.1 243.9 87.1 Z M 250.4 93.2 C 250.3 93.2 250.3 93.2 250.4 93.2 C 250.4 93.2 250.4 93.2 250.4 93.2 Z M 289.5 92.2 C 300.6 94.5 280.6 93.2 289.5 92.2 M 248.5 92.7 C 256.4 93.2 242.3 95.3 248.5 92.7 C 247.7 93.4 248.4 92.8 248.5 92.7 M 218.5 97.5 C 223.5 100.2 223.5 96.4 223.5 96.3 C 223.0 101.4 228.0 94.2 227.0 93.3 C 227.2 92.6 223.3 83.7 219.8 89.0 C 218.8 89.7 218.3 88.2 217.6 88.0 C 211.5 88.3 221.8 90.8 214.3 90.8 C 213.0 90.1 214.5 85.8 210.2 88.8 C 210.0 88.4 205.0 86.8 206.9 88.8 C 204.5 86.8 203.0 89.1 200.8 89.6 C 198.7 88.5 202.4 86.5 195.2 88.9 C 192.2 85.4 191.1 91.5 188.3 87.6 C 186.5 87.5 183.7 93.9 187.9 90.3 C 187.3 90.7 189.9 93.7 184.3 92.6 C 185.1 91.8 188.2 85.3 179.3 88.4 C 177.8 88.3 174.4 89.9 173.6 89.2 C 178.2 88.5 167.4 86.4 168.4 88.3 C 161.3 87.0 165.4 89.9 160.3 87.8 C 156.0 87.7 161.7 90.6 156.4 88.9 C 152.5 89.3 155.1 87.7 155.5 87.8 C 152.1 87.5 150.9 88.6 149.7 88.5 C 148.9 88.2 147.4 86.9 146.5 88.5 C 142.9 91.4 146.2 94.4 144.6 97.3 C 147.3 98.7 145.8 95.0 147.6 97.3 C 148.9 95.4 147.8 97.4 155.0 97.0 C 154.9 96.5 153.1 95.3 154.9 95.1 C 157.7 95.3 155.7 100.3 160.3 96.8 C 154.8 95.7 168.0 95.2 162.9 94.1 C 169.2 93.6 164.7 94.6 169.3 95.7 C 169.1 92.4 169.7 99.3 171.4 96.6 C 171.8 98.0 179.1 97.4 173.9 95.4 C 181.4 94.5 176.6 96.4 179.3 98.1 C 182.8 98.4 179.6 92.7 181.7 96.8 C 186.2 98.7 181.9 94.8 185.2 98.0 C 183.7 95.1 188.5 98.0 187.3 94.9 C 195.0 94.7 186.3 98.2 191.7 96.1 C 190.1 96.0 190.7 100.1 194.0 97.4 C 192.6 92.5 198.4 101.8 196.0 95.2 C 206.7 93.4 197.8 98.0 203.7 98.0 C 205.2 98.0 202.0 95.8 203.4 95.8 C 211.0 96.7 204.7 98.4 208.7 95.2 C 216.2 94.4 210.8 98.0 214.5 98.2 C 214.8 96.7 217.8 94.1 218.5 97.5 M 211.8 95.9 C 210.3 96.9 210.8 94.9 211.8 95.9 M 226.9 97.4 C 225.3 98.5 226.0 96.4 226.9 97.4 M 205.6 96.9 C 203.5 97.9 205.0 95.2 205.6 96.9 M 165.1 95.3 C 167.9 95.3 163.8 96.1 165.1 95.3 M 220.9 97.6 C 218.7 98.9 220.3 95.9 220.9 97.6 M 223.7 95.1 C 223.5 95.1 223.5 95.1 223.7 95.1 M 161.1 97.9 C 161.0 97.9 161.0 97.9 161.1 97.9 M 172.0 98.0 C 169.7 97.9 173.2 97.3 172.0 98.0 M 172.4 87.2 C 170.0 87.1 173.7 86.5 172.4 87.2 M 155.2 98.1 C 152.9 98.9 154.5 96.9 155.2 98.1 M 149.1 95.7 C 147.1 96.7 147.8 94.6 149.1 95.7 M 213.2 92.2 C 213.2 92.0 213.2 92.0 213.2 92.2 C 213.2 92.2 213.2 92.2 213.2 92.2 Z M 193.3 89.5 C 195.6 90.6 190.4 88.2 193.3 89.5 M 197.0 96.5 C 195.4 94.3 200.0 96.7 197.0 96.5 C 197.0 96.5 197.0 96.5 197.0 96.5 Z M 200.4 95.5 C 200.5 95.4 200.5 95.4 200.4 95.5 C 200.4 95.5 200.4 95.5 200.4 95.5 Z M 189.2 95.4 C 189.3 95.4 189.3 95.4 189.2 95.4 C 189.2 95.4 189.2 95.4 189.2 95.4 Z M 191.5 95.2 C 192.4 94.8 192.8 95.7 191.5 95.2 C 191.5 95.2 191.5 95.2 191.5 95.2 Z M 175.2 88.3 C 176.1 87.8 176.4 88.8 175.2 88.3 C 175.2 88.3 175.2 88.3 175.2 88.3 Z M 195.0 94.5 C 195.4 92.3 196.7 95.9 195.0 94.5 C 195.0 94.5 195.0 94.5 195.0 94.5 Z M 183.0 89.3 C 182.0 89.9 180.9 87.2 183.0 89.3 M 158.8 97.5 C 157.8 98.1 156.7 95.5 158.8 97.5 M 182.6 98.1 C 181.6 98.7 180.5 96.1 182.6 98.1 M 210.5 96.9 C 210.3 96.6 210.3 96.6 210.5 96.9 M 197.3 87.4 C 195.8 88.2 196.5 86.4 197.3 87.4 M 219.7 88.1 C 218.2 88.9 219.0 87.1 219.7 88.1 M 162.2 87.4 C 162.3 88.0 159.8 87.2 162.2 87.4 M 179.8 94.7 C 177.7 94.4 175.6 93.2 179.9 93.3 C 180.2 93.9 178.9 94.2 179.8 94.7 C 179.8 94.7 179.8 94.7 179.8 94.7 Z M 172.3 89.7 C 172.0 89.5 172.0 89.5 172.3 89.7 M 176.1 96.7 C 175.8 96.5 175.8 96.5 176.1 96.7 M 163.9 96.5 C 163.7 96.1 163.7 96.1 163.9 96.5 M 162.4 97.1 C 162.5 97.0 162.5 97.0 162.4 97.1 C 162.4 97.1 162.4 97.1 162.4 97.1 Z M 149.1 98.0 C 149.1 97.9 149.1 97.9 149.1 98.0 C 149.1 98.0 149.1 98.0 149.1 98.0 Z M 167.8 96.2 C 167.9 96.1 167.9 96.1 167.8 96.2 C 167.8 96.2 167.8 96.2 167.8 96.2 Z M 156.8 87.9 C 156.8 87.8 156.8 87.8 156.8 87.9 C 156.8 87.9 156.8 87.9 156.8 87.9 Z M 158.2 89.2 C 158.2 89.1 158.2 89.1 158.2 89.2 C 158.2 89.2 158.2 89.2 158.2 89.2 Z M 217.4 97.5 C 215.6 99.0 216.5 93.7 217.4 97.5 M 152.3 89.2 C 150.5 87.7 155.4 88.9 152.3 89.2 C 152.3 89.2 152.3 89.2 152.3 89.2 Z M 169.3 94.4 C 169.1 94.1 169.1 94.1 169.3 94.4 M 161.7 96.9 C 161.5 96.6 161.5 96.6 161.7 96.9 M 197.0 98.5 C 196.9 98.2 196.9 98.2 197.0 98.5 M 152.3 96.5 C 146.6 95.9 154.8 93.3 152.3 96.5 M 199.6 96.4 C 199.8 96.6 199.8 96.6 199.6 96.4 M 186.9 92.4 C 183.1 92.5 188.2 91.2 186.9 92.4 M 177.2 95.1 C 177.3 95.0 177.3 95.0 177.2 95.1 C 177.2 95.1 177.2 95.1 177.2 95.1 Z M 182.8 95.1 C 185.6 94.8 183.5 95.7 182.8 95.1 C 182.8 95.1 182.8 95.1 182.8 95.1 Z M 214.8 95.5 C 211.2 95.1 218.5 94.7 214.8 95.5 C 214.8 95.5 214.8 95.5 214.8 95.5 Z M 154.9 91.4 C 155.0 91.2 155.0 91.2 154.9 91.4 C 154.9 91.4 154.9 91.4 154.9 91.4 Z M 168.5 97.7 C 170.2 97.2 169.3 98.3 168.5 97.7 C 168.5 97.7 168.5 97.7 168.5 97.7 Z M 147.1 98.0 C 148.8 97.4 147.9 98.6 147.1 98.0 C 147.1 98.0 147.1 98.0 147.1 98.0 Z M 219.1 95.8 C 205.9 92.2 236.7 96.8 219.1 95.8 C 219.1 95.8 219.1 95.8 219.1 95.8 Z M 180.6 96.6 C 180.7 96.5 180.7 96.5 180.6 96.6 C 180.6 96.6 180.6 96.6 180.6 96.6 Z M 204.9 98.1 C 204.9 98.0 204.9 98.0 204.9 98.1 C 204.9 98.1 204.9 98.1 204.9 98.1 Z M 209.0 96.1 C 209.1 96.0 209.1 96.0 209.0 96.1 C 209.0 96.1 209.0 96.1 209.0 96.1 Z M 207.8 87.6 C 207.9 87.5 207.9 87.5 207.8 87.6 C 207.8 87.6 207.8 87.6 207.8 87.6 Z M 206.4 91.5 C 206.6 91.2 206.6 91.2 206.4 91.5 C 206.4 91.5 206.4 91.5 206.4 91.5 Z M 214.9 90.0 C 215.0 89.9 215.0 89.9 214.9 90.0 C 214.9 90.0 214.9 90.0 214.9 90.0 Z M 214.7 88.9 C 214.8 88.8 214.8 88.8 214.7 88.9 C 214.7 88.9 214.7 88.9 214.7 88.9 Z M 161.6 94.5 C 161.8 94.3 161.8 94.3 161.6 94.5 C 161.6 94.5 161.6 94.5 161.6 94.5 Z M 166.2 90.9 C 163.1 92.2 167.1 89.1 166.2 90.9 C 166.2 90.9 166.2 90.9 166.2 90.9 Z M 193.4 92.7 C 190.5 93.1 195.2 91.6 193.4 92.7 C 193.4 92.7 193.4 92.7 193.4 92.7 Z M 190.3 88.0 C 190.3 88.0 190.3 88.0 190.3 88.0 C 190.3 88.0 190.3 88.0 190.3 88.0 Z M 209.0 98.2 C 209.1 98.0 209.1 98.0 209.0 98.2 C 209.0 98.2 209.0 98.2 209.0 98.2 Z M 214.2 96.7 C 214.4 94.9 215.7 97.6 214.2 96.7 M 188.1 97.8 C 188.1 97.5 188.1 97.5 188.1 97.8 C 188.1 97.8 188.1 97.8 188.1 97.8 Z M 171.6 95.0 C 171.7 94.8 171.7 94.8 171.6 95.0 C 171.6 95.0 171.6 95.0 171.6 95.0 Z M 155.3 96.1 C 155.3 95.9 155.3 95.9 155.3 96.1 C 155.3 96.1 155.3 96.1 155.3 96.1 Z M 177.9 97.5 C 177.9 97.3 177.9 97.3 177.9 97.5 C 177.9 97.5 177.9 97.5 177.9 97.5 Z M 185.6 95.9 C 185.7 95.6 185.7 95.6 185.6 95.9 C 185.6 95.9 185.6 95.9 185.6 95.9 Z M 151.7 93.6 C 151.8 93.5 151.8 93.5 151.7 93.6 C 151.7 93.6 151.7 93.6 151.7 93.6 Z M 176.0 97.8 C 176.1 97.7 176.1 97.7 176.0 97.8 C 176.0 97.8 176.0 97.8 176.0 97.8 Z M 171.3 92.1 C 171.4 91.9 171.4 91.9 171.3 92.1 C 171.3 92.1 171.3 92.1 171.3 92.1 Z M 213.4 99.3 C 213.5 99.2 213.5 99.2 213.4 99.3 C 213.4 99.3 213.4 99.3 213.4 99.3 Z M 151.5 96.0 C 151.6 95.9 151.6 95.9 151.5 96.0 C 151.5 96.0 151.5 96.0 151.5 96.0 Z M 150.5 97.6 C 150.6 97.5 150.6 97.5 150.5 97.6 C 150.5 97.6 150.5 97.6 150.5 97.6 Z M 162.1 89.0 C 167.8 90.0 156.9 89.4 161.1 91.4 C 152.8 91.9 160.8 88.9 162.1 89.0 C 162.1 89.0 162.1 89.0 162.1 89.0 Z M 142.7 98.2 C 146.0 95.8 146.0 93.5 144.6 91.0 C 143.0 89.7 143.0 94.6 143.0 90.5 C 146.6 89.7 141.4 84.3 141.5 89.6 C 136.6 90.3 140.7 86.2 137.8 88.3 C 132.6 88.8 135.3 87.2 131.3 87.6 C 129.0 90.5 129.0 86.2 128.0 88.9 C 129.9 85.9 123.7 89.7 123.6 88.4 C 127.2 86.5 109.8 88.4 119.3 89.2 C 115.4 90.6 116.2 88.1 114.8 87.8 C 113.2 89.5 108.5 86.4 106.1 88.1 C 106.6 88.5 107.8 88.6 108.1 89.2 C 108.8 90.4 105.5 89.0 105.8 89.1 C 104.2 89.7 98.0 91.5 104.7 88.4 C 105.0 87.0 99.3 89.0 99.5 87.8 C 93.7 87.7 98.0 90.6 95.4 88.4 C 91.3 88.4 88.4 88.4 88.4 88.8 C 85.9 88.4 85.4 86.8 83.1 88.4 C 78.1 85.2 79.6 94.4 77.6 88.3 C 76.2 89.7 74.8 85.7 75.0 89.5 C 76.8 87.8 66.4 86.5 70.9 89.3 C 69.7 90.2 63.2 85.4 64.1 89.3 C 61.8 92.1 62.2 94.9 67.3 97.6 C 66.7 95.4 72.6 99.9 68.8 96.1 C 64.5 94.9 76.8 94.8 74.2 96.1 C 73.6 100.7 80.2 93.3 82.8 96.6 C 80.7 94.8 90.7 93.9 87.8 97.2 C 89.6 97.5 90.1 95.9 92.1 97.9 C 86.1 97.6 94.4 94.3 94.0 96.4 C 93.0 97.7 102.0 98.7 101.1 96.8 C 97.9 92.1 103.4 97.8 104.9 95.9 C 109.8 94.9 104.1 99.9 107.8 96.5 C 108.8 97.1 115.4 97.1 111.2 98.0 C 109.7 97.6 115.1 92.9 115.8 96.9 C 108.8 99.1 123.9 98.1 121.5 96.9 C 110.7 94.7 133.0 94.4 124.5 96.6 C 129.3 98.8 123.1 97.5 129.1 96.5 C 128.3 95.3 132.9 94.1 131.8 96.6 C 132.8 100.4 133.4 91.5 137.1 96.7 C 137.6 98.9 144.3 95.1 141.7 97.5 C 141.6 97.8 142.6 98.2 142.7 98.2 M 140.6 97.8 C 141.4 96.9 141.9 98.8 140.6 97.8 M 141.5 97.0 C 141.5 97.0 141.5 97.0 141.5 97.0 C 141.5 97.0 141.5 97.0 141.5 97.0 Z M 129.9 96.4 C 130.0 96.5 130.0 96.5 129.9 96.4 C 129.9 96.4 129.9 96.4 129.9 96.4 Z M 120.8 86.9 C 120.9 87.0 120.9 87.0 120.8 86.9 C 120.8 86.9 120.8 86.9 120.8 86.9 Z M 122.2 96.2 C 122.3 96.2 122.3 96.2 122.2 96.2 C 122.2 96.2 122.2 96.2 122.2 96.2 Z M 134.0 95.8 C 134.1 95.8 134.1 95.8 134.0 95.8 C 134.0 95.8 134.0 95.8 134.0 95.8 Z M 123.0 97.6 C 122.4 96.1 125.6 98.6 122.8 97.8 C 122.7 97.7 123.2 97.7 123.0 97.6 M 112.9 98.1 C 112.9 97.9 112.9 97.9 112.9 98.1 M 90.8 87.0 C 90.7 86.8 90.7 86.8 90.8 87.0 M 89.0 98.2 C 88.7 98.1 88.7 98.1 89.0 98.2 M 103.0 96.7 C 99.9 96.9 102.2 96.0 103.0 96.7 M 80.9 97.4 C 84.7 98.3 76.8 98.2 80.9 97.4 M 77.2 98.3 C 76.8 98.1 76.8 98.1 77.2 98.3 M 94.6 97.7 C 94.6 97.6 94.6 97.6 94.6 97.7 C 94.6 97.7 94.6 97.7 94.6 97.7 Z M 104.2 97.3 C 108.3 98.0 100.2 98.6 104.2 97.3 M 128.6 97.7 C 126.4 98.4 128.6 95.9 128.6 97.7 M 133.1 96.9 C 133.2 96.9 133.2 96.9 133.1 96.9 C 133.1 96.9 133.1 96.9 133.1 96.9 Z M 87.1 97.5 C 87.2 97.5 87.2 97.5 87.1 97.5 C 87.1 97.5 87.1 97.5 87.1 97.5 Z M 82.6 97.8 C 82.8 97.7 82.8 97.7 82.6 97.8 C 82.6 97.8 82.6 97.8 82.6 97.8 Z M 75.2 87.3 C 75.4 87.3 75.4 87.3 75.2 87.3 C 75.2 87.3 75.2 87.3 75.2 87.3 Z M 129.8 92.6 C 132.7 93.3 126.7 96.0 127.3 93.5 C 127.0 92.4 129.4 92.9 129.8 92.6 M 107.2 94.1 C 106.4 90.5 110.1 98.9 107.2 94.1 M 76.6 95.9 C 73.6 91.7 80.4 98.9 76.6 95.9 M 70.5 96.7 C 68.7 95.8 81.8 96.2 72.7 97.3 C 71.8 98.0 71.1 97.1 70.5 96.7 M 112.8 96.4 C 111.9 94.4 117.5 97.3 112.8 96.4 M 94.3 90.5 C 92.9 91.8 89.0 92.9 90.7 90.7 C 90.8 88.0 96.1 89.4 94.3 90.5 M 139.7 95.8 C 137.3 98.9 139.8 93.1 139.7 95.8 M 128.0 95.5 C 128.0 95.6 128.0 95.6 128.0 95.5 C 128.0 95.5 128.0 95.5 128.0 95.5 Z M 123.4 96.0 C 123.2 95.8 123.2 95.8 123.4 96.0 M 137.8 98.5 C 137.6 98.3 137.6 98.3 137.8 98.5 M 94.4 93.8 C 94.2 93.5 94.2 93.5 94.4 93.8 M 103.8 95.9 C 99.4 92.7 106.2 95.2 103.8 95.9 M 114.8 89.9 C 113.5 88.4 117.6 89.7 114.8 89.9 M 96.4 97.0 C 93.3 94.1 100.8 94.2 96.4 97.0 M 106.1 96.2 C 105.8 96.2 105.8 96.2 106.1 96.2 C 106.1 96.2 106.1 96.2 106.1 96.2 Z M 93.1 90.2 C 93.2 90.1 93.2 90.1 93.1 90.2 C 93.1 90.2 93.1 90.2 93.1 90.2 Z M 91.8 90.3 C 91.9 90.3 91.9 90.3 91.8 90.3 C 91.8 90.3 91.8 90.3 91.8 90.3 Z M 92.5 97.4 C 92.7 97.3 92.7 97.3 92.5 97.4 C 92.5 97.4 92.5 97.4 92.5 97.4 Z M 133.4 88.8 C 130.2 88.6 135.9 88.3 133.4 88.8 C 133.4 88.8 133.4 88.8 133.4 88.8 Z M 119.3 97.5 C 114.0 95.2 123.0 95.3 119.3 97.5 C 119.3 97.5 119.3 97.5 119.3 97.5 Z M 113.3 93.7 C 113.3 93.5 113.3 93.5 113.3 93.7 C 113.3 93.7 113.3 93.7 113.3 93.7 Z M 98.5 98.9 C 98.5 98.7 98.5 98.7 98.5 98.9 C 98.5 98.9 98.5 98.9 98.5 98.9 Z M 131.8 88.4 C 131.8 88.3 131.8 88.3 131.8 88.4 C 131.8 88.4 131.8 88.4 131.8 88.4 Z M 83.5 95.8 C 83.5 95.6 83.5 95.6 83.5 95.8 C 83.5 95.8 83.5 95.8 83.5 95.8 Z M 101.8 89.7 C 100.6 90.8 101.5 88.8 101.8 89.7 C 101.8 89.7 101.8 89.7 101.8 89.7 Z M 97.0 89.7 C 96.9 89.7 96.9 89.7 97.0 89.7 C 97.0 89.7 97.0 89.7 97.0 89.7 Z M 76.0 98.5 C 75.8 98.5 75.8 98.5 76.0 98.5 C 76.0 98.5 76.0 98.5 76.0 98.5 Z M 84.9 86.9 C 84.7 86.9 84.7 86.9 84.9 86.9 C 84.9 86.9 84.9 86.9 84.9 86.9 Z M 80.9 90.4 C 80.9 90.3 80.9 90.3 80.9 90.4 C 80.9 90.4 80.9 90.4 80.9 90.4 Z M 93.4 96.7 C 88.6 97.2 94.5 95.3 93.4 96.7 C 93.4 96.7 93.4 96.7 93.4 96.7 Z M 69.1 91.3 C 69.0 91.1 69.0 91.1 69.1 91.3 C 69.1 91.3 69.1 91.3 69.1 91.3 Z M 66.7 95.4 C 66.5 95.2 66.5 95.2 66.7 95.4 C 66.7 95.4 66.7 95.4 66.7 95.4 Z M 65.5 97.5 C 65.3 97.3 65.3 97.3 65.5 97.5 C 65.5 97.5 65.5 97.5 65.5 97.5 Z M 123.5 91.7 C 123.6 91.8 123.6 91.8 123.5 91.7 C 123.5 91.7 123.5 91.7 123.5 91.7 Z M 125.4 98.2 C 125.4 98.3 125.4 98.3 125.4 98.2 C 125.4 98.2 125.4 98.2 125.4 98.2 Z M 118.9 98.5 C 119.0 98.6 119.0 98.6 118.9 98.5 C 118.9 98.5 118.9 98.5 118.9 98.5 Z M 124.7 87.7 C 124.7 87.8 124.7 87.8 124.7 87.7 C 124.7 87.7 124.7 87.7 124.7 87.7 Z M 100.5 93.3 C 100.6 93.4 100.6 93.4 100.5 93.3 C 100.5 93.3 100.5 93.3 100.5 93.3 Z M 98.2 90.6 C 98.3 90.8 98.3 90.8 98.2 90.6 C 98.2 90.6 98.2 90.6 98.2 90.6 Z M 103.8 87.1 C 103.8 87.1 103.8 87.1 103.8 87.1 C 103.8 87.1 103.8 87.1 103.8 87.1 Z M 96.4 88.3 C 96.5 88.4 96.5 88.4 96.4 88.3 C 96.4 88.3 96.4 88.3 96.4 88.3 Z M 140.9 88.9 C 140.9 88.8 140.9 88.8 140.9 88.9 C 140.9 88.9 140.9 88.9 140.9 88.9 Z M 141.4 94.0 C 141.5 93.8 141.5 93.8 141.4 94.0 C 141.4 94.0 141.4 94.0 141.4 94.0 Z M 99.7 96.9 C 98.7 98.0 97.5 95.5 99.7 96.9 M 109.0 96.3 C 109.0 96.2 109.0 96.2 109.0 96.3 C 109.0 96.3 109.0 96.3 109.0 96.3 Z M 84.2 96.7 C 83.1 94.8 88.6 97.8 84.2 96.7 C 84.2 96.7 84.2 96.7 84.2 96.7 Z M 89.1 88.3 C 89.0 88.3 89.0 88.3 89.1 88.3 C 89.1 88.3 89.1 88.3 89.1 88.3 Z M 86.7 89.2 C 86.5 89.0 86.5 89.0 86.7 89.2 C 86.7 89.2 86.7 89.2 86.7 89.2 Z M 73.4 94.6 C 73.1 94.4 73.1 94.4 73.4 94.6 M 110.1 98.1 C 108.7 97.2 109.0 97.4 110.1 98.1 M 81.1 96.7 C 81.3 96.6 81.3 96.6 81.1 96.7 C 81.1 96.7 81.1 96.7 81.1 96.7 Z M 70.4 95.7 C 70.6 95.7 70.6 95.7 70.4 95.7 C 70.4 95.7 70.4 95.7 70.4 95.7 Z M 116.7 96.7 C 116.4 94.3 117.7 94.9 116.7 96.7 M 135.0 96.0 C 135.0 95.8 135.0 95.8 135.0 96.0 C 135.0 96.0 135.0 96.0 135.0 96.0 Z M 55.8 97.5 C 60.8 100.2 60.8 96.4 60.8 96.3 C 60.3 101.4 65.3 94.2 64.3 93.3 C 64.5 92.6 60.6 83.7 57.1 89.0 C 56.2 89.7 55.6 88.2 54.9 88.0 C 53.4 88.1 52.3 88.3 52.3 88.6 C 52.3 88.8 52.9 89.2 53.5 89.5 C 54.8 90.2 55.2 90.8 50.9 90.8 C 49.3 90.1 50.4 85.6 46.4 89.1 C 46.1 88.7 40.7 88.4 43.1 89.7 C 41.7 89.1 39.9 90.1 39.0 91.2 C 38.1 92.3 37.7 93.6 37.0 94.8 C 35.7 95.5 35.4 94.6 34.9 94.7 C 34.7 94.7 34.4 95.0 34.0 96.0 C 33.6 96.9 33.2 98.7 33.4 100.6 C 31.3 101.7 31.9 103.1 32.4 104.2 C 32.9 105.3 33.5 106.2 31.5 108.0 C 31.4 110.2 37.8 113.8 34.2 108.5 C 34.4 108.8 35.2 108.2 35.9 108.4 C 36.6 108.5 37.0 109.8 36.5 112.7 C 35.7 111.9 29.2 108.7 32.3 117.7 C 32.2 119.1 33.8 122.5 33.1 123.3 C 32.4 118.7 30.3 129.6 32.2 128.5 C 30.9 135.6 33.8 131.5 31.7 136.6 C 31.6 140.9 34.5 135.3 32.8 140.5 C 33.0 142.5 32.7 143.5 32.3 143.2 C 32.0 142.9 31.6 141.9 31.7 141.6 C 31.4 146.3 32.6 147.2 32.7 148.4 C 32.4 149.2 31.4 151.1 33.2 151.5 C 36.9 154.4 38.9 150.6 42.0 150.2 C 42.6 148.2 39.6 150.2 41.5 148.8 C 40.5 148.6 40.6 148.5 40.7 147.9 C 40.9 147.4 41.1 147.0 40.9 142.3 C 40.4 142.5 39.2 144.8 39.0 142.5 C 39.2 138.9 44.2 141.3 40.7 136.6 C 39.6 142.1 39.1 128.9 38.0 134.0 C 37.5 127.7 38.5 132.2 39.6 127.6 C 36.3 127.8 43.2 127.2 40.5 125.5 C 41.9 125.1 41.3 117.9 39.3 123.0 C 38.4 115.6 40.3 120.3 42.0 117.6 C 42.3 114.1 36.6 117.3 40.7 115.2 C 42.6 110.7 38.7 115.0 41.9 111.7 C 39.0 113.2 41.9 107.6 38.8 109.3 C 38.7 104.2 39.6 105.3 40.2 105.8 C 40.7 106.3 41.0 106.9 40.1 104.6 C 39.9 105.9 44.0 105.5 41.6 103.1 C 36.6 103.2 46.4 101.6 39.7 101.5 C 39.7 99.6 40.6 98.5 41.1 98.2 C 41.6 97.8 41.9 98.1 42.2 98.4 C 42.8 99.1 43.2 100.1 44.5 99.2 C 45.1 98.7 42.3 98.1 43.0 97.5 C 45.5 96.3 45.8 97.4 45.8 97.6 C 45.7 97.7 45.1 97.4 46.1 95.6 C 48.6 94.7 49.5 95.6 49.6 96.4 C 49.7 97.2 49.2 98.1 51.2 98.2 C 51.5 96.7 55.1 94.1 55.8 97.5 M 48.5 96.0 C 47.3 97.1 47.7 95.0 48.5 96.0 M 64.2 97.4 C 62.7 98.5 63.3 96.4 64.2 97.4 M 44.9 97.7 C 44.1 99.2 43.8 96.3 44.9 97.7 M 39.2 131.8 C 39.2 129.0 40.0 133.1 39.2 131.8 M 58.2 97.6 C 56.0 98.9 57.6 95.9 58.2 97.6 M 61.0 95.1 C 60.8 95.1 60.8 95.1 61.0 95.1 M 41.8 135.8 C 41.8 136.0 41.8 136.0 41.8 135.8 M 41.9 125.0 C 41.8 127.3 41.2 123.7 41.9 125.0 M 31.1 124.6 C 31.0 126.9 30.5 123.2 31.1 124.6 M 42.0 142.1 C 42.8 145.1 40.8 143.0 42.0 142.1 M 39.8 148.0 C 41.0 149.4 38.9 149.1 39.8 148.0 M 49.6 92.2 C 49.7 92.1 49.7 92.1 49.6 92.2 C 49.6 92.2 49.6 92.2 49.6 92.2 Z M 33.7 102.6 C 35.0 100.4 32.0 105.2 33.7 102.6 M 41.1 101.2 C 38.7 101.5 41.8 99.5 41.1 101.2 C 41.1 101.2 41.1 101.2 41.1 101.2 Z M 41.4 98.8 C 41.3 98.7 41.3 98.7 41.4 98.8 C 41.4 98.8 41.4 98.8 41.4 98.8 Z M 39.3 107.0 C 39.3 106.8 39.3 106.8 39.3 107.0 C 39.3 107.0 39.3 107.0 39.3 107.0 Z M 39.2 104.7 C 38.8 103.9 39.7 103.6 39.2 104.7 C 39.2 104.7 39.2 104.7 39.2 104.7 Z M 32.2 121.7 C 31.7 120.8 32.7 120.5 32.2 121.7 C 32.2 121.7 32.2 121.7 32.2 121.7 Z M 38.8 101.9 C 36.7 101.3 40.5 101.1 38.8 101.9 C 38.8 101.9 38.8 101.9 38.8 101.9 Z M 33.2 113.9 C 33.8 114.9 31.1 116.0 33.2 113.9 M 41.4 138.1 C 42.0 139.1 39.4 140.2 41.4 138.1 M 42.1 114.3 C 42.6 115.3 40.0 116.4 42.1 114.3 M 47.6 97.0 C 47.4 96.8 47.4 96.8 47.6 97.0 M 32.7 97.8 C 32.6 100.2 31.3 98.5 32.7 97.8 M 57.0 88.1 C 55.5 88.9 56.3 87.1 57.0 88.1 M 31.3 134.7 C 31.9 134.7 31.1 137.1 31.3 134.7 M 38.6 117.1 C 38.3 119.2 37.1 121.3 37.3 117.0 C 37.8 116.7 38.1 118.0 38.6 117.1 C 38.6 117.1 38.6 117.1 38.6 117.1 Z M 33.6 124.6 C 33.4 124.9 33.4 124.9 33.6 124.6 M 40.6 120.8 C 40.4 121.1 40.4 121.1 40.6 120.8 M 40.4 133.0 C 40.0 133.2 40.0 133.2 40.4 133.0 M 41.0 134.5 C 40.9 134.5 40.9 134.5 41.0 134.5 C 41.0 134.5 41.0 134.5 41.0 134.5 Z M 42.1 147.8 C 42.0 147.8 42.0 147.8 42.1 147.8 C 42.1 147.8 42.1 147.8 42.1 147.8 Z M 40.1 129.1 C 40.0 129.1 40.0 129.1 40.1 129.1 C 40.1 129.1 40.1 129.1 40.1 129.1 Z M 31.8 140.1 C 31.7 140.1 31.7 140.1 31.8 140.1 C 31.8 140.1 31.8 140.1 31.8 140.1 Z M 33.1 138.7 C 33.0 138.7 33.0 138.7 33.1 138.7 C 33.1 138.7 33.1 138.7 33.1 138.7 Z M 54.8 97.5 C 52.9 99.0 53.8 93.7 54.8 97.5 M 33.1 145.6 C 31.7 147.6 32.7 142.2 33.1 145.6 C 33.1 145.6 33.1 145.6 33.1 145.6 Z M 38.3 127.7 C 38.0 127.8 38.0 127.8 38.3 127.7 M 40.8 135.3 C 40.5 135.4 40.5 135.4 40.8 135.3 M 43.0 102.0 C 42.7 102.0 42.7 102.0 43.0 102.0 M 40.4 145.4 C 40.0 150.9 37.2 143.0 40.4 145.4 M 41.8 99.8 C 42.0 99.8 42.0 99.8 41.8 99.8 M 36.3 109.8 C 36.4 115.1 35.1 107.9 36.3 109.8 M 39.0 119.7 C 38.9 119.6 38.9 119.6 39.0 119.7 C 39.0 119.7 39.0 119.7 39.0 119.7 Z M 39.0 114.1 C 38.7 111.3 39.6 113.4 39.0 114.1 C 39.0 114.1 39.0 114.1 39.0 114.1 Z M 51.4 95.5 C 47.3 95.2 55.6 94.7 51.4 95.5 C 51.4 95.5 51.4 95.5 51.4 95.5 Z M 35.3 142.5 C 35.1 142.3 35.1 142.3 35.3 142.5 C 35.3 142.5 35.3 142.5 35.3 142.5 Z M 41.6 128.4 C 41.1 126.7 42.2 127.6 41.6 128.4 C 41.6 128.4 41.6 128.4 41.6 128.4 Z M 42.3 148.9 C 41.5 148.1 42.8 148.3 42.3 148.9 C 42.3 148.9 42.3 148.9 42.3 148.9 Z M 56.4 95.8 C 43.2 92.2 74.0 96.8 56.4 95.8 C 56.4 95.8 56.4 95.8 56.4 95.8 Z M 40.5 116.3 C 40.4 116.3 40.4 116.3 40.5 116.3 C 40.5 116.3 40.5 116.3 40.5 116.3 Z M 45.1 99.0 C 45.0 98.9 45.0 98.9 45.1 99.0 C 45.1 99.0 45.1 99.0 45.1 99.0 Z M 46.5 96.4 C 46.5 96.3 46.5 96.3 46.5 96.4 C 46.5 96.4 46.5 96.4 46.5 96.4 Z M 43.8 88.3 C 43.8 88.2 43.8 88.2 43.8 88.3 C 43.8 88.3 43.8 88.3 43.8 88.3 Z M 43.5 92.5 C 43.6 92.2 43.6 92.2 43.5 92.5 C 43.5 92.5 43.5 92.5 43.5 92.5 Z M 51.5 90.0 C 51.7 89.9 51.7 89.9 51.5 90.0 C 51.5 90.0 51.5 90.0 51.5 90.0 Z M 51.3 88.9 C 51.4 88.8 51.4 88.8 51.3 88.9 C 51.3 88.9 51.3 88.9 51.3 88.9 Z M 38.4 135.3 C 38.2 135.2 38.2 135.2 38.4 135.3 C 38.4 135.3 38.4 135.3 38.4 135.3 Z M 34.8 130.7 C 36.1 133.8 33.0 129.8 34.8 130.7 C 34.8 130.7 34.8 130.7 34.8 130.7 Z M 36.8 102.9 C 37.0 105.4 35.9 101.3 36.8 102.9 C 36.8 102.9 36.8 102.9 36.8 102.9 Z M 32.0 105.6 C 31.9 105.6 31.9 105.6 32.0 105.6 C 32.0 105.6 32.0 105.6 32.0 105.6 Z M 46.9 98.5 C 46.9 98.3 46.9 98.3 46.9 98.5 C 46.9 98.5 46.9 98.5 46.9 98.5 Z M 50.7 96.7 C 50.9 94.9 52.4 97.6 50.7 96.7 M 41.7 108.2 C 41.4 108.2 41.4 108.2 41.7 108.2 C 41.7 108.2 41.7 108.2 41.7 108.2 Z M 38.9 125.3 C 38.7 125.3 38.7 125.3 38.9 125.3 C 38.9 125.3 38.9 125.3 38.9 125.3 Z M 40.0 142.0 C 39.8 141.9 39.8 141.9 40.0 142.0 C 40.0 142.0 40.0 142.0 40.0 142.0 Z M 41.4 119.1 C 41.2 119.0 41.2 119.0 41.4 119.1 C 41.4 119.1 41.4 119.1 41.4 119.1 Z M 39.8 111.3 C 39.6 111.2 39.6 111.2 39.8 111.3 C 39.8 111.3 39.8 111.3 39.8 111.3 Z M 37.5 146.1 C 37.4 146.0 37.4 146.0 37.5 146.1 C 37.5 146.1 37.5 146.1 37.5 146.1 Z M 41.7 120.9 C 41.6 120.8 41.6 120.8 41.7 120.9 C 41.7 120.9 41.7 120.9 41.7 120.9 Z M 36.0 125.6 C 35.8 125.5 35.8 125.5 36.0 125.6 C 36.0 125.6 36.0 125.6 36.0 125.6 Z M 50.1 99.3 C 50.1 99.2 50.1 99.2 50.1 99.3 C 50.1 99.3 50.1 99.3 50.1 99.3 Z M 39.9 146.1 C 39.8 146.1 39.8 146.1 39.9 146.1 C 39.9 146.1 39.9 146.1 39.9 146.1 Z M 41.6 146.8 C 41.5 146.8 41.5 146.8 41.6 146.8 C 41.6 146.8 41.6 146.8 41.6 146.8 Z M 32.9 134.8 C 33.9 129.1 33.3 140.0 35.3 135.8 C 35.8 144.1 32.8 136.1 32.9 134.8 C 32.9 134.8 32.9 134.8 32.9 134.8 Z M 32.9 134.8 " fill="#FF2600"></path></g></svg>